<svg width="424" height="402" viewBox="0 0 424 402" fill="none" xmlns="http://www.w3.org/2000/svg">
<path d="M252.017 256.774C252.094 256.844 252.168 256.918 252.238 256.996L252.869 257.648L255.303 260.226L264.485 270.062L297.023 305.144H296.647L333.555 262.87L333.81 262.583L334.02 262.904L336.708 266.953L364.633 308.994L364.246 308.928L391.086 287.487L391.241 287.365L391.373 287.509L411.863 310.742L417.395 317.082L418.833 318.741C419.154 319.118 419.309 319.317 419.309 319.317C419.309 319.317 419.121 319.14 418.789 318.786L417.329 317.082L411.686 310.82L391.064 287.752H391.351L364.577 309.337L364.356 309.514L364.19 309.271L336.233 267.296L333.533 263.236H333.987C320.556 278.614 307.921 293.052 297.034 305.509L296.846 305.72L296.658 305.509C283.293 290.972 272.108 278.824 264.264 270.283L255.192 260.326L252.813 257.693C252.559 257.394 252.36 257.173 252.205 257.007C252.05 256.841 252.006 256.785 252.017 256.774Z" fill="#E6E6E6"/>
<path d="M293.207 305.432C293.2 306.201 293.422 306.954 293.845 307.596C294.268 308.238 294.873 308.739 295.582 309.036C296.291 309.333 297.072 309.413 297.826 309.264C298.58 309.116 299.273 308.747 299.817 308.203C300.36 307.66 300.73 306.967 300.878 306.212C301.027 305.458 300.947 304.677 300.65 303.968C300.353 303.259 299.851 302.655 299.209 302.232C298.568 301.809 297.814 301.586 297.046 301.593C296.029 301.599 295.056 302.005 294.338 302.724C293.619 303.442 293.212 304.416 293.207 305.432Z" fill="#E0E0E0"/>
<path d="M360.993 310.046C360.998 310.812 361.229 311.56 361.659 312.195C362.089 312.829 362.697 313.322 363.407 313.611C364.117 313.899 364.896 313.971 365.647 313.816C366.397 313.662 367.085 313.288 367.623 312.742C368.161 312.196 368.525 311.503 368.669 310.751C368.813 309.998 368.73 309.219 368.431 308.514C368.132 307.808 367.631 307.207 366.99 306.786C366.35 306.366 365.599 306.145 364.832 306.152C363.807 306.16 362.827 306.575 362.108 307.305C361.388 308.035 360.987 309.021 360.993 310.046Z" fill="#E0E0E0"/>
<path d="M387.357 288.726C387.364 289.489 387.597 290.234 388.027 290.865C388.456 291.496 389.064 291.986 389.772 292.272C390.48 292.558 391.257 292.628 392.004 292.473C392.752 292.317 393.437 291.944 393.972 291.399C394.507 290.854 394.869 290.163 395.012 289.413C395.154 288.663 395.071 287.887 394.773 287.184C394.475 286.481 393.975 285.882 393.336 285.464C392.698 285.045 391.949 284.825 391.185 284.831C390.162 284.843 389.185 285.259 388.468 285.989C387.751 286.718 387.352 287.702 387.357 288.726Z" fill="#E0E0E0"/>
<path d="M329.904 263.391C329.909 264.157 330.14 264.905 330.57 265.539C331 266.174 331.608 266.667 332.318 266.955C333.028 267.244 333.807 267.316 334.558 267.161C335.308 267.006 335.996 266.632 336.534 266.087C337.072 265.541 337.436 264.848 337.58 264.095C337.724 263.343 337.641 262.564 337.342 261.858C337.043 261.153 336.542 260.552 335.901 260.131C335.261 259.711 334.51 259.49 333.743 259.496C332.718 259.505 331.739 259.92 331.019 260.65C330.299 261.38 329.898 262.366 329.904 263.391Z" fill="#E0E0E0"/>
<path d="M416.255 319.428C416.26 320.194 416.492 320.942 416.921 321.576C417.351 322.211 417.959 322.704 418.669 322.992C419.379 323.281 420.158 323.353 420.909 323.198C421.659 323.043 422.347 322.67 422.885 322.124C423.423 321.578 423.787 320.885 423.931 320.132C424.075 319.38 423.992 318.601 423.693 317.896C423.395 317.19 422.893 316.589 422.252 316.168C421.612 315.748 420.861 315.527 420.094 315.533C419.069 315.542 418.09 315.957 417.37 316.687C416.65 317.417 416.25 318.403 416.255 319.428Z" fill="#E0E0E0"/>
<path d="M77.1133 26.4424H52.2534V125.317H77.1133V26.4424Z" fill="#E6E6E6"/>
<path d="M113.678 48.0049H88.8184V125.306H113.678V48.0049Z" fill="#E6E6E6"/>
<path d="M150.808 65.6621H125.948V125.306H150.808V65.6621Z" fill="#E6E6E6"/>
<path d="M185.182 89.8916H160.322V125.317H185.182V89.8916Z" fill="#E6E6E6"/>
<path d="M165.279 1.77051C165.279 1.77051 165.046 2.06922 164.593 2.60028L162.524 4.97894L154.658 13.9404L126.291 46.0248L126.136 46.1907L125.959 46.058L107.449 31.8745H107.826L81.9368 64.689L81.627 65.0873L81.4389 65.3307L81.2066 65.1205L46.3453 34.3306H46.7325C33.0469 52.2978 21.4523 67.643 13.1546 78.4963L3.49608 91.1198L0.918278 94.4389L0.2434 95.2908C0.168074 95.3915 0.0867947 95.4875 0 95.5785C0.0628462 95.4705 0.133086 95.367 0.21021 95.2687L0.851891 94.3836L3.36333 90.9871L12.8891 78.2751L46.301 33.9544L46.478 33.7221L46.6882 33.9102L81.5938 64.6226H81.1734L81.4832 64.2243L107.405 31.4319L107.571 31.2217L107.781 31.3877L126.257 45.5601H125.925L154.436 13.7302C157.877 9.91329 160.577 6.91507 162.424 4.87937L164.537 2.55602C165.024 2.00284 165.279 1.77051 165.279 1.77051Z" fill="#E6E6E6"/>
<path d="M161.174 24.7049C161.165 24.5371 161.184 24.3689 161.229 24.2071L161.506 22.7909C161.793 21.4744 162.181 19.7263 162.612 17.5911C163.597 13.1656 164.991 7.12493 166.595 0.354034L166.949 0.68594L165.699 1.07316C158.762 3.20843 152.478 5.1003 147.92 6.45005L142.51 8.01002L141.027 8.40831C140.857 8.4717 140.678 8.50538 140.496 8.50788C140.655 8.42166 140.822 8.35125 140.994 8.29767L142.443 7.79981L147.798 6.06283C152.323 4.61351 158.596 2.65525 165.5 0.531051L166.75 0.154889L167.237 0L167.115 0.497857C165.577 7.30195 164.172 13.3205 163.066 17.6906C162.524 19.8038 162.081 21.5408 161.76 22.8463C161.605 23.3884 161.473 23.853 161.373 24.2292C161.33 24.3967 161.263 24.557 161.174 24.7049Z" fill="#E6E6E6"/>
<path d="M357.286 168.952C362.226 168.871 367.079 170.258 371.231 172.935C375.383 175.613 378.648 179.461 380.613 183.994C382.578 188.527 383.155 193.541 382.27 198.402C381.386 203.263 379.08 207.752 375.644 211.303C372.208 214.853 367.797 217.305 362.968 218.348C358.139 219.391 353.108 218.979 348.513 217.164C343.918 215.348 339.965 212.211 337.153 208.149C334.34 204.087 332.796 199.282 332.714 194.342C332.614 187.719 335.144 181.326 339.751 176.566C344.357 171.807 350.664 169.068 357.286 168.952ZM357.884 205.882C360.246 205.838 362.541 205.095 364.481 203.746C366.42 202.398 367.917 200.505 368.781 198.307C369.645 196.109 369.839 193.703 369.337 191.395C368.835 189.087 367.66 186.98 365.96 185.339C364.261 183.698 362.113 182.598 359.789 182.178C357.465 181.757 355.068 182.035 352.901 182.976C350.735 183.917 348.895 185.479 347.616 187.464C346.337 189.45 345.675 191.77 345.714 194.132C345.741 195.703 346.078 197.253 346.704 198.693C347.331 200.134 348.235 201.437 349.365 202.528C350.495 203.619 351.829 204.477 353.291 205.052C354.753 205.628 356.313 205.91 357.884 205.882Z" fill="#E0E0E0"/>
<path d="M357.243 165.843C364.692 165.736 371.881 168.588 377.231 173.773C382.582 178.957 385.658 186.052 385.787 193.502L368.749 193.944C368.638 186.543 363.626 183.533 357.685 183.157C356.225 183.07 354.763 183.286 353.39 183.791C352.018 184.296 350.765 185.08 349.71 186.094C348.655 187.107 347.822 188.327 347.262 189.678C346.701 191.029 346.427 192.482 346.456 193.944L329.595 194.398C329.479 186.946 332.326 179.754 337.51 174.4C342.694 169.045 349.791 165.968 357.243 165.843Z" fill="#F0F0F0"/>
<path d="M155.001 279.034C163.601 270.01 175.401 264.721 187.861 264.307C200.32 263.894 212.445 268.387 221.625 276.822C226.135 280.978 229.775 285.988 232.334 291.562C234.893 297.135 236.321 303.161 236.534 309.291C236.747 315.42 235.741 321.53 233.575 327.268C231.409 333.006 228.126 338.257 223.916 342.716C215.315 351.741 203.515 357.029 191.056 357.443C178.596 357.857 166.471 353.363 157.291 344.929C152.781 340.773 149.141 335.762 146.582 330.189C144.023 324.615 142.595 318.589 142.382 312.46C142.169 306.331 143.175 300.22 145.341 294.482C147.507 288.745 150.79 283.494 155.001 279.034ZM205.893 326.099C207.911 323.968 209.486 321.456 210.524 318.711C211.562 315.965 212.044 313.041 211.941 310.107C211.838 307.174 211.153 304.29 209.924 301.624C208.696 298.958 206.95 296.563 204.787 294.579C200.392 290.551 194.592 288.409 188.634 288.616C182.677 288.823 177.039 291.362 172.935 295.685C170.916 297.816 169.342 300.328 168.304 303.073C167.265 305.819 166.784 308.743 166.886 311.677C166.989 314.61 167.675 317.494 168.903 320.16C170.132 322.826 171.878 325.221 174.041 327.205C178.435 331.243 184.241 333.39 190.205 333.183C196.169 332.976 201.812 330.431 205.915 326.099H205.893Z" fill="#F5F5F5"/>
<path d="M155 279.034C163.601 270.01 175.401 264.721 187.86 264.307C200.32 263.894 212.445 268.387 221.625 276.822L204.831 294.612C200.436 290.584 194.636 288.443 188.678 288.65C182.721 288.856 177.083 291.395 172.979 295.718C170.96 297.849 169.386 300.361 168.348 303.106C167.309 305.852 166.828 308.777 166.93 311.71C167.033 314.643 167.719 317.527 168.947 320.193C170.176 322.859 171.922 325.254 174.085 327.238L157.268 344.962C152.755 340.804 149.113 335.79 146.553 330.213C143.993 324.636 142.566 318.606 142.355 312.472C142.144 306.339 143.153 300.225 145.324 294.485C147.494 288.745 150.784 283.493 155 279.034Z" fill="#E0E0E0"/>
<path d="M219.7 269.177C242.934 290.673 245.755 325.601 224.015 348.657L200.417 328.311C210.805 317.303 213.062 302.6 201.943 292.322L219.7 269.177Z" fill="#EBEBEB"/>
<path d="M197.96 329.772L211.978 357.497C217.774 355.372 222.997 351.93 227.235 347.44L202.054 327.105L197.96 329.772Z" fill="#E0E0E0"/>
<path d="M250.844 73.8498C250.64 61.4223 254.126 49.2133 260.862 38.7676C267.598 28.3218 277.281 20.1085 288.685 15.1668C300.09 10.2251 312.704 8.77697 324.932 11.0056C337.16 13.2343 348.452 19.0396 357.379 27.6871C366.307 36.3347 372.47 47.4359 375.087 59.5864C377.704 71.7369 376.659 84.3907 372.084 95.947C367.508 107.503 359.608 117.443 349.382 124.508C339.156 131.574 327.065 135.448 314.637 135.64C297.992 135.877 281.932 129.506 269.975 117.925C258.018 106.343 251.138 90.4938 250.844 73.8498ZM343.701 72.3562C343.604 66.4165 341.748 60.6389 338.367 55.754C334.987 50.869 330.234 47.0962 324.709 44.9124C319.185 42.7287 313.137 42.2321 307.33 43.4855C301.523 44.7389 296.218 47.686 292.086 51.9541C287.954 56.2222 285.181 61.6197 284.116 67.464C283.051 73.3084 283.744 79.3372 286.105 84.7881C288.467 90.2391 292.392 94.8673 297.384 98.0877C302.376 101.308 308.21 102.976 314.15 102.881C322.114 102.744 329.698 99.4529 335.239 93.7301C340.779 88.0074 343.822 80.3204 343.701 72.3562Z" fill="#FAFAFA"/>
<path d="M250.844 73.8491C250.593 57.193 256.96 41.1176 268.549 29.1514C280.137 17.1851 296.001 10.3058 312.656 10.0234L313.187 42.8048C305.221 42.9324 297.631 46.2195 292.088 51.9429C286.546 57.6663 283.503 65.3572 283.631 73.3236C283.759 81.2901 287.046 88.8795 292.769 94.4224C298.492 99.9653 306.183 103.008 314.15 102.88L314.637 135.639C297.99 135.882 281.926 129.513 269.968 117.93C258.01 106.347 251.132 90.4951 250.844 73.8491Z" fill="#E0E0E0"/>
<path d="M307.014 4.97877C347.54 4.32602 379.878 35.6359 380.52 76.1617L342.163 76.7813C341.853 57.3979 327.039 45.1948 307.666 45.5157L307.014 4.97877Z" fill="#F0F0F0"/>
<path d="M381.018 401.554C381.018 401.708 298.296 401.841 196.257 401.841C94.2174 401.841 11.4951 401.708 11.4951 401.554C11.4951 401.399 94.1953 401.255 196.257 401.255C298.318 401.255 381.018 401.388 381.018 401.554Z" fill="#263238"/>
<path d="M124.864 294.146L329.872 292.675V295.551L124.864 297.388V294.146Z" fill="#263238"/>
<path d="M120.394 85.7207L125.063 295.862L329.872 294.269V82.1914L120.394 85.7207Z" fill="white"/>
<path d="M120.394 85.7199L329.872 81.9473H330.126V82.2017C330.126 142.907 330.126 214.544 330.126 290.971V294.567H329.838L125.03 296.127H124.786V295.883C122.142 169.936 120.416 87.8884 120.361 85.731C120.361 87.8552 122.33 169.936 125.273 295.861L125.03 295.618L329.838 293.992L329.551 294.279V290.96C329.551 214.533 329.551 142.896 329.551 82.1907L329.805 82.4451L120.394 85.7199Z" fill="#263238"/>
<path d="M119.575 87.1255L330.768 85.9195L331.033 77.0576L119.575 78.3742V87.1255Z" fill="#263238"/>
<path d="M220.674 301.593C220.32 301.593 219.944 299.945 219.844 297.887C219.745 295.829 219.966 294.147 220.32 294.125C220.674 294.103 221.05 295.763 221.15 297.82C221.249 299.878 221.039 301.593 220.674 301.593Z" fill="#263238"/>
<path d="M220.597 300.076C220.597 299.999 220.951 299.977 221.504 300.198C221.838 300.339 222.151 300.525 222.433 300.751C222.814 301.057 223.133 301.433 223.374 301.858C223.702 302.446 223.867 303.111 223.851 303.784C223.836 304.457 223.64 305.114 223.285 305.686C223.072 306.031 222.803 306.337 222.489 306.593C222.16 306.857 221.785 307.056 221.382 307.179C220.527 307.415 219.616 307.349 218.804 306.991C218.394 306.808 218.019 306.553 217.698 306.239C217.379 305.924 217.127 305.548 216.957 305.132C216.65 304.378 216.585 303.547 216.769 302.754C216.905 302.092 217.224 301.483 217.689 300.994C218.155 300.505 218.748 300.156 219.402 299.988C220.238 299.759 221.129 299.838 221.913 300.209C222.444 300.475 222.643 300.751 222.599 300.818C222.555 300.884 222.256 300.818 221.747 300.685C221.054 300.556 220.339 300.617 219.678 300.862C219.253 301.027 218.873 301.293 218.572 301.636C218.227 302.041 218.001 302.534 217.921 303.06C217.841 303.586 217.909 304.123 218.118 304.612C218.359 305.138 218.79 305.553 219.324 305.774C219.856 306.012 220.453 306.063 221.017 305.918C221.536 305.784 221.986 305.46 222.278 305.011C222.567 304.587 222.738 304.095 222.776 303.584C222.81 303.352 222.81 303.118 222.776 302.887C222.74 302.669 222.677 302.457 222.588 302.256C222.304 301.605 221.859 301.037 221.294 300.607C220.884 300.32 220.597 300.165 220.597 300.076Z" fill="#263238"/>
<path d="M251.066 200.716C251.066 200.716 251.066 200.716 250.933 200.716H250.557L249.096 200.782L243.465 201.025L222.754 201.8C205.263 202.442 181.089 203.294 154.403 204.212L145.221 204.522H145.01V204.311C143.152 179.894 141.47 158.01 140.308 142.278C139.733 134.423 139.279 128.106 138.959 123.758C138.815 121.545 138.693 119.896 138.616 118.757C138.616 118.182 138.549 117.75 138.538 117.451C138.527 117.153 138.538 117.197 138.538 117.119C138.538 117.042 138.538 117.009 138.538 117.009C138.543 117.045 138.543 117.083 138.538 117.119C138.538 117.197 138.538 117.307 138.538 117.451C138.538 117.595 138.605 118.182 138.66 118.746C138.748 119.852 138.892 121.567 139.08 123.746C139.423 128.094 139.932 134.412 140.563 142.245C141.802 157.933 143.506 179.761 145.386 204.278L145.165 204.079L154.348 203.758C181.033 202.851 205.24 202.043 222.699 201.49L243.421 200.848L249.052 200.694H250.512H251.021L251.066 200.716Z" fill="#455A64"/>
<path d="M176.907 110.204V113.025L206.092 111.631V109.264L176.907 110.204Z" fill="#263238"/>
<path opacity="0.5" d="M154.812 198.303H164.958L163.365 170.766H153.418L154.812 198.303Z" fill="#724FCF"/>
<path opacity="0.5" d="M173.2 198.314H183.334L181.752 159.824H171.806L173.2 198.314Z" fill="#724FCF"/>
<path opacity="0.5" d="M190.415 197.086H200.56L198.967 146.691H189.032L190.415 197.086Z" fill="#724FCF"/>
<path opacity="0.5" d="M229.912 195.128H240.046L238.464 126.445H228.518L229.912 195.128Z" fill="#724FCF"/>
<path opacity="0.5" d="M210.695 195.36H220.829L219.236 136.259H209.301L210.695 195.36Z" fill="#724FCF"/>
<path opacity="0.5" d="M148.44 163.63C148.174 163.221 166.296 151.14 188.899 136.646C211.502 122.153 230.067 110.736 230.332 111.2C230.598 111.665 212.476 123.691 189.862 138.184C167.248 152.678 148.683 164.04 148.44 163.63Z" fill="#724FCF"/>
<path opacity="0.5" d="M220.298 111.155C220.21 110.668 226.77 109.031 234.98 107.482L237.06 107.095L235.876 108.854L235.809 108.953C231.118 115.923 226.958 121.356 226.571 121.123C226.184 120.891 229.647 114.983 234.316 108.002L234.382 107.902L235.289 109.274C227.091 110.768 220.387 111.631 220.298 111.155Z" fill="#724FCF"/>
<path d="M153.418 207.607H164.017L164.349 209.488H153.418V207.607Z" fill="#263238"/>
<path d="M172.183 206.833H182.782L183.113 208.714H172.183V206.833Z" fill="#263238"/>
<path d="M191.5 206.28H202.098L202.43 208.161H191.5V206.28Z" fill="#263238"/>
<path d="M209.6 205.826H220.199L220.53 207.718H209.6V205.826Z" fill="#263238"/>
<path d="M232.025 205.162H242.624L242.956 207.054H232.025V205.162Z" fill="#263238"/>
<path d="M279.832 280.665C298.517 280.665 313.665 265.517 313.665 246.832C313.665 228.147 298.517 213 279.832 213C261.147 213 246 228.147 246 246.832C246 265.517 261.147 280.665 279.832 280.665Z" fill="url(#paint0_linear_5074_2647)"/>
<path d="M279.566 246.275L246.563 253.698C241.252 229.359 260.879 212.442 279.566 212.442" fill="#9578E3"/>
<path d="M279.61 246.275L279.389 212.442C304.304 212.442 316.651 235.222 312.668 253.477L279.61 246.275Z" fill="#FF725E"/>
<path d="M279.61 246.275L279.389 212.442C304.304 212.442 316.651 235.222 312.668 253.477L279.61 246.275Z" fill="#FF725E"/>
<path d="M279.61 246.275L279.389 212.442C304.304 212.442 316.651 235.222 312.668 253.477L279.61 246.275Z" fill="#724FCF"/>
<path d="M314.272 166.208C313.615 165.768 312.914 165.397 312.181 165.101C310.137 164.476 307.946 164.538 305.941 165.278C303.352 166.086 300.785 168.144 298.296 170.722C295.807 173.299 293.14 176.419 289.246 178.245C287.367 179.179 285.252 179.529 283.172 179.252C281.296 178.862 279.482 178.214 277.784 177.327C276.289 176.548 274.691 175.986 273.038 175.656C271.6 175.43 270.128 175.614 268.79 176.187C266.82 177.023 265.21 178.527 264.242 180.435C263.931 181.152 263.676 181.892 263.479 182.648C263.514 181.848 263.705 181.062 264.043 180.336C264.97 178.321 266.598 176.713 268.624 175.811C270.011 175.193 271.544 174.975 273.049 175.18C274.757 175.497 276.411 176.056 277.961 176.84C279.615 177.698 281.38 178.323 283.205 178.698C285.173 178.943 287.17 178.605 288.947 177.725C292.687 175.977 295.309 172.879 297.865 170.345C300.42 167.812 303.064 165.677 305.753 164.891C307.841 164.163 310.115 164.163 312.203 164.891C312.76 165.106 313.285 165.396 313.763 165.754C313.951 165.884 314.122 166.036 314.272 166.208Z" fill="#263238"/>
<path d="M317.137 188.07C317.137 188.236 305.122 188.358 290.308 188.358C275.494 188.358 263.479 188.236 263.479 188.07C263.479 187.904 275.494 187.782 290.308 187.782C305.122 187.782 317.137 187.915 317.137 188.07Z" fill="#263238"/>
<path d="M314.15 188.07C313.995 188.07 313.862 181.233 313.862 172.791C313.862 164.35 313.995 157.523 314.15 157.523C314.305 157.523 314.438 164.361 314.438 172.791C314.438 181.222 314.316 188.07 314.15 188.07Z" fill="#263238"/>
<path d="M268.889 175.203C268.889 175.203 268.812 175.092 268.889 174.893C268.94 174.753 269.021 174.626 269.126 174.521C269.231 174.416 269.358 174.335 269.498 174.284C269.708 174.191 269.94 174.158 270.168 174.187C270.396 174.216 270.612 174.307 270.792 174.45C270.987 174.669 271.102 174.947 271.118 175.24C271.135 175.533 271.051 175.822 270.881 176.061C270.712 176.3 270.466 176.474 270.185 176.556C269.903 176.637 269.602 176.62 269.332 176.508C269.141 176.394 268.984 176.232 268.877 176.038C268.77 175.843 268.717 175.624 268.723 175.402C268.721 175.254 268.748 175.108 268.803 174.971C268.858 174.834 268.94 174.71 269.044 174.605C269.21 174.473 269.332 174.473 269.343 174.495C269.354 174.517 269.044 174.815 269.121 175.38C269.137 175.525 269.186 175.664 269.265 175.787C269.343 175.91 269.45 176.013 269.575 176.088C269.73 176.127 269.894 176.118 270.044 176.063C270.194 176.008 270.324 175.909 270.417 175.779C270.511 175.649 270.562 175.494 270.566 175.334C270.57 175.174 270.525 175.016 270.438 174.882C270.327 174.791 270.195 174.728 270.055 174.699C269.914 174.67 269.768 174.676 269.63 174.716C269.066 174.804 268.966 175.225 268.889 175.203Z" fill="#263238"/>
<path d="M305.067 164.106C305.067 164.106 305.067 163.973 305.266 163.863C305.524 163.734 305.821 163.71 306.096 163.796C306.314 163.856 306.512 163.974 306.668 164.138C306.824 164.301 306.932 164.505 306.981 164.726C306.998 165.011 306.919 165.294 306.755 165.528C306.592 165.763 306.354 165.936 306.081 166.019C305.807 166.102 305.514 166.09 305.248 165.986C304.981 165.882 304.758 165.692 304.614 165.445C304.534 165.232 304.513 165.001 304.554 164.777C304.595 164.553 304.696 164.344 304.846 164.173C305.033 163.952 305.299 163.813 305.587 163.785C305.786 163.785 305.886 163.852 305.875 163.885C305.864 163.918 305.454 163.94 305.178 164.416C305.101 164.535 305.053 164.669 305.038 164.809C305.023 164.95 305.04 165.091 305.089 165.224C305.187 165.343 305.317 165.431 305.465 165.476C305.612 165.52 305.769 165.52 305.917 165.475C306.064 165.43 306.194 165.342 306.291 165.222C306.388 165.103 306.447 164.957 306.461 164.803C306.432 164.666 306.37 164.537 306.282 164.427C306.194 164.318 306.081 164.23 305.952 164.173C305.465 163.929 305.122 164.184 305.067 164.106Z" fill="#263238"/>
<path d="M313.199 127.895C313.199 128.05 301.56 128.183 287.21 128.183C272.861 128.183 261.222 128.05 261.222 127.895C261.222 127.74 272.85 127.607 287.21 127.607C301.571 127.607 313.199 127.762 313.199 127.895Z" fill="#263238"/>
<path d="M313.199 135.141C313.199 135.307 301.56 135.429 287.21 135.429C272.861 135.429 261.222 135.307 261.222 135.141C261.222 134.975 272.85 134.854 287.21 134.854C301.571 134.854 313.199 134.986 313.199 135.141Z" fill="#263238"/>
<path d="M313.199 142.366C313.199 142.521 301.56 142.653 287.21 142.653C272.861 142.653 261.222 142.521 261.222 142.366C261.222 142.211 272.85 142.078 287.21 142.078C301.571 142.078 313.199 142.2 313.199 142.366Z" fill="#263238"/>
<path d="M313.199 149.58C313.199 149.746 301.56 149.867 287.21 149.867C272.861 149.867 261.222 149.746 261.222 149.58C261.222 149.414 272.85 149.292 287.21 149.292C301.571 149.292 313.199 149.425 313.199 149.58Z" fill="#263238"/>
<path d="M288.881 114.718H261.222V117.052H288.881V114.718Z" fill="#263238"/>
<path d="M174.705 230.62H147.046V232.955H174.705V230.62Z" fill="#263238"/>
<path d="M222.732 244.151C222.732 244.317 205.949 244.439 185.249 244.439C164.549 244.439 147.754 244.317 147.754 244.151C147.754 243.985 164.538 243.863 185.249 243.863C205.96 243.863 222.732 243.996 222.732 244.151Z" fill="#263238"/>
<path d="M223.175 250.7C223.175 250.855 206.093 250.987 185.028 250.987C163.963 250.987 146.88 250.855 146.88 250.7C146.88 250.545 163.951 250.412 185.028 250.412C206.104 250.412 223.175 250.567 223.175 250.7Z" fill="#263238"/>
<path d="M224.048 256.874C224.048 257.028 206.867 257.161 185.68 257.161C164.493 257.161 147.312 257.028 147.312 256.874C147.312 256.719 164.493 256.586 185.68 256.586C206.867 256.586 224.048 256.708 224.048 256.874Z" fill="#263238"/>
<path d="M187.218 263.446C187.218 263.601 178.367 263.733 167.481 263.733C156.594 263.733 147.754 263.601 147.754 263.446C147.754 263.291 156.605 263.158 167.481 263.158C178.356 263.158 187.218 263.291 187.218 263.446Z" fill="#263238"/>
<path d="M53.1887 397.1V388.726L37.4369 388.587L37.3066 400.896L38.237 400.961C42.5821 401.231 60.3435 402.022 63.2557 401.166C66.5494 400.198 53.1887 397.1 53.1887 397.1Z" fill="#FF725E"/>
<path d="M63.6743 400.394C63.6743 400.543 57.7848 400.664 50.5183 400.664C43.2518 400.664 37.353 400.543 37.353 400.394C37.353 400.245 43.2518 400.124 50.5183 400.124C57.7848 400.124 63.6743 400.245 63.6743 400.394Z" fill="#263238"/>
<path d="M53.4676 398.822C53.3373 398.747 53.4676 398.291 53.7839 397.891C54.1002 397.491 54.5375 397.231 54.6306 397.333C54.7236 397.435 54.5189 397.817 54.2119 398.263C53.9048 398.71 53.5978 398.896 53.4676 398.822Z" fill="#263238"/>
<path d="M54.4729 399.371C54.3333 399.315 54.4078 398.813 54.7148 398.292C55.0219 397.771 55.4312 397.454 55.5429 397.547C55.6545 397.64 55.4684 398.078 55.18 398.562C54.8916 399.045 54.6125 399.427 54.4729 399.371Z" fill="#263238"/>
<path d="M42.0886 400.339C42.0235 400.385 41.7816 400.162 41.4373 399.79C41.0183 399.304 40.5541 398.858 40.051 398.459C39.5493 398.091 38.9646 397.851 38.3484 397.762C37.8739 397.697 37.5668 397.762 37.5389 397.687C37.511 397.613 37.8087 397.417 38.3577 397.38C39.0811 397.359 39.79 397.586 40.3674 398.022C40.9177 398.444 41.3847 398.965 41.7444 399.557C42.0328 399.995 42.163 400.292 42.0886 400.339Z" fill="#263238"/>
<path d="M53.5144 397.24C53.5889 397.361 53.3098 397.659 52.8632 397.817C52.4166 397.975 52.0165 397.92 51.9979 397.771C51.9793 397.622 52.2863 397.454 52.6864 397.315C53.0865 397.175 53.4307 397.11 53.5144 397.24Z" fill="#263238"/>
<path d="M53.2539 396.422C53.2539 396.571 52.8445 396.701 52.3235 396.71C51.8024 396.719 51.3931 396.598 51.3931 396.45C51.3931 396.301 51.8211 396.18 52.3235 396.17C52.8259 396.161 53.2539 396.273 53.2539 396.422Z" fill="#FF725E"/>
<path d="M63.6743 400.394C63.6743 400.543 57.7848 400.664 50.5183 400.664C43.2518 400.664 37.353 400.543 37.353 400.394C37.353 400.245 43.2518 400.124 50.5183 400.124C57.7848 400.124 63.6743 400.245 63.6743 400.394Z" fill="#263238"/>
<path d="M53.4676 398.822C53.3373 398.747 53.4676 398.291 53.7839 397.891C54.1002 397.491 54.5375 397.231 54.6306 397.333C54.7236 397.435 54.5189 397.817 54.2119 398.263C53.9048 398.71 53.5978 398.896 53.4676 398.822Z" fill="#263238"/>
<path d="M54.4729 399.371C54.3333 399.315 54.4078 398.813 54.7148 398.292C55.0219 397.771 55.4312 397.454 55.5429 397.547C55.6545 397.64 55.4684 398.078 55.18 398.562C54.8916 399.045 54.6125 399.427 54.4729 399.371Z" fill="#263238"/>
<path d="M42.0886 400.339C42.0235 400.385 41.7816 400.162 41.4373 399.79C41.0183 399.304 40.5541 398.858 40.051 398.459C39.5493 398.091 38.9646 397.851 38.3484 397.762C37.8739 397.697 37.5668 397.762 37.5389 397.687C37.511 397.613 37.8087 397.417 38.3577 397.38C39.0811 397.359 39.79 397.586 40.3674 398.022C40.9177 398.444 41.3847 398.965 41.7444 399.557C42.0328 399.995 42.163 400.292 42.0886 400.339Z" fill="#263238"/>
<path d="M53.5144 397.24C53.5889 397.361 53.3098 397.659 52.8632 397.817C52.4166 397.975 52.0165 397.92 51.9979 397.771C51.9793 397.622 52.2863 397.454 52.6864 397.315C53.0865 397.175 53.4307 397.11 53.5144 397.24Z" fill="#263238"/>
<path d="M53.2539 396.422C53.2539 396.571 52.8445 396.701 52.3235 396.71C51.8024 396.719 51.3931 396.598 51.3931 396.45C51.3931 396.301 51.8211 396.18 52.3235 396.17C52.8259 396.161 53.2539 396.273 53.2539 396.422Z" fill="#263238"/>
<path d="M69.806 394.123L72.2902 386.094L57.2734 381.33L53.5518 393.044L54.4822 393.397C58.548 394.942 75.2861 400.952 78.3192 400.999C81.6501 401.036 69.806 394.123 69.806 394.123Z" fill="#FF725E"/>
<path d="M78.8494 400.366C78.8494 400.515 73.1367 398.887 66.1958 396.728C59.255 394.57 53.6632 392.718 53.7098 392.579C53.7563 392.439 59.4132 394.067 66.3633 396.217C73.3134 398.366 78.8959 400.227 78.8494 400.366Z" fill="#263238"/>
<path d="M69.5638 395.845C69.4615 395.733 69.7034 395.342 70.15 395.017C70.5966 394.691 71.0804 394.607 71.1269 394.737C71.1734 394.868 70.8757 395.165 70.4663 395.463C70.0569 395.761 69.6662 395.947 69.5638 395.845Z" fill="#263238"/>
<path d="M70.3548 396.673C70.2432 396.58 70.4572 396.114 70.9131 395.742C71.369 395.37 71.8435 395.156 71.9272 395.277C72.011 395.398 71.6946 395.761 71.2759 396.142C70.8572 396.524 70.4758 396.728 70.3548 396.673Z" fill="#263238"/>
<path d="M58.2592 393.936C58.1848 393.936 58.0266 393.685 57.8126 393.22C57.557 392.633 57.2454 392.072 56.8822 391.545C56.5128 391.046 56.0274 390.643 55.468 390.373C55.0307 390.178 54.7144 390.14 54.7144 390.066C54.7144 389.992 55.0493 389.88 55.5889 390.01C56.2829 390.207 56.8896 390.634 57.3102 391.22C57.7086 391.783 58.0017 392.413 58.1755 393.08C58.2964 393.583 58.3243 393.936 58.2592 393.936Z" fill="#455A64"/>
<path d="M70.0754 394.347C70.0754 394.486 69.7591 394.691 69.2846 394.71C68.8101 394.728 68.4379 394.551 68.4658 394.403C68.4937 394.254 68.8473 394.189 69.266 394.17C69.6847 394.151 70.001 394.198 70.0754 394.347Z" fill="#263238"/>
<path d="M70.0756 393.5C70.0756 393.639 69.6104 393.639 69.0987 393.5C68.587 393.36 68.2241 393.109 68.2706 392.969C68.3171 392.83 68.7637 392.839 69.2475 392.969C69.7314 393.1 70.1128 393.351 70.0756 393.5Z" fill="#263238"/>
<path d="M80.4961 230.772L59.8224 229.181L28.5049 226.641L32.0032 394.868L59.199 394.514C59.199 394.514 59.199 392.653 59.1339 389.36L75.0811 393.723C75.0811 393.723 90.6189 341.23 95.9129 319.691C100.332 301.743 80.4961 230.772 80.4961 230.772ZM58.8362 363.234C58.4268 324.399 57.9523 258.358 58.5198 250.282C58.5198 250.282 73.6669 308.423 73.8064 313.01C73.8995 315.783 65.4607 342.616 58.8362 363.234Z" fill="#455A64"/>
<path d="M59.3481 388.141C59.3481 388.29 53.2632 388.411 45.7642 388.411C38.2651 388.411 32.1709 388.29 32.1709 388.141C32.1709 387.992 38.2558 387.871 45.7642 387.871C53.2725 387.871 59.3481 387.992 59.3481 388.141Z" fill="#455A64"/>
<path d="M59.106 382.094C59.9566 382.295 60.7903 382.563 61.5995 382.894L67.8239 385.062L74.0483 387.239C74.9286 387.491 75.7824 387.827 76.5976 388.244C75.6887 388.117 74.7944 387.902 73.9274 387.602C72.3085 387.127 70.0848 386.42 67.6471 385.573C65.2094 384.727 62.9951 383.889 61.4692 383.247C60.6318 382.974 59.8365 382.586 59.106 382.094Z" fill="#455A64"/>
<path d="M84.0223 312.489C82.3402 312.881 80.6223 313.1 78.8957 313.141C77.1832 313.359 75.4527 313.4 73.7319 313.261C75.413 312.862 77.1312 312.641 78.8585 312.601C80.571 312.382 82.3019 312.345 84.0223 312.489Z" fill="#455A64"/>
<path d="M82.2453 315.541C80.9078 315.428 79.5909 315.14 78.3282 314.685C77.0142 314.398 75.7439 313.938 74.5508 313.317C75.8921 313.419 77.2131 313.704 78.4771 314.164C80.5984 314.778 82.2918 315.392 82.2453 315.541Z" fill="#455A64"/>
<path d="M61.0225 229.395C61.1474 230.457 61.1941 231.526 61.162 232.595C61.162 234.577 61.162 237.312 61.162 240.336C61.162 241.834 61.162 243.267 61.1062 244.588C61.1403 245.778 60.9181 246.962 60.4549 248.059C60.1249 248.806 59.5974 249.449 58.929 249.919C58.7012 250.108 58.429 250.236 58.1382 250.291C58.1382 250.291 58.3987 250.124 58.8174 249.77C59.4049 249.267 59.8614 248.628 60.1479 247.91C60.5358 246.844 60.7097 245.712 60.6596 244.579C60.6596 243.248 60.6596 241.788 60.6596 240.318C60.6596 237.294 60.734 234.558 60.7899 232.586C60.7869 231.518 60.8646 230.451 61.0225 229.395Z" fill="#455A64"/>
<path d="M45.4571 228.445C45.4672 228.582 45.4672 228.718 45.4571 228.855C45.4571 229.152 45.4571 229.552 45.4571 230.064C45.4571 231.143 45.3734 232.707 45.3083 234.716C45.178 238.764 44.9919 244.579 44.7593 251.752C44.322 266.136 43.8754 286.019 43.7638 307.967C43.6521 329.916 43.9034 349.836 44.1918 364.21C44.35 371.384 44.4709 377.236 44.5639 381.246C44.5639 383.247 44.6384 384.8 44.6663 385.898C44.6663 386.41 44.6663 386.829 44.6663 387.108C44.6763 387.244 44.6763 387.381 44.6663 387.517C44.6563 387.381 44.6563 387.244 44.6663 387.108C44.6663 386.819 44.6663 386.419 44.6012 385.907C44.6012 384.819 44.4988 383.265 44.4151 381.255C44.2569 377.236 44.0708 371.412 43.8847 364.22C43.5033 349.826 43.2055 329.943 43.3172 307.967C43.4288 285.991 43.9313 266.099 44.4523 251.743C44.7128 244.551 44.9547 238.717 45.1594 234.707C45.2618 232.716 45.3455 231.162 45.4013 230.055C45.4013 229.543 45.4571 229.125 45.4757 228.845C45.46 228.713 45.4538 228.579 45.4571 228.445Z" fill="#455A64"/>
<path d="M73.723 232.68C73.7795 232.803 73.8261 232.931 73.8625 233.061C73.9463 233.34 74.0672 233.712 74.2161 234.196C74.5138 235.192 74.9883 236.662 75.5094 238.578C76.5793 242.402 78.0215 247.957 79.6311 254.87C81.2407 261.783 83.0271 270.026 84.8879 279.219C86.7487 288.411 88.7118 298.534 90.4703 309.215C90.6936 310.555 90.8983 311.885 91.0751 313.216C91.0751 313.569 91.1402 313.932 91.1402 314.276L90.9727 315.263C90.8518 315.923 90.7587 316.584 90.6099 317.226C90.0795 319.812 89.4841 322.343 88.8421 324.818C87.5767 329.768 86.237 334.504 84.9158 339.007C82.292 348.013 79.7613 356.07 77.6121 362.834C75.4628 369.598 73.6672 375.041 72.4018 378.8L70.9317 383.127L70.5317 384.252C70.497 384.382 70.447 384.507 70.3828 384.625C70.4071 384.492 70.4413 384.361 70.4852 384.234C70.5782 383.955 70.6898 383.583 70.8387 383.099L72.225 378.744L77.2864 362.732C79.3892 355.959 81.8827 347.892 84.4878 338.886C85.7904 334.383 87.1208 329.637 88.3862 324.697C89.0189 322.231 89.6143 319.71 90.1447 317.133C90.2935 316.491 90.3773 315.84 90.4889 315.188L90.6564 314.211C90.6564 313.895 90.6099 313.588 90.5913 313.281C90.4145 311.969 90.2191 310.639 89.9958 309.308C88.228 298.636 86.2742 288.513 84.4134 279.321C82.5525 270.129 80.8685 261.82 79.3054 254.944C77.7423 248.069 76.3374 242.458 75.3233 238.625C74.8395 236.708 74.3929 235.229 74.123 234.224L73.816 233.08C73.7703 232.95 73.7391 232.816 73.723 232.68Z" fill="#455A64"/>
<path d="M58.7525 359.819C58.8274 360.252 58.8555 360.692 58.8362 361.131C58.8362 362.062 58.8363 363.28 58.8828 364.723C58.8828 367.839 58.9944 371.98 59.0596 376.548C59.1247 381.116 59.3014 385.257 59.3852 388.374C59.3852 389.816 59.4596 391.025 59.4875 391.965C59.5296 392.401 59.5296 392.841 59.4875 393.277C59.3849 392.85 59.3287 392.413 59.3201 391.974C59.2456 391.128 59.1619 389.909 59.0688 388.392C58.8828 385.368 58.706 381.182 58.6036 376.557C58.5013 371.933 58.5199 367.746 58.6036 364.723C58.6036 363.206 58.6688 361.931 58.706 361.131C58.6871 360.693 58.7027 360.255 58.7525 359.819Z" fill="#455A64"/>
<path d="M80.4961 230.772L59.8224 229.181L28.5049 226.641L32.0032 394.868L59.199 394.514C59.199 394.514 59.199 392.653 59.1339 389.36L75.0811 393.723C75.0811 393.723 90.6189 341.23 95.9129 319.691C100.332 301.743 80.4961 230.772 80.4961 230.772ZM58.8362 363.234C58.4268 324.399 57.9523 258.358 58.5198 250.282C58.5198 250.282 73.6669 308.423 73.8064 313.01C73.8995 315.783 65.4607 342.616 58.8362 363.234Z" fill="#263238"/>
<path d="M59.3481 388.141C59.3481 388.29 53.2632 388.411 45.7642 388.411C38.2651 388.411 32.1709 388.29 32.1709 388.141C32.1709 387.992 38.2558 387.871 45.7642 387.871C53.2725 387.871 59.3481 387.992 59.3481 388.141Z" fill="#455A64"/>
<path d="M59.106 382.094C59.9566 382.295 60.7903 382.563 61.5995 382.894L67.8239 385.062L74.0483 387.239C74.9286 387.491 75.7824 387.827 76.5976 388.244C75.6887 388.117 74.7944 387.902 73.9274 387.602C72.3085 387.127 70.0848 386.42 67.6471 385.573C65.2094 384.727 62.9951 383.889 61.4692 383.247C60.6318 382.974 59.8365 382.586 59.106 382.094Z" fill="#455A64"/>
<path d="M84.0223 312.489C82.3402 312.881 80.6223 313.1 78.8957 313.141C77.1832 313.359 75.4527 313.4 73.7319 313.261C75.413 312.862 77.1312 312.641 78.8585 312.601C80.571 312.382 82.3019 312.345 84.0223 312.489Z" fill="#455A64"/>
<path d="M82.2453 315.541C80.9078 315.428 79.5909 315.14 78.3282 314.685C77.0142 314.398 75.7439 313.938 74.5508 313.317C75.8921 313.419 77.2131 313.704 78.4771 314.164C80.5984 314.778 82.2918 315.392 82.2453 315.541Z" fill="#455A64"/>
<path d="M61.0225 229.395C61.1474 230.457 61.1941 231.526 61.162 232.595C61.162 234.577 61.162 237.312 61.162 240.336C61.162 241.834 61.162 243.267 61.1062 244.588C61.1403 245.778 60.9181 246.962 60.4549 248.059C60.1249 248.806 59.5974 249.449 58.929 249.919C58.7012 250.108 58.429 250.236 58.1382 250.291C58.1382 250.291 58.3987 250.124 58.8174 249.77C59.4049 249.267 59.8614 248.628 60.1479 247.91C60.5358 246.844 60.7097 245.712 60.6596 244.579C60.6596 243.248 60.6596 241.788 60.6596 240.318C60.6596 237.294 60.734 234.558 60.7899 232.586C60.7869 231.518 60.8646 230.451 61.0225 229.395Z" fill="#455A64"/>
<path d="M45.4571 228.445C45.4672 228.582 45.4672 228.718 45.4571 228.855C45.4571 229.152 45.4571 229.552 45.4571 230.064C45.4571 231.143 45.3734 232.707 45.3083 234.716C45.178 238.764 44.9919 244.579 44.7593 251.752C44.322 266.136 43.8754 286.019 43.7638 307.967C43.6521 329.916 43.9034 349.836 44.1918 364.21C44.35 371.384 44.4709 377.236 44.5639 381.246C44.5639 383.247 44.6384 384.8 44.6663 385.898C44.6663 386.41 44.6663 386.829 44.6663 387.108C44.6763 387.244 44.6763 387.381 44.6663 387.517C44.6563 387.381 44.6563 387.244 44.6663 387.108C44.6663 386.819 44.6663 386.419 44.6012 385.907C44.6012 384.819 44.4988 383.265 44.4151 381.255C44.2569 377.236 44.0708 371.412 43.8847 364.22C43.5033 349.826 43.2055 329.943 43.3172 307.967C43.4288 285.991 43.9313 266.099 44.4523 251.743C44.7128 244.551 44.9547 238.717 45.1594 234.707C45.2618 232.716 45.3455 231.162 45.4013 230.055C45.4013 229.543 45.4571 229.125 45.4757 228.845C45.46 228.713 45.4538 228.579 45.4571 228.445Z" fill="#455A64"/>
<path d="M73.723 232.68C73.7795 232.803 73.8261 232.931 73.8625 233.061C73.9463 233.34 74.0672 233.712 74.2161 234.196C74.5138 235.192 74.9883 236.662 75.5094 238.578C76.5793 242.402 78.0215 247.957 79.6311 254.87C81.2407 261.783 83.0271 270.026 84.8879 279.219C86.7487 288.411 88.7118 298.534 90.4703 309.215C90.6936 310.555 90.8983 311.885 91.0751 313.216C91.0751 313.569 91.1402 313.932 91.1402 314.276L90.9727 315.263C90.8518 315.923 90.7587 316.584 90.6099 317.226C90.0795 319.812 89.4841 322.343 88.8421 324.818C87.5767 329.768 86.237 334.504 84.9158 339.007C82.292 348.013 79.7613 356.07 77.6121 362.834C75.4628 369.598 73.6672 375.041 72.4018 378.8L70.9317 383.127L70.5317 384.252C70.497 384.382 70.447 384.507 70.3828 384.625C70.4071 384.492 70.4413 384.361 70.4852 384.234C70.5782 383.955 70.6898 383.583 70.8387 383.099L72.225 378.744L77.2864 362.732C79.3892 355.959 81.8827 347.892 84.4878 338.886C85.7904 334.383 87.1208 329.637 88.3862 324.697C89.0189 322.231 89.6143 319.71 90.1447 317.133C90.2935 316.491 90.3773 315.84 90.4889 315.188L90.6564 314.211C90.6564 313.895 90.6099 313.588 90.5913 313.281C90.4145 311.969 90.2191 310.639 89.9958 309.308C88.228 298.636 86.2742 288.513 84.4134 279.321C82.5525 270.129 80.8685 261.82 79.3054 254.944C77.7423 248.069 76.3374 242.458 75.3233 238.625C74.8395 236.708 74.3929 235.229 74.123 234.224L73.816 233.08C73.7703 232.95 73.7391 232.816 73.723 232.68Z" fill="#455A64"/>
<path d="M58.7525 359.819C58.8274 360.252 58.8555 360.692 58.8362 361.131C58.8362 362.062 58.8363 363.28 58.8828 364.723C58.8828 367.839 58.9944 371.98 59.0596 376.548C59.1247 381.116 59.3014 385.257 59.3852 388.374C59.3852 389.816 59.4596 391.025 59.4875 391.965C59.5296 392.401 59.5296 392.841 59.4875 393.277C59.3849 392.85 59.3287 392.413 59.3201 391.974C59.2456 391.128 59.1619 389.909 59.0688 388.392C58.8828 385.368 58.706 381.182 58.6036 376.557C58.5013 371.933 58.5199 367.746 58.6036 364.723C58.6036 363.206 58.6688 361.931 58.706 361.131C58.6871 360.693 58.7027 360.255 58.7525 359.819Z" fill="#455A64"/>
<path d="M44.8803 150.031L60.6972 151.203C60.9112 149.342 61.2183 142.262 61.2183 142.262C61.2183 142.262 67.8149 141.657 68.2987 135.126C68.7825 128.594 68.5778 113.512 68.5778 113.512C64.9616 111.685 60.9228 110.856 56.8792 111.113C52.8356 111.37 48.934 112.703 45.5781 114.973L44.564 115.662L44.8803 150.031Z" fill="#E5BAAB"/>
<path d="M66.3262 124.649C66.2008 124.517 66.1169 124.352 66.0849 124.172C66.0528 123.993 66.074 123.809 66.1458 123.641C66.2176 123.474 66.3368 123.332 66.4888 123.232C66.6407 123.131 66.8187 123.078 67.0007 123.078C67.1827 123.078 67.3607 123.131 67.5127 123.232C67.6646 123.332 67.7839 123.474 67.8557 123.641C67.9275 123.809 67.9486 123.993 67.9166 124.172C67.8845 124.352 67.8006 124.517 67.6753 124.649C67.5883 124.741 67.4837 124.814 67.3678 124.863C67.2518 124.913 67.1269 124.939 67.0007 124.939C66.8745 124.939 66.7496 124.913 66.6337 124.863C66.5177 124.814 66.4131 124.741 66.3262 124.649Z" fill="#263238"/>
<path d="M68.0008 123.254C67.8892 123.365 67.2844 122.835 66.3819 122.77C65.4794 122.705 64.8002 123.133 64.7072 123.012C64.6142 122.891 64.7723 122.761 65.0794 122.565C65.4752 122.305 65.9475 122.187 66.4191 122.23C66.8944 122.259 67.3464 122.445 67.7031 122.761C67.9729 122.993 68.0567 123.189 68.0008 123.254Z" fill="#263238"/>
<path d="M57.5803 123.403C57.7276 123.51 57.84 123.659 57.9036 123.83C57.9672 124.001 57.979 124.187 57.9377 124.365C57.8964 124.542 57.8038 124.704 57.6714 124.829C57.5389 124.955 57.3725 125.039 57.1928 125.07C57.0131 125.102 56.8281 125.08 56.6607 125.007C56.4934 124.935 56.3511 124.814 56.2516 124.661C56.1521 124.509 56.0998 124.33 56.1011 124.147C56.1024 123.965 56.1574 123.787 56.2591 123.635C56.3289 123.531 56.4191 123.442 56.5241 123.374C56.6291 123.306 56.7468 123.259 56.8702 123.238C56.9935 123.216 57.12 123.219 57.242 123.248C57.3641 123.276 57.4791 123.329 57.5803 123.403Z" fill="#263238"/>
<path d="M58.1757 123.449C58.0641 123.552 57.4593 123.021 56.5568 122.956C55.6543 122.891 54.9751 123.328 54.8821 123.207C54.789 123.086 54.9472 122.947 55.2449 122.751C55.6483 122.501 56.1203 122.384 56.594 122.417C57.0678 122.451 57.518 122.637 57.878 122.947C58.1478 123.189 58.2315 123.403 58.1757 123.449Z" fill="#263238"/>
<path d="M61.3297 131.097C61.8057 130.95 62.3016 130.877 62.7998 130.883C63.0417 130.883 63.237 130.836 63.265 130.706C63.2885 130.466 63.2433 130.224 63.1347 130.008L62.5392 128.147C61.9663 126.556 61.5457 124.915 61.2832 123.244C62.0042 124.772 62.5804 126.363 63.0044 127.999L63.5627 129.859C63.697 130.167 63.7233 130.512 63.6371 130.836C63.598 130.923 63.5389 131 63.4645 131.06C63.3901 131.12 63.3026 131.161 63.2091 131.181C63.0763 131.198 62.9419 131.198 62.8091 131.181C62.3146 131.232 61.8152 131.204 61.3297 131.097Z" fill="#263238"/>
<path d="M58.3433 131.906C57.4129 131.292 60.8368 133.441 62.679 133.469C62.3444 133.923 61.8656 134.249 61.3212 134.394C60.7768 134.54 60.1992 134.496 59.6831 134.269C57.7665 133.423 58.3433 131.906 58.3433 131.906Z" fill="white"/>
<path d="M61.1808 142.169C58.1597 142.041 55.2449 141.018 52.8071 139.229C52.8071 139.229 54.5284 144.057 61.0878 143.881L61.1808 142.169Z" fill="#D78776"/>
<path d="M45.8106 121.458C45.6617 121.402 40.9539 120.788 41.4005 126.352C41.8471 131.916 47.3179 129.617 47.3086 129.459C47.2993 129.301 45.8106 121.458 45.8106 121.458Z" fill="#E5BAAB"/>
<path d="M45.4011 127.645C45.4011 127.645 45.3174 127.72 45.1592 127.813C44.9352 127.927 44.6762 127.954 44.4335 127.887C44.0568 127.686 43.7397 127.389 43.5143 127.027C43.2889 126.664 43.1631 126.248 43.1495 125.821C43.0982 125.347 43.1555 124.866 43.317 124.417C43.3542 124.239 43.4337 124.072 43.5486 123.931C43.6636 123.79 43.8107 123.679 43.9776 123.607C44.0875 123.572 44.2061 123.574 44.3142 123.615C44.4223 123.656 44.5135 123.731 44.5731 123.83C44.6568 123.979 44.6382 124.091 44.6661 124.1C44.694 124.11 44.7777 123.998 44.6661 123.775C44.6273 123.638 44.5416 123.519 44.4242 123.44C44.2591 123.341 44.0634 123.308 43.8752 123.347C43.6536 123.409 43.4518 123.528 43.2889 123.691C43.1261 123.854 43.0076 124.055 42.9448 124.277C42.7442 124.775 42.6706 125.316 42.7309 125.849C42.7412 126.346 42.8988 126.829 43.1836 127.237C43.4685 127.644 43.8679 127.958 44.3312 128.138C44.4837 128.17 44.6414 128.168 44.7927 128.131C44.9441 128.093 45.0852 128.023 45.2057 127.924C45.4011 127.785 45.429 127.654 45.4011 127.645Z" fill="#D78776"/>
<path d="M68.9966 111.158C69.3732 111.148 69.7424 111.052 70.0757 110.876C70.409 110.701 70.6974 110.451 70.9187 110.146C71.14 109.841 71.2882 109.489 71.3519 109.118C71.4156 108.747 71.393 108.366 71.2859 108.005C71.1788 107.643 70.9901 107.312 70.7343 107.035C70.4785 106.759 70.1626 106.545 69.8109 106.41C69.4592 106.275 69.0811 106.222 68.706 106.257C68.3309 106.291 67.9687 106.412 67.6475 106.609C68.4256 105.963 69.0595 105.161 69.5083 104.255C69.7254 103.798 69.7972 103.285 69.714 102.786C69.6308 102.287 69.3967 101.825 69.0431 101.463C68.6337 101.193 68.1601 101.034 67.67 101.005C67.1799 100.976 66.6908 101.076 66.2519 101.296C64.8656 101.891 63.7677 103.064 62.3442 103.557C60.9207 104.05 59.3297 103.808 57.8038 103.873C56.0916 103.904 54.4334 104.477 53.068 105.511C51.9046 106.425 51.1517 107.763 50.9746 109.232C50.7917 108.981 50.5895 108.745 50.3698 108.525C49.6462 107.662 48.67 107.047 47.5786 106.767C47.5135 106.888 48.7881 107.595 50.007 108.86C50.3388 109.178 50.6496 109.516 50.9374 109.874C48.8161 109.614 46.4807 109.595 44.806 110.916C44.1275 111.521 43.5913 112.269 43.2358 113.105C42.8803 113.942 42.7143 114.846 42.7498 115.755C42.7498 117.56 43.4941 119.281 44.0245 121.011C44.1527 121.502 44.3738 121.963 44.6758 122.37L45.4759 127.022L48.3881 126.966L48.202 117.206C48.202 117.206 47.9043 113.094 51.4398 113.484C54.9754 113.875 59.8135 117.829 66.6799 116.825C67.8066 116.762 68.9042 116.444 69.8898 115.894C70.3669 115.592 70.7546 115.168 71.0131 114.666C71.2715 114.164 71.3912 113.602 71.3599 113.038C71.2921 112.477 71.0062 111.965 70.5639 111.613C70.1216 111.261 69.5585 111.098 68.9966 111.158Z" fill="#263238"/>
<path d="M128.17 159.325L128.598 156.366C129.036 154.748 129.31 153.09 129.417 151.416C129.487 150.585 129.412 149.747 129.194 148.942C128.974 147.927 128.611 146.95 128.114 146.039C127.575 145.248 128.282 144.178 129.045 144.503C129.808 144.829 131.399 146.932 131.91 149.965C132.422 152.998 134.813 148.793 135.707 147.276C136.6 145.76 139.605 141.191 140.293 141.098C141.298 140.959 141.633 142.029 140.694 143.508C139.754 144.987 137.279 149.686 138.107 150.114C138.727 150.015 139.361 150.046 139.968 150.207C140.066 150.236 140.152 150.294 140.216 150.374C140.279 150.454 140.316 150.552 140.321 150.653C140.318 151.123 140.368 151.591 140.47 152.049C140.47 152.049 141.689 151.77 141.94 152.3C142.11 152.845 142.189 153.414 142.173 153.984C142.173 153.984 143.103 153.668 143.55 153.984C144.48 154.738 143.289 156.031 143.289 156.031C140.55 159.299 137.607 162.391 134.478 165.289L128.068 159.111" fill="#E5BAAB"/>
<path d="M140.098 152.255C139.825 152.83 139.457 153.355 139.01 153.808C138.638 154.255 138.172 154.739 137.623 155.325C137.337 155.629 137.026 155.91 136.693 156.162C136.488 156.325 136.24 156.426 135.98 156.452C135.719 156.479 135.457 156.43 135.223 156.311C135.096 156.237 134.988 156.133 134.909 156.008C134.829 155.883 134.781 155.742 134.767 155.595C134.748 155.333 134.807 155.071 134.935 154.841C135.164 154.496 135.412 154.163 135.679 153.846C136.153 153.25 136.544 152.692 136.87 152.208C137.182 151.661 137.54 151.141 137.94 150.654C137.785 151.273 137.52 151.859 137.158 152.385C136.82 152.983 136.447 153.561 136.042 154.115C135.795 154.412 135.565 154.723 135.353 155.046C135.186 155.353 135.195 155.734 135.465 155.874C135.617 155.938 135.783 155.961 135.946 155.939C136.11 155.918 136.265 155.854 136.395 155.753C136.704 155.519 136.996 155.264 137.27 154.99C137.828 154.469 138.312 153.976 138.712 153.557C139.129 153.077 139.593 152.641 140.098 152.255Z" fill="#D78776"/>
<path d="M141.726 154.161C141.453 154.658 141.101 155.107 140.684 155.492C140.264 155.942 139.807 156.356 139.317 156.729C139.023 156.952 138.712 157.151 138.386 157.325C138.193 157.422 137.986 157.487 137.772 157.52C137.643 157.541 137.511 157.535 137.384 157.501C137.257 157.467 137.139 157.407 137.037 157.325C136.865 157.147 136.757 156.918 136.728 156.672C136.7 156.427 136.753 156.179 136.879 155.966C137.067 155.635 137.289 155.323 137.54 155.036C137.949 154.561 138.331 154.106 138.712 153.65C139.391 152.868 139.838 152.412 139.894 152.449C139.648 152.96 139.335 153.436 138.963 153.864L137.921 155.343C137.701 155.606 137.502 155.886 137.326 156.18C137.254 156.299 137.221 156.437 137.231 156.575C137.241 156.714 137.293 156.845 137.381 156.953C137.549 157.111 137.903 157.046 138.21 156.897C138.515 156.739 138.81 156.561 139.093 156.366C139.577 156.021 140.04 155.649 140.48 155.25C140.85 154.838 141.268 154.472 141.726 154.161Z" fill="#D78776"/>
<path d="M142.108 156.823C142.154 156.823 142.108 157.242 141.67 157.753C141.538 157.912 141.375 158.042 141.191 158.136C141.007 158.231 140.806 158.287 140.6 158.302C140.334 158.305 140.075 158.216 139.865 158.051C139.75 157.955 139.658 157.833 139.595 157.697C139.532 157.56 139.501 157.411 139.503 157.26C139.576 156.786 139.768 156.338 140.061 155.958C140.257 155.651 140.471 155.356 140.703 155.074C141.103 154.59 141.391 154.339 141.447 154.385C141.503 154.432 141.298 154.748 140.982 155.316C140.796 155.641 140.61 155.939 140.442 156.246C140.218 156.574 140.063 156.945 139.986 157.335C139.994 157.493 140.061 157.642 140.176 157.751C140.29 157.86 140.442 157.921 140.6 157.921C140.909 157.911 141.204 157.789 141.428 157.577C141.847 157.13 142.043 156.786 142.108 156.823Z" fill="#D78776"/>
<path d="M127.473 155.483C127.473 155.483 103.068 179.497 99.6442 179.674C95.7365 179.86 83.7157 162.815 83.7157 162.815C76.0212 150.943 65.8704 149.026 62.1674 148.728V147.258L43.9779 145.77C43.9779 145.77 43.9779 147.333 43.9779 148.7H35.9485C35.9485 148.7 21.5272 148.04 19.3687 167.411L29.7334 175.608L33.9854 191.425C35.4647 196.933 30.18 205.706 27.6586 219.914C27.2697 222.282 27.665 224.713 28.7844 226.836L81.3059 232.874L78.5147 192.718L77.668 183.414C81.9944 189.322 89.7633 197.677 99.2814 197.491C115.517 197.184 138.07 163.066 138.07 163.066L127.473 155.483Z" fill="#E0E0E0"/>
<path d="M56.0451 146.998C56.1353 147.824 56.1353 148.657 56.0451 149.482C55.9094 151.549 55.6296 153.604 55.2077 155.632L55.1426 155.939L54.8634 155.79C54.2308 155.455 53.5702 155.102 52.9003 154.711C50.2951 153.176 48.0715 151.594 46.3874 150.496C45.4783 149.943 44.6022 149.337 43.7637 148.682C44.0421 148.763 44.3082 148.882 44.5545 149.036C45.0383 149.305 45.7361 149.696 46.5735 150.208C48.2668 151.231 50.5184 152.776 53.0864 154.292C53.7376 154.674 54.3889 155.037 55.0216 155.372L54.6774 155.53C55.217 153.129 55.4775 150.98 55.6729 149.454C55.7471 148.629 55.8714 147.809 56.0451 146.998Z" fill="#FAFAFA"/>
<path d="M62.2229 148.831C62.106 149.63 61.9319 150.42 61.7019 151.194C61.5251 151.929 61.339 152.804 61.0227 153.753C60.858 154.255 60.6622 154.745 60.4365 155.223C60.3714 155.394 60.2543 155.54 60.1016 155.642C59.9956 155.707 59.8707 155.734 59.7473 155.718C59.6239 155.703 59.5094 155.647 59.4224 155.558C59.248 155.301 59.1073 155.022 59.0037 154.73C58.0733 152.618 57.3382 150.701 56.7986 149.296C56.4592 148.56 56.2003 147.79 56.0264 146.998C56.461 147.682 56.8256 148.409 57.1149 149.166C57.7383 150.534 58.5664 152.432 59.4503 154.544C59.5361 154.779 59.6419 155.006 59.7666 155.223C59.8131 155.223 59.7666 155.223 59.8503 155.223C59.9204 155.166 59.9748 155.092 60.0085 155.009C60.2311 154.551 60.4299 154.082 60.604 153.604C60.9296 152.674 61.1529 151.818 61.3669 151.101C61.5519 150.31 61.8397 149.547 62.2229 148.831Z" fill="#FAFAFA"/>
<path d="M58.8361 213.81C58.7917 213.593 58.7667 213.372 58.7617 213.15C58.7617 212.666 58.7245 212.046 58.65 211.289C58.5756 209.577 58.464 207.205 58.3337 204.292C58.1104 198.338 57.7941 190.197 57.4591 181.209C57.1242 172.221 56.9102 164.08 56.7241 158.126C56.659 155.204 56.6031 152.832 56.5566 151.12C56.5566 150.338 56.5566 149.705 56.5566 149.259C56.5326 149.036 56.5326 148.812 56.5566 148.589C56.5995 148.806 56.6213 149.028 56.6217 149.249C56.6217 149.733 56.6962 150.366 56.7427 151.11C56.8171 152.813 56.9288 155.185 57.059 158.098C57.2823 164.052 57.5894 172.193 57.9336 181.181C58.2779 190.169 58.4733 198.31 58.6687 204.274C58.7338 207.186 58.7896 209.558 58.8361 211.27C58.8361 212.061 58.8361 212.694 58.8361 213.178C58.858 213.388 58.858 213.6 58.8361 213.81Z" fill="#F5F5F5"/>
<path d="M55.5239 152.878L57.0498 157.083L58.3617 152.571L56.3241 148.049L55.5239 152.878Z" fill="#606060"/>
<path d="M57.3291 155.827L56.3242 203.166L63.4697 218.109L66.2889 201.296L57.3291 155.827Z" fill="#606060"/>
<path d="M99.9046 185.526C99.9046 185.526 99.9046 185.666 99.9046 185.898L99.8487 186.252L99.6906 185.898C99.3305 184.957 99.1232 183.965 99.0765 182.958C98.9226 181.836 99.0571 180.693 99.4673 179.637C99.6068 179.637 99.4673 181.125 99.5603 182.93C99.6347 184.214 99.8394 185.312 99.9046 185.843H99.6906C99.7743 185.591 99.8673 185.526 99.9046 185.526Z" fill="#FAFAFA"/>
<path d="M101.998 185.368C101.304 184.64 100.788 183.761 100.49 182.8C100.043 181.913 99.7979 180.937 99.7739 179.943C100.248 180.809 100.634 181.719 100.928 182.66C101.371 183.526 101.73 184.433 101.998 185.368Z" fill="#FAFAFA"/>
<path d="M136.544 165.327C134.532 164.263 132.598 163.056 130.757 161.717C128.828 160.513 126.987 159.173 125.249 157.707C127.26 158.78 129.194 159.992 131.036 161.336C132.965 162.534 134.805 163.868 136.544 165.327Z" fill="#FAFAFA"/>
<path d="M35.1013 172.928C35.1013 172.928 31.2308 199.91 33.0637 201.417C43.1866 209.93 57.2543 214.396 62.2785 215.801C63.0135 215.624 63.8695 215.392 64.8558 215.075C65.7107 214.804 66.513 214.388 67.2283 213.847C68.1417 213.206 68.962 212.442 69.666 211.577C69.7723 211.391 69.9336 211.243 70.1278 211.153C70.3219 211.063 70.5392 211.036 70.7496 211.074C70.96 211.113 71.1532 211.216 71.3024 211.37C71.4517 211.523 71.5496 211.719 71.5826 211.93C71.6291 212.861 70.1405 215.252 67.3399 217.001C67.3399 217.001 73.7877 227.375 75.8439 228.315C77.9001 229.255 83.7803 231.897 82.7847 232.399C81.7892 232.902 74.6343 230.827 74.6343 230.827L60.12 226.947C60.12 226.947 12.1109 219.42 15.3022 197.398C17.2654 183.897 19.4053 171.737 20.1776 168.657L35.1013 172.928Z" fill="#E5BAAB"/>
<path d="M19.3683 167.401L15.1071 196.812C14.1115 205.864 20.1778 213.056 28.3375 217.104C40.7584 223.254 59.1991 227.645 59.0409 227.617C58.8828 227.589 60.2877 214.489 60.2877 214.489C60.2877 214.489 34.4316 203.324 33.6222 198.486C32.8127 193.648 36.9065 173.551 36.9065 173.551L19.3683 167.401Z" fill="#E0E0E0"/>
<path d="M59.0035 227.617C58.9937 227.54 58.9937 227.462 59.0035 227.384C59.0035 227.198 59.0035 226.975 59.05 226.705C59.0965 226.063 59.1616 225.198 59.2547 224.091C59.4501 221.783 59.7385 218.508 60.0827 214.48L60.1851 214.647L47.1594 208.348L43.4377 206.487C42.1817 205.817 40.9163 205.082 39.6603 204.273C38.3859 203.45 37.1618 202.553 35.9945 201.584C35.4083 201.091 34.8222 200.57 34.2639 200.021C33.9491 199.745 33.6956 199.406 33.5196 199.025C33.421 198.841 33.3489 198.644 33.3056 198.439C33.2445 198.245 33.2009 198.046 33.1753 197.844C32.7567 194.625 33.6126 191.592 34.1058 188.698C34.5989 185.804 35.092 182.985 35.5572 180.324C36.4876 174.984 37.3343 170.183 38.0414 166.126C38.4232 164.329 38.6412 162.501 38.6927 160.665C38.7106 159.283 38.4248 157.914 37.8553 156.655C37.49 155.86 36.9715 155.146 36.3294 154.552C35.8828 154.152 35.613 153.994 35.6223 153.966C35.8991 154.105 36.1583 154.277 36.3946 154.478C37.0777 155.054 37.6324 155.767 38.0228 156.571C38.6334 157.849 38.9513 159.248 38.9532 160.665C38.9324 162.518 38.7362 164.366 38.367 166.182C37.6878 170.248 36.8784 175.058 35.9852 180.408C35.5293 183.078 35.0548 185.888 34.5617 188.782C34.4407 189.507 34.3104 190.242 34.1802 190.987C34.0499 191.731 33.9104 192.457 33.808 193.201C33.5634 194.705 33.5227 196.236 33.6871 197.751C33.7165 197.936 33.7569 198.119 33.808 198.3C33.8446 198.479 33.9073 198.651 33.9941 198.811C34.1474 199.14 34.3695 199.432 34.6454 199.667C35.1943 200.207 35.7619 200.719 36.3387 201.203C37.4905 202.162 38.6991 203.05 39.958 203.864C41.1955 204.673 42.4422 205.399 43.6797 206.069L47.4013 207.929L60.3247 214.368L60.427 214.424V214.535C60.0083 218.564 59.6734 221.83 59.4408 224.137C59.3105 225.235 59.2175 226.11 59.143 226.742C59.1058 227.015 59.0779 227.239 59.0593 227.412C59.0473 227.482 59.0286 227.551 59.0035 227.617Z" fill="#FAFAFA"/>
<path d="M56.6032 212.693C56.6308 213.367 56.5777 214.042 56.445 214.703C56.2869 215.931 56.0264 217.625 55.6821 219.485C55.3379 221.346 54.9471 223.021 54.6308 224.221C54.5031 224.883 54.2872 225.524 53.9888 226.128C54.0212 225.456 54.1241 224.789 54.2958 224.137C54.5687 222.736 54.8789 221.154 55.2262 219.392C55.5518 217.134 56.0116 214.897 56.6032 212.693Z" fill="#FAFAFA"/>
<path d="M59.0038 227.617C58.8489 227.616 58.695 227.591 58.5479 227.543L57.2732 227.236L52.6212 226.008C48.6856 224.947 43.2148 223.551 37.3532 221.402C34.5949 220.393 31.909 219.197 29.3145 217.82C27.1949 216.692 25.1721 215.392 23.2668 213.931C21.9813 212.947 20.7686 211.871 19.6382 210.712C19.2382 210.302 18.9497 209.977 18.7078 209.781C18.5971 209.672 18.503 209.546 18.4287 209.409C18.4287 209.409 18.8939 209.846 19.7313 210.619C20.9109 211.717 22.1536 212.745 23.4529 213.698C25.3769 215.082 27.398 216.326 29.5006 217.42C32.0886 218.765 34.7614 219.94 37.5021 220.937C43.3264 223.077 48.7879 224.519 52.6956 225.673L57.3477 227.04L58.6037 227.44C58.7441 227.482 58.8786 227.541 59.0038 227.617Z" fill="#FAFAFA"/>
<path d="M59.3198 215.839C59.3253 216.005 59.2812 216.169 59.193 216.31C59.1048 216.451 58.9766 216.563 58.8247 216.631C58.6729 216.699 58.5042 216.72 58.3402 216.692C58.1763 216.663 58.0245 216.587 57.9042 216.472C57.784 216.357 57.7007 216.209 57.665 216.046C57.6293 215.884 57.6428 215.714 57.7039 215.559C57.7649 215.405 57.8707 215.272 58.0077 215.177C58.1447 215.083 58.3067 215.031 58.4731 215.029C58.692 215.027 58.9033 215.11 59.0615 215.261C59.2198 215.413 59.3125 215.62 59.3198 215.839Z" fill="#FAFAFA"/>
<defs>
<linearGradient id="paint0_linear_5074_2647" x1="273.628" y1="200.917" x2="273.628" y2="291.539" gradientUnits="userSpaceOnUse">
<stop stop-color="#8E3EAB"/>
<stop offset="1" stop-color="#7066C7"/>
</linearGradient>
</defs>
</svg>
