<svg xmlns="http://www.w3.org/2000/svg" width="32" height="32" viewBox="0 0 32 32" id="google-meet">
  <path fill="#00ac47" d="M24,21.45V25a2.0059,2.0059,0,0,1-2,2H9V21h9V16Z"></path>
  <polygon fill="#31a950" points="24 11 24 21.45 18 16 18 11 24 11"></polygon>
  <polygon fill="#ea4435" points="9 5 9 11 3 11 9 5"></polygon>
  <rect width="6" height="11" x="3" y="11" fill="#4285f4"></rect>
  <path fill="#ffba00" d="M24,7v4h-.5L18,16V11H9V5H22A2.0059,2.0059,0,0,1,24,7Z"></path>
  <path fill="#0066da" d="M9,21v6H5a2.0059,2.0059,0,0,1-2-2V21Z"></path>
  <path fill="#00ac47" d="M29,8.26V23.74a.9989.9989,0,0,1-1.67.74L24,21.45,18,16l5.5-5,.5-.45,3.33-3.03A.9989.9989,0,0,1,29,8.26Z"></path>
  <polygon fill="#188038" points="24 10.55 24 21.45 18 16 23.5 11 24 10.55"></polygon>
</svg>
