<svg width="237" height="291" viewBox="0 0 237 291" fill="none" xmlns="http://www.w3.org/2000/svg">
<g filter="url(#filter0_d_209_10614)">
<rect x="4" y="4" width="228.882" height="283.333" rx="8.33333" fill="#FBFBFB"/>
<rect opacity="0.05" x="11.7891" y="61.5774" width="29.5578" height="118.65" rx="2.29945" fill="url(#paint0_linear_209_10614)"/>
<rect opacity="0.1" x="171.401" y="61.5774" width="29.5578" height="118.65" rx="2.29945" fill="#344BFD"/>
<rect opacity="0.05" x="43.7119" y="61.5774" width="29.5578" height="118.65" rx="2.29945" fill="url(#paint1_linear_209_10614)"/>
<rect opacity="0.05" x="203.324" y="61.5774" width="29.5578" height="118.65" rx="2.29945" fill="url(#paint2_linear_209_10614)"/>
<rect opacity="0.05" x="75.6348" y="61.5774" width="29.5578" height="118.65" rx="2.29945" fill="url(#paint3_linear_209_10614)"/>
<rect opacity="0.05" x="107.557" y="61.5774" width="29.5578" height="118.65" rx="2.29945" fill="url(#paint4_linear_209_10614)"/>
<rect opacity="0.05" x="139.479" y="61.5774" width="29.5578" height="118.65" rx="2.29945" fill="url(#paint5_linear_209_10614)"/>
<path d="M74.6489 37.9579C74.6489 38.4516 74.5293 38.8808 74.29 39.2454C74.0508 39.6099 73.7014 39.891 73.2419 40.0885C72.7861 40.2859 72.2317 40.3847 71.5785 40.3847C71.2898 40.3847 71.0069 40.3657 70.7297 40.3277C70.4562 40.2897 70.1923 40.2347 69.9378 40.1625C69.6872 40.0866 69.4479 39.9935 69.2201 39.8834V38.2428C69.615 38.4175 70.0252 38.5751 70.4505 38.7156C70.8759 38.8561 71.2974 38.9264 71.7152 38.9264C72.0038 38.9264 72.2355 38.8884 72.4102 38.8124C72.5886 38.7365 72.7178 38.632 72.7975 38.4991C72.8773 38.3662 72.9172 38.2143 72.9172 38.0434C72.9172 37.8345 72.8469 37.656 72.7064 37.5079C72.5659 37.3598 72.3722 37.2212 72.1253 37.092C71.8823 36.9629 71.6069 36.8243 71.2993 36.6762C71.1056 36.585 70.8949 36.4749 70.667 36.3458C70.4391 36.2129 70.2227 36.0515 70.0176 35.8616C69.8125 35.6717 69.6435 35.4419 69.5106 35.1723C69.3815 34.8988 69.3169 34.5722 69.3169 34.1925C69.3169 33.695 69.4308 33.2696 69.6587 32.9164C69.8866 32.5632 70.2113 32.2936 70.6328 32.1075C71.0582 31.9176 71.5595 31.8227 72.1367 31.8227C72.5697 31.8227 72.9817 31.8739 73.3729 31.9765C73.7678 32.0752 74.1799 32.2195 74.609 32.4094L74.0394 33.7823C73.6558 33.6266 73.3121 33.507 73.0083 33.4234C72.7045 33.3361 72.395 33.2924 72.0798 33.2924C71.8595 33.2924 71.6715 33.3285 71.5158 33.4006C71.3601 33.469 71.2424 33.5677 71.1626 33.6969C71.0828 33.8222 71.043 33.9684 71.043 34.1355C71.043 34.333 71.0999 34.5001 71.2139 34.6368C71.3316 34.7697 71.5063 34.8988 71.738 35.0242C71.9734 35.1495 72.2658 35.2957 72.6152 35.4628C73.0406 35.6641 73.4033 35.8749 73.7033 36.0951C74.0071 36.3116 74.2407 36.568 74.404 36.8642C74.5673 37.1566 74.6489 37.5212 74.6489 37.9579ZM78.6309 33.7709C79.4854 33.7709 80.1405 33.957 80.5962 34.3292C81.0519 34.7014 81.2798 35.2672 81.2798 36.0268V40.2708H80.0664L79.7303 39.4049H79.6847C79.5024 39.6327 79.3164 39.8188 79.1265 39.9631C78.9366 40.1074 78.7182 40.2138 78.4714 40.2821C78.2245 40.3505 77.9245 40.3847 77.5713 40.3847C77.1953 40.3847 76.8573 40.3125 76.5573 40.1682C76.2611 40.0239 76.0275 39.8036 75.8566 39.5074C75.6857 39.2074 75.6003 38.8276 75.6003 38.3681C75.6003 37.6921 75.8376 37.1946 76.3123 36.8756C76.7871 36.5528 77.4991 36.3743 78.4486 36.3401L79.5537 36.3059V36.0268C79.5537 35.6926 79.4664 35.4476 79.2917 35.2919C79.117 35.1362 78.8739 35.0583 78.5625 35.0583C78.2549 35.0583 77.953 35.102 77.6567 35.1894C77.3605 35.2767 77.0643 35.3869 76.7681 35.5198L76.1927 34.3463C76.5307 34.1678 76.9086 34.0273 77.3263 33.9247C77.7479 33.8222 78.1827 33.7709 78.6309 33.7709ZM79.5537 37.3199L78.8815 37.3427C78.3194 37.3579 77.9283 37.4585 77.708 37.6446C77.4915 37.8307 77.3833 38.0757 77.3833 38.3795C77.3833 38.6453 77.4612 38.8352 77.6169 38.9491C77.7726 39.0593 77.9757 39.1143 78.2264 39.1143C78.5986 39.1143 78.9119 39.0042 79.1663 38.7839C79.4246 38.5637 79.5537 38.2504 79.5537 37.844V37.3199ZM84.8117 40.2708H83.0742V31.4068H84.8117V40.2708ZM89.2664 33.7823C89.8551 33.7823 90.3621 33.8962 90.7874 34.1241C91.2128 34.3482 91.5413 34.6748 91.7729 35.1039C92.0046 35.5331 92.1204 36.0572 92.1204 36.6762V37.5193H88.0132C88.0322 38.0092 88.1784 38.3947 88.4518 38.6757C88.7291 38.9529 89.1126 39.0916 89.6025 39.0916C90.0089 39.0916 90.3811 39.0498 90.7191 38.9662C91.0571 38.8827 91.4046 38.7574 91.7616 38.5903V39.9347C91.4463 40.0904 91.1159 40.2043 90.7703 40.2764C90.4285 40.3486 90.0127 40.3847 89.5228 40.3847C88.8848 40.3847 88.3189 40.267 87.8252 40.0315C87.3353 39.796 86.9498 39.4371 86.6688 38.9548C86.3915 38.4725 86.2529 37.8649 86.2529 37.1319C86.2529 36.3876 86.3783 35.7685 86.6289 35.2748C86.8834 34.7773 87.2365 34.4051 87.6885 34.1583C88.1404 33.9076 88.6664 33.7823 89.2664 33.7823ZM89.2778 35.0185C88.9398 35.0185 88.6588 35.1267 88.4347 35.3432C88.2145 35.5597 88.0872 35.8995 88.0531 36.3629H90.4912C90.4874 36.1046 90.4399 35.8749 90.3488 35.6736C90.2614 35.4723 90.1285 35.3128 89.95 35.1951C89.7753 35.0773 89.5513 35.0185 89.2778 35.0185ZM97.9766 38.3795C97.9766 38.8124 97.874 39.1789 97.6689 39.4789C97.4677 39.7751 97.1657 40.0011 96.7632 40.1568C96.3606 40.3087 95.8593 40.3847 95.2593 40.3847C94.8149 40.3847 94.4333 40.3562 94.1143 40.2992C93.799 40.2423 93.48 40.1473 93.1572 40.0144V38.5789C93.5028 38.7346 93.8731 38.8637 94.2681 38.9662C94.6668 39.065 95.0162 39.1143 95.3162 39.1143C95.6542 39.1143 95.8954 39.065 96.0397 38.9662C96.1878 38.8637 96.2619 38.7308 96.2619 38.5675C96.2619 38.4611 96.2315 38.3662 96.1707 38.2826C96.1138 38.1953 95.9884 38.0984 95.7948 37.9921C95.6011 37.882 95.2973 37.7396 94.8833 37.5649C94.4845 37.3978 94.156 37.2288 93.8978 37.0579C93.6433 36.887 93.4534 36.6857 93.3281 36.454C93.2066 36.2186 93.1458 35.9204 93.1458 35.5597C93.1458 34.971 93.3737 34.5286 93.8294 34.2323C94.289 33.9323 94.9023 33.7823 95.6694 33.7823C96.0644 33.7823 96.4404 33.8222 96.7974 33.9019C97.1581 33.9817 97.5284 34.1089 97.9082 34.2836L97.3841 35.5369C97.0689 35.4001 96.7708 35.2881 96.4897 35.2008C96.2125 35.1134 95.9296 35.0697 95.6409 35.0697C95.3865 35.0697 95.1947 35.1039 95.0656 35.1723C94.9365 35.2406 94.8719 35.3451 94.8719 35.4856C94.8719 35.5881 94.9042 35.6793 94.9687 35.759C95.0371 35.8388 95.1662 35.928 95.3561 36.0268C95.5498 36.1217 95.8327 36.2451 96.2049 36.3971C96.5657 36.5452 96.879 36.7009 97.1449 36.8642C97.4107 37.0237 97.6158 37.2231 97.7601 37.4623C97.9044 37.6978 97.9766 38.0035 97.9766 38.3795ZM105.16 31.9423C106.235 31.9423 107.019 32.174 107.513 32.6373C108.006 33.0968 108.253 33.731 108.253 34.54C108.253 34.9045 108.198 35.2539 108.088 35.5881C107.978 35.9185 107.798 36.2129 107.547 36.4711C107.3 36.7294 106.97 36.9344 106.556 37.0863C106.142 37.2345 105.631 37.3085 105.023 37.3085H104.266V40.2708H102.5V31.9423H105.16ZM105.069 33.3892H104.266V35.8616H104.847C105.177 35.8616 105.464 35.8179 105.707 35.7306C105.95 35.6432 106.138 35.5065 106.271 35.3204C106.404 35.1343 106.47 34.895 106.47 34.6026C106.47 34.1925 106.356 33.8886 106.128 33.6912C105.901 33.4899 105.547 33.3892 105.069 33.3892ZM112.315 33.7823C112.904 33.7823 113.411 33.8962 113.836 34.1241C114.261 34.3482 114.59 34.6748 114.821 35.1039C115.053 35.5331 115.169 36.0572 115.169 36.6762V37.5193H111.062C111.081 38.0092 111.227 38.3947 111.5 38.6757C111.778 38.9529 112.161 39.0916 112.651 39.0916C113.057 39.0916 113.43 39.0498 113.768 38.9662C114.106 38.8827 114.453 38.7574 114.81 38.5903V39.9347C114.495 40.0904 114.164 40.2043 113.819 40.2764C113.477 40.3486 113.061 40.3847 112.571 40.3847C111.933 40.3847 111.367 40.267 110.874 40.0315C110.384 39.796 109.998 39.4371 109.717 38.9548C109.44 38.4725 109.301 37.8649 109.301 37.1319C109.301 36.3876 109.427 35.7685 109.677 35.2748C109.932 34.7773 110.285 34.4051 110.737 34.1583C111.189 33.9076 111.715 33.7823 112.315 33.7823ZM112.326 35.0185C111.988 35.0185 111.707 35.1267 111.483 35.3432C111.263 35.5597 111.136 35.8995 111.102 36.3629H113.54C113.536 36.1046 113.488 35.8749 113.397 35.6736C113.31 35.4723 113.177 35.3128 112.999 35.1951C112.824 35.0773 112.6 35.0185 112.326 35.0185ZM120.136 33.7823C120.224 33.7823 120.324 33.788 120.438 33.7994C120.556 33.807 120.651 33.8184 120.723 33.8336L120.592 35.4628C120.535 35.4438 120.454 35.4305 120.347 35.4229C120.245 35.4115 120.155 35.4058 120.079 35.4058C119.855 35.4058 119.637 35.4343 119.424 35.4913C119.215 35.5483 119.027 35.6413 118.86 35.7704C118.693 35.8958 118.56 36.0629 118.462 36.2717C118.367 36.4768 118.319 36.7294 118.319 37.0294V40.2708H116.582V33.9019H117.898L118.154 34.9729H118.239C118.365 34.7564 118.52 34.5589 118.707 34.3805C118.896 34.1982 119.111 34.0538 119.35 33.9475C119.593 33.8374 119.855 33.7823 120.136 33.7823ZM125.4 35.2065H123.896V40.2708H122.159V35.2065H121.202V34.3691L122.159 33.9019V33.4348C122.159 32.8917 122.25 32.4702 122.432 32.1702C122.618 31.8663 122.878 31.6537 123.213 31.5321C123.551 31.4068 123.949 31.3442 124.409 31.3442C124.747 31.3442 125.054 31.3726 125.332 31.4296C125.609 31.4828 125.835 31.5435 126.01 31.6119L125.565 32.8879C125.432 32.8462 125.288 32.8082 125.132 32.774C124.977 32.7398 124.798 32.7227 124.597 32.7227C124.354 32.7227 124.175 32.7968 124.061 32.9449C123.951 33.0892 123.896 33.2753 123.896 33.5032V33.9019H125.4V35.2065ZM132.19 37.075C132.19 37.6066 132.118 38.0776 131.974 38.4877C131.833 38.8979 131.626 39.2454 131.353 39.5302C131.083 39.8112 130.757 40.0239 130.373 40.1682C129.993 40.3125 129.564 40.3847 129.086 40.3847C128.638 40.3847 128.226 40.3125 127.85 40.1682C127.477 40.0239 127.153 39.8112 126.875 39.5302C126.602 39.2454 126.389 38.8979 126.237 38.4877C126.089 38.0776 126.015 37.6066 126.015 37.075C126.015 36.3686 126.141 35.7704 126.391 35.2805C126.642 34.7906 126.999 34.4184 127.462 34.164C127.926 33.9095 128.478 33.7823 129.12 33.7823C129.716 33.7823 130.244 33.9095 130.704 34.164C131.167 34.4184 131.53 34.7906 131.792 35.2805C132.058 35.7704 132.19 36.3686 132.19 37.075ZM127.787 37.075C127.787 37.4927 127.833 37.844 127.924 38.1288C128.015 38.4137 128.157 38.6282 128.351 38.7725C128.545 38.9169 128.797 38.989 129.109 38.989C129.416 38.989 129.665 38.9169 129.855 38.7725C130.048 38.6282 130.189 38.4137 130.276 38.1288C130.368 37.844 130.413 37.4927 130.413 37.075C130.413 36.6534 130.368 36.304 130.276 36.0268C130.189 35.7457 130.048 35.535 129.855 35.3945C129.661 35.2539 129.409 35.1837 129.097 35.1837C128.638 35.1837 128.303 35.3413 128.095 35.6565C127.889 35.9717 127.787 36.4445 127.787 37.075ZM137.181 33.7823C137.268 33.7823 137.369 33.788 137.483 33.7994C137.6 33.807 137.695 33.8184 137.767 33.8336L137.636 35.4628C137.579 35.4438 137.498 35.4305 137.391 35.4229C137.289 35.4115 137.2 35.4058 137.124 35.4058C136.9 35.4058 136.681 35.4343 136.469 35.4913C136.26 35.5483 136.072 35.6413 135.905 35.7704C135.738 35.8958 135.605 36.0629 135.506 36.2717C135.411 36.4768 135.363 36.7294 135.363 37.0294V40.2708H133.626V33.9019H134.942L135.198 34.9729H135.284C135.409 34.7564 135.565 34.5589 135.751 34.3805C135.941 34.1982 136.155 34.0538 136.395 33.9475C136.638 33.8374 136.9 33.7823 137.181 33.7823ZM146.403 33.7823C147.125 33.7823 147.67 33.9684 148.038 34.3406C148.411 34.709 148.597 35.3014 148.597 36.1179V40.2708H146.854V36.5509C146.854 36.0951 146.776 35.7514 146.62 35.5198C146.464 35.2881 146.223 35.1723 145.896 35.1723C145.437 35.1723 145.11 35.3375 144.917 35.6679C144.723 35.9945 144.626 36.4635 144.626 37.075V40.2708H142.889V36.5509C142.889 36.247 142.854 35.9926 142.786 35.7875C142.718 35.5824 142.613 35.4286 142.473 35.3261C142.332 35.2236 142.152 35.1723 141.932 35.1723C141.609 35.1723 141.354 35.2539 141.168 35.4172C140.986 35.5767 140.855 35.8141 140.775 36.1293C140.699 36.4407 140.661 36.8224 140.661 37.2743V40.2708H138.924V33.9019H140.251L140.485 34.7166H140.582C140.711 34.4963 140.872 34.3178 141.066 34.1811C141.263 34.0444 141.48 33.9437 141.715 33.8792C141.951 33.8146 142.19 33.7823 142.433 33.7823C142.9 33.7823 143.295 33.8583 143.618 34.0102C143.944 34.1621 144.195 34.3975 144.37 34.7166H144.524C144.713 34.3899 144.981 34.1526 145.327 34.0045C145.676 33.8564 146.035 33.7823 146.403 33.7823ZM152.994 33.7709C153.849 33.7709 154.504 33.957 154.96 34.3292C155.416 34.7014 155.643 35.2672 155.643 36.0268V40.2708H154.43L154.094 39.4049H154.048C153.866 39.6327 153.68 39.8188 153.49 39.9631C153.3 40.1074 153.082 40.2138 152.835 40.2821C152.588 40.3505 152.288 40.3847 151.935 40.3847C151.559 40.3847 151.221 40.3125 150.921 40.1682C150.625 40.0239 150.391 39.8036 150.22 39.5074C150.049 39.2074 149.964 38.8276 149.964 38.3681C149.964 37.6921 150.201 37.1946 150.676 36.8756C151.151 36.5528 151.863 36.3743 152.812 36.3401L153.917 36.3059V36.0268C153.917 35.6926 153.83 35.4476 153.655 35.2919C153.481 35.1362 153.238 35.0583 152.926 35.0583C152.618 35.0583 152.317 35.102 152.02 35.1894C151.724 35.2767 151.428 35.3869 151.132 35.5198L150.556 34.3463C150.894 34.1678 151.272 34.0273 151.69 33.9247C152.111 33.8222 152.546 33.7709 152.994 33.7709ZM153.917 37.3199L153.245 37.3427C152.683 37.3579 152.292 37.4585 152.072 37.6446C151.855 37.8307 151.747 38.0757 151.747 38.3795C151.747 38.6453 151.825 38.8352 151.98 38.9491C152.136 39.0593 152.339 39.1143 152.59 39.1143C152.962 39.1143 153.275 39.0042 153.53 38.7839C153.788 38.5637 153.917 38.2504 153.917 37.844V37.3199ZM161.055 33.7823C161.735 33.7823 162.282 33.9684 162.696 34.3406C163.11 34.709 163.317 35.3014 163.317 36.1179V40.2708H161.579V36.5509C161.579 36.0951 161.496 35.7514 161.329 35.5198C161.165 35.2881 160.907 35.1723 160.554 35.1723C160.022 35.1723 159.659 35.3527 159.466 35.7135C159.272 36.0742 159.175 36.5945 159.175 37.2743V40.2708H157.438V33.9019H158.765L158.999 34.7166H159.096C159.232 34.4963 159.401 34.3178 159.603 34.1811C159.808 34.0444 160.034 33.9437 160.28 33.8792C160.531 33.8146 160.789 33.7823 161.055 33.7823ZM167.692 40.3847C167.061 40.3847 166.524 40.2708 166.08 40.0429C165.635 39.8112 165.297 39.4542 165.066 38.9719C164.834 38.4896 164.718 37.8725 164.718 37.1205C164.718 36.342 164.849 35.7078 165.111 35.2179C165.377 34.7241 165.743 34.3615 166.211 34.1298C166.682 33.8981 167.227 33.7823 167.846 33.7823C168.286 33.7823 168.666 33.826 168.985 33.9133C169.308 33.9969 169.589 34.0975 169.828 34.2153L169.315 35.5597C169.042 35.4495 168.787 35.3603 168.552 35.2919C168.316 35.2198 168.081 35.1837 167.846 35.1837C167.542 35.1837 167.289 35.2558 167.088 35.4001C166.887 35.5407 166.737 35.7533 166.638 36.0382C166.539 36.323 166.49 36.68 166.49 37.1091C166.49 37.5307 166.543 37.8801 166.649 38.1573C166.756 38.4345 166.909 38.6415 167.111 38.7782C167.312 38.9112 167.557 38.9776 167.846 38.9776C168.206 38.9776 168.527 38.9301 168.808 38.8352C169.089 38.7365 169.363 38.5997 169.629 38.425V39.9119C169.363 40.079 169.084 40.1986 168.791 40.2708C168.503 40.3467 168.136 40.3847 167.692 40.3847ZM173.736 33.7823C174.324 33.7823 174.831 33.8962 175.257 34.1241C175.682 34.3482 176.011 34.6748 176.242 35.1039C176.474 35.5331 176.59 36.0572 176.59 36.6762V37.5193H172.483C172.502 38.0092 172.648 38.3947 172.921 38.6757C173.198 38.9529 173.582 39.0916 174.072 39.0916C174.478 39.0916 174.85 39.0498 175.188 38.9662C175.526 38.8827 175.874 38.7574 176.231 38.5903V39.9347C175.916 40.0904 175.585 40.2043 175.24 40.2764C174.898 40.3486 174.482 40.3847 173.992 40.3847C173.354 40.3847 172.788 40.267 172.295 40.0315C171.805 39.796 171.419 39.4371 171.138 38.9548C170.861 38.4725 170.722 37.8649 170.722 37.1319C170.722 36.3876 170.848 35.7685 171.098 35.2748C171.353 34.7773 171.706 34.4051 172.158 34.1583C172.61 33.9076 173.136 33.7823 173.736 33.7823ZM173.747 35.0185C173.409 35.0185 173.128 35.1267 172.904 35.3432C172.684 35.5597 172.557 35.8995 172.522 36.3629H174.961C174.957 36.1046 174.909 35.8749 174.818 35.6736C174.731 35.4723 174.598 35.3128 174.419 35.1951C174.245 35.0773 174.021 35.0185 173.747 35.0185Z" fill="#2E2E30"/>
<path d="M23.041 216.707C23.041 217.255 22.9271 217.729 22.6992 218.131C22.4714 218.532 22.1621 218.861 21.7715 219.116C21.3863 219.371 20.9523 219.558 20.4694 219.677V219.726C21.4243 219.845 22.1485 220.138 22.6423 220.605C23.1414 221.071 23.391 221.695 23.391 222.477C23.391 223.171 23.2201 223.792 22.8783 224.34C22.5419 224.888 22.0211 225.319 21.3158 225.634C20.6105 225.949 19.7017 226.106 18.5895 226.106C17.9331 226.106 17.32 226.052 16.7503 225.943C16.1861 225.84 15.6544 225.68 15.1553 225.463V223.323C15.6653 223.583 16.1997 223.781 16.7585 223.917C17.3173 224.047 17.8381 224.112 18.321 224.112C19.2216 224.112 19.8509 223.958 20.209 223.648C20.5725 223.334 20.7542 222.894 20.7542 222.33C20.7542 221.999 20.6701 221.72 20.502 221.492C20.3338 221.264 20.0408 221.09 19.623 220.971C19.2107 220.852 18.6329 220.792 17.8896 220.792H16.9863V218.863H17.9059C18.6383 218.863 19.1944 218.795 19.5742 218.66C19.9594 218.519 20.2198 218.329 20.3555 218.09C20.4965 217.846 20.5671 217.569 20.5671 217.26C20.5671 216.837 20.4368 216.506 20.1764 216.267C19.916 216.029 19.482 215.909 18.8743 215.909C18.4946 215.909 18.1474 215.958 17.8327 216.056C17.5234 216.148 17.244 216.262 16.9945 216.397C16.7449 216.528 16.5252 216.655 16.3353 216.78L15.1715 215.047C15.6381 214.71 16.1834 214.431 16.8073 214.208C17.4366 213.986 18.1853 213.875 19.0534 213.875C20.2795 213.875 21.2507 214.122 21.9668 214.615C22.6829 215.109 23.041 215.806 23.041 216.707ZM32.9775 219.994C32.9775 220.955 32.9016 221.812 32.7497 222.566C32.6032 223.32 32.3645 223.96 32.0335 224.487C31.708 225.013 31.2794 225.414 30.7477 225.691C30.216 225.968 29.5704 226.106 28.8109 226.106C27.856 226.106 27.072 225.865 26.459 225.382C25.8459 224.894 25.3929 224.194 25.0999 223.282C24.807 222.365 24.6605 221.269 24.6605 219.994C24.6605 218.709 24.7934 217.61 25.0592 216.699C25.3305 215.782 25.77 215.079 26.3776 214.591C26.9852 214.103 27.7963 213.858 28.8109 213.858C29.7603 213.858 30.5416 214.103 31.1546 214.591C31.7731 215.074 32.2316 215.774 32.5299 216.69C32.8283 217.602 32.9775 218.703 32.9775 219.994ZM27.1589 219.994C27.1589 220.9 27.2077 221.657 27.3053 222.265C27.4084 222.867 27.5793 223.32 27.818 223.624C28.0567 223.928 28.3877 224.08 28.8109 224.08C29.2286 224.08 29.5569 223.931 29.7956 223.632C30.0397 223.328 30.2133 222.875 30.3164 222.273C30.4195 221.665 30.471 220.906 30.471 219.994C30.471 219.088 30.4195 218.332 30.3164 217.724C30.2133 217.116 30.0397 216.661 29.7956 216.357C29.5569 216.048 29.2286 215.893 28.8109 215.893C28.3877 215.893 28.0567 216.048 27.818 216.357C27.5793 216.661 27.4084 217.116 27.3053 217.724C27.2077 218.332 27.1589 219.088 27.1589 219.994ZM36.9163 213.875C37.8495 213.875 38.5575 214.2 39.0404 214.851C39.5232 215.502 39.7646 216.416 39.7646 217.594C39.7646 218.771 39.5368 219.691 39.0811 220.353C38.6253 221.014 37.9038 221.345 36.9163 221.345C35.9995 221.345 35.3023 221.014 34.8249 220.353C34.3474 219.691 34.1087 218.771 34.1087 217.594C34.1087 216.416 34.3312 215.502 34.776 214.851C35.2263 214.2 35.9398 213.875 36.9163 213.875ZM36.9326 215.576C36.6668 215.576 36.4715 215.744 36.3467 216.08C36.2219 216.416 36.1595 216.926 36.1595 217.61C36.1595 218.294 36.2219 218.806 36.3467 219.148C36.4715 219.49 36.6668 219.661 36.9326 219.661C37.1985 219.661 37.3938 219.493 37.5186 219.156C37.6488 218.814 37.7139 218.299 37.7139 217.61C37.7139 216.926 37.6488 216.416 37.5186 216.08C37.3938 215.744 37.1985 215.576 36.9326 215.576ZM45.3636 214.046L38.7637 225.943H36.8105L43.4105 214.046H45.3636ZM45.2497 218.627C46.1828 218.627 46.8908 218.953 47.3737 219.604C47.8566 220.255 48.098 221.169 48.098 222.346C48.098 223.518 47.8701 224.435 47.4144 225.097C46.9587 225.759 46.2371 226.09 45.2497 226.09C44.3328 226.09 43.6356 225.759 43.1582 225.097C42.6808 224.435 42.4421 223.518 42.4421 222.346C42.4421 221.169 42.6645 220.255 43.1094 219.604C43.5597 218.953 44.2731 218.627 45.2497 218.627ZM45.2659 220.328C45.0001 220.328 44.8048 220.496 44.68 220.833C44.5552 221.169 44.4928 221.679 44.4928 222.363C44.4928 223.046 44.5552 223.559 44.68 223.901C44.8048 224.243 45.0001 224.413 45.2659 224.413C45.5318 224.413 45.7271 224.245 45.8519 223.909C45.9821 223.567 46.0472 223.052 46.0472 222.363C46.0472 221.679 45.9821 221.169 45.8519 220.833C45.7271 220.496 45.5318 220.328 45.2659 220.328Z" fill="#2E2E30"/>
<path d="M56.4854 210.374L58.3896 206.805H59.2881L56.9053 211.175V213.943H56.0654V211.214L53.6875 206.805H54.5957L56.4854 210.374ZM64.7715 211.263C64.7715 212.135 64.5518 212.817 64.1123 213.309C63.6729 213.797 63.0658 214.041 62.291 214.041C61.8125 214.041 61.3877 213.929 61.0166 213.704C60.6455 213.479 60.359 213.157 60.1572 212.737C59.9554 212.317 59.8545 211.826 59.8545 211.263C59.8545 210.39 60.0726 209.712 60.5088 209.227C60.945 208.738 61.5505 208.494 62.3252 208.494C63.0739 208.494 63.668 208.743 64.1074 209.241C64.5501 209.739 64.7715 210.413 64.7715 211.263ZM60.6943 211.263C60.6943 211.946 60.8311 212.467 61.1045 212.825C61.3779 213.183 61.7799 213.362 62.3105 213.362C62.8411 213.362 63.2432 213.185 63.5166 212.83C63.7933 212.472 63.9316 211.95 63.9316 211.263C63.9316 210.582 63.7933 210.066 63.5166 209.715C63.2432 209.36 62.8379 209.183 62.3008 209.183C61.7702 209.183 61.3698 209.357 61.0996 209.705C60.8294 210.053 60.6943 210.573 60.6943 211.263ZM66.959 208.592V212.063C66.959 212.5 67.0583 212.825 67.2568 213.04C67.4554 213.255 67.7663 213.362 68.1895 213.362C68.7493 213.362 69.1579 213.209 69.415 212.903C69.6755 212.597 69.8057 212.098 69.8057 211.404V208.592H70.6162V213.943H69.9473L69.8301 213.226H69.7861C69.6201 213.489 69.389 213.691 69.0928 213.831C68.7998 213.971 68.4645 214.041 68.0869 214.041C67.4359 214.041 66.9476 213.886 66.6221 213.577C66.2998 213.268 66.1387 212.773 66.1387 212.093V208.592H66.959ZM74.7812 208.494C75.0189 208.494 75.2321 208.514 75.4209 208.553L75.3086 209.305C75.0872 209.256 74.8919 209.231 74.7227 209.231C74.2897 209.231 73.9186 209.407 73.6094 209.759C73.3034 210.11 73.1504 210.548 73.1504 211.072V213.943H72.3398V208.592H73.0088L73.1016 209.583H73.1406C73.3392 209.235 73.5785 208.966 73.8584 208.777C74.1383 208.589 74.446 208.494 74.7812 208.494ZM82.4717 212.483C82.4717 212.981 82.2861 213.366 81.915 213.636C81.5439 213.906 81.0231 214.041 80.3525 214.041C79.6429 214.041 79.0895 213.929 78.6924 213.704V212.952C78.9495 213.082 79.2246 213.185 79.5176 213.26C79.8138 213.335 80.0986 213.372 80.3721 213.372C80.7952 213.372 81.1208 213.305 81.3486 213.172C81.5765 213.035 81.6904 212.828 81.6904 212.552C81.6904 212.343 81.5993 212.166 81.417 212.02C81.238 211.87 80.8864 211.694 80.3623 211.492C79.8643 211.307 79.5094 211.146 79.2979 211.009C79.0895 210.869 78.9333 210.711 78.8291 210.535C78.7282 210.359 78.6777 210.149 78.6777 209.905C78.6777 209.469 78.8551 209.126 79.21 208.875C79.5648 208.621 80.0514 208.494 80.6699 208.494C81.2461 208.494 81.8092 208.611 82.3594 208.846L82.0713 209.505C81.5342 209.284 81.0475 209.173 80.6113 209.173C80.2272 209.173 79.9375 209.233 79.7422 209.354C79.5469 209.474 79.4492 209.64 79.4492 209.852C79.4492 209.995 79.485 210.117 79.5566 210.218C79.6315 210.319 79.7503 210.415 79.9131 210.506C80.0758 210.597 80.3883 210.729 80.8506 210.901C81.4854 211.132 81.9134 211.365 82.1348 211.6C82.3594 211.834 82.4717 212.129 82.4717 212.483ZM87.0859 213.943L86.9248 213.182H86.8857C86.6188 213.517 86.3519 213.745 86.085 213.865C85.8213 213.982 85.4909 214.041 85.0938 214.041C84.5632 214.041 84.1465 213.904 83.8438 213.631C83.5443 213.357 83.3945 212.968 83.3945 212.464C83.3945 211.383 84.2588 210.817 85.9873 210.765L86.8955 210.735V210.403C86.8955 209.983 86.8044 209.674 86.6221 209.476C86.443 209.274 86.1549 209.173 85.7578 209.173C85.3118 209.173 84.8073 209.31 84.2441 209.583L83.9951 208.963C84.2588 208.82 84.5469 208.707 84.8594 208.626C85.1751 208.545 85.4909 208.504 85.8066 208.504C86.4447 208.504 86.9167 208.646 87.2227 208.929C87.5319 209.212 87.6865 209.666 87.6865 210.291V213.943H87.0859ZM85.2549 213.372C85.7594 213.372 86.1549 213.234 86.4414 212.957C86.7311 212.68 86.876 212.293 86.876 211.795V211.312L86.0654 211.346C85.4209 211.368 84.9554 211.469 84.6689 211.648C84.3857 211.824 84.2441 212.099 84.2441 212.474C84.2441 212.767 84.332 212.99 84.5078 213.143C84.6868 213.296 84.9359 213.372 85.2549 213.372ZM90.1719 213.943H89.3613V206.346H90.1719V213.943ZM94.1514 214.041C93.3604 214.041 92.7354 213.8 92.2764 213.318C91.8206 212.837 91.5928 212.168 91.5928 211.312C91.5928 210.449 91.8044 209.764 92.2275 209.256C92.654 208.748 93.2253 208.494 93.9414 208.494C94.612 208.494 95.1426 208.715 95.5332 209.158C95.9238 209.598 96.1191 210.179 96.1191 210.901V211.414H92.4326C92.4489 212.042 92.6068 212.519 92.9062 212.845C93.209 213.17 93.6338 213.333 94.1807 213.333C94.7568 213.333 95.3265 213.213 95.8896 212.972V213.694C95.6032 213.818 95.3314 213.906 95.0742 213.958C94.8203 214.013 94.5127 214.041 94.1514 214.041ZM93.9316 209.173C93.502 209.173 93.1585 209.313 92.9014 209.593C92.6475 209.873 92.4977 210.26 92.4521 210.755H95.25C95.25 210.244 95.1361 209.853 94.9082 209.583C94.6803 209.31 94.3548 209.173 93.9316 209.173ZM100.958 212.483C100.958 212.981 100.772 213.366 100.401 213.636C100.03 213.906 99.5094 214.041 98.8389 214.041C98.1292 214.041 97.5758 213.929 97.1787 213.704V212.952C97.4359 213.082 97.7109 213.185 98.0039 213.26C98.3001 213.335 98.585 213.372 98.8584 213.372C99.2816 213.372 99.6071 213.305 99.835 213.172C100.063 213.035 100.177 212.828 100.177 212.552C100.177 212.343 100.086 212.166 99.9033 212.02C99.7243 211.87 99.3727 211.694 98.8486 211.492C98.3506 211.307 97.9958 211.146 97.7842 211.009C97.5758 210.869 97.4196 210.711 97.3154 210.535C97.2145 210.359 97.1641 210.149 97.1641 209.905C97.1641 209.469 97.3415 209.126 97.6963 208.875C98.0511 208.621 98.5378 208.494 99.1562 208.494C99.7324 208.494 100.296 208.611 100.846 208.846L100.558 209.505C100.021 209.284 99.5339 209.173 99.0977 209.173C98.7135 209.173 98.4238 209.233 98.2285 209.354C98.0332 209.474 97.9355 209.64 97.9355 209.852C97.9355 209.995 97.9714 210.117 98.043 210.218C98.1178 210.319 98.2367 210.415 98.3994 210.506C98.5622 210.597 98.8747 210.729 99.3369 210.901C99.9717 211.132 100.4 211.365 100.621 211.6C100.846 211.834 100.958 212.129 100.958 212.483ZM107.369 214.041C107.021 214.041 106.702 213.978 106.412 213.851C106.126 213.72 105.885 213.522 105.689 213.255H105.631C105.67 213.567 105.689 213.864 105.689 214.144V216.346H104.879V208.592H105.538L105.65 209.324H105.689C105.898 209.031 106.14 208.82 106.417 208.689C106.694 208.559 107.011 208.494 107.369 208.494C108.079 208.494 108.626 208.737 109.01 209.222C109.397 209.707 109.591 210.387 109.591 211.263C109.591 212.142 109.394 212.825 109 213.313C108.609 213.799 108.066 214.041 107.369 214.041ZM107.252 209.183C106.705 209.183 106.31 209.334 106.065 209.637C105.821 209.939 105.696 210.421 105.689 211.082V211.263C105.689 212.015 105.815 212.553 106.065 212.879C106.316 213.201 106.718 213.362 107.271 213.362C107.734 213.362 108.095 213.175 108.355 212.801C108.619 212.426 108.751 211.91 108.751 211.253C108.751 210.586 108.619 210.075 108.355 209.72C108.095 209.362 107.727 209.183 107.252 209.183ZM113.272 214.041C112.481 214.041 111.856 213.8 111.397 213.318C110.942 212.837 110.714 212.168 110.714 211.312C110.714 210.449 110.925 209.764 111.349 209.256C111.775 208.748 112.346 208.494 113.062 208.494C113.733 208.494 114.264 208.715 114.654 209.158C115.045 209.598 115.24 210.179 115.24 210.901V211.414H111.554C111.57 212.042 111.728 212.519 112.027 212.845C112.33 213.17 112.755 213.333 113.302 213.333C113.878 213.333 114.448 213.213 115.011 212.972V213.694C114.724 213.818 114.452 213.906 114.195 213.958C113.941 214.013 113.634 214.041 113.272 214.041ZM113.053 209.173C112.623 209.173 112.28 209.313 112.022 209.593C111.769 209.873 111.619 210.26 111.573 210.755H114.371C114.371 210.244 114.257 209.853 114.029 209.583C113.801 209.31 113.476 209.173 113.053 209.173ZM119.068 208.494C119.306 208.494 119.519 208.514 119.708 208.553L119.596 209.305C119.374 209.256 119.179 209.231 119.01 209.231C118.577 209.231 118.206 209.407 117.896 209.759C117.59 210.11 117.438 210.548 117.438 211.072V213.943H116.627V208.592H117.296L117.389 209.583H117.428C117.626 209.235 117.866 208.966 118.146 208.777C118.425 208.589 118.733 208.494 119.068 208.494ZM123.121 209.222H121.759V213.943H120.948V209.222H119.991V208.855L120.948 208.562V208.265C120.948 206.95 121.523 206.292 122.672 206.292C122.955 206.292 123.287 206.349 123.668 206.463L123.458 207.112C123.146 207.011 122.879 206.961 122.657 206.961C122.351 206.961 122.125 207.063 121.979 207.269C121.832 207.47 121.759 207.796 121.759 208.245V208.592H123.121V209.222ZM128.717 211.263C128.717 212.135 128.497 212.817 128.058 213.309C127.618 213.797 127.011 214.041 126.236 214.041C125.758 214.041 125.333 213.929 124.962 213.704C124.591 213.479 124.304 213.157 124.103 212.737C123.901 212.317 123.8 211.826 123.8 211.263C123.8 210.39 124.018 209.712 124.454 209.227C124.89 208.738 125.496 208.494 126.271 208.494C127.019 208.494 127.613 208.743 128.053 209.241C128.495 209.739 128.717 210.413 128.717 211.263ZM124.64 211.263C124.64 211.946 124.776 212.467 125.05 212.825C125.323 213.183 125.725 213.362 126.256 213.362C126.786 213.362 127.188 213.185 127.462 212.83C127.739 212.472 127.877 211.95 127.877 211.263C127.877 210.582 127.739 210.066 127.462 209.715C127.188 209.36 126.783 209.183 126.246 209.183C125.715 209.183 125.315 209.357 125.045 209.705C124.775 210.053 124.64 210.573 124.64 211.263ZM132.584 208.494C132.822 208.494 133.035 208.514 133.224 208.553L133.111 209.305C132.89 209.256 132.695 209.231 132.525 209.231C132.092 209.231 131.721 209.407 131.412 209.759C131.106 210.11 130.953 210.548 130.953 211.072V213.943H130.143V208.592H130.812L130.904 209.583H130.943C131.142 209.235 131.381 208.966 131.661 208.777C131.941 208.589 132.249 208.494 132.584 208.494ZM141.046 213.943V210.462C141.046 210.035 140.955 209.716 140.772 209.505C140.59 209.29 140.307 209.183 139.923 209.183C139.418 209.183 139.046 209.327 138.805 209.617C138.564 209.907 138.443 210.353 138.443 210.955V213.943H137.633V210.462C137.633 210.035 137.542 209.716 137.359 209.505C137.177 209.29 136.892 209.183 136.505 209.183C135.997 209.183 135.624 209.336 135.387 209.642C135.152 209.944 135.035 210.442 135.035 211.136V213.943H134.225V208.592H134.884L135.016 209.324H135.055C135.208 209.064 135.423 208.86 135.699 208.714C135.979 208.567 136.292 208.494 136.637 208.494C137.473 208.494 138.02 208.797 138.277 209.402H138.316C138.476 209.122 138.707 208.901 139.01 208.738C139.312 208.576 139.658 208.494 140.045 208.494C140.65 208.494 141.103 208.65 141.402 208.963C141.705 209.272 141.856 209.769 141.856 210.452V213.943H141.046ZM146.822 213.943L146.661 213.182H146.622C146.355 213.517 146.088 213.745 145.821 213.865C145.558 213.982 145.227 214.041 144.83 214.041C144.299 214.041 143.883 213.904 143.58 213.631C143.281 213.357 143.131 212.968 143.131 212.464C143.131 211.383 143.995 210.817 145.724 210.765L146.632 210.735V210.403C146.632 209.983 146.541 209.674 146.358 209.476C146.179 209.274 145.891 209.173 145.494 209.173C145.048 209.173 144.544 209.31 143.98 209.583L143.731 208.963C143.995 208.82 144.283 208.707 144.596 208.626C144.911 208.545 145.227 208.504 145.543 208.504C146.181 208.504 146.653 208.646 146.959 208.929C147.268 209.212 147.423 209.666 147.423 210.291V213.943H146.822ZM144.991 213.372C145.496 213.372 145.891 213.234 146.178 212.957C146.467 212.68 146.612 212.293 146.612 211.795V211.312L145.802 211.346C145.157 211.368 144.692 211.469 144.405 211.648C144.122 211.824 143.98 212.099 143.98 212.474C143.98 212.767 144.068 212.99 144.244 213.143C144.423 213.296 144.672 213.372 144.991 213.372ZM152.76 213.943V210.481C152.76 210.045 152.66 209.72 152.462 209.505C152.263 209.29 151.952 209.183 151.529 209.183C150.969 209.183 150.559 209.334 150.299 209.637C150.038 209.939 149.908 210.439 149.908 211.136V213.943H149.098V208.592H149.757L149.889 209.324H149.928C150.094 209.061 150.326 208.857 150.626 208.714C150.925 208.567 151.259 208.494 151.627 208.494C152.271 208.494 152.757 208.65 153.082 208.963C153.408 209.272 153.57 209.769 153.57 210.452V213.943H152.76ZM157.379 214.041C156.604 214.041 156.004 213.803 155.577 213.328C155.154 212.85 154.942 212.174 154.942 211.302C154.942 210.407 155.157 209.715 155.587 209.227C156.02 208.738 156.635 208.494 157.433 208.494C157.69 208.494 157.947 208.522 158.204 208.577C158.461 208.632 158.663 208.698 158.81 208.772L158.561 209.461C158.382 209.389 158.186 209.331 157.975 209.285C157.763 209.236 157.576 209.212 157.413 209.212C156.326 209.212 155.782 209.905 155.782 211.292C155.782 211.95 155.914 212.454 156.178 212.806C156.445 213.157 156.839 213.333 157.359 213.333C157.805 213.333 158.263 213.237 158.731 213.045V213.763C158.373 213.948 157.923 214.041 157.379 214.041ZM162.267 214.041C161.476 214.041 160.851 213.8 160.392 213.318C159.936 212.837 159.708 212.168 159.708 211.312C159.708 210.449 159.92 209.764 160.343 209.256C160.769 208.748 161.34 208.494 162.057 208.494C162.727 208.494 163.258 208.715 163.648 209.158C164.039 209.598 164.234 210.179 164.234 210.901V211.414H160.548C160.564 212.042 160.722 212.519 161.021 212.845C161.324 213.17 161.749 213.333 162.296 213.333C162.872 213.333 163.442 213.213 164.005 212.972V213.694C163.718 213.818 163.447 213.906 163.189 213.958C162.936 214.013 162.628 214.041 162.267 214.041ZM162.047 209.173C161.617 209.173 161.274 209.313 161.017 209.593C160.763 209.873 160.613 210.26 160.567 210.755H163.365C163.365 210.244 163.251 209.853 163.023 209.583C162.796 209.31 162.47 209.173 162.047 209.173ZM169.029 213.943H168.219V208.592H169.029V213.943ZM168.15 207.142C168.15 206.956 168.196 206.821 168.287 206.736C168.378 206.648 168.492 206.604 168.629 206.604C168.759 206.604 168.871 206.648 168.966 206.736C169.06 206.824 169.107 206.959 169.107 207.142C169.107 207.324 169.06 207.461 168.966 207.552C168.871 207.64 168.759 207.684 168.629 207.684C168.492 207.684 168.378 207.64 168.287 207.552C168.196 207.461 168.15 207.324 168.15 207.142ZM174.2 212.483C174.2 212.981 174.015 213.366 173.644 213.636C173.272 213.906 172.752 214.041 172.081 214.041C171.371 214.041 170.818 213.929 170.421 213.704V212.952C170.678 213.082 170.953 213.185 171.246 213.26C171.542 213.335 171.827 213.372 172.101 213.372C172.524 213.372 172.849 213.305 173.077 213.172C173.305 213.035 173.419 212.828 173.419 212.552C173.419 212.343 173.328 212.166 173.146 212.02C172.966 211.87 172.615 211.694 172.091 211.492C171.593 211.307 171.238 211.146 171.026 211.009C170.818 210.869 170.662 210.711 170.558 210.535C170.457 210.359 170.406 210.149 170.406 209.905C170.406 209.469 170.584 209.126 170.938 208.875C171.293 208.621 171.78 208.494 172.398 208.494C172.975 208.494 173.538 208.611 174.088 208.846L173.8 209.505C173.263 209.284 172.776 209.173 172.34 209.173C171.956 209.173 171.666 209.233 171.471 209.354C171.275 209.474 171.178 209.64 171.178 209.852C171.178 209.995 171.214 210.117 171.285 210.218C171.36 210.319 171.479 210.415 171.642 210.506C171.804 210.597 172.117 210.729 172.579 210.901C173.214 211.132 173.642 211.365 173.863 211.6C174.088 211.834 174.2 212.129 174.2 212.483ZM182.174 208.484C182.174 208.94 182.045 209.313 181.788 209.603C181.534 209.892 181.173 210.086 180.704 210.184V210.223C181.277 210.294 181.702 210.477 181.979 210.77C182.255 211.062 182.394 211.447 182.394 211.922C182.394 212.602 182.158 213.126 181.686 213.494C181.214 213.859 180.543 214.041 179.674 214.041C179.296 214.041 178.95 214.012 178.634 213.953C178.321 213.898 178.017 213.799 177.721 213.655V212.884C178.03 213.037 178.359 213.154 178.707 213.235C179.059 213.313 179.391 213.353 179.703 213.353C180.937 213.353 181.554 212.869 181.554 211.902C181.554 211.036 180.873 210.604 179.513 210.604H178.81V209.905H179.522C180.079 209.905 180.52 209.783 180.846 209.539C181.171 209.292 181.334 208.95 181.334 208.514C181.334 208.165 181.214 207.892 180.973 207.693C180.735 207.495 180.411 207.396 180.001 207.396C179.688 207.396 179.394 207.438 179.117 207.522C178.84 207.607 178.525 207.763 178.17 207.991L177.76 207.444C178.053 207.213 178.39 207.033 178.771 206.902C179.155 206.769 179.558 206.702 179.981 206.702C180.675 206.702 181.214 206.862 181.598 207.181C181.982 207.496 182.174 207.931 182.174 208.484ZM188.204 210.364C188.204 211.598 188.009 212.519 187.618 213.128C187.231 213.737 186.637 214.041 185.836 214.041C185.068 214.041 184.483 213.73 184.083 213.108C183.683 212.483 183.482 211.569 183.482 210.364C183.482 209.121 183.676 208.198 184.063 207.596C184.451 206.993 185.042 206.692 185.836 206.692C186.611 206.692 187.198 207.007 187.599 207.635C188.002 208.263 188.204 209.173 188.204 210.364ZM184.303 210.364C184.303 211.403 184.425 212.16 184.669 212.635C184.913 213.107 185.302 213.343 185.836 213.343C186.376 213.343 186.767 213.104 187.008 212.625C187.252 212.143 187.374 211.39 187.374 210.364C187.374 209.339 187.252 208.589 187.008 208.113C186.767 207.635 186.376 207.396 185.836 207.396C185.302 207.396 184.913 207.632 184.669 208.104C184.425 208.572 184.303 209.326 184.303 210.364ZM189.889 208.934C189.889 209.487 189.949 209.902 190.069 210.179C190.19 210.455 190.385 210.594 190.655 210.594C191.189 210.594 191.456 210.04 191.456 208.934C191.456 207.833 191.189 207.283 190.655 207.283C190.385 207.283 190.19 207.42 190.069 207.693C189.949 207.967 189.889 208.38 189.889 208.934ZM192.125 208.934C192.125 209.676 192 210.237 191.749 210.618C191.502 210.996 191.137 211.185 190.655 211.185C190.2 211.185 189.845 210.991 189.591 210.604C189.34 210.216 189.215 209.66 189.215 208.934C189.215 208.195 189.335 207.638 189.576 207.264C189.82 206.889 190.18 206.702 190.655 206.702C191.127 206.702 191.49 206.896 191.744 207.283C191.998 207.671 192.125 208.221 192.125 208.934ZM194.186 211.795C194.186 212.352 194.246 212.768 194.366 213.045C194.487 213.318 194.684 213.455 194.957 213.455C195.23 213.455 195.432 213.32 195.562 213.05C195.693 212.776 195.758 212.358 195.758 211.795C195.758 211.238 195.693 210.826 195.562 210.56C195.432 210.289 195.23 210.154 194.957 210.154C194.684 210.154 194.487 210.289 194.366 210.56C194.246 210.826 194.186 211.238 194.186 211.795ZM196.427 211.795C196.427 212.534 196.301 213.094 196.051 213.475C195.803 213.852 195.439 214.041 194.957 214.041C194.495 214.041 194.138 213.847 193.888 213.46C193.64 213.073 193.517 212.518 193.517 211.795C193.517 211.056 193.637 210.499 193.878 210.125C194.122 209.751 194.482 209.563 194.957 209.563C195.419 209.563 195.779 209.756 196.036 210.14C196.297 210.521 196.427 211.072 196.427 211.795ZM195.167 206.805L191.207 213.943H190.489L194.449 206.805H195.167ZM57.0371 222.504C57.7402 222.504 58.2855 222.745 58.6729 223.227C59.0635 223.705 59.2588 224.384 59.2588 225.263C59.2588 226.142 59.0618 226.825 58.668 227.313C58.2773 227.799 57.7337 228.041 57.0371 228.041C56.6888 228.041 56.3698 227.978 56.0801 227.851C55.7936 227.72 55.5527 227.522 55.3574 227.255H55.2988L55.1279 227.943H54.5469V220.346H55.3574V222.191C55.3574 222.605 55.3444 222.976 55.3184 223.305H55.3574C55.735 222.771 56.2949 222.504 57.0371 222.504ZM56.9199 223.183C56.3665 223.183 55.9678 223.342 55.7236 223.661C55.4795 223.977 55.3574 224.511 55.3574 225.263C55.3574 226.015 55.4827 226.553 55.7334 226.879C55.984 227.201 56.3861 227.362 56.9395 227.362C57.4375 227.362 57.8086 227.182 58.0527 226.82C58.2969 226.456 58.4189 225.933 58.4189 225.253C58.4189 224.556 58.2969 224.037 58.0527 223.695C57.8086 223.354 57.431 223.183 56.9199 223.183ZM62.9404 228.041C62.1494 228.041 61.5244 227.8 61.0654 227.318C60.6097 226.837 60.3818 226.168 60.3818 225.312C60.3818 224.449 60.5934 223.764 61.0166 223.256C61.443 222.748 62.0143 222.494 62.7305 222.494C63.401 222.494 63.9316 222.715 64.3223 223.158C64.7129 223.598 64.9082 224.179 64.9082 224.901V225.414H61.2217C61.238 226.042 61.3958 226.519 61.6953 226.845C61.998 227.17 62.4229 227.333 62.9697 227.333C63.5459 227.333 64.1156 227.213 64.6787 226.972V227.694C64.3923 227.818 64.1204 227.906 63.8633 227.958C63.6094 228.013 63.3018 228.041 62.9404 228.041ZM62.7207 223.173C62.291 223.173 61.9476 223.313 61.6904 223.593C61.4365 223.873 61.2868 224.26 61.2412 224.755H64.0391C64.0391 224.244 63.9251 223.853 63.6973 223.583C63.4694 223.31 63.1439 223.173 62.7207 223.173ZM68.0234 227.372C68.1667 227.372 68.305 227.362 68.4385 227.343C68.5719 227.32 68.6777 227.297 68.7559 227.274V227.895C68.668 227.937 68.5378 227.971 68.3652 227.997C68.196 228.026 68.043 228.041 67.9062 228.041C66.8711 228.041 66.3535 227.496 66.3535 226.405V223.222H65.5869V222.831L66.3535 222.494L66.6953 221.352H67.1641V222.592H68.7168V223.222H67.1641V226.371C67.1641 226.693 67.2406 226.941 67.3936 227.113C67.5465 227.286 67.7565 227.372 68.0234 227.372ZM71.5586 227.372C71.7018 227.372 71.8402 227.362 71.9736 227.343C72.1071 227.32 72.2129 227.297 72.291 227.274V227.895C72.2031 227.937 72.0729 227.971 71.9004 227.997C71.7311 228.026 71.5781 228.041 71.4414 228.041C70.4062 228.041 69.8887 227.496 69.8887 226.405V223.222H69.1221V222.831L69.8887 222.494L70.2305 221.352H70.6992V222.592H72.252V223.222H70.6992V226.371C70.6992 226.693 70.7757 226.941 70.9287 227.113C71.0817 227.286 71.2917 227.372 71.5586 227.372ZM75.626 228.041C74.835 228.041 74.21 227.8 73.751 227.318C73.2952 226.837 73.0674 226.168 73.0674 225.312C73.0674 224.449 73.279 223.764 73.7021 223.256C74.1286 222.748 74.6999 222.494 75.416 222.494C76.0866 222.494 76.6172 222.715 77.0078 223.158C77.3984 223.598 77.5938 224.179 77.5938 224.901V225.414H73.9072C73.9235 226.042 74.0814 226.519 74.3809 226.845C74.6836 227.17 75.1084 227.333 75.6553 227.333C76.2314 227.333 76.8011 227.213 77.3643 226.972V227.694C77.0778 227.818 76.806 227.906 76.5488 227.958C76.2949 228.013 75.9873 228.041 75.626 228.041ZM75.4062 223.173C74.9766 223.173 74.6331 223.313 74.376 223.593C74.1221 223.873 73.9723 224.26 73.9268 224.755H76.7246C76.7246 224.244 76.6107 223.853 76.3828 223.583C76.1549 223.31 75.8294 223.173 75.4062 223.173ZM81.4219 222.494C81.6595 222.494 81.8727 222.514 82.0615 222.553L81.9492 223.305C81.7279 223.256 81.5326 223.231 81.3633 223.231C80.9303 223.231 80.5592 223.407 80.25 223.759C79.944 224.11 79.791 224.548 79.791 225.072V227.943H78.9805V222.592H79.6494L79.7422 223.583H79.7812C79.9798 223.235 80.2191 222.966 80.499 222.777C80.779 222.589 81.0866 222.494 81.4219 222.494ZM87.7988 228.041C87.0241 228.041 86.4235 227.803 85.9971 227.328C85.5739 226.85 85.3623 226.174 85.3623 225.302C85.3623 224.407 85.5771 223.715 86.0068 223.227C86.4398 222.738 87.055 222.494 87.8525 222.494C88.1097 222.494 88.3669 222.522 88.624 222.577C88.8812 222.632 89.083 222.698 89.2295 222.772L88.9805 223.461C88.8014 223.389 88.6061 223.331 88.3945 223.285C88.1829 223.236 87.9958 223.212 87.833 223.212C86.7458 223.212 86.2021 223.905 86.2021 225.292C86.2021 225.95 86.334 226.454 86.5977 226.806C86.8646 227.157 87.2585 227.333 87.7793 227.333C88.2253 227.333 88.6826 227.237 89.1514 227.045V227.763C88.7933 227.948 88.3424 228.041 87.7988 228.041ZM95.0449 225.263C95.0449 226.135 94.8252 226.817 94.3857 227.309C93.9463 227.797 93.3392 228.041 92.5645 228.041C92.0859 228.041 91.6611 227.929 91.29 227.704C90.9189 227.479 90.6325 227.157 90.4307 226.737C90.2288 226.317 90.1279 225.826 90.1279 225.263C90.1279 224.39 90.346 223.712 90.7822 223.227C91.2184 222.738 91.8239 222.494 92.5986 222.494C93.3473 222.494 93.9414 222.743 94.3809 223.241C94.8236 223.739 95.0449 224.413 95.0449 225.263ZM90.9678 225.263C90.9678 225.946 91.1045 226.467 91.3779 226.825C91.6514 227.183 92.0534 227.362 92.584 227.362C93.1146 227.362 93.5166 227.185 93.79 226.83C94.0667 226.472 94.2051 225.95 94.2051 225.263C94.2051 224.582 94.0667 224.066 93.79 223.715C93.5166 223.36 93.1113 223.183 92.5742 223.183C92.0436 223.183 91.6432 223.357 91.373 223.705C91.1029 224.053 90.9678 224.573 90.9678 225.263ZM103.292 227.943V224.462C103.292 224.035 103.201 223.716 103.019 223.505C102.836 223.29 102.553 223.183 102.169 223.183C101.664 223.183 101.292 223.327 101.051 223.617C100.81 223.907 100.689 224.353 100.689 224.955V227.943H99.8789V224.462C99.8789 224.035 99.7878 223.716 99.6055 223.505C99.4232 223.29 99.1383 223.183 98.751 223.183C98.2432 223.183 97.8704 223.336 97.6328 223.642C97.3984 223.944 97.2812 224.442 97.2812 225.136V227.943H96.4707V222.592H97.1299L97.2617 223.324H97.3008C97.4538 223.064 97.6686 222.86 97.9453 222.714C98.2253 222.567 98.5378 222.494 98.8828 222.494C99.7194 222.494 100.266 222.797 100.523 223.402H100.562C100.722 223.122 100.953 222.901 101.256 222.738C101.559 222.576 101.904 222.494 102.291 222.494C102.896 222.494 103.349 222.65 103.648 222.963C103.951 223.272 104.103 223.769 104.103 224.452V227.943H103.292ZM108.268 228.041C107.919 228.041 107.6 227.978 107.311 227.851C107.024 227.72 106.783 227.522 106.588 227.255H106.529C106.568 227.567 106.588 227.864 106.588 228.144V230.346H105.777V222.592H106.437L106.549 223.324H106.588C106.796 223.031 107.039 222.82 107.315 222.689C107.592 222.559 107.91 222.494 108.268 222.494C108.977 222.494 109.524 222.737 109.908 223.222C110.296 223.707 110.489 224.387 110.489 225.263C110.489 226.142 110.292 226.825 109.898 227.313C109.508 227.799 108.964 228.041 108.268 228.041ZM108.15 223.183C107.604 223.183 107.208 223.334 106.964 223.637C106.72 223.939 106.594 224.421 106.588 225.082V225.263C106.588 226.015 106.713 226.553 106.964 226.879C107.215 227.201 107.617 227.362 108.17 227.362C108.632 227.362 108.993 227.175 109.254 226.801C109.518 226.426 109.649 225.91 109.649 225.253C109.649 224.586 109.518 224.075 109.254 223.72C108.993 223.362 108.626 223.183 108.15 223.183ZM115.201 227.943L115.04 227.182H115.001C114.734 227.517 114.467 227.745 114.2 227.865C113.937 227.982 113.606 228.041 113.209 228.041C112.678 228.041 112.262 227.904 111.959 227.631C111.66 227.357 111.51 226.968 111.51 226.464C111.51 225.383 112.374 224.817 114.103 224.765L115.011 224.735V224.403C115.011 223.983 114.92 223.674 114.737 223.476C114.558 223.274 114.27 223.173 113.873 223.173C113.427 223.173 112.923 223.31 112.359 223.583L112.11 222.963C112.374 222.82 112.662 222.707 112.975 222.626C113.29 222.545 113.606 222.504 113.922 222.504C114.56 222.504 115.032 222.646 115.338 222.929C115.647 223.212 115.802 223.666 115.802 224.291V227.943H115.201ZM113.37 227.372C113.875 227.372 114.27 227.234 114.557 226.957C114.846 226.68 114.991 226.293 114.991 225.795V225.312L114.181 225.346C113.536 225.368 113.071 225.469 112.784 225.648C112.501 225.824 112.359 226.099 112.359 226.474C112.359 226.767 112.447 226.99 112.623 227.143C112.802 227.296 113.051 227.372 113.37 227.372ZM119.918 222.494C120.156 222.494 120.369 222.514 120.558 222.553L120.445 223.305C120.224 223.256 120.029 223.231 119.859 223.231C119.426 223.231 119.055 223.407 118.746 223.759C118.44 224.11 118.287 224.548 118.287 225.072V227.943H117.477V222.592H118.146L118.238 223.583H118.277C118.476 223.235 118.715 222.966 118.995 222.777C119.275 222.589 119.583 222.494 119.918 222.494ZM123.819 228.041C123.028 228.041 122.403 227.8 121.944 227.318C121.489 226.837 121.261 226.168 121.261 225.312C121.261 224.449 121.472 223.764 121.896 223.256C122.322 222.748 122.893 222.494 123.609 222.494C124.28 222.494 124.811 222.715 125.201 223.158C125.592 223.598 125.787 224.179 125.787 224.901V225.414H122.101C122.117 226.042 122.275 226.519 122.574 226.845C122.877 227.17 123.302 227.333 123.849 227.333C124.425 227.333 124.994 227.213 125.558 226.972V227.694C125.271 227.818 124.999 227.906 124.742 227.958C124.488 228.013 124.181 228.041 123.819 228.041ZM123.6 223.173C123.17 223.173 122.826 223.313 122.569 223.593C122.315 223.873 122.166 224.26 122.12 224.755H124.918C124.918 224.244 124.804 223.853 124.576 223.583C124.348 223.31 124.023 223.173 123.6 223.173ZM131.5 227.372C131.643 227.372 131.782 227.362 131.915 227.343C132.049 227.32 132.154 227.297 132.232 227.274V227.895C132.145 227.937 132.014 227.971 131.842 227.997C131.673 228.026 131.52 228.041 131.383 228.041C130.348 228.041 129.83 227.496 129.83 226.405V223.222H129.063V222.831L129.83 222.494L130.172 221.352H130.641V222.592H132.193V223.222H130.641V226.371C130.641 226.693 130.717 226.941 130.87 227.113C131.023 227.286 131.233 227.372 131.5 227.372ZM137.926 225.263C137.926 226.135 137.706 226.817 137.267 227.309C136.827 227.797 136.22 228.041 135.445 228.041C134.967 228.041 134.542 227.929 134.171 227.704C133.8 227.479 133.513 227.157 133.312 226.737C133.11 226.317 133.009 225.826 133.009 225.263C133.009 224.39 133.227 223.712 133.663 223.227C134.099 222.738 134.705 222.494 135.479 222.494C136.228 222.494 136.822 222.743 137.262 223.241C137.704 223.739 137.926 224.413 137.926 225.263ZM133.849 225.263C133.849 225.946 133.985 226.467 134.259 226.825C134.532 227.183 134.934 227.362 135.465 227.362C135.995 227.362 136.397 227.185 136.671 226.83C136.948 226.472 137.086 225.95 137.086 225.263C137.086 224.582 136.948 224.066 136.671 223.715C136.397 223.36 135.992 223.183 135.455 223.183C134.924 223.183 134.524 223.357 134.254 223.705C133.984 224.053 133.849 224.573 133.849 225.263ZM142.76 227.943H141.949V220.346H142.76V227.943ZM147.77 227.943L147.608 227.182H147.569C147.302 227.517 147.035 227.745 146.769 227.865C146.505 227.982 146.174 228.041 145.777 228.041C145.247 228.041 144.83 227.904 144.527 227.631C144.228 227.357 144.078 226.968 144.078 226.464C144.078 225.383 144.942 224.817 146.671 224.765L147.579 224.735V224.403C147.579 223.983 147.488 223.674 147.306 223.476C147.127 223.274 146.839 223.173 146.441 223.173C145.995 223.173 145.491 223.31 144.928 223.583L144.679 222.963C144.942 222.82 145.23 222.707 145.543 222.626C145.859 222.545 146.174 222.504 146.49 222.504C147.128 222.504 147.6 222.646 147.906 222.929C148.215 223.212 148.37 223.666 148.37 224.291V227.943H147.77ZM145.938 227.372C146.443 227.372 146.839 227.234 147.125 226.957C147.415 226.68 147.56 226.293 147.56 225.795V225.312L146.749 225.346C146.104 225.368 145.639 225.469 145.353 225.648C145.069 225.824 144.928 226.099 144.928 226.474C144.928 226.767 145.016 226.99 145.191 227.143C145.37 227.296 145.619 227.372 145.938 227.372ZM153.497 226.483C153.497 226.981 153.312 227.366 152.94 227.636C152.569 227.906 152.049 228.041 151.378 228.041C150.668 228.041 150.115 227.929 149.718 227.704V226.952C149.975 227.082 150.25 227.185 150.543 227.26C150.839 227.335 151.124 227.372 151.397 227.372C151.821 227.372 152.146 227.305 152.374 227.172C152.602 227.035 152.716 226.828 152.716 226.552C152.716 226.343 152.625 226.166 152.442 226.02C152.263 225.87 151.912 225.694 151.388 225.492C150.89 225.307 150.535 225.146 150.323 225.009C150.115 224.869 149.959 224.711 149.854 224.535C149.754 224.359 149.703 224.149 149.703 223.905C149.703 223.469 149.881 223.126 150.235 222.875C150.59 222.621 151.077 222.494 151.695 222.494C152.271 222.494 152.835 222.611 153.385 222.846L153.097 223.505C152.56 223.284 152.073 223.173 151.637 223.173C151.253 223.173 150.963 223.233 150.768 223.354C150.572 223.474 150.475 223.64 150.475 223.852C150.475 223.995 150.51 224.117 150.582 224.218C150.657 224.319 150.776 224.415 150.938 224.506C151.101 224.597 151.414 224.729 151.876 224.901C152.511 225.132 152.939 225.365 153.16 225.6C153.385 225.834 153.497 226.129 153.497 226.483ZM156.549 227.372C156.692 227.372 156.83 227.362 156.964 227.343C157.097 227.32 157.203 227.297 157.281 227.274V227.895C157.193 227.937 157.063 227.971 156.891 227.997C156.721 228.026 156.568 228.041 156.432 228.041C155.396 228.041 154.879 227.496 154.879 226.405V223.222H154.112V222.831L154.879 222.494L155.221 221.352H155.689V222.592H157.242V223.222H155.689V226.371C155.689 226.693 155.766 226.941 155.919 227.113C156.072 227.286 156.282 227.372 156.549 227.372ZM167.774 227.943V224.462C167.774 224.035 167.683 223.716 167.501 223.505C167.319 223.29 167.035 223.183 166.651 223.183C166.147 223.183 165.774 223.327 165.533 223.617C165.292 223.907 165.172 224.353 165.172 224.955V227.943H164.361V224.462C164.361 224.035 164.27 223.716 164.088 223.505C163.906 223.29 163.621 223.183 163.233 223.183C162.726 223.183 162.353 223.336 162.115 223.642C161.881 223.944 161.764 224.442 161.764 225.136V227.943H160.953V222.592H161.612L161.744 223.324H161.783C161.936 223.064 162.151 222.86 162.428 222.714C162.708 222.567 163.02 222.494 163.365 222.494C164.202 222.494 164.749 222.797 165.006 223.402H165.045C165.204 223.122 165.436 222.901 165.738 222.738C166.041 222.576 166.386 222.494 166.773 222.494C167.379 222.494 167.831 222.65 168.131 222.963C168.434 223.272 168.585 223.769 168.585 224.452V227.943H167.774ZM174.879 225.263C174.879 226.135 174.659 226.817 174.22 227.309C173.78 227.797 173.173 228.041 172.398 228.041C171.92 228.041 171.495 227.929 171.124 227.704C170.753 227.479 170.466 227.157 170.265 226.737C170.063 226.317 169.962 225.826 169.962 225.263C169.962 224.39 170.18 223.712 170.616 223.227C171.052 222.738 171.658 222.494 172.433 222.494C173.181 222.494 173.775 222.743 174.215 223.241C174.658 223.739 174.879 224.413 174.879 225.263ZM170.802 225.263C170.802 225.946 170.938 226.467 171.212 226.825C171.485 227.183 171.887 227.362 172.418 227.362C172.949 227.362 173.351 227.185 173.624 226.83C173.901 226.472 174.039 225.95 174.039 225.263C174.039 224.582 173.901 224.066 173.624 223.715C173.351 223.36 172.945 223.183 172.408 223.183C171.878 223.183 171.477 223.357 171.207 223.705C170.937 224.053 170.802 224.573 170.802 225.263ZM179.967 227.943V224.481C179.967 224.045 179.868 223.72 179.669 223.505C179.47 223.29 179.16 223.183 178.736 223.183C178.176 223.183 177.766 223.334 177.506 223.637C177.245 223.939 177.115 224.439 177.115 225.136V227.943H176.305V222.592H176.964L177.096 223.324H177.135C177.301 223.061 177.534 222.857 177.833 222.714C178.132 222.567 178.466 222.494 178.834 222.494C179.479 222.494 179.964 222.65 180.289 222.963C180.615 223.272 180.777 223.769 180.777 224.452V227.943H179.967ZM184.176 227.372C184.319 227.372 184.457 227.362 184.591 227.343C184.724 227.32 184.83 227.297 184.908 227.274V227.895C184.82 227.937 184.69 227.971 184.518 227.997C184.348 228.026 184.195 228.041 184.059 228.041C183.023 228.041 182.506 227.496 182.506 226.405V223.222H181.739V222.831L182.506 222.494L182.848 221.352H183.316V222.592H184.869V223.222H183.316V226.371C183.316 226.693 183.393 226.941 183.546 227.113C183.699 227.286 183.909 227.372 184.176 227.372ZM189.645 227.943V224.481C189.645 224.045 189.545 223.72 189.347 223.505C189.148 223.29 188.837 223.183 188.414 223.183C187.851 223.183 187.439 223.336 187.179 223.642C186.922 223.948 186.793 224.449 186.793 225.146V227.943H185.982V220.346H186.793V222.646C186.793 222.922 186.78 223.152 186.754 223.334H186.803C186.962 223.077 187.188 222.875 187.481 222.729C187.778 222.579 188.115 222.504 188.492 222.504C189.146 222.504 189.636 222.66 189.962 222.973C190.291 223.282 190.455 223.775 190.455 224.452V227.943H189.645Z" fill="#767676"/>
<rect x="47.4482" y="240.822" width="141.807" height="32.5" rx="4.16667" fill="#D5E5FF"/>
<path d="M105.81 257.828C105.81 258.766 105.629 259.55 105.269 260.181C104.912 260.807 104.393 261.28 103.713 261.599C103.034 261.914 102.215 262.072 101.258 262.072H98.8997V253.744H101.514C102.388 253.744 103.146 253.899 103.787 254.211C104.429 254.518 104.927 254.976 105.28 255.584C105.633 256.187 105.81 256.936 105.81 257.828ZM103.975 257.874C103.975 257.258 103.884 256.753 103.702 256.358C103.523 255.96 103.258 255.665 102.904 255.475C102.555 255.285 102.122 255.191 101.606 255.191H100.666V260.614H101.423C102.285 260.614 102.925 260.384 103.343 259.924C103.765 259.465 103.975 258.781 103.975 257.874ZM110.025 255.584C110.614 255.584 111.121 255.698 111.546 255.925C111.972 256.149 112.3 256.476 112.532 256.905C112.763 257.334 112.879 257.858 112.879 258.477V259.321H108.772C108.791 259.81 108.937 260.196 109.211 260.477C109.488 260.754 109.871 260.893 110.361 260.893C110.768 260.893 111.14 260.851 111.478 260.767C111.816 260.684 112.163 260.559 112.52 260.392V261.736C112.205 261.892 111.875 262.006 111.529 262.078C111.187 262.15 110.771 262.186 110.282 262.186C109.644 262.186 109.078 262.068 108.584 261.833C108.094 261.597 107.709 261.238 107.428 260.756C107.15 260.274 107.012 259.666 107.012 258.933C107.012 258.189 107.137 257.57 107.388 257.076C107.642 256.579 107.995 256.206 108.447 255.96C108.899 255.709 109.425 255.584 110.025 255.584ZM110.037 256.82C109.699 256.82 109.418 256.928 109.194 257.144C108.973 257.361 108.846 257.701 108.812 258.164H111.25C111.246 257.906 111.199 257.676 111.108 257.475C111.02 257.274 110.887 257.114 110.709 256.996C110.534 256.879 110.31 256.82 110.037 256.82ZM116.975 260.802C117.165 260.802 117.349 260.783 117.528 260.745C117.71 260.707 117.89 260.659 118.069 260.602V261.895C117.883 261.979 117.651 262.047 117.374 262.101C117.1 262.157 116.8 262.186 116.474 262.186C116.094 262.186 115.752 262.125 115.448 262.004C115.148 261.878 114.911 261.664 114.736 261.36C114.565 261.052 114.48 260.625 114.48 260.078V257.008H113.648V256.273L114.605 255.692L115.107 254.347H116.217V255.703H118V257.008H116.217V260.078C116.217 260.321 116.286 260.504 116.423 260.625C116.563 260.743 116.747 260.802 116.975 260.802ZM121.971 255.572C122.826 255.572 123.481 255.758 123.936 256.13C124.392 256.503 124.62 257.068 124.62 257.828V262.072H123.407L123.07 261.206H123.025C122.843 261.434 122.657 261.62 122.467 261.764C122.277 261.909 122.058 262.015 121.812 262.083C121.565 262.152 121.265 262.186 120.911 262.186C120.535 262.186 120.197 262.114 119.897 261.969C119.601 261.825 119.368 261.605 119.197 261.309C119.026 261.009 118.94 260.629 118.94 260.169C118.94 259.493 119.178 258.996 119.653 258.677C120.127 258.354 120.839 258.176 121.789 258.141L122.894 258.107V257.828C122.894 257.494 122.807 257.249 122.632 257.093C122.457 256.937 122.214 256.86 121.903 256.86C121.595 256.86 121.293 256.903 120.997 256.991C120.701 257.078 120.404 257.188 120.108 257.321L119.533 256.148C119.871 255.969 120.249 255.829 120.667 255.726C121.088 255.623 121.523 255.572 121.971 255.572ZM122.894 259.121L122.222 259.144C121.66 259.159 121.268 259.26 121.048 259.446C120.832 259.632 120.723 259.877 120.723 260.181C120.723 260.447 120.801 260.636 120.957 260.75C121.113 260.861 121.316 260.916 121.567 260.916C121.939 260.916 122.252 260.805 122.507 260.585C122.765 260.365 122.894 260.052 122.894 259.645V259.121ZM128.152 255.703V262.072H126.414V255.703H128.152ZM127.286 253.208C127.544 253.208 127.766 253.269 127.952 253.39C128.139 253.508 128.232 253.73 128.232 254.057C128.232 254.38 128.139 254.604 127.952 254.729C127.766 254.851 127.544 254.911 127.286 254.911C127.024 254.911 126.8 254.851 126.614 254.729C126.431 254.604 126.34 254.38 126.34 254.057C126.34 253.73 126.431 253.508 126.614 253.39C126.8 253.269 127.024 253.208 127.286 253.208ZM131.718 262.072H129.98V253.208H131.718V262.072ZM137.99 260.181C137.99 260.614 137.887 260.98 137.682 261.28C137.481 261.576 137.179 261.802 136.777 261.958C136.374 262.11 135.873 262.186 135.273 262.186C134.828 262.186 134.447 262.157 134.128 262.101C133.812 262.044 133.493 261.949 133.171 261.816V260.38C133.516 260.536 133.886 260.665 134.281 260.767C134.68 260.866 135.03 260.916 135.33 260.916C135.668 260.916 135.909 260.866 136.053 260.767C136.201 260.665 136.275 260.532 136.275 260.369C136.275 260.262 136.245 260.167 136.184 260.084C136.127 259.997 136.002 259.9 135.808 259.793C135.614 259.683 135.311 259.541 134.897 259.366C134.498 259.199 134.169 259.03 133.911 258.859C133.657 258.688 133.467 258.487 133.341 258.255C133.22 258.02 133.159 257.722 133.159 257.361C133.159 256.772 133.387 256.33 133.843 256.034C134.302 255.734 134.916 255.584 135.683 255.584C136.078 255.584 136.454 255.623 136.811 255.703C137.171 255.783 137.542 255.91 137.922 256.085L137.397 257.338C137.082 257.201 136.784 257.089 136.503 257.002C136.226 256.915 135.943 256.871 135.654 256.871C135.4 256.871 135.208 256.905 135.079 256.974C134.95 257.042 134.885 257.146 134.885 257.287C134.885 257.389 134.918 257.481 134.982 257.56C135.05 257.64 135.18 257.729 135.369 257.828C135.563 257.923 135.846 258.046 136.218 258.198C136.579 258.346 136.892 258.502 137.158 258.665C137.424 258.825 137.629 259.024 137.773 259.264C137.918 259.499 137.99 259.805 137.99 260.181Z" fill="#8671E5"/>
<path d="M19.9552 194.567C19.8196 194.567 19.7002 194.557 19.5972 194.538C19.4941 194.519 19.4059 194.493 19.3327 194.461V193.871C19.4195 193.898 19.5131 193.918 19.6134 193.932C19.7138 193.948 19.8223 193.956 19.939 193.956C20.0909 193.956 20.2306 193.926 20.3581 193.867C20.4856 193.807 20.5873 193.705 20.6632 193.562C20.7392 193.418 20.7772 193.22 20.7772 192.967V187.051H21.473V192.915C21.473 193.286 21.4106 193.594 21.2858 193.838C21.1637 194.082 20.9888 194.264 20.7609 194.383C20.5358 194.506 20.2672 194.567 19.9552 194.567ZM24.6183 188.467C25.15 188.467 25.5447 188.586 25.8024 188.825C26.0601 189.064 26.189 189.445 26.189 189.969V193H25.6966L25.5664 192.341H25.5339C25.4091 192.504 25.2789 192.641 25.1432 192.752C25.0076 192.86 24.8503 192.943 24.6712 193C24.4949 193.054 24.2779 193.081 24.0202 193.081C23.7489 193.081 23.5075 193.034 23.2959 192.939C23.087 192.844 22.9215 192.7 22.7995 192.508C22.6801 192.315 22.6204 192.071 22.6204 191.775C22.6204 191.33 22.7968 190.989 23.1494 190.75C23.5021 190.511 24.0392 190.381 24.7607 190.359L25.5298 190.327V190.054C25.5298 189.669 25.447 189.399 25.2816 189.244C25.1161 189.09 24.8828 189.012 24.5817 189.012C24.3484 189.012 24.126 189.046 23.9144 189.114C23.7028 189.182 23.5021 189.262 23.3122 189.354L23.1047 188.841C23.3054 188.738 23.536 188.65 23.7964 188.577C24.0568 188.504 24.3308 188.467 24.6183 188.467ZM25.5216 190.803L24.8421 190.831C24.286 190.853 23.894 190.944 23.6662 191.104C23.4383 191.264 23.3244 191.49 23.3244 191.783C23.3244 192.038 23.4017 192.227 23.5563 192.349C23.7109 192.471 23.9157 192.532 24.1707 192.532C24.5668 192.532 24.891 192.422 25.1432 192.202C25.3955 191.983 25.5216 191.653 25.5216 191.214V190.803ZM29.6924 188.459C30.2214 188.459 30.6215 188.589 30.8927 188.85C31.164 189.107 31.2996 189.522 31.2996 190.095V193H30.6323V190.139C30.6323 189.768 30.5469 189.49 30.376 189.305C30.2078 189.121 29.9487 189.029 29.5988 189.029C29.1051 189.029 28.7579 189.168 28.5571 189.448C28.3564 189.727 28.256 190.133 28.256 190.664V193H27.5806V188.54H28.1258L28.2275 189.183H28.2642C28.3591 189.026 28.4798 188.894 28.6263 188.789C28.7728 188.68 28.9369 188.599 29.1187 188.544C29.3004 188.487 29.4916 188.459 29.6924 188.459Z" fill="#2E2E30"/>
<path d="M85.9644 193.074L83.9665 187.809H83.9339C83.9448 187.92 83.9543 188.056 83.9624 188.216C83.9705 188.376 83.9773 188.551 83.9827 188.74C83.9882 188.928 83.9909 189.119 83.9909 189.314V193.074H83.348V187.125H84.3734L86.2573 192.073H86.2858L88.1982 187.125H89.2155V193.074H88.5319V189.265C88.5319 189.089 88.5346 188.913 88.54 188.736C88.5455 188.557 88.5522 188.389 88.5604 188.232C88.5685 188.072 88.5767 187.933 88.5848 187.817H88.5522L86.5299 193.074H85.9644ZM92.4097 188.541C92.9414 188.541 93.336 188.66 93.5937 188.899C93.8515 189.138 93.9803 189.519 93.9803 190.043V193.074H93.488L93.3577 192.415H93.3252C93.2004 192.578 93.0702 192.715 92.9346 192.826C92.7989 192.934 92.6416 193.017 92.4626 193.074C92.2862 193.128 92.0692 193.155 91.8115 193.155C91.5403 193.155 91.2988 193.108 91.0872 193.013C90.8784 192.918 90.7129 192.774 90.5908 192.582C90.4715 192.389 90.4118 192.145 90.4118 191.849C90.4118 191.404 90.5881 191.063 90.9408 190.824C91.2934 190.585 91.8305 190.455 92.5521 190.433L93.3211 190.401V190.128C93.3211 189.743 93.2384 189.473 93.0729 189.318C92.9074 189.164 92.6742 189.086 92.373 189.086C92.1398 189.086 91.9173 189.12 91.7057 189.188C91.4941 189.256 91.2934 189.336 91.1035 189.428L90.896 188.915C91.0967 188.812 91.3273 188.724 91.5877 188.651C91.8481 188.578 92.1221 188.541 92.4097 188.541ZM93.313 190.877L92.6335 190.905C92.0774 190.927 91.6854 191.018 91.4575 191.178C91.2297 191.338 91.1157 191.564 91.1157 191.857C91.1157 192.112 91.193 192.301 91.3477 192.423C91.5023 192.545 91.7071 192.606 91.9621 192.606C92.3581 192.606 92.6823 192.496 92.9346 192.276C93.1868 192.057 93.313 191.727 93.313 191.288V190.877ZM97.3983 188.533C97.4878 188.533 97.5814 188.538 97.679 188.549C97.7767 188.557 97.8635 188.57 97.9395 188.586L97.854 189.212C97.7808 189.193 97.6994 189.179 97.6099 189.168C97.5203 189.157 97.4363 189.151 97.3576 189.151C97.1785 189.151 97.009 189.188 96.849 189.261C96.6916 189.332 96.5533 189.435 96.4339 189.571C96.3146 189.703 96.221 189.865 96.1532 190.055C96.0853 190.242 96.0514 190.451 96.0514 190.681V193.074H95.3719V188.614H95.9334L96.0067 189.436H96.0352C96.1274 189.271 96.2386 189.12 96.3688 188.985C96.499 188.846 96.6496 188.736 96.8205 188.655C96.9941 188.574 97.1867 188.533 97.3983 188.533Z" fill="#2E2E30"/>
<path d="M149.395 193.074L147.397 187.809H147.365C147.375 187.92 147.385 188.056 147.393 188.216C147.401 188.376 147.408 188.551 147.413 188.74C147.419 188.928 147.422 189.119 147.422 189.314V193.074H146.779V187.125H147.804L149.688 192.073H149.716L151.629 187.125H152.646V193.074H151.963V189.265C151.963 189.089 151.965 188.913 151.971 188.736C151.976 188.557 151.983 188.389 151.991 188.232C151.999 188.072 152.007 187.933 152.015 187.817H151.983L149.961 193.074H149.395ZM155.84 188.541C156.372 188.541 156.767 188.66 157.024 188.899C157.282 189.138 157.411 189.519 157.411 190.043V193.074H156.919L156.788 192.415H156.756C156.631 192.578 156.501 192.715 156.365 192.826C156.23 192.934 156.072 193.017 155.893 193.074C155.717 193.128 155.5 193.155 155.242 193.155C154.971 193.155 154.729 193.108 154.518 193.013C154.309 192.918 154.144 192.774 154.021 192.582C153.902 192.389 153.842 192.145 153.842 191.849C153.842 191.404 154.019 191.063 154.371 190.824C154.724 190.585 155.261 190.455 155.983 190.433L156.752 190.401V190.128C156.752 189.743 156.669 189.473 156.504 189.318C156.338 189.164 156.105 189.086 155.804 189.086C155.57 189.086 155.348 189.12 155.136 189.188C154.925 189.256 154.724 189.336 154.534 189.428L154.327 188.915C154.527 188.812 154.758 188.724 155.018 188.651C155.279 188.578 155.553 188.541 155.84 188.541ZM156.744 190.877L156.064 190.905C155.508 190.927 155.116 191.018 154.888 191.178C154.66 191.338 154.546 191.564 154.546 191.857C154.546 192.112 154.624 192.301 154.778 192.423C154.933 192.545 155.138 192.606 155.393 192.606C155.789 192.606 156.113 192.496 156.365 192.276C156.618 192.057 156.744 191.727 156.744 191.288V190.877ZM158.099 188.614H158.823L159.808 191.202C159.865 191.354 159.917 191.501 159.966 191.642C160.015 191.78 160.059 191.913 160.097 192.04C160.134 192.168 160.164 192.291 160.186 192.411H160.215C160.252 192.275 160.307 192.097 160.377 191.878C160.448 191.655 160.524 191.429 160.605 191.198L161.537 188.614H162.265L160.324 193.729C160.221 194.003 160.101 194.242 159.962 194.445C159.827 194.649 159.661 194.805 159.466 194.913C159.271 195.024 159.035 195.08 158.758 195.08C158.63 195.08 158.518 195.072 158.42 195.056C158.322 195.042 158.238 195.026 158.168 195.007V194.466C158.227 194.479 158.299 194.491 158.383 194.502C158.47 194.513 158.56 194.518 158.652 194.518C158.82 194.518 158.965 194.486 159.087 194.421C159.212 194.358 159.319 194.266 159.409 194.144C159.498 194.022 159.576 193.877 159.641 193.709L159.885 193.082L158.099 188.614Z" fill="#2E2E30"/>
<path d="M212.253 194.641C212.117 194.641 211.998 194.631 211.895 194.612C211.792 194.593 211.704 194.567 211.631 194.535V193.945C211.717 193.972 211.811 193.992 211.911 194.006C212.012 194.022 212.12 194.03 212.237 194.03C212.389 194.03 212.528 194 212.656 193.941C212.783 193.881 212.885 193.779 212.961 193.635C213.037 193.492 213.075 193.294 213.075 193.041V187.125H213.771V192.989C213.771 193.36 213.708 193.668 213.584 193.912C213.462 194.156 213.287 194.338 213.059 194.457C212.834 194.58 212.565 194.641 212.253 194.641ZM218.93 188.614V193.074H218.377L218.279 192.447H218.243C218.15 192.602 218.031 192.732 217.885 192.838C217.738 192.944 217.573 193.022 217.388 193.074C217.206 193.128 217.012 193.155 216.806 193.155C216.454 193.155 216.158 193.098 215.919 192.984C215.681 192.871 215.5 192.694 215.378 192.455C215.259 192.217 215.199 191.91 215.199 191.536V188.614H215.883V191.487C215.883 191.859 215.967 192.137 216.135 192.321C216.303 192.503 216.559 192.594 216.904 192.594C217.235 192.594 217.498 192.531 217.693 192.407C217.891 192.282 218.034 192.099 218.121 191.857C218.207 191.613 218.251 191.315 218.251 190.962V188.614H218.93ZM221.038 193.074H220.359V186.743H221.038V193.074Z" fill="#8671E5"/>
<path d="M24.9121 117.797C30.0444 92.2686 44.774 53.4341 62.6341 102.325C80.4943 151.217 92.1444 122.697 95.737 102.325C103.949 100.52 120.988 102.48 123.451 124.76C125.914 147.039 145.006 124.244 154.244 110.061C158.967 102.81 181.804 114.703 187.347 130.175C192.89 145.647 210.699 154.672 218.911 157.251" stroke="#8671E5" stroke-width="1.66667"/>
<g filter="url(#filter1_d_209_10614)">
<rect x="112.612" y="86.6555" width="107.612" height="15.3619" rx="4.16667" fill="#FBFBFB"/>
</g>
<path d="M123.929 96.2708H123.213V97.5037H121.984V96.2708H119.445V95.3959L122.053 91.5548H123.213V95.2942H123.929V96.2708ZM121.984 95.2942V94.2851C121.984 94.1901 121.986 94.0776 121.988 93.9473C121.994 93.8171 121.999 93.6869 122.005 93.5567C122.01 93.4265 122.015 93.3112 122.021 93.2109C122.029 93.1078 122.034 93.0359 122.037 92.9952H122.005C121.953 93.1064 121.899 93.2149 121.842 93.3207C121.785 93.4238 121.718 93.5323 121.642 93.6462L120.552 95.2942H121.984ZM126.57 93.7032C126.933 93.7032 127.256 93.7724 127.538 93.9107C127.823 94.0491 128.047 94.2525 128.21 94.5211C128.373 94.7896 128.454 95.1206 128.454 95.5139C128.454 95.9425 128.364 96.3128 128.185 96.6248C128.009 96.934 127.745 97.1714 127.392 97.3368C127.042 97.5023 126.605 97.585 126.082 97.585C125.77 97.585 125.475 97.5579 125.199 97.5037C124.925 97.4521 124.685 97.3721 124.479 97.2636V96.1772C124.685 96.2857 124.932 96.3779 125.219 96.4539C125.509 96.5271 125.782 96.5637 126.037 96.5637C126.287 96.5637 126.497 96.5312 126.668 96.4661C126.839 96.3982 126.967 96.2952 127.054 96.1568C127.144 96.0158 127.188 95.8367 127.188 95.6197C127.188 95.3295 127.091 95.107 126.896 94.9524C126.7 94.7978 126.4 94.7205 125.996 94.7205C125.842 94.7205 125.68 94.7354 125.512 94.7652C125.347 94.7951 125.208 94.8249 125.097 94.8547L124.597 94.5862L124.82 91.5548H128.047V92.6208H125.923L125.813 93.7887C125.905 93.7697 126.006 93.7507 126.114 93.7317C126.223 93.7127 126.375 93.7032 126.57 93.7032ZM133.3 94.5292C133.3 95.0094 133.262 95.438 133.186 95.815C133.113 96.1921 132.994 96.5122 132.828 96.7753C132.665 97.0384 132.451 97.2392 132.185 97.3775C131.919 97.5159 131.597 97.585 131.217 97.585C130.739 97.585 130.347 97.4643 130.041 97.2229C129.734 96.9788 129.508 96.6288 129.361 96.1731C129.215 95.7147 129.142 95.1667 129.142 94.5292C129.142 93.8863 129.208 93.337 129.341 92.8813C129.477 92.4228 129.696 92.0715 130 91.8274C130.304 91.5833 130.71 91.4612 131.217 91.4612C131.692 91.4612 132.082 91.5833 132.389 91.8274C132.698 92.0688 132.927 92.4188 133.076 92.8772C133.226 93.3329 133.3 93.8836 133.3 94.5292ZM130.391 94.5292C130.391 94.9822 130.415 95.3607 130.464 95.6645C130.516 95.9656 130.601 96.1921 130.72 96.344C130.84 96.4959 131.005 96.5719 131.217 96.5719C131.426 96.5719 131.59 96.4973 131.709 96.3481C131.831 96.1962 131.918 95.9696 131.97 95.6685C132.021 95.3647 132.047 94.9849 132.047 94.5292C132.047 94.0762 132.021 93.6978 131.97 93.394C131.918 93.0901 131.831 92.8623 131.709 92.7104C131.59 92.5557 131.426 92.4784 131.217 92.4784C131.005 92.4784 130.84 92.5557 130.72 92.7104C130.601 92.8623 130.516 93.0901 130.464 93.394C130.415 93.6978 130.391 94.0762 130.391 94.5292ZM138.069 94.5292C138.069 95.0094 138.031 95.438 137.955 95.815C137.882 96.1921 137.762 96.5122 137.597 96.7753C137.434 97.0384 137.22 97.2392 136.954 97.3775C136.688 97.5159 136.365 97.585 135.986 97.585C135.508 97.585 135.116 97.4643 134.81 97.2229C134.503 96.9788 134.277 96.6288 134.13 96.1731C133.984 95.7147 133.91 95.1667 133.91 94.5292C133.91 93.8863 133.977 93.337 134.11 92.8813C134.245 92.4228 134.465 92.0715 134.769 91.8274C135.073 91.5833 135.478 91.4612 135.986 91.4612C136.46 91.4612 136.851 91.5833 137.158 91.8274C137.467 92.0688 137.696 92.4188 137.845 92.8772C137.994 93.3329 138.069 93.8836 138.069 94.5292ZM135.16 94.5292C135.16 94.9822 135.184 95.3607 135.233 95.6645C135.284 95.9656 135.37 96.1921 135.489 96.344C135.609 96.4959 135.774 96.5719 135.986 96.5719C136.195 96.5719 136.359 96.4973 136.478 96.3481C136.6 96.1962 136.687 95.9696 136.738 95.6685C136.79 95.3647 136.816 94.9849 136.816 94.5292C136.816 94.0762 136.79 93.6978 136.738 93.394C136.687 93.0901 136.6 92.8623 136.478 92.7104C136.359 92.5557 136.195 92.4784 135.986 92.4784C135.774 92.4784 135.609 92.5557 135.489 92.7104C135.37 92.8623 135.284 93.0901 135.233 93.394C135.184 93.6978 135.16 94.0762 135.16 94.5292ZM138.854 96.9218C138.854 96.6668 138.924 96.4878 139.062 96.3847C139.203 96.2816 139.372 96.2301 139.57 96.2301C139.763 96.2301 139.929 96.2816 140.067 96.3847C140.208 96.4878 140.278 96.6668 140.278 96.9218C140.278 97.1659 140.208 97.3423 140.067 97.4508C139.929 97.5593 139.763 97.6135 139.57 97.6135C139.372 97.6135 139.203 97.5593 139.062 97.4508C138.924 97.3423 138.854 97.1659 138.854 96.9218ZM138.854 93.5608C138.854 93.3058 138.924 93.1268 139.062 93.0237C139.203 92.9206 139.372 92.8691 139.57 92.8691C139.763 92.8691 139.929 92.9206 140.067 93.0237C140.208 93.1268 140.278 93.3058 140.278 93.5608C140.278 93.8076 140.208 93.9853 140.067 94.0938C139.929 94.1996 139.763 94.2525 139.57 94.2525C139.372 94.2525 139.203 94.1996 139.062 94.0938C138.924 93.9853 138.854 93.8076 138.854 93.5608Z" fill="#8671E5"/>
<path d="M143.668 97.5037V91.5548H144.929V96.462H147.342V97.5037H143.668ZM152.416 95.2209C152.416 95.6007 152.365 95.9371 152.262 96.2301C152.161 96.523 152.014 96.7712 151.818 96.9747C151.626 97.1754 151.392 97.3273 151.118 97.4304C150.847 97.5335 150.541 97.585 150.199 97.585C149.879 97.585 149.584 97.5335 149.316 97.4304C149.05 97.3273 148.818 97.1754 148.62 96.9747C148.425 96.7712 148.273 96.523 148.164 96.2301C148.058 95.9371 148.006 95.6007 148.006 95.2209C148.006 94.7164 148.095 94.2891 148.274 93.9392C148.453 93.5893 148.708 93.3234 149.039 93.1417C149.37 92.9599 149.765 92.8691 150.223 92.8691C150.649 92.8691 151.026 92.9599 151.354 93.1417C151.685 93.3234 151.944 93.5893 152.132 93.9392C152.321 94.2891 152.416 94.7164 152.416 95.2209ZM149.271 95.2209C149.271 95.5193 149.304 95.7703 149.369 95.9737C149.434 96.1772 149.535 96.3304 149.674 96.4335C149.812 96.5366 149.993 96.5881 150.215 96.5881C150.435 96.5881 150.612 96.5366 150.748 96.4335C150.886 96.3304 150.987 96.1772 151.049 95.9737C151.114 95.7703 151.147 95.5193 151.147 95.2209C151.147 94.9198 151.114 94.6703 151.049 94.4722C150.987 94.2715 150.886 94.121 150.748 94.0206C150.61 93.9202 150.429 93.87 150.207 93.87C149.879 93.87 149.64 93.9826 149.491 94.2078C149.344 94.4329 149.271 94.7706 149.271 95.2209ZM157.181 97.5037L156.831 95.9127C156.812 95.8177 156.781 95.678 156.738 95.4936C156.694 95.3064 156.647 95.107 156.595 94.8954C156.546 94.6811 156.5 94.4831 156.457 94.3014C156.416 94.1196 156.386 93.9867 156.367 93.9026H156.331C156.312 93.9867 156.282 94.1196 156.241 94.3014C156.201 94.4831 156.154 94.6811 156.103 94.8954C156.054 95.1097 156.008 95.3118 155.965 95.5017C155.921 95.6889 155.889 95.8313 155.867 95.929L155.501 97.5037H154.166L152.872 92.9545H154.109L154.634 94.9687C154.669 95.1097 154.703 95.2779 154.736 95.4732C154.768 95.6658 154.797 95.853 154.821 96.0347C154.848 96.2138 154.869 96.3562 154.882 96.462H154.915C154.92 96.3833 154.931 96.2789 154.947 96.1487C154.966 96.0185 154.987 95.8842 155.008 95.7458C155.033 95.6048 155.054 95.4787 155.073 95.3674C155.095 95.2535 155.111 95.1762 155.122 95.1355L155.684 92.9545H157.051L157.584 95.1355C157.603 95.2142 157.627 95.3389 157.657 95.5098C157.69 95.6807 157.718 95.8571 157.743 96.0388C157.767 96.2179 157.781 96.3589 157.783 96.462H157.816C157.827 96.3698 157.846 96.2328 157.873 96.051C157.9 95.8693 157.931 95.6794 157.966 95.4814C158.004 95.2806 158.042 95.1097 158.08 94.9687L158.626 92.9545H159.842L158.532 97.5037H157.181ZM165.917 96.1528C165.917 96.462 165.844 96.7238 165.698 96.9381C165.554 97.1497 165.338 97.3111 165.051 97.4223C164.763 97.5308 164.405 97.585 163.976 97.585C163.659 97.585 163.386 97.5647 163.159 97.524C162.933 97.4833 162.706 97.4155 162.475 97.3206V96.2952C162.722 96.4064 162.986 96.4986 163.268 96.5719C163.553 96.6424 163.803 96.6777 164.017 96.6777C164.259 96.6777 164.431 96.6424 164.534 96.5719C164.64 96.4986 164.693 96.4037 164.693 96.287C164.693 96.2111 164.671 96.1433 164.627 96.0836C164.587 96.0212 164.497 95.952 164.359 95.8761C164.221 95.7974 164.004 95.6957 163.708 95.5709C163.423 95.4515 163.188 95.3308 163.004 95.2087C162.822 95.0867 162.687 94.9429 162.597 94.7774C162.51 94.6092 162.467 94.3963 162.467 94.1386C162.467 93.7181 162.63 93.4021 162.955 93.1905C163.283 92.9762 163.721 92.8691 164.269 92.8691C164.551 92.8691 164.82 92.8975 165.075 92.9545C165.333 93.0115 165.597 93.1023 165.868 93.2271L165.494 94.1223C165.269 94.0247 165.056 93.9446 164.855 93.8822C164.657 93.8199 164.455 93.7887 164.249 93.7887C164.067 93.7887 163.93 93.8131 163.838 93.8619C163.746 93.9107 163.7 93.9853 163.7 94.0857C163.7 94.1589 163.723 94.224 163.769 94.281C163.818 94.338 163.91 94.4017 164.046 94.4722C164.184 94.5401 164.386 94.6282 164.652 94.7367C164.91 94.8425 165.133 94.9537 165.323 95.0704C165.513 95.1843 165.66 95.3267 165.763 95.4976C165.866 95.6658 165.917 95.8842 165.917 96.1528ZM168.749 92.8609C169.36 92.8609 169.828 92.9938 170.153 93.2597C170.479 93.5255 170.641 93.9297 170.641 94.4722V97.5037H169.775L169.535 96.8852H169.502C169.372 97.0479 169.239 97.1809 169.103 97.2839C168.968 97.387 168.812 97.463 168.635 97.5118C168.459 97.5606 168.245 97.585 167.993 97.585C167.724 97.585 167.483 97.5335 167.268 97.4304C167.057 97.3273 166.89 97.17 166.768 96.9584C166.646 96.7441 166.585 96.4728 166.585 96.1446C166.585 95.6618 166.754 95.3064 167.093 95.0785C167.432 94.848 167.941 94.7205 168.619 94.696L169.409 94.6716V94.4722C169.409 94.2335 169.346 94.0586 169.221 93.9473C169.097 93.8361 168.923 93.7805 168.701 93.7805C168.481 93.7805 168.265 93.8117 168.054 93.8741C167.842 93.9365 167.63 94.0152 167.419 94.1101L167.008 93.2719C167.249 93.1444 167.519 93.044 167.818 92.9708C168.119 92.8975 168.429 92.8609 168.749 92.8609ZM169.409 95.3959L168.928 95.4122C168.527 95.423 168.248 95.4949 168.09 95.6278C167.936 95.7608 167.858 95.9357 167.858 96.1528C167.858 96.3426 167.914 96.4783 168.025 96.5597C168.136 96.6383 168.281 96.6777 168.46 96.6777C168.726 96.6777 168.95 96.599 169.132 96.4417C169.316 96.2843 169.409 96.0605 169.409 95.7703V95.3959ZM173.164 97.5037H171.923V91.1723H173.164V97.5037ZM176.346 92.8691C176.767 92.8691 177.129 92.9504 177.433 93.1132C177.736 93.2732 177.971 93.5065 178.137 93.8131C178.302 94.1196 178.385 94.494 178.385 94.9361V95.5383H175.451C175.465 95.8883 175.569 96.1636 175.764 96.3643C175.962 96.5624 176.236 96.6614 176.586 96.6614C176.877 96.6614 177.142 96.6315 177.384 96.5719C177.625 96.5122 177.873 96.4227 178.128 96.3033V97.2636C177.903 97.3748 177.667 97.4562 177.42 97.5077C177.176 97.5593 176.879 97.585 176.529 97.585C176.074 97.585 175.669 97.5009 175.317 97.3328C174.967 97.1646 174.691 96.9082 174.491 96.5637C174.293 96.2192 174.194 95.7852 174.194 95.2616C174.194 94.73 174.283 94.2878 174.462 93.9351C174.644 93.5798 174.896 93.3139 175.219 93.1376C175.542 92.9586 175.918 92.8691 176.346 92.8691ZM176.354 93.752C176.113 93.752 175.912 93.8293 175.752 93.984C175.595 94.1386 175.504 94.3814 175.479 94.7123H177.221C177.218 94.5279 177.184 94.3637 177.119 94.22C177.057 94.0762 176.962 93.9623 176.834 93.8782C176.71 93.7941 176.55 93.752 176.354 93.752ZM182.568 96.1528C182.568 96.462 182.494 96.7238 182.348 96.9381C182.204 97.1497 181.989 97.3111 181.701 97.4223C181.413 97.5308 181.055 97.585 180.627 97.585C180.309 97.585 180.037 97.5647 179.809 97.524C179.584 97.4833 179.356 97.4155 179.125 97.3206V96.2952C179.372 96.4064 179.637 96.4986 179.919 96.5719C180.204 96.6424 180.453 96.6777 180.667 96.6777C180.909 96.6777 181.081 96.6424 181.184 96.5719C181.29 96.4986 181.343 96.4037 181.343 96.287C181.343 96.2111 181.321 96.1433 181.278 96.0836C181.237 96.0212 181.148 95.952 181.009 95.8761C180.871 95.7974 180.654 95.6957 180.358 95.5709C180.073 95.4515 179.839 95.3308 179.654 95.2087C179.473 95.0867 179.337 94.9429 179.247 94.7774C179.161 94.6092 179.117 94.3963 179.117 94.1386C179.117 93.7181 179.28 93.4021 179.605 93.1905C179.934 92.9762 180.372 92.8691 180.92 92.8691C181.202 92.8691 181.47 92.8975 181.725 92.9545C181.983 93.0115 182.248 93.1023 182.519 93.2271L182.145 94.1223C181.919 94.0247 181.706 93.9446 181.506 93.8822C181.308 93.8199 181.106 93.7887 180.899 93.7887C180.718 93.7887 180.581 93.8131 180.488 93.8619C180.396 93.9107 180.35 93.9853 180.35 94.0857C180.35 94.1589 180.373 94.224 180.419 94.281C180.468 94.338 180.56 94.4017 180.696 94.4722C180.834 94.5401 181.036 94.6282 181.302 94.7367C181.56 94.8425 181.784 94.9537 181.974 95.0704C182.164 95.1843 182.31 95.3267 182.413 95.4976C182.516 95.6658 182.568 95.8842 182.568 96.1528ZM186.942 92.9545V97.5037H185.701V92.9545H186.942ZM186.323 91.1723C186.508 91.1723 186.667 91.2157 186.799 91.3025C186.932 91.3866 186.999 91.5453 186.999 91.7786C186.999 92.0091 186.932 92.1692 186.799 92.2587C186.667 92.3455 186.508 92.3889 186.323 92.3889C186.136 92.3889 185.976 92.3455 185.843 92.2587C185.713 92.1692 185.648 92.0091 185.648 91.7786C185.648 91.5453 185.713 91.3866 185.843 91.3025C185.976 91.2157 186.136 91.1723 186.323 91.1723ZM190.832 92.8691C191.317 92.8691 191.708 93.002 192.004 93.2678C192.299 93.531 192.447 93.9541 192.447 94.5374V97.5037H191.206V94.8466C191.206 94.5211 191.147 94.2756 191.027 94.1101C190.911 93.9446 190.726 93.8619 190.474 93.8619C190.094 93.8619 189.835 93.9907 189.697 94.2485C189.558 94.5062 189.489 94.8778 189.489 95.3634V97.5037H188.248V92.9545H189.196L189.363 93.5364H189.432C189.53 93.379 189.65 93.2515 189.794 93.1539C189.941 93.0562 190.102 92.9843 190.278 92.9382C190.458 92.8921 190.642 92.8691 190.832 92.8691ZM122.57 108.504L121.138 103.837H121.101C121.107 103.948 121.115 104.116 121.126 104.341C121.139 104.564 121.151 104.801 121.162 105.053C121.173 105.305 121.179 105.533 121.179 105.737V108.504H120.051V102.555H121.769L123.176 107.104H123.201L124.694 102.555H126.411V108.504H125.235V105.688C125.235 105.501 125.238 105.285 125.243 105.041C125.252 104.797 125.261 104.565 125.272 104.345C125.283 104.123 125.291 103.956 125.296 103.845H125.26L123.726 108.504H122.57ZM129.679 103.861C130.289 103.861 130.757 103.994 131.083 104.26C131.408 104.526 131.571 104.93 131.571 105.472V108.504H130.704L130.464 107.885H130.431C130.301 108.048 130.168 108.181 130.033 108.284C129.897 108.387 129.741 108.463 129.565 108.512C129.388 108.561 129.174 108.585 128.922 108.585C128.653 108.585 128.412 108.534 128.198 108.43C127.986 108.327 127.819 108.17 127.697 107.958C127.575 107.744 127.514 107.473 127.514 107.145C127.514 106.662 127.684 106.306 128.023 106.079C128.362 105.848 128.87 105.72 129.549 105.696L130.338 105.672V105.472C130.338 105.234 130.275 105.059 130.151 104.947C130.026 104.836 129.852 104.781 129.63 104.781C129.41 104.781 129.194 104.812 128.983 104.874C128.771 104.936 128.56 105.015 128.348 105.11L127.937 104.272C128.179 104.144 128.449 104.044 128.747 103.971C129.048 103.898 129.359 103.861 129.679 103.861ZM130.338 106.396L129.858 106.412C129.456 106.423 129.177 106.495 129.02 106.628C128.865 106.761 128.788 106.936 128.788 107.153C128.788 107.343 128.843 107.478 128.954 107.56C129.066 107.638 129.211 107.678 129.39 107.678C129.656 107.678 129.879 107.599 130.061 107.442C130.246 107.284 130.338 107.061 130.338 106.77V106.396ZM132.201 103.955H133.561L134.419 106.514C134.446 106.595 134.469 106.678 134.488 106.762C134.507 106.846 134.524 106.933 134.537 107.023C134.551 107.112 134.562 107.206 134.57 107.303H134.594C134.61 107.157 134.632 107.02 134.659 106.892C134.689 106.765 134.726 106.639 134.769 106.514L135.611 103.955H136.942L135.017 109.086C134.901 109.4 134.749 109.662 134.562 109.871C134.374 110.082 134.159 110.241 133.915 110.347C133.673 110.453 133.407 110.506 133.117 110.506C132.976 110.506 132.854 110.497 132.751 110.481C132.648 110.468 132.56 110.453 132.486 110.436V109.452C132.543 109.465 132.615 109.478 132.702 109.488C132.789 109.499 132.88 109.505 132.975 109.505C133.148 109.505 133.297 109.468 133.422 109.395C133.547 109.322 133.651 109.223 133.736 109.098C133.82 108.976 133.886 108.841 133.935 108.695L134.008 108.471L132.201 103.955Z" fill="#848484"/>
</g>
<defs>
<filter id="filter0_d_209_10614" x="0.666667" y="0.666667" width="235.549" height="290" filterUnits="userSpaceOnUse" color-interpolation-filters="sRGB">
<feFlood flood-opacity="0" result="BackgroundImageFix"/>
<feColorMatrix in="SourceAlpha" type="matrix" values="0 0 0 0 0 0 0 0 0 0 0 0 0 0 0 0 0 0 127 0" result="hardAlpha"/>
<feOffset/>
<feGaussianBlur stdDeviation="1.66667"/>
<feComposite in2="hardAlpha" operator="out"/>
<feColorMatrix type="matrix" values="0 0 0 0 0 0 0 0 0 0 0 0 0 0 0 0 0 0 0.25 0"/>
<feBlend mode="normal" in2="BackgroundImageFix" result="effect1_dropShadow_209_10614"/>
<feBlend mode="normal" in="SourceGraphic" in2="effect1_dropShadow_209_10614" result="shape"/>
</filter>
<filter id="filter1_d_209_10614" x="110.946" y="84.9889" width="110.945" height="18.6951" filterUnits="userSpaceOnUse" color-interpolation-filters="sRGB">
<feFlood flood-opacity="0" result="BackgroundImageFix"/>
<feColorMatrix in="SourceAlpha" type="matrix" values="0 0 0 0 0 0 0 0 0 0 0 0 0 0 0 0 0 0 127 0" result="hardAlpha"/>
<feOffset/>
<feGaussianBlur stdDeviation="0.833333"/>
<feComposite in2="hardAlpha" operator="out"/>
<feColorMatrix type="matrix" values="0 0 0 0 0 0 0 0 0 0 0 0 0 0 0 0 0 0 0.25 0"/>
<feBlend mode="normal" in2="BackgroundImageFix" result="effect1_dropShadow_209_10614"/>
<feBlend mode="normal" in="SourceGraphic" in2="effect1_dropShadow_209_10614" result="shape"/>
</filter>
<linearGradient id="paint0_linear_209_10614" x1="26.568" y1="61.5774" x2="26.568" y2="180.228" gradientUnits="userSpaceOnUse">
<stop stop-color="#344BFD" stop-opacity="0"/>
<stop offset="1" stop-color="#1F2D97"/>
</linearGradient>
<linearGradient id="paint1_linear_209_10614" x1="58.4908" y1="61.5774" x2="58.4908" y2="180.228" gradientUnits="userSpaceOnUse">
<stop stop-color="#344BFD" stop-opacity="0"/>
<stop offset="1" stop-color="#1F2D97"/>
</linearGradient>
<linearGradient id="paint2_linear_209_10614" x1="218.103" y1="61.5774" x2="218.103" y2="180.228" gradientUnits="userSpaceOnUse">
<stop stop-color="#344BFD" stop-opacity="0"/>
<stop offset="1" stop-color="#1F2D97"/>
</linearGradient>
<linearGradient id="paint3_linear_209_10614" x1="90.4137" y1="61.5774" x2="90.4137" y2="180.228" gradientUnits="userSpaceOnUse">
<stop stop-color="#344BFD" stop-opacity="0"/>
<stop offset="1" stop-color="#1F2D97"/>
</linearGradient>
<linearGradient id="paint4_linear_209_10614" x1="122.336" y1="61.5774" x2="122.336" y2="180.228" gradientUnits="userSpaceOnUse">
<stop stop-color="#344BFD" stop-opacity="0"/>
<stop offset="1" stop-color="#1F2D97"/>
</linearGradient>
<linearGradient id="paint5_linear_209_10614" x1="154.257" y1="61.5774" x2="154.257" y2="180.228" gradientUnits="userSpaceOnUse">
<stop stop-color="#344BFD" stop-opacity="0"/>
<stop offset="1" stop-color="#1F2D97"/>
</linearGradient>
</defs>
</svg>
