<svg width="97" height="35" viewBox="0 0 97 35" fill="none" xmlns="http://www.w3.org/2000/svg">
<path d="M43.3933 32.9474C42.6639 32.9474 41.9251 32.7981 41.2146 32.4901L26.0584 25.8354C23.3492 24.6501 22.1272 21.5047 23.3303 18.8354L30.0843 3.90207C31.2873 1.23273 34.4796 0.0287327 37.1887 1.21407L52.345 7.86873C55.0542 9.05406 56.2762 12.1994 55.0731 14.8687L48.3191 29.8021C47.4192 31.7807 45.4489 32.9474 43.3933 32.9474ZM42.4745 29.6901C43.6207 30.1941 44.9658 29.6807 45.4773 28.5607L52.2313 13.6274C52.7429 12.4981 52.2219 11.1727 51.0851 10.6687L35.9194 4.01407C34.7732 3.51007 33.4281 4.0234 32.9166 5.1434L26.1626 20.0767C25.6511 21.2061 26.172 22.5314 27.3088 23.0354L42.4745 29.6901Z" fill="#089949"/>
<path d="M90.9375 32.9566H74.3414C71.3765 32.9566 68.9609 30.5766 68.9609 27.6553V11.3033C68.9609 8.38195 71.3765 6.00195 74.3414 6.00195H90.9375C93.9024 6.00195 96.318 8.38195 96.318 11.3033V27.6553C96.318 30.5766 93.9024 32.9566 90.9375 32.9566ZM74.3414 9.06329C73.091 9.06329 72.068 10.0713 72.068 11.3033V27.6553C72.068 28.8873 73.091 29.8953 74.3414 29.8953H90.9375C92.1879 29.8953 93.2109 28.8873 93.2109 27.6553V11.3033C93.2109 10.0713 92.1879 9.06329 90.9375 9.06329H74.3414Z" fill="#F9B21D"/>
<path d="M28.7869 14.2987L26.5513 19.2267C26.5229 19.2827 26.4945 19.3294 26.4661 19.3761L27.3375 24.6774C27.5365 25.9001 26.6934 27.0481 25.462 27.2441L9.07425 29.8574C8.47748 29.9507 7.87123 29.8107 7.37865 29.4654C6.88607 29.1201 6.564 28.5974 6.46927 28.0094L3.81693 11.8627C3.7222 11.2747 3.86429 10.6774 4.21478 10.1921C4.56527 9.70673 5.09574 9.38939 5.69252 9.29606L22.0802 6.68273C22.2034 6.66406 22.3265 6.65473 22.4402 6.65473C23.5295 6.65473 24.5052 7.43873 24.6852 8.54006L25.5662 13.8787L27.8775 8.77339L27.7543 8.05473C27.2807 5.17073 24.5147 3.20139 21.5876 3.66806L5.19994 6.28139C3.78851 6.49606 2.53812 7.25206 1.70453 8.40006C0.861462 9.54806 0.529919 10.9481 0.757263 12.3481L3.40961 28.4947C3.63695 29.8947 4.40424 31.1174 5.56937 31.9481C6.48822 32.6107 7.57758 32.9467 8.70482 32.9467C8.989 32.9467 9.28265 32.9281 9.57631 32.8814L25.964 30.2681C28.8911 29.8014 30.8898 27.0761 30.4162 24.1921L28.7869 14.2987Z" fill="#E42527"/>
<path d="M48.4418 22.0088L50.8479 16.6981L50.1658 11.7608C50.0806 11.1728 50.2416 10.5848 50.611 10.1088C50.9805 9.63277 51.5109 9.32476 52.1172 9.2501L68.5617 7.04743C68.6659 7.0381 68.7701 7.02877 68.8743 7.02877C69.3669 7.02877 69.8405 7.18743 70.2479 7.4861C70.3236 7.5421 70.3899 7.60743 70.4563 7.66343C71.1857 6.90743 72.1424 6.3661 73.2128 6.13276C72.9097 5.7221 72.5497 5.3581 72.1234 5.04077C70.9773 4.1821 69.5658 3.8181 68.1449 4.00477L51.6815 6.20743C50.2606 6.3941 48.9912 7.1221 48.1292 8.25143C47.2577 9.38076 46.8883 10.7714 47.0777 12.1714L48.4418 22.0088Z" fill="#226DB4"/>
<path d="M76.4231 24.7425L74.2634 9.0625C73.0509 9.09983 72.0752 10.0892 72.0752 11.2932V15.8945L73.354 25.1532C73.4393 25.7412 73.2782 26.3292 72.9088 26.8052C72.5394 27.2812 72.0089 27.5892 71.4026 27.6638L54.9581 29.8665C54.3613 29.9505 53.7645 29.7918 53.2814 29.4278C52.7983 29.0638 52.4857 28.5412 52.41 27.9438L51.6521 22.4465L49.2461 27.7572L49.3313 28.3545C49.5208 29.7545 50.2597 31.0052 51.4059 31.8545C52.3531 32.5638 53.4804 32.9372 54.655 32.9372C54.9013 32.9372 55.1476 32.9185 55.3938 32.8905L71.8194 30.7065C73.2403 30.5198 74.5097 29.7918 75.3717 28.6625C76.2432 27.5332 76.6126 26.1425 76.4231 24.7425Z" fill="#226DB4"/>
</svg>
