<svg xmlns="http://www.w3.org/2000/svg" enable-background="new 0 0 24 24" viewBox="0 0 24 24" id="hubspot">
  <path fill="#F8761F" d="M22.75,14.358c0-3.056-2.221-5.587-5.131-6.033V5.437c0.814-0.347,1.313-1.115,1.313-2.01c0-1.223-0.973-2.245-2.189-2.245c-1.215,0-2.174,1.022-2.174,2.245c0,0.895,0.498,1.663,1.313,2.01v2.869c-0.708,0.098-1.378,0.314-1.989,0.637c-1.285-0.98-5.471-4.016-7.865-5.849c0.056-0.206,0.094-0.422,0.094-0.647C6.121,1.097,5.026,0,3.681,0C2.34,0,1.25,1.097,1.25,2.447c0,1.355,1.09,2.452,2.431,2.452c0.456,0,0.881-0.136,1.248-0.356l7.6,5.377l-0.002-0.001c-1.169,1.111-1.899,2.686-1.899,4.434c0,1.373,0.452,2.639,1.211,3.656l-2.305,2.334c-0.204-0.075-0.424-0.117-0.652-0.117c-0.503,0-0.974,0.197-1.327,0.553c-0.354,0.356-0.55,0.834-0.55,1.341c0,0.507,0.196,0.98,0.55,1.336C7.908,23.812,8.383,24,8.882,24c0.502,0,0.974-0.183,1.332-0.544c0.354-0.356,0.549-0.834,0.549-1.336c0-0.197-0.028-0.384-0.088-0.567l2.328-2.353c1.024,0.792,2.301,1.261,3.693,1.261C20.044,20.461,22.75,17.728,22.75,14.358L22.75,14.358z M16.695,17.587c-1.774,0-3.213-1.448-3.213-3.234c0-1.786,1.439-3.234,3.213-3.234c1.773,0,3.212,1.448,3.212,3.234C19.907,16.139,18.469,17.587,16.695,17.587L16.695,17.587z"></path>
  <path fill="#DEDEDE" d="M16.695,11.119c-1.774,0-3.213,1.448-3.213,3.234c0,1.786,1.439,3.234,3.213,3.234c0.012,0,0.024,0,0.036,0v-6.467C16.719,11.119,16.707,11.119,16.695,11.119L16.695,11.119z"></path>
  <path fill="#D8671B" d="M3.681,0C2.34,0,1.25,1.097,1.25,2.447c0,1.355,1.09,2.452,2.431,2.452c0.456,0,0.881-0.136,1.248-0.356l7.6,5.377l-0.002-0.001c-1.169,1.111-1.899,2.686-1.899,4.434c0,1.373,0.452,2.639,1.211,3.656l-2.305,2.334c-0.204-0.075-0.424-0.117-0.652-0.117c-0.503,0-0.974,0.197-1.327,0.553c-0.354,0.356-0.55,0.834-0.55,1.341c0,0.507,0.196,0.98,0.55,1.336C7.908,23.812,8.383,24,8.882,24l0,0c0.502,0,0.974-0.183,1.332-0.544c0.354-0.356,0.549-0.834,0.549-1.336c0-0.197-0.028-0.384-0.088-0.567l2.328-2.353c1.024,0.792,2.301,1.261,3.693,1.261c0.012,0,0.023,0,0.035,0v-2.874c-0.012,0-0.024,0-0.036,0c-1.774,0-3.213-1.448-3.213-3.234c0-1.786,1.439-3.234,3.213-3.234c0.012,0,0.024,0,0.036,0V1.181c-1.21,0.006-2.163,1.026-2.163,2.245c0,0.895,0.498,1.663,1.313,2.01v2.869c-0.708,0.098-1.378,0.314-1.989,0.637c-1.285-0.98-5.471-4.016-7.865-5.849c0.056-0.206,0.094-0.422,0.094-0.647C6.121,1.097,5.026,0,3.681,0L3.681,0z"></path>
</svg>
