<svg width="513" height="523" viewBox="0 0 513 523" fill="none" xmlns="http://www.w3.org/2000/svg">
<path d="M481.02 425.595C480.872 425.595 480.779 425.591 480.747 425.589L463.051 425.591V422.943H480.811C481.222 422.958 489.611 423.198 497.34 413.681C508.859 399.497 518.318 364.385 497.969 277.656C470.605 161.038 493.427 58.0124 504.509 19.1306C505.055 17.207 505.153 15.1809 504.795 13.2123C504.436 11.2438 503.632 9.38681 502.445 7.78807C501.257 6.18933 499.72 4.89265 497.954 4.0005C496.188 3.10835 494.242 2.64516 492.269 2.64754H227.998C225.989 2.65028 224.009 3.13369 222.218 4.05853C220.428 4.98337 218.877 6.32361 217.693 7.97043C212.998 14.5233 206.556 27.1121 202.524 49.8746L199.957 49.4067C204.075 26.1496 210.727 13.1905 215.582 6.41397C217.009 4.42963 218.877 2.81468 221.035 1.70025C223.192 0.585814 225.578 0.00329725 227.998 7.20397e-06H492.269C494.646 -0.00231407 496.991 0.556368 499.119 1.63191C501.247 2.70746 503.1 4.2704 504.53 6.19725C505.96 8.1241 506.93 10.3621 507.361 12.7344C507.792 15.1066 507.674 17.5482 507.016 19.8662C495.991 58.5464 473.287 161.038 500.507 277.044C521.143 364.991 511.222 400.865 499.267 415.472C491.381 425.107 482.692 425.595 481.02 425.595Z" fill="#E6E6E6"/>
<path d="M433.406 473.911C433.259 473.911 433.165 473.907 433.133 473.905L415.438 473.907V471.26H433.197C433.61 471.272 441.997 471.515 449.727 461.998C461.246 447.814 470.705 412.701 450.355 325.973C422.992 209.355 445.814 106.329 456.896 67.4471C457.442 65.5234 457.54 63.4973 457.181 61.5287C456.823 59.5602 456.018 57.7032 454.831 56.1045C453.644 54.5057 452.106 53.2091 450.34 52.3169C448.574 51.4248 446.628 50.9616 444.655 50.9639H180.385C178.376 50.9667 176.395 51.4501 174.605 52.3749C172.814 53.2998 171.264 54.64 170.079 56.2868C165.385 62.8397 158.942 75.4285 154.911 98.191L152.343 97.7231C156.462 74.466 163.114 61.5069 167.969 54.7304C169.396 52.746 171.264 51.1311 173.421 50.0167C175.578 48.9022 177.964 48.3197 180.385 48.3164H444.655C447.033 48.3141 449.378 48.8728 451.506 49.9483C453.634 51.0239 455.486 52.5868 456.916 54.5137C458.347 56.4405 459.316 58.6785 459.747 61.0508C460.179 63.423 460.061 65.8646 459.402 68.1826C448.378 106.863 425.674 209.354 452.893 325.36C473.529 413.308 463.609 449.181 451.653 463.789C443.767 473.423 435.078 473.911 433.406 473.911Z" fill="#CCCCCC"/>
<path d="M385.789 522.229C385.641 522.229 385.548 522.225 385.516 522.223L125.319 522.225C122.813 522.228 120.346 521.608 118.132 520.42C115.917 519.231 114.024 517.509 112.617 515.406C111.21 513.303 110.333 510.881 110.062 508.354C109.791 505.827 110.134 503.271 111.062 500.91C120.503 476.976 133.214 419.553 112.277 303.881C87.554 167.295 109.688 117.932 120.351 103.049C121.778 101.064 123.646 99.4494 125.804 98.335C127.961 97.2205 130.347 96.638 132.768 96.6348H397.038C399.415 96.6325 401.761 97.1911 403.889 98.2667C406.017 99.3422 407.869 100.905 409.299 102.832C410.73 104.759 411.699 106.997 412.13 109.369C412.562 111.741 412.444 114.183 411.785 116.501C400.76 155.181 378.056 257.672 405.276 373.678C425.912 461.626 415.992 497.5 404.036 512.107C396.15 521.741 387.461 522.229 385.789 522.229ZM132.768 99.2823C130.758 99.285 128.778 99.7684 126.987 100.693C125.197 101.618 123.646 102.958 122.462 104.605C111.996 119.213 90.3026 167.825 114.843 303.403C134.845 413.903 125.144 472.334 113.484 501.894C112.698 503.844 112.403 505.962 112.626 508.057C112.848 510.152 113.581 512.158 114.759 513.893C115.926 515.645 117.499 517.08 119.34 518.071C121.182 519.062 123.234 519.579 125.318 519.578H385.58C385.991 519.598 394.38 519.834 402.11 510.316C413.628 496.132 423.088 461.019 402.738 374.291C375.375 257.673 398.197 154.647 409.279 115.765C409.825 113.842 409.922 111.816 409.564 109.847C409.206 107.879 408.401 106.022 407.214 104.423C406.026 102.824 404.489 101.527 402.723 100.635C400.957 99.7431 399.011 99.2799 397.038 99.2823H132.768Z" fill="#D9D9D9"/>
<g filter="url(#filter0_d_4954_358)">
<rect x="120.954" y="108.297" width="343.89" height="40.2993" rx="13.7384" fill="white" shape-rendering="crispEdges"/>
<rect x="120.954" y="108.297" width="343.89" height="40.2993" rx="13.7384" fill="url(#paint0_linear_4954_358)" shape-rendering="crispEdges"/>
<circle cx="141.562" cy="127.971" r="12.3646" fill="#FCFCFC"/>
<path d="M168.985 124.584C168.857 124.584 168.754 124.556 168.676 124.499C168.605 124.442 168.562 124.364 168.548 124.264C168.534 124.165 168.555 124.055 168.612 123.934L171.524 117.343C171.588 117.194 171.669 117.087 171.769 117.023C171.869 116.952 171.979 116.916 172.1 116.916C172.22 116.916 172.327 116.952 172.42 117.023C172.519 117.087 172.604 117.194 172.676 117.343L175.587 123.934C175.644 124.055 175.665 124.168 175.651 124.275C175.644 124.375 175.605 124.453 175.534 124.51C175.463 124.56 175.363 124.584 175.235 124.584C175.093 124.584 174.979 124.549 174.894 124.478C174.809 124.4 174.734 124.289 174.67 124.147L173.913 122.377L174.371 122.633H169.807L170.265 122.377L169.508 124.147C169.444 124.304 169.373 124.417 169.295 124.488C169.217 124.552 169.113 124.584 168.985 124.584ZM172.078 118.111L170.415 122.046L170.159 121.822H174.019L173.774 122.046L172.1 118.111H172.078ZM177.404 124.584C177.248 124.584 177.127 124.542 177.042 124.456C176.956 124.364 176.914 124.236 176.914 124.072V117.428C176.914 117.258 176.956 117.13 177.042 117.044C177.127 116.959 177.248 116.916 177.404 116.916C177.568 116.916 177.692 116.959 177.778 117.044C177.863 117.13 177.906 117.258 177.906 117.428V124.072C177.906 124.236 177.863 124.364 177.778 124.456C177.699 124.542 177.575 124.584 177.404 124.584ZM185.792 124.606C185.046 124.606 184.406 124.449 183.872 124.136C183.339 123.824 182.927 123.379 182.635 122.803C182.351 122.22 182.209 121.534 182.209 120.745C182.209 120.155 182.29 119.625 182.454 119.156C182.617 118.68 182.852 118.274 183.158 117.94C183.464 117.599 183.837 117.339 184.278 117.162C184.726 116.984 185.23 116.895 185.792 116.895C186.219 116.895 186.627 116.955 187.019 117.076C187.417 117.197 187.758 117.368 188.042 117.588C188.156 117.666 188.231 117.755 188.266 117.855C188.302 117.954 188.305 118.05 188.277 118.143C188.256 118.228 188.209 118.303 188.138 118.367C188.074 118.424 187.993 118.456 187.893 118.463C187.794 118.463 187.687 118.424 187.573 118.345C187.324 118.153 187.051 118.015 186.752 117.929C186.46 117.837 186.148 117.791 185.813 117.791C185.266 117.791 184.8 117.908 184.416 118.143C184.039 118.37 183.751 118.704 183.552 119.145C183.36 119.579 183.264 120.112 183.264 120.745C183.264 121.371 183.36 121.907 183.552 122.355C183.751 122.796 184.039 123.134 184.416 123.369C184.8 123.596 185.266 123.71 185.813 123.71C186.148 123.71 186.464 123.664 186.763 123.571C187.068 123.479 187.349 123.337 187.605 123.145C187.719 123.066 187.822 123.031 187.914 123.038C188.014 123.045 188.096 123.077 188.16 123.134C188.224 123.184 188.266 123.255 188.288 123.347C188.316 123.433 188.316 123.521 188.288 123.614C188.259 123.706 188.195 123.788 188.096 123.859C187.804 124.108 187.456 124.296 187.051 124.424C186.652 124.545 186.233 124.606 185.792 124.606ZM190.035 124.584C189.885 124.584 189.768 124.542 189.683 124.456C189.597 124.371 189.555 124.247 189.555 124.083V117.407C189.555 117.243 189.597 117.122 189.683 117.044C189.768 116.959 189.885 116.916 190.035 116.916C190.191 116.916 190.312 116.959 190.397 117.044C190.483 117.122 190.525 117.243 190.525 117.407V120.446H190.387C190.536 120.041 190.778 119.735 191.112 119.529C191.453 119.323 191.841 119.22 192.274 119.22C192.694 119.22 193.039 119.298 193.309 119.455C193.579 119.604 193.782 119.831 193.917 120.137C194.052 120.443 194.119 120.827 194.119 121.289V124.083C194.119 124.247 194.077 124.371 193.991 124.456C193.913 124.542 193.796 124.584 193.639 124.584C193.483 124.584 193.362 124.542 193.277 124.456C193.192 124.371 193.149 124.247 193.149 124.083V121.342C193.149 120.88 193.06 120.542 192.882 120.329C192.704 120.116 192.42 120.009 192.029 120.009C191.574 120.009 191.208 120.151 190.931 120.436C190.66 120.713 190.525 121.09 190.525 121.566V124.083C190.525 124.417 190.362 124.584 190.035 124.584ZM197.311 124.606C196.956 124.606 196.632 124.535 196.341 124.392C196.056 124.25 195.832 124.058 195.669 123.817C195.512 123.575 195.434 123.305 195.434 123.006C195.434 122.622 195.53 122.32 195.722 122.099C195.914 121.879 196.237 121.723 196.693 121.63C197.148 121.531 197.759 121.481 198.527 121.481H199.028V122.099H198.548C198.001 122.099 197.567 122.124 197.247 122.174C196.934 122.224 196.714 122.313 196.586 122.441C196.458 122.562 196.394 122.732 196.394 122.953C196.394 123.23 196.49 123.457 196.682 123.635C196.881 123.813 197.151 123.902 197.492 123.902C197.763 123.902 198.001 123.838 198.207 123.71C198.413 123.575 198.577 123.397 198.698 123.177C198.818 122.949 198.879 122.69 198.879 122.398V121.172C198.879 120.752 198.794 120.45 198.623 120.265C198.452 120.073 198.164 119.977 197.759 119.977C197.524 119.977 197.283 120.009 197.034 120.073C196.785 120.137 196.525 120.237 196.255 120.372C196.149 120.421 196.056 120.439 195.978 120.425C195.9 120.404 195.836 120.361 195.786 120.297C195.743 120.226 195.718 120.151 195.711 120.073C195.711 119.988 195.729 119.906 195.765 119.828C195.807 119.75 195.878 119.693 195.978 119.657C196.291 119.501 196.6 119.391 196.906 119.327C197.219 119.255 197.51 119.22 197.78 119.22C198.242 119.22 198.623 119.295 198.922 119.444C199.22 119.586 199.444 119.81 199.593 120.116C199.743 120.414 199.817 120.798 199.817 121.268V124.083C199.817 124.247 199.778 124.371 199.7 124.456C199.622 124.542 199.508 124.584 199.359 124.584C199.217 124.584 199.103 124.542 199.017 124.456C198.939 124.371 198.9 124.247 198.9 124.083V123.326H198.996C198.939 123.589 198.833 123.817 198.676 124.009C198.52 124.2 198.324 124.35 198.09 124.456C197.862 124.556 197.603 124.606 197.311 124.606ZM203.499 124.606C203.079 124.606 202.728 124.531 202.443 124.382C202.166 124.232 201.956 124.016 201.814 123.731C201.679 123.447 201.611 123.098 201.611 122.686V120.062H200.929C200.801 120.062 200.701 120.03 200.63 119.966C200.559 119.895 200.523 119.803 200.523 119.689C200.523 119.568 200.559 119.476 200.63 119.412C200.701 119.348 200.801 119.316 200.929 119.316H201.611V118.153C201.611 117.99 201.654 117.869 201.739 117.791C201.825 117.705 201.945 117.663 202.102 117.663C202.258 117.663 202.376 117.705 202.454 117.791C202.539 117.869 202.582 117.99 202.582 118.153V119.316H203.872C204.007 119.316 204.11 119.348 204.182 119.412C204.253 119.476 204.288 119.568 204.288 119.689C204.288 119.803 204.253 119.895 204.182 119.966C204.11 120.03 204.007 120.062 203.872 120.062H202.582V122.601C202.582 122.992 202.664 123.287 202.827 123.486C202.991 123.685 203.261 123.785 203.638 123.785C203.773 123.785 203.886 123.774 203.979 123.753C204.071 123.724 204.153 123.71 204.224 123.71C204.288 123.703 204.342 123.724 204.384 123.774C204.434 123.824 204.459 123.916 204.459 124.051C204.459 124.151 204.441 124.243 204.406 124.328C204.377 124.407 204.317 124.46 204.224 124.488C204.139 124.517 204.025 124.542 203.883 124.563C203.741 124.592 203.613 124.606 203.499 124.606ZM207.97 124.606C207.501 124.606 207.099 124.488 206.765 124.254C206.431 124.019 206.207 123.703 206.093 123.305L206.21 123.145V124.083C206.21 124.247 206.167 124.371 206.082 124.456C206.004 124.542 205.887 124.584 205.73 124.584C205.581 124.584 205.464 124.542 205.378 124.456C205.293 124.371 205.25 124.247 205.25 124.083V117.407C205.25 117.243 205.293 117.122 205.378 117.044C205.464 116.959 205.581 116.916 205.73 116.916C205.887 116.916 206.008 116.959 206.093 117.044C206.178 117.122 206.221 117.243 206.221 117.407V120.489H206.104C206.217 120.105 206.441 119.799 206.775 119.572C207.11 119.337 207.508 119.22 207.97 119.22C208.432 119.22 208.834 119.33 209.175 119.551C209.523 119.764 209.79 120.073 209.975 120.478C210.167 120.877 210.263 121.353 210.263 121.907C210.263 122.455 210.167 122.935 209.975 123.347C209.783 123.753 209.516 124.065 209.175 124.286C208.834 124.499 208.432 124.606 207.97 124.606ZM207.746 123.838C208.052 123.838 208.318 123.763 208.546 123.614C208.78 123.465 208.962 123.248 209.09 122.963C209.218 122.679 209.282 122.327 209.282 121.907C209.282 121.282 209.143 120.805 208.866 120.478C208.588 120.151 208.215 119.988 207.746 119.988C207.433 119.988 207.159 120.062 206.925 120.212C206.697 120.354 206.519 120.567 206.391 120.852C206.271 121.136 206.21 121.488 206.21 121.907C206.21 122.533 206.349 123.013 206.626 123.347C206.903 123.674 207.277 123.838 207.746 123.838ZM213.717 124.606C213.206 124.606 212.761 124.496 212.384 124.275C212.007 124.055 211.716 123.742 211.51 123.337C211.304 122.931 211.2 122.455 211.2 121.907C211.2 121.495 211.257 121.125 211.371 120.798C211.492 120.464 211.663 120.18 211.883 119.945C212.103 119.71 212.367 119.533 212.672 119.412C212.985 119.284 213.333 119.22 213.717 119.22C214.229 119.22 214.674 119.33 215.051 119.551C215.427 119.771 215.719 120.084 215.925 120.489C216.131 120.887 216.234 121.36 216.234 121.907C216.234 122.32 216.174 122.693 216.053 123.027C215.939 123.361 215.772 123.646 215.552 123.881C215.331 124.115 215.065 124.296 214.752 124.424C214.446 124.545 214.101 124.606 213.717 124.606ZM213.717 123.838C214.03 123.838 214.3 123.763 214.528 123.614C214.763 123.465 214.94 123.248 215.061 122.963C215.189 122.679 215.253 122.327 215.253 121.907C215.253 121.282 215.115 120.805 214.837 120.478C214.56 120.151 214.187 119.988 213.717 119.988C213.412 119.988 213.142 120.062 212.907 120.212C212.679 120.354 212.502 120.567 212.374 120.852C212.246 121.136 212.182 121.488 212.182 121.907C212.182 122.533 212.32 123.013 212.598 123.347C212.882 123.674 213.255 123.838 213.717 123.838ZM219.58 124.606C219.16 124.606 218.808 124.531 218.524 124.382C218.247 124.232 218.037 124.016 217.895 123.731C217.76 123.447 217.692 123.098 217.692 122.686V120.062H217.01C216.882 120.062 216.782 120.03 216.711 119.966C216.64 119.895 216.604 119.803 216.604 119.689C216.604 119.568 216.64 119.476 216.711 119.412C216.782 119.348 216.882 119.316 217.01 119.316H217.692V118.153C217.692 117.99 217.735 117.869 217.82 117.791C217.905 117.705 218.026 117.663 218.183 117.663C218.339 117.663 218.457 117.705 218.535 117.791C218.62 117.869 218.663 117.99 218.663 118.153V119.316H219.953C220.088 119.316 220.191 119.348 220.262 119.412C220.334 119.476 220.369 119.568 220.369 119.689C220.369 119.803 220.334 119.895 220.262 119.966C220.191 120.03 220.088 120.062 219.953 120.062H218.663V122.601C218.663 122.992 218.744 123.287 218.908 123.486C219.072 123.685 219.342 123.785 219.719 123.785C219.854 123.785 219.967 123.774 220.06 123.753C220.152 123.724 220.234 123.71 220.305 123.71C220.369 123.703 220.422 123.724 220.465 123.774C220.515 123.824 220.54 123.916 220.54 124.051C220.54 124.151 220.522 124.243 220.486 124.328C220.458 124.407 220.398 124.46 220.305 124.488C220.22 124.517 220.106 124.542 219.964 124.563C219.822 124.592 219.694 124.606 219.58 124.606Z" fill="white"/>
<path d="M171.127 137.431C170.619 137.431 170.18 137.319 169.809 137.096C169.438 136.867 169.149 136.547 168.941 136.136C168.738 135.719 168.636 135.232 168.636 134.673C168.636 134.252 168.694 133.873 168.811 133.538C168.928 133.198 169.093 132.908 169.306 132.67C169.525 132.426 169.786 132.241 170.091 132.114C170.401 131.987 170.746 131.923 171.127 131.923C171.635 131.923 172.074 132.035 172.445 132.258C172.816 132.482 173.103 132.799 173.306 133.211C173.509 133.622 173.61 134.107 173.61 134.666C173.61 135.087 173.552 135.468 173.435 135.808C173.318 136.149 173.151 136.441 172.932 136.684C172.719 136.928 172.46 137.113 172.155 137.24C171.851 137.367 171.508 137.431 171.127 137.431ZM171.127 136.806C171.493 136.806 171.805 136.722 172.064 136.555C172.323 136.387 172.521 136.143 172.658 135.823C172.8 135.504 172.872 135.12 172.872 134.673C172.872 133.998 172.719 133.475 172.414 133.104C172.115 132.733 171.686 132.548 171.127 132.548C170.761 132.548 170.447 132.632 170.182 132.799C169.923 132.962 169.725 133.203 169.588 133.523C169.451 133.838 169.383 134.221 169.383 134.673C169.383 135.344 169.535 135.867 169.84 136.242C170.144 136.618 170.573 136.806 171.127 136.806ZM174.963 137.416C174.856 137.416 174.772 137.385 174.711 137.324C174.65 137.263 174.62 137.174 174.62 137.058V133.949C174.62 133.833 174.65 133.746 174.711 133.69C174.772 133.63 174.856 133.599 174.963 133.599C175.069 133.599 175.15 133.63 175.206 133.69C175.267 133.746 175.298 133.833 175.298 133.949V134.574L175.214 134.46C175.321 134.17 175.493 133.952 175.732 133.805C175.976 133.657 176.252 133.584 176.562 133.584C176.862 133.584 177.108 133.637 177.301 133.744C177.494 133.85 177.639 134.013 177.735 134.231C177.832 134.45 177.88 134.727 177.88 135.062V137.058C177.88 137.174 177.85 137.263 177.789 137.324C177.733 137.385 177.649 137.416 177.537 137.416C177.426 137.416 177.339 137.385 177.278 137.324C177.217 137.263 177.187 137.174 177.187 137.058V135.1C177.187 134.77 177.123 134.528 176.997 134.376C176.87 134.224 176.666 134.148 176.387 134.148C176.062 134.148 175.8 134.249 175.602 134.452C175.409 134.65 175.313 134.919 175.313 135.26V137.058C175.313 137.296 175.196 137.416 174.963 137.416ZM180.145 137.431C179.764 137.431 179.474 137.319 179.276 137.096C179.078 136.867 178.979 136.54 178.979 136.113V132.289C178.979 132.172 179.01 132.086 179.071 132.03C179.132 131.969 179.215 131.938 179.322 131.938C179.434 131.938 179.52 131.969 179.581 132.03C179.642 132.086 179.672 132.172 179.672 132.289V136.06C179.672 136.324 179.726 136.522 179.832 136.654C179.944 136.781 180.102 136.844 180.305 136.844C180.35 136.844 180.391 136.844 180.427 136.844C180.462 136.839 180.498 136.834 180.533 136.829C180.589 136.824 180.63 136.839 180.655 136.875C180.681 136.91 180.693 136.981 180.693 137.088C180.693 137.185 180.67 137.261 180.625 137.317C180.584 137.367 180.515 137.4 180.419 137.416C180.373 137.421 180.328 137.423 180.282 137.423C180.236 137.428 180.19 137.431 180.145 137.431ZM181.613 137.4C181.507 137.4 181.423 137.367 181.362 137.301C181.301 137.235 181.271 137.144 181.271 137.027V133.988C181.271 133.866 181.301 133.774 181.362 133.713C181.423 133.647 181.507 133.614 181.613 133.614C181.725 133.614 181.811 133.647 181.872 133.713C181.933 133.774 181.964 133.866 181.964 133.988V137.027C181.964 137.144 181.933 137.235 181.872 137.301C181.816 137.367 181.73 137.4 181.613 137.4ZM181.613 132.792C181.476 132.792 181.367 132.756 181.286 132.685C181.21 132.609 181.171 132.51 181.171 132.388C181.171 132.256 181.21 132.157 181.286 132.091C181.367 132.02 181.476 131.984 181.613 131.984C181.761 131.984 181.87 132.02 181.941 132.091C182.017 132.157 182.055 132.256 182.055 132.388C182.055 132.51 182.017 132.609 181.941 132.685C181.87 132.756 181.761 132.792 181.613 132.792ZM183.421 137.416C183.314 137.416 183.231 137.385 183.17 137.324C183.109 137.263 183.078 137.174 183.078 137.058V133.949C183.078 133.833 183.109 133.746 183.17 133.69C183.231 133.63 183.314 133.599 183.421 133.599C183.528 133.599 183.609 133.63 183.665 133.69C183.726 133.746 183.756 133.833 183.756 133.949V134.574L183.672 134.46C183.779 134.17 183.952 133.952 184.19 133.805C184.434 133.657 184.711 133.584 185.021 133.584C185.32 133.584 185.567 133.637 185.76 133.744C185.953 133.85 186.097 134.013 186.194 134.231C186.29 134.45 186.339 134.727 186.339 135.062V137.058C186.339 137.174 186.308 137.263 186.247 137.324C186.191 137.385 186.108 137.416 185.996 137.416C185.884 137.416 185.798 137.385 185.737 137.324C185.676 137.263 185.646 137.174 185.646 137.058V135.1C185.646 134.77 185.582 134.528 185.455 134.376C185.328 134.224 185.125 134.148 184.846 134.148C184.521 134.148 184.259 134.249 184.061 134.452C183.868 134.65 183.771 134.919 183.771 135.26V137.058C183.771 137.296 183.655 137.416 183.421 137.416ZM189.152 137.431C188.751 137.431 188.405 137.355 188.116 137.202C187.831 137.045 187.61 136.824 187.453 136.54C187.296 136.25 187.217 135.91 187.217 135.519C187.217 135.133 187.293 134.795 187.445 134.506C187.603 134.216 187.816 133.99 188.085 133.828C188.359 133.665 188.672 133.584 189.022 133.584C189.271 133.584 189.495 133.627 189.693 133.713C189.896 133.795 190.068 133.914 190.211 134.071C190.353 134.229 190.46 134.422 190.531 134.65C190.607 134.874 190.645 135.128 190.645 135.412C190.645 135.493 190.619 135.557 190.569 135.603C190.523 135.643 190.454 135.664 190.363 135.664H187.758V135.222H190.188L190.058 135.328C190.058 135.064 190.018 134.841 189.936 134.658C189.86 134.47 189.746 134.328 189.594 134.231C189.446 134.135 189.261 134.087 189.037 134.087C188.794 134.087 188.585 134.145 188.413 134.262C188.24 134.374 188.108 134.534 188.017 134.742C187.925 134.945 187.88 135.181 187.88 135.45V135.496C187.88 135.953 187.989 136.298 188.207 136.532C188.426 136.766 188.74 136.882 189.152 136.882C189.314 136.882 189.479 136.862 189.647 136.821C189.82 136.781 189.985 136.707 190.142 136.601C190.218 136.555 190.287 136.534 190.348 136.54C190.414 136.54 190.467 136.56 190.508 136.601C190.548 136.636 190.574 136.682 190.584 136.738C190.594 136.788 190.586 136.844 190.561 136.905C190.536 136.966 190.487 137.019 190.416 137.065C190.249 137.182 190.048 137.273 189.815 137.339C189.586 137.4 189.365 137.431 189.152 137.431Z" fill="white"/>
<path d="M447.241 123.369H452.775C453.068 123.369 453.35 123.486 453.557 123.693C453.765 123.901 453.881 124.182 453.881 124.476C453.881 124.769 453.765 125.051 453.557 125.258C453.35 125.466 453.068 125.583 452.775 125.583H447.241C446.947 125.583 446.666 125.466 446.458 125.258C446.251 125.051 446.134 124.769 446.134 124.476C446.134 124.182 446.251 123.901 446.458 123.693C446.666 123.486 446.947 123.369 447.241 123.369ZM454.988 132.223H460.521C460.815 132.223 461.096 132.339 461.304 132.547C461.512 132.754 461.628 133.036 461.628 133.329C461.628 133.623 461.512 133.904 461.304 134.112C461.096 134.32 460.815 134.436 460.521 134.436H454.988C454.694 134.436 454.413 134.32 454.205 134.112C453.998 133.904 453.881 133.623 453.881 133.329C453.881 133.036 453.998 132.754 454.205 132.547C454.413 132.339 454.694 132.223 454.988 132.223ZM447.241 127.796H460.521C460.815 127.796 461.096 127.913 461.304 128.12C461.512 128.328 461.628 128.609 461.628 128.903C461.628 129.196 461.512 129.478 461.304 129.685C461.096 129.893 460.815 130.009 460.521 130.009H447.241C446.947 130.009 446.666 129.893 446.458 129.685C446.251 129.478 446.134 129.196 446.134 128.903C446.134 128.609 446.251 128.328 446.458 128.12C446.666 127.913 446.947 127.796 447.241 127.796Z" fill="white"/>
<path d="M138.214 133.612C136.844 133.612 135.731 132.49 135.731 131.112H134.493C134.493 133.177 136.162 134.858 138.214 134.858H144.133V133.612H138.214Z" fill="url(#paint1_linear_4954_358)"/>
<path d="M146.108 134.452L145.97 133.065C145.545 133.409 145.007 133.614 144.421 133.614H138.006V134.86H144.419C145.027 134.86 145.6 134.713 146.108 134.452Z" fill="url(#paint2_linear_4954_358)"/>
<path d="M144.421 134.857C142.369 134.857 140.699 133.177 140.699 131.112H141.937C141.937 132.491 143.052 133.611 144.422 133.611C145.792 133.611 146.906 132.49 146.906 131.112C146.906 129.733 145.791 128.611 144.422 128.611V127.365C146.474 127.365 148.143 129.046 148.143 131.111C148.142 133.177 146.473 134.857 144.421 134.857Z" fill="url(#paint3_linear_4954_358)"/>
<path d="M148.142 131.113C148.142 132.086 147.77 132.974 147.164 133.641L146.301 132.74C146.678 132.302 146.904 131.734 146.904 131.113C146.904 129.735 145.789 128.612 144.419 128.612V127.366C146.472 127.366 148.142 129.047 148.142 131.113Z" fill="url(#paint4_linear_4954_358)"/>
<path d="M144.422 128.613C142.37 128.613 140.7 126.933 140.7 124.868H141.938C141.938 126.247 143.053 127.367 144.423 127.367C145.793 127.367 146.907 126.245 146.907 124.868C146.907 123.489 145.792 122.368 144.423 122.368H138.011V121.122H144.423C146.475 121.122 148.145 122.803 148.145 124.868C148.145 126.933 146.474 128.613 144.422 128.613Z" fill="url(#paint5_linear_4954_358)"/>
<path d="M146.109 121.53L145.971 122.917C145.546 122.573 145.008 122.368 144.422 122.368H138.007V121.122H144.42C145.028 121.122 145.601 121.269 146.109 121.53Z" fill="url(#paint6_linear_4954_358)"/>
<path d="M138.214 128.613C136.162 128.613 134.493 126.933 134.493 124.868C134.493 122.803 136.162 121.122 138.214 121.122C140.266 121.122 141.936 122.803 141.936 124.868H140.698C140.698 123.489 139.583 122.368 138.214 122.368C136.845 122.368 135.731 123.49 135.731 124.868C135.731 126.247 136.845 127.367 138.214 127.367V128.613Z" fill="url(#paint7_linear_4954_358)"/>
<path d="M138.214 127.363V128.609C136.162 128.609 134.493 126.929 134.493 124.864C134.493 123.889 134.864 123 135.473 122.333L136.409 123.15C135.988 123.598 135.731 124.202 135.731 124.864C135.73 126.243 136.844 127.363 138.214 127.363Z" fill="url(#paint8_linear_4954_358)"/>
<path d="M138.214 128.613C139.584 128.613 140.698 129.735 140.698 131.114H141.936C141.936 129.049 140.266 127.368 138.214 127.368C136.162 127.368 134.493 129.049 134.493 131.114H135.731C135.73 129.735 136.844 128.613 138.214 128.613Z" fill="url(#paint9_linear_4954_358)"/>
</g>
<path d="M140.187 120.412C141.007 115.375 136.613 111.747 132.446 110.178C129.784 109.258 127.045 108.581 124.264 108.157C121.385 107.638 118.485 107.24 115.582 106.891C110.257 106.251 104.862 105.919 99.5829 104.946C95.1877 104.135 90.5959 102.805 87.0902 99.8658C83.7203 97.0402 81.648 92.7324 82.2599 88.2506C82.8366 84.0272 85.9077 80.4441 90.256 80.2458C94.2212 80.065 98.0737 82.6452 98.2394 86.9263C98.4263 91.7532 94.7616 95.3772 90.626 97.0594C88.3064 97.9404 85.9024 98.5732 83.4532 98.9475C80.9053 99.4781 78.2848 99.5455 75.7136 99.1465C71.5487 98.3542 67.4967 95.2019 67.0512 90.659C66.9583 89.6341 66.72 92.9654 67.0373 91.9877C67.4513 90.6493 69.7007 90.9888 69.2893 92.3188C68.1037 96.1517 71.7369 95.8313 75.0892 96.777C77.3884 97.3271 79.7749 97.389 82.0988 96.9588C84.2924 96.663 86.4566 96.1749 88.5672 95.5C92.246 94.2729 96.3864 91.4422 96.0962 86.9704C95.8599 83.3292 91.9957 81.7262 88.8524 82.6772C85.0457 83.8289 83.7919 88.3171 84.5119 91.9066C85.3091 95.8812 88.5302 98.7713 92.0135 100.413C95.7983 102.196 99.9825 102.917 104.096 103.417C109.207 104.037 114.337 104.482 119.438 105.189C122.334 105.59 125.222 106.068 128.079 106.699C130.819 107.202 133.471 108.113 135.947 109.404C139.885 111.643 143.103 115.878 142.319 120.688C142.093 122.071 139.961 121.798 140.187 120.412Z" fill="#6E33B2"/>
<path d="M76.6776 99.872C77.1589 99.7744 77.6024 99.5339 77.9522 99.1807C78.3019 98.8275 78.5423 98.3775 78.6429 97.8873C78.7435 97.3972 78.7 96.8889 78.5177 96.4264C78.3354 95.964 78.0226 95.5681 77.6186 95.2887C73.1371 92.1816 68.0865 90.021 62.7613 88.9329L8.54484 77.7966C7.84307 77.6525 7.11918 77.6511 6.41445 77.7924C5.70973 77.9337 5.03799 78.215 4.43759 78.6202C3.8372 79.0255 3.31993 79.5468 2.91527 80.1543C2.51061 80.7618 2.22648 81.4436 2.07916 82.1609C1.93185 82.8782 1.92422 83.6168 2.05667 84.3347C2.18913 85.0525 2.45914 85.7355 2.8512 86.3446C3.24326 86.9537 3.74969 87.477 4.34166 87.8847C4.93364 88.2924 5.59954 88.5764 6.30131 88.7205L60.5178 99.8568C65.8408 100.956 71.3341 100.961 76.6776 99.872Z" fill="#B085E4"/>
<rect x="143.485" y="70.9941" width="85.3796" height="27.8945" rx="4.92256" fill="url(#paint10_radial_4954_358)"/>
<path d="M200.06 110.703L179.06 98.6702H200.405L200.06 110.703Z" fill="#C2A6DA"/>
<path d="M159.175 89.5036C158.488 89.5036 157.901 89.3624 157.413 89.0801C156.925 88.7977 156.55 88.3966 156.287 87.8768C156.03 87.3505 155.902 86.7312 155.902 86.0189C155.902 85.4862 155.975 85.0081 156.123 84.5846C156.271 84.1546 156.482 83.7888 156.758 83.4872C157.041 83.1791 157.384 82.9449 157.788 82.7844C158.199 82.624 158.661 82.5438 159.175 82.5438C159.553 82.5438 159.916 82.5951 160.262 82.6978C160.615 82.8005 160.92 82.9481 161.177 83.1406C161.286 83.2112 161.357 83.2978 161.389 83.4005C161.427 83.4968 161.434 83.5898 161.408 83.6797C161.389 83.7695 161.347 83.8465 161.283 83.9107C161.219 83.9685 161.135 84.0006 161.032 84.007C160.936 84.0134 160.83 83.9781 160.715 83.9011C160.503 83.7407 160.269 83.6219 160.012 83.5449C159.755 83.4679 159.486 83.4294 159.203 83.4294C158.716 83.4294 158.305 83.5321 157.971 83.7374C157.638 83.9364 157.384 84.2284 157.211 84.6134C157.037 84.9985 156.951 85.467 156.951 86.0189C156.951 86.5708 157.037 87.0425 157.211 87.434C157.384 87.819 157.638 88.1142 157.971 88.3196C158.305 88.5185 158.716 88.618 159.203 88.618C159.486 88.618 159.755 88.5795 160.012 88.5025C160.275 88.4191 160.522 88.2971 160.753 88.1367C160.869 88.0661 160.971 88.034 161.061 88.0404C161.158 88.0468 161.238 88.0789 161.302 88.1367C161.366 88.1944 161.408 88.2682 161.427 88.3581C161.453 88.4415 161.45 88.5314 161.417 88.6276C161.392 88.7175 161.331 88.7945 161.235 88.8587C160.971 89.0704 160.66 89.2309 160.301 89.34C159.941 89.4491 159.566 89.5036 159.175 89.5036ZM164.094 89.5036C163.716 89.5036 163.398 89.433 163.141 89.2918C162.891 89.1507 162.702 88.9421 162.573 88.6661C162.451 88.3838 162.39 88.0308 162.39 87.6072V85.1429C162.39 84.976 162.432 84.8541 162.515 84.7771C162.599 84.6937 162.718 84.6519 162.872 84.6519C163.026 84.6519 163.144 84.6937 163.228 84.7771C163.318 84.8541 163.363 84.976 163.363 85.1429V87.6169C163.363 87.9955 163.44 88.2747 163.594 88.4544C163.748 88.634 163.992 88.7239 164.325 88.7239C164.691 88.7239 164.986 88.602 165.211 88.3581C165.442 88.1078 165.557 87.7805 165.557 87.3762V85.1429C165.557 84.976 165.599 84.8541 165.683 84.7771C165.766 84.6937 165.888 84.6519 166.048 84.6519C166.202 84.6519 166.321 84.6937 166.405 84.7771C166.488 84.8541 166.53 84.976 166.53 85.1429V88.9934C166.53 89.3207 166.372 89.4844 166.058 89.4844C165.91 89.4844 165.795 89.4427 165.711 89.3592C165.628 89.2694 165.586 89.1475 165.586 88.9934V88.1752L165.711 88.387C165.583 88.7464 165.378 89.0223 165.095 89.2148C164.813 89.4074 164.479 89.5036 164.094 89.5036ZM169.546 89.5036C169.264 89.5036 168.972 89.4715 168.67 89.4074C168.375 89.3432 168.102 89.2341 167.852 89.0801C167.768 89.0223 167.711 88.9581 167.678 88.8875C167.646 88.8169 167.634 88.7464 167.64 88.6758C167.653 88.5988 167.682 88.5346 167.727 88.4832C167.778 88.4255 167.839 88.3902 167.909 88.3773C167.986 88.3645 168.067 88.3806 168.15 88.4255C168.4 88.5667 168.641 88.6661 168.872 88.7239C169.103 88.7752 169.331 88.8009 169.556 88.8009C169.896 88.8009 170.152 88.7399 170.326 88.618C170.499 88.4961 170.586 88.3324 170.586 88.1271C170.586 87.9602 170.528 87.8319 170.412 87.742C170.297 87.6457 170.124 87.5719 169.893 87.5206L168.978 87.3377C168.58 87.2543 168.278 87.1067 168.073 86.8949C167.868 86.6831 167.765 86.4136 167.765 86.0863C167.765 85.7911 167.845 85.5344 168.006 85.3162C168.166 85.098 168.391 84.9311 168.68 84.8156C168.968 84.6937 169.302 84.6327 169.681 84.6327C169.963 84.6327 170.229 84.668 170.48 84.7386C170.73 84.8092 170.961 84.9151 171.173 85.0563C171.256 85.1012 171.311 85.1621 171.336 85.2392C171.362 85.3097 171.365 85.3803 171.346 85.4509C171.333 85.5215 171.301 85.5857 171.25 85.6435C171.198 85.6948 171.134 85.7269 171.057 85.7397C170.987 85.7461 170.906 85.7269 170.817 85.682C170.624 85.56 170.432 85.4734 170.239 85.4221C170.053 85.3707 169.867 85.345 169.681 85.345C169.341 85.345 169.084 85.4092 168.911 85.5376C168.744 85.6595 168.66 85.8264 168.66 86.0381C168.66 86.1986 168.712 86.3301 168.814 86.4328C168.917 86.5355 169.077 86.6093 169.296 86.6542L170.21 86.8371C170.627 86.9206 170.942 87.0617 171.154 87.2607C171.372 87.4596 171.481 87.7292 171.481 88.0693C171.481 88.5121 171.304 88.8619 170.951 89.1186C170.598 89.3753 170.13 89.5036 169.546 89.5036ZM174.518 89.5036C174.133 89.5036 173.809 89.4362 173.546 89.3015C173.283 89.1667 173.087 88.9678 172.958 88.7046C172.83 88.4415 172.766 88.1206 172.766 87.742V85.4702H172.188C172.06 85.4702 171.96 85.4381 171.89 85.3739C171.819 85.3033 171.784 85.2103 171.784 85.0948C171.784 84.9728 171.819 84.8798 171.89 84.8156C171.96 84.7514 172.06 84.7193 172.188 84.7193H172.766V83.7278C172.766 83.5674 172.808 83.4454 172.891 83.362C172.981 83.2786 173.103 83.2369 173.257 83.2369C173.411 83.2369 173.53 83.2786 173.613 83.362C173.696 83.4454 173.738 83.5674 173.738 83.7278V84.7193H174.864C174.993 84.7193 175.092 84.7514 175.163 84.8156C175.233 84.8798 175.269 84.9728 175.269 85.0948C175.269 85.2103 175.233 85.3033 175.163 85.3739C175.092 85.4381 174.993 85.4702 174.864 85.4702H173.738V87.665C173.738 88.0051 173.809 88.2618 173.95 88.4351C174.098 88.6084 174.335 88.695 174.662 88.695C174.778 88.695 174.877 88.6854 174.961 88.6661C175.051 88.6405 175.124 88.6244 175.182 88.618C175.253 88.618 175.31 88.6437 175.355 88.695C175.4 88.7399 175.423 88.8298 175.423 88.9646C175.423 89.0608 175.404 89.1507 175.365 89.2341C175.333 89.3175 175.272 89.3721 175.182 89.3977C175.105 89.4234 174.999 89.4459 174.864 89.4651C174.736 89.4908 174.621 89.5036 174.518 89.5036ZM178.025 89.5036C177.55 89.5036 177.14 89.4042 176.793 89.2052C176.453 89.0063 176.187 88.7239 175.994 88.3581C175.802 87.9923 175.705 87.5623 175.705 87.0682C175.705 86.6895 175.76 86.3526 175.869 86.0574C175.978 85.7622 176.132 85.5087 176.331 85.2969C176.536 85.0787 176.78 84.9151 177.063 84.806C177.351 84.6905 177.672 84.6327 178.025 84.6327C178.494 84.6327 178.898 84.7322 179.238 84.9311C179.585 85.1301 179.854 85.4124 180.047 85.7782C180.239 86.1376 180.336 86.5676 180.336 87.0682C180.336 87.4404 180.281 87.7773 180.172 88.0789C180.063 88.3806 179.906 88.6373 179.7 88.849C179.501 89.0608 179.257 89.2245 178.969 89.34C178.686 89.4491 178.372 89.5036 178.025 89.5036ZM178.025 88.7528C178.288 88.7528 178.519 88.6886 178.718 88.5602C178.917 88.4319 179.071 88.2426 179.18 87.9923C179.296 87.742 179.354 87.434 179.354 87.0682C179.354 86.5163 179.232 86.0991 178.988 85.8167C178.744 85.5344 178.423 85.3932 178.025 85.3932C177.756 85.3932 177.521 85.4574 177.323 85.5857C177.124 85.7076 176.966 85.8937 176.851 86.144C176.742 86.3943 176.687 86.7024 176.687 87.0682C176.687 87.6137 176.809 88.0308 177.053 88.3196C177.297 88.6084 177.621 88.7528 178.025 88.7528ZM181.928 89.4844C181.774 89.4844 181.655 89.4427 181.572 89.3592C181.488 89.2694 181.447 89.1475 181.447 88.9934V85.1429C181.447 84.9825 181.488 84.8605 181.572 84.7771C181.655 84.6937 181.771 84.6519 181.918 84.6519C182.072 84.6519 182.188 84.6937 182.265 84.7771C182.348 84.8605 182.39 84.9825 182.39 85.1429V85.9323L182.284 85.7205C182.413 85.3803 182.612 85.114 182.881 84.9215C183.151 84.729 183.475 84.6327 183.853 84.6327C184.245 84.6327 184.562 84.7258 184.806 84.9119C185.05 85.098 185.217 85.3836 185.307 85.7686H185.172C185.294 85.4156 185.503 85.1397 185.798 84.9407C186.093 84.7354 186.436 84.6327 186.828 84.6327C187.187 84.6327 187.482 84.7033 187.714 84.8445C187.945 84.9792 188.118 85.1878 188.233 85.4702C188.349 85.7461 188.407 86.0959 188.407 86.5195V88.9934C188.407 89.1475 188.362 89.2694 188.272 89.3592C188.188 89.4427 188.07 89.4844 187.916 89.4844C187.762 89.4844 187.643 89.4427 187.559 89.3592C187.476 89.2694 187.434 89.1475 187.434 88.9934V86.5676C187.434 86.1697 187.364 85.8777 187.223 85.6916C187.088 85.5055 186.863 85.4124 186.549 85.4124C186.196 85.4124 185.917 85.5344 185.711 85.7782C185.506 86.0221 185.403 86.359 185.403 86.789V88.9934C185.403 89.1475 185.361 89.2694 185.278 89.3592C185.195 89.4427 185.076 89.4844 184.922 89.4844C184.768 89.4844 184.646 89.4427 184.556 89.3592C184.473 89.2694 184.431 89.1475 184.431 88.9934V86.5676C184.431 86.1697 184.364 85.8777 184.229 85.6916C184.094 85.5055 183.869 85.4124 183.555 85.4124C183.202 85.4124 182.923 85.5344 182.717 85.7782C182.518 86.0221 182.419 86.359 182.419 86.789V88.9934C182.419 89.3207 182.255 89.4844 181.928 89.4844ZM192.882 89.4844C192.734 89.4844 192.619 89.4427 192.535 89.3592C192.452 89.2758 192.41 89.1571 192.41 89.0031V83.0636C192.41 82.9032 192.449 82.7812 192.526 82.6978C192.609 82.608 192.718 82.563 192.853 82.563C192.968 82.563 193.055 82.5855 193.113 82.6304C193.177 82.6689 193.251 82.7427 193.334 82.8518L197.3 88.0789H197.06V83.0347C197.06 82.8871 197.098 82.7716 197.175 82.6882C197.259 82.6047 197.374 82.563 197.522 82.563C197.676 82.563 197.791 82.6047 197.868 82.6882C197.945 82.7716 197.984 82.8871 197.984 83.0347V89.0127C197.984 89.1603 197.945 89.2758 197.868 89.3592C197.798 89.4427 197.701 89.4844 197.579 89.4844C197.464 89.4844 197.368 89.4619 197.291 89.417C197.22 89.3721 197.143 89.2951 197.06 89.186L193.113 83.9685H193.334V89.0031C193.334 89.1571 193.296 89.2758 193.219 89.3592C193.142 89.4427 193.029 89.4844 192.882 89.4844ZM200.96 89.5036C200.633 89.5036 200.337 89.4395 200.074 89.3111C199.817 89.1828 199.615 89.0095 199.468 88.7913C199.32 88.5731 199.246 88.326 199.246 88.0501C199.246 87.7035 199.333 87.4308 199.506 87.2318C199.686 87.0264 199.978 86.8821 200.382 86.7986C200.793 86.7088 201.345 86.6639 202.038 86.6639H202.49V87.2607H202.048C201.586 87.2607 201.22 87.2832 200.95 87.3281C200.681 87.373 200.488 87.45 200.373 87.5591C200.264 87.6618 200.209 87.8062 200.209 87.9923C200.209 88.2362 200.292 88.4351 200.459 88.5891C200.626 88.7367 200.857 88.8105 201.152 88.8105C201.39 88.8105 201.598 88.756 201.778 88.6469C201.958 88.5314 202.099 88.3773 202.202 88.1848C202.311 87.9923 202.365 87.7709 202.365 87.5206V86.4136C202.365 86.0478 202.288 85.7846 202.134 85.6242C201.98 85.4638 201.727 85.3836 201.374 85.3836C201.168 85.3836 200.953 85.4092 200.729 85.4606C200.511 85.5119 200.283 85.5985 200.045 85.7205C199.936 85.7718 199.843 85.7879 199.766 85.7686C199.689 85.7494 199.628 85.7076 199.583 85.6435C199.538 85.5729 199.513 85.4991 199.506 85.4221C199.506 85.3386 199.525 85.2584 199.564 85.1814C199.609 85.1044 199.683 85.0466 199.785 85.0081C200.068 84.8734 200.347 84.7771 200.623 84.7193C200.899 84.6616 201.159 84.6327 201.403 84.6327C201.833 84.6327 202.186 84.7001 202.462 84.8348C202.744 84.9696 202.952 85.175 203.087 85.4509C203.222 85.7269 203.289 86.0831 203.289 86.5195V88.9934C203.289 89.1475 203.251 89.2694 203.174 89.3592C203.097 89.4427 202.985 89.4844 202.837 89.4844C202.696 89.4844 202.583 89.4427 202.5 89.3592C202.417 89.2694 202.375 89.1475 202.375 88.9934V88.3677H202.462C202.41 88.6052 202.314 88.8105 202.173 88.9838C202.038 89.1507 201.868 89.279 201.663 89.3689C201.457 89.4587 201.223 89.5036 200.96 89.5036ZM205.129 89.4844C204.975 89.4844 204.856 89.4427 204.773 89.3592C204.689 89.2694 204.648 89.1475 204.648 88.9934V85.1429C204.648 84.9825 204.689 84.8605 204.773 84.7771C204.856 84.6937 204.972 84.6519 205.119 84.6519C205.273 84.6519 205.389 84.6937 205.466 84.7771C205.549 84.8605 205.591 84.9825 205.591 85.1429V85.9323L205.485 85.7205C205.614 85.3803 205.813 85.114 206.082 84.9215C206.352 84.729 206.676 84.6327 207.054 84.6327C207.446 84.6327 207.763 84.7258 208.007 84.9119C208.251 85.098 208.418 85.3836 208.508 85.7686H208.373C208.495 85.4156 208.704 85.1397 208.999 84.9407C209.294 84.7354 209.637 84.6327 210.029 84.6327C210.388 84.6327 210.683 84.7033 210.915 84.8445C211.146 84.9792 211.319 85.1878 211.434 85.4702C211.55 85.7461 211.608 86.0959 211.608 86.5195V88.9934C211.608 89.1475 211.563 89.2694 211.473 89.3592C211.389 89.4427 211.271 89.4844 211.117 89.4844C210.963 89.4844 210.844 89.4427 210.761 89.3592C210.677 89.2694 210.635 89.1475 210.635 88.9934V86.5676C210.635 86.1697 210.565 85.8777 210.424 85.6916C210.289 85.5055 210.064 85.4124 209.75 85.4124C209.397 85.4124 209.118 85.5344 208.912 85.7782C208.707 86.0221 208.604 86.359 208.604 86.789V88.9934C208.604 89.1475 208.562 89.2694 208.479 89.3592C208.396 89.4427 208.277 89.4844 208.123 89.4844C207.969 89.4844 207.847 89.4427 207.757 89.3592C207.674 89.2694 207.632 89.1475 207.632 88.9934V86.5676C207.632 86.1697 207.565 85.8777 207.43 85.6916C207.295 85.5055 207.07 85.4124 206.756 85.4124C206.403 85.4124 206.124 85.5344 205.918 85.7782C205.72 86.0221 205.62 86.359 205.62 86.789V88.9934C205.62 89.3207 205.456 89.4844 205.129 89.4844ZM215.171 89.5036C214.658 89.5036 214.215 89.4074 213.843 89.2148C213.477 89.0159 213.192 88.7367 212.986 88.3773C212.787 88.0115 212.688 87.5784 212.688 87.0778C212.688 86.5901 212.787 86.1633 212.986 85.7975C213.185 85.4317 213.458 85.1461 213.804 84.9407C214.151 84.7354 214.546 84.6327 214.988 84.6327C215.316 84.6327 215.608 84.6872 215.864 84.7963C216.121 84.899 216.339 85.053 216.519 85.2584C216.705 85.4574 216.843 85.7012 216.933 85.99C217.029 86.2788 217.077 86.6029 217.077 86.9623C217.077 87.0714 217.045 87.1548 216.981 87.2126C216.917 87.2639 216.821 87.2896 216.692 87.2896H213.458V86.6927H216.423L216.259 86.8275C216.259 86.5066 216.211 86.2339 216.115 86.0093C216.025 85.7846 215.887 85.6146 215.701 85.4991C215.521 85.3771 215.297 85.3162 215.027 85.3162C214.725 85.3162 214.469 85.3868 214.257 85.5279C214.052 85.6691 213.894 85.8649 213.785 86.1152C213.676 86.3654 213.622 86.6574 213.622 86.9912V87.0489C213.622 87.6137 213.753 88.0404 214.016 88.3292C214.286 88.6116 214.674 88.7528 215.181 88.7528C215.374 88.7528 215.576 88.7271 215.787 88.6758C216.006 88.6244 216.211 88.5378 216.404 88.4159C216.513 88.3517 216.609 88.3228 216.692 88.3292C216.782 88.3356 216.853 88.3645 216.904 88.4159C216.962 88.4672 216.997 88.5314 217.01 88.6084C217.023 88.6854 217.01 88.7656 216.972 88.849C216.933 88.926 216.866 88.9966 216.769 89.0608C216.551 89.2084 216.298 89.3207 216.009 89.3977C215.72 89.4683 215.441 89.5036 215.171 89.5036Z" fill="#8D139B"/>
<rect x="127.157" y="157.253" width="74.7072" height="27.8945" rx="4.92256" fill="url(#paint11_radial_4954_358)"/>
<path d="M140.274 138L158.941 157.253H139.968L140.274 138Z" fill="#C2A6DA"/>
<path d="M139.288 174.559C138.602 174.559 138.014 174.418 137.527 174.136C137.039 173.853 136.664 173.452 136.4 172.932C136.144 172.406 136.015 171.787 136.015 171.075C136.015 170.542 136.089 170.064 136.237 169.64C136.384 169.21 136.596 168.844 136.872 168.543C137.154 168.235 137.498 168.001 137.902 167.84C138.313 167.68 138.775 167.599 139.288 167.599C139.667 167.599 140.03 167.651 140.376 167.753C140.729 167.856 141.034 168.004 141.291 168.196C141.4 168.267 141.47 168.354 141.502 168.456C141.541 168.552 141.547 168.646 141.522 168.735C141.502 168.825 141.461 168.902 141.396 168.966C141.332 169.024 141.249 169.056 141.146 169.063C141.05 169.069 140.944 169.034 140.829 168.957C140.617 168.796 140.383 168.678 140.126 168.601C139.869 168.524 139.6 168.485 139.317 168.485C138.829 168.485 138.419 168.588 138.085 168.793C137.751 168.992 137.498 169.284 137.325 169.669C137.151 170.054 137.065 170.523 137.065 171.075C137.065 171.626 137.151 172.098 137.325 172.49C137.498 172.875 137.751 173.17 138.085 173.375C138.419 173.574 138.829 173.674 139.317 173.674C139.6 173.674 139.869 173.635 140.126 173.558C140.389 173.475 140.636 173.353 140.867 173.192C140.983 173.122 141.085 173.09 141.175 173.096C141.271 173.103 141.352 173.135 141.416 173.192C141.48 173.25 141.522 173.324 141.541 173.414C141.567 173.497 141.563 173.587 141.531 173.683C141.506 173.773 141.445 173.85 141.348 173.914C141.085 174.126 140.774 174.287 140.415 174.396C140.055 174.505 139.68 174.559 139.288 174.559ZM144.208 174.559C143.829 174.559 143.512 174.489 143.255 174.348C143.005 174.206 142.815 173.998 142.687 173.722C142.565 173.439 142.504 173.086 142.504 172.663V170.199C142.504 170.032 142.546 169.91 142.629 169.833C142.713 169.749 142.831 169.708 142.985 169.708C143.139 169.708 143.258 169.749 143.342 169.833C143.431 169.91 143.476 170.032 143.476 170.199V172.673C143.476 173.051 143.553 173.33 143.707 173.51C143.861 173.69 144.105 173.78 144.439 173.78C144.805 173.78 145.1 173.658 145.325 173.414C145.556 173.163 145.671 172.836 145.671 172.432V170.199C145.671 170.032 145.713 169.91 145.796 169.833C145.88 169.749 146.002 169.708 146.162 169.708C146.316 169.708 146.435 169.749 146.518 169.833C146.602 169.91 146.643 170.032 146.643 170.199V174.049C146.643 174.376 146.486 174.54 146.172 174.54C146.024 174.54 145.909 174.498 145.825 174.415C145.742 174.325 145.7 174.203 145.7 174.049V173.231L145.825 173.443C145.697 173.802 145.491 174.078 145.209 174.271C144.927 174.463 144.593 174.559 144.208 174.559ZM149.66 174.559C149.377 174.559 149.085 174.527 148.784 174.463C148.489 174.399 148.216 174.29 147.965 174.136C147.882 174.078 147.824 174.014 147.792 173.943C147.76 173.873 147.747 173.802 147.754 173.731C147.767 173.654 147.795 173.59 147.84 173.539C147.892 173.481 147.953 173.446 148.023 173.433C148.1 173.42 148.18 173.436 148.264 173.481C148.514 173.622 148.755 173.722 148.986 173.78C149.217 173.831 149.445 173.857 149.669 173.857C150.009 173.857 150.266 173.796 150.439 173.674C150.613 173.552 150.699 173.388 150.699 173.183C150.699 173.016 150.642 172.888 150.526 172.798C150.411 172.701 150.237 172.628 150.006 172.576L149.092 172.393C148.694 172.31 148.392 172.162 148.187 171.951C147.982 171.739 147.879 171.469 147.879 171.142C147.879 170.847 147.959 170.59 148.12 170.372C148.28 170.154 148.505 169.987 148.793 169.871C149.082 169.749 149.416 169.688 149.795 169.688C150.077 169.688 150.343 169.724 150.593 169.794C150.844 169.865 151.075 169.971 151.287 170.112C151.37 170.157 151.425 170.218 151.45 170.295C151.476 170.365 151.479 170.436 151.46 170.507C151.447 170.577 151.415 170.641 151.364 170.699C151.312 170.75 151.248 170.783 151.171 170.795C151.1 170.802 151.02 170.783 150.93 170.738C150.738 170.616 150.545 170.529 150.353 170.478C150.167 170.426 149.981 170.401 149.795 170.401C149.454 170.401 149.198 170.465 149.024 170.593C148.858 170.715 148.774 170.882 148.774 171.094C148.774 171.254 148.825 171.386 148.928 171.488C149.031 171.591 149.191 171.665 149.409 171.71L150.324 171.893C150.741 171.976 151.056 172.117 151.267 172.316C151.486 172.515 151.595 172.785 151.595 173.125C151.595 173.568 151.418 173.918 151.065 174.174C150.712 174.431 150.244 174.559 149.66 174.559ZM154.632 174.559C154.247 174.559 153.923 174.492 153.659 174.357C153.396 174.222 153.201 174.023 153.072 173.76C152.944 173.497 152.88 173.176 152.88 172.798V170.526H152.302C152.174 170.526 152.074 170.494 152.004 170.43C151.933 170.359 151.898 170.266 151.898 170.15C151.898 170.028 151.933 169.935 152.004 169.871C152.074 169.807 152.174 169.775 152.302 169.775H152.88V168.783C152.88 168.623 152.921 168.501 153.005 168.418C153.095 168.334 153.217 168.293 153.371 168.293C153.525 168.293 153.643 168.334 153.727 168.418C153.81 168.501 153.852 168.623 153.852 168.783V169.775H154.978C155.107 169.775 155.206 169.807 155.277 169.871C155.347 169.935 155.383 170.028 155.383 170.15C155.383 170.266 155.347 170.359 155.277 170.43C155.206 170.494 155.107 170.526 154.978 170.526H153.852V172.721C153.852 173.061 153.923 173.317 154.064 173.491C154.211 173.664 154.449 173.751 154.776 173.751C154.892 173.751 154.991 173.741 155.074 173.722C155.164 173.696 155.238 173.68 155.296 173.674C155.366 173.674 155.424 173.699 155.469 173.751C155.514 173.796 155.537 173.885 155.537 174.02C155.537 174.116 155.517 174.206 155.479 174.29C155.447 174.373 155.386 174.428 155.296 174.453C155.219 174.479 155.113 174.502 154.978 174.521C154.85 174.546 154.734 174.559 154.632 174.559ZM158.139 174.559C157.664 174.559 157.253 174.46 156.907 174.261C156.567 174.062 156.3 173.78 156.108 173.414C155.915 173.048 155.819 172.618 155.819 172.124C155.819 171.745 155.874 171.408 155.983 171.113C156.092 170.818 156.246 170.564 156.445 170.353C156.65 170.134 156.894 169.971 157.176 169.862C157.465 169.746 157.786 169.688 158.139 169.688C158.608 169.688 159.012 169.788 159.352 169.987C159.699 170.186 159.968 170.468 160.161 170.834C160.353 171.193 160.449 171.623 160.449 172.124C160.449 172.496 160.395 172.833 160.286 173.135C160.177 173.436 160.019 173.693 159.814 173.905C159.615 174.116 159.371 174.28 159.082 174.396C158.8 174.505 158.486 174.559 158.139 174.559ZM158.139 173.808C158.402 173.808 158.633 173.744 158.832 173.616C159.031 173.488 159.185 173.298 159.294 173.048C159.41 172.798 159.467 172.49 159.467 172.124C159.467 171.572 159.346 171.155 159.102 170.872C158.858 170.59 158.537 170.449 158.139 170.449C157.87 170.449 157.635 170.513 157.436 170.641C157.237 170.763 157.08 170.949 156.965 171.2C156.856 171.45 156.801 171.758 156.801 172.124C156.801 172.669 156.923 173.086 157.167 173.375C157.411 173.664 157.735 173.808 158.139 173.808ZM162.042 174.54C161.888 174.54 161.769 174.498 161.686 174.415C161.602 174.325 161.561 174.203 161.561 174.049V170.199C161.561 170.038 161.602 169.916 161.686 169.833C161.769 169.749 161.885 169.708 162.032 169.708C162.186 169.708 162.302 169.749 162.379 169.833C162.462 169.916 162.504 170.038 162.504 170.199V170.988L162.398 170.776C162.526 170.436 162.725 170.17 162.995 169.977C163.264 169.785 163.588 169.688 163.967 169.688C164.359 169.688 164.676 169.781 164.92 169.968C165.164 170.154 165.331 170.439 165.421 170.824H165.286C165.408 170.471 165.616 170.195 165.912 169.996C166.207 169.791 166.55 169.688 166.942 169.688C167.301 169.688 167.596 169.759 167.827 169.9C168.058 170.035 168.232 170.243 168.347 170.526C168.463 170.802 168.52 171.152 168.52 171.575V174.049C168.52 174.203 168.475 174.325 168.386 174.415C168.302 174.498 168.183 174.54 168.029 174.54C167.875 174.54 167.757 174.498 167.673 174.415C167.59 174.325 167.548 174.203 167.548 174.049V171.623C167.548 171.225 167.478 170.933 167.336 170.747C167.202 170.561 166.977 170.468 166.662 170.468C166.31 170.468 166.03 170.59 165.825 170.834C165.62 171.078 165.517 171.415 165.517 171.845V174.049C165.517 174.203 165.475 174.325 165.392 174.415C165.308 174.498 165.19 174.54 165.036 174.54C164.882 174.54 164.76 174.498 164.67 174.415C164.586 174.325 164.545 174.203 164.545 174.049V171.623C164.545 171.225 164.477 170.933 164.343 170.747C164.208 170.561 163.983 170.468 163.669 170.468C163.316 170.468 163.037 170.59 162.831 170.834C162.632 171.078 162.533 171.415 162.533 171.845V174.049C162.533 174.376 162.369 174.54 162.042 174.54ZM173.034 174.473C172.874 174.473 172.748 174.428 172.659 174.338C172.569 174.248 172.524 174.123 172.524 173.962V168.158C172.524 167.991 172.566 167.866 172.649 167.782C172.739 167.692 172.864 167.648 173.024 167.648C173.185 167.648 173.307 167.692 173.39 167.782C173.48 167.866 173.525 167.991 173.525 168.158V173.616H176.509C176.65 173.616 176.759 173.654 176.836 173.731C176.913 173.802 176.952 173.905 176.952 174.039C176.952 174.174 176.913 174.28 176.836 174.357C176.759 174.434 176.65 174.473 176.509 174.473H173.034ZM179.723 174.559C179.248 174.559 178.837 174.46 178.491 174.261C178.151 174.062 177.884 173.78 177.692 173.414C177.499 173.048 177.403 172.618 177.403 172.124C177.403 171.745 177.458 171.408 177.567 171.113C177.676 170.818 177.83 170.564 178.029 170.353C178.234 170.134 178.478 169.971 178.76 169.862C179.049 169.746 179.37 169.688 179.723 169.688C180.192 169.688 180.596 169.788 180.936 169.987C181.283 170.186 181.552 170.468 181.745 170.834C181.937 171.193 182.033 171.623 182.033 172.124C182.033 172.496 181.979 172.833 181.87 173.135C181.761 173.436 181.603 173.693 181.398 173.905C181.199 174.116 180.955 174.28 180.667 174.396C180.384 174.505 180.07 174.559 179.723 174.559ZM179.723 173.808C179.986 173.808 180.217 173.744 180.416 173.616C180.615 173.488 180.769 173.298 180.878 173.048C180.994 172.798 181.052 172.49 181.052 172.124C181.052 171.572 180.93 171.155 180.686 170.872C180.442 170.59 180.121 170.449 179.723 170.449C179.454 170.449 179.219 170.513 179.02 170.641C178.821 170.763 178.664 170.949 178.549 171.2C178.44 171.45 178.385 171.758 178.385 172.124C178.385 172.669 178.507 173.086 178.751 173.375C178.995 173.664 179.319 173.808 179.723 173.808ZM185.253 176.292C184.906 176.292 184.569 176.257 184.242 176.186C183.921 176.116 183.629 176 183.366 175.84C183.27 175.788 183.206 175.724 183.173 175.647C183.141 175.576 183.132 175.503 183.145 175.426C183.164 175.349 183.199 175.281 183.251 175.224C183.302 175.166 183.363 175.127 183.433 175.108C183.51 175.089 183.591 175.102 183.674 175.147C183.956 175.301 184.223 175.403 184.473 175.455C184.73 175.512 184.967 175.541 185.185 175.541C185.635 175.541 185.972 175.426 186.196 175.195C186.421 174.97 186.533 174.636 186.533 174.193V173.212H186.62C186.523 173.565 186.321 173.844 186.013 174.049C185.705 174.254 185.349 174.357 184.945 174.357C184.521 174.357 184.152 174.261 183.838 174.068C183.523 173.869 183.279 173.597 183.106 173.25C182.933 172.897 182.846 172.486 182.846 172.018C182.846 171.665 182.894 171.347 182.991 171.065C183.093 170.783 183.234 170.539 183.414 170.333C183.6 170.128 183.822 169.971 184.078 169.862C184.341 169.746 184.63 169.688 184.945 169.688C185.355 169.688 185.712 169.791 186.013 169.996C186.321 170.202 186.52 170.481 186.61 170.834L186.514 170.998V170.199C186.514 170.038 186.556 169.916 186.639 169.833C186.729 169.749 186.848 169.708 186.995 169.708C187.149 169.708 187.268 169.749 187.351 169.833C187.435 169.916 187.476 170.038 187.476 170.199V174.078C187.476 174.81 187.287 175.361 186.909 175.734C186.53 176.106 185.978 176.292 185.253 176.292ZM185.176 173.597C185.458 173.597 185.699 173.532 185.898 173.404C186.097 173.276 186.251 173.093 186.36 172.855C186.469 172.618 186.523 172.339 186.523 172.018C186.523 171.537 186.402 171.155 186.158 170.872C185.92 170.59 185.593 170.449 185.176 170.449C184.9 170.449 184.662 170.513 184.463 170.641C184.264 170.77 184.107 170.953 183.992 171.19C183.883 171.421 183.828 171.697 183.828 172.018C183.828 172.506 183.95 172.891 184.194 173.173C184.438 173.455 184.765 173.597 185.176 173.597ZM190.882 174.559C190.407 174.559 189.996 174.46 189.65 174.261C189.309 174.062 189.043 173.78 188.851 173.414C188.658 173.048 188.562 172.618 188.562 172.124C188.562 171.745 188.616 171.408 188.725 171.113C188.835 170.818 188.989 170.564 189.188 170.353C189.393 170.134 189.637 169.971 189.919 169.862C190.208 169.746 190.529 169.688 190.882 169.688C191.35 169.688 191.755 169.788 192.095 169.987C192.441 170.186 192.711 170.468 192.903 170.834C193.096 171.193 193.192 171.623 193.192 172.124C193.192 172.496 193.138 172.833 193.028 173.135C192.919 173.436 192.762 173.693 192.557 173.905C192.358 174.116 192.114 174.28 191.825 174.396C191.543 174.505 191.228 174.559 190.882 174.559ZM190.882 173.808C191.145 173.808 191.376 173.744 191.575 173.616C191.774 173.488 191.928 173.298 192.037 173.048C192.152 172.798 192.21 172.49 192.21 172.124C192.21 171.572 192.088 171.155 191.844 170.872C191.601 170.59 191.28 170.449 190.882 170.449C190.612 170.449 190.378 170.513 190.179 170.641C189.98 170.763 189.823 170.949 189.707 171.2C189.598 171.45 189.544 171.758 189.544 172.124C189.544 172.669 189.666 173.086 189.91 173.375C190.153 173.664 190.477 173.808 190.882 173.808Z" fill="#8D139B"/>
<rect x="292.899" y="164.852" width="79.4505" height="27.6758" rx="4.92256" fill="url(#paint12_radial_4954_358)"/>
<path d="M299.135 145.599L317.802 164.851H298.829L299.135 145.599Z" fill="#C2A6DA"/>
<path d="M303.845 182.158C303.159 182.158 302.572 182.017 302.084 181.734C301.596 181.452 301.221 181.051 300.958 180.531C300.701 180.005 300.572 179.386 300.572 178.673C300.572 178.141 300.646 177.662 300.794 177.239C300.941 176.809 301.153 176.443 301.429 176.141C301.712 175.833 302.055 175.599 302.459 175.439C302.87 175.278 303.332 175.198 303.845 175.198C304.224 175.198 304.587 175.249 304.933 175.352C305.286 175.455 305.591 175.602 305.848 175.795C305.957 175.866 306.027 175.952 306.06 176.055C306.098 176.151 306.104 176.244 306.079 176.334C306.06 176.424 306.018 176.501 305.954 176.565C305.889 176.623 305.806 176.655 305.703 176.661C305.607 176.668 305.501 176.632 305.386 176.555C305.174 176.395 304.94 176.276 304.683 176.199C304.426 176.122 304.157 176.084 303.874 176.084C303.387 176.084 302.976 176.186 302.642 176.392C302.308 176.591 302.055 176.883 301.882 177.268C301.708 177.653 301.622 178.121 301.622 178.673C301.622 179.225 301.708 179.697 301.882 180.088C302.055 180.473 302.308 180.769 302.642 180.974C302.976 181.173 303.387 181.272 303.874 181.272C304.157 181.272 304.426 181.234 304.683 181.157C304.946 181.073 305.193 180.951 305.424 180.791C305.54 180.72 305.642 180.688 305.732 180.695C305.828 180.701 305.909 180.733 305.973 180.791C306.037 180.849 306.079 180.923 306.098 181.012C306.124 181.096 306.12 181.186 306.088 181.282C306.063 181.372 306.002 181.449 305.905 181.513C305.642 181.725 305.331 181.885 304.972 181.994C304.612 182.103 304.237 182.158 303.845 182.158ZM308.765 182.158C308.386 182.158 308.069 182.087 307.812 181.946C307.562 181.805 307.373 181.596 307.244 181.32C307.122 181.038 307.061 180.685 307.061 180.262V177.797C307.061 177.63 307.103 177.508 307.186 177.431C307.27 177.348 307.389 177.306 307.543 177.306C307.697 177.306 307.815 177.348 307.899 177.431C307.989 177.508 308.034 177.63 308.034 177.797V180.271C308.034 180.65 308.111 180.929 308.265 181.109C308.419 181.288 308.662 181.378 308.996 181.378C309.362 181.378 309.657 181.256 309.882 181.012C310.113 180.762 310.228 180.435 310.228 180.031V177.797C310.228 177.63 310.27 177.508 310.353 177.431C310.437 177.348 310.559 177.306 310.719 177.306C310.873 177.306 310.992 177.348 311.075 177.431C311.159 177.508 311.201 177.63 311.201 177.797V181.648C311.201 181.975 311.043 182.139 310.729 182.139C310.581 182.139 310.466 182.097 310.382 182.014C310.299 181.924 310.257 181.802 310.257 181.648V180.829L310.382 181.041C310.254 181.401 310.049 181.677 309.766 181.869C309.484 182.062 309.15 182.158 308.765 182.158ZM314.217 182.158C313.934 182.158 313.642 182.126 313.341 182.062C313.046 181.997 312.773 181.888 312.523 181.734C312.439 181.677 312.381 181.612 312.349 181.542C312.317 181.471 312.304 181.401 312.311 181.33C312.324 181.253 312.353 181.189 312.397 181.138C312.449 181.08 312.51 181.044 312.58 181.032C312.657 181.019 312.738 181.035 312.821 181.08C313.071 181.221 313.312 181.32 313.543 181.378C313.774 181.43 314.002 181.455 314.226 181.455C314.567 181.455 314.823 181.394 314.997 181.272C315.17 181.15 315.257 180.987 315.257 180.781C315.257 180.615 315.199 180.486 315.083 180.396C314.968 180.3 314.794 180.226 314.563 180.175L313.649 179.992C313.251 179.909 312.949 179.761 312.744 179.549C312.539 179.337 312.436 179.068 312.436 178.741C312.436 178.445 312.516 178.189 312.677 177.97C312.837 177.752 313.062 177.585 313.35 177.47C313.639 177.348 313.973 177.287 314.352 177.287C314.634 177.287 314.9 177.322 315.151 177.393C315.401 177.463 315.632 177.569 315.844 177.711C315.927 177.755 315.982 177.816 316.007 177.893C316.033 177.964 316.036 178.035 316.017 178.105C316.004 178.176 315.972 178.24 315.921 178.298C315.869 178.349 315.805 178.381 315.728 178.394C315.658 178.4 315.577 178.381 315.488 178.336C315.295 178.214 315.102 178.128 314.91 178.076C314.724 178.025 314.538 177.999 314.352 177.999C314.011 177.999 313.755 178.064 313.582 178.192C313.415 178.314 313.331 178.481 313.331 178.692C313.331 178.853 313.383 178.984 313.485 179.087C313.588 179.19 313.748 179.264 313.967 179.309L314.881 179.491C315.298 179.575 315.613 179.716 315.824 179.915C316.043 180.114 316.152 180.383 316.152 180.724C316.152 181.166 315.975 181.516 315.622 181.773C315.269 182.03 314.801 182.158 314.217 182.158ZM319.189 182.158C318.804 182.158 318.48 182.091 318.217 181.956C317.953 181.821 317.758 181.622 317.629 181.359C317.501 181.096 317.437 180.775 317.437 180.396V178.124H316.859C316.731 178.124 316.631 178.092 316.561 178.028C316.49 177.958 316.455 177.865 316.455 177.749C316.455 177.627 316.49 177.534 316.561 177.47C316.631 177.406 316.731 177.374 316.859 177.374H317.437V176.382C317.437 176.222 317.479 176.1 317.562 176.016C317.652 175.933 317.774 175.891 317.928 175.891C318.082 175.891 318.2 175.933 318.284 176.016C318.367 176.1 318.409 176.222 318.409 176.382V177.374H319.535C319.664 177.374 319.763 177.406 319.834 177.47C319.904 177.534 319.94 177.627 319.94 177.749C319.94 177.865 319.904 177.958 319.834 178.028C319.763 178.092 319.664 178.124 319.535 178.124H318.409V180.319C318.409 180.659 318.48 180.916 318.621 181.089C318.768 181.263 319.006 181.349 319.333 181.349C319.449 181.349 319.548 181.34 319.632 181.32C319.721 181.295 319.795 181.279 319.853 181.272C319.924 181.272 319.981 181.298 320.026 181.349C320.071 181.394 320.094 181.484 320.094 181.619C320.094 181.715 320.074 181.805 320.036 181.888C320.004 181.972 319.943 182.026 319.853 182.052C319.776 182.078 319.67 182.1 319.535 182.119C319.407 182.145 319.291 182.158 319.189 182.158ZM322.696 182.158C322.221 182.158 321.811 182.058 321.464 181.86C321.124 181.661 320.858 181.378 320.665 181.012C320.472 180.647 320.376 180.217 320.376 179.722C320.376 179.344 320.431 179.007 320.54 178.712C320.649 178.416 320.803 178.163 321.002 177.951C321.207 177.733 321.451 177.569 321.734 177.46C322.022 177.345 322.343 177.287 322.696 177.287C323.165 177.287 323.569 177.386 323.909 177.585C324.256 177.784 324.525 178.067 324.718 178.433C324.91 178.792 325.006 179.222 325.006 179.722C325.006 180.095 324.952 180.432 324.843 180.733C324.734 181.035 324.577 181.292 324.371 181.503C324.172 181.715 323.928 181.879 323.64 181.994C323.357 182.103 323.043 182.158 322.696 182.158ZM322.696 181.407C322.959 181.407 323.19 181.343 323.389 181.215C323.588 181.086 323.742 180.897 323.851 180.647C323.967 180.396 324.025 180.088 324.025 179.722C324.025 179.171 323.903 178.753 323.659 178.471C323.415 178.189 323.094 178.047 322.696 178.047C322.427 178.047 322.192 178.112 321.993 178.24C321.795 178.362 321.637 178.548 321.522 178.798C321.413 179.049 321.358 179.357 321.358 179.722C321.358 180.268 321.48 180.685 321.724 180.974C321.968 181.263 322.292 181.407 322.696 181.407ZM326.599 182.139C326.445 182.139 326.326 182.097 326.243 182.014C326.159 181.924 326.118 181.802 326.118 181.648V177.797C326.118 177.637 326.159 177.515 326.243 177.431C326.326 177.348 326.442 177.306 326.589 177.306C326.743 177.306 326.859 177.348 326.936 177.431C327.019 177.515 327.061 177.637 327.061 177.797V178.587L326.955 178.375C327.084 178.035 327.282 177.768 327.552 177.576C327.822 177.383 328.146 177.287 328.524 177.287C328.916 177.287 329.233 177.38 329.477 177.566C329.721 177.752 329.888 178.038 329.978 178.423H329.843C329.965 178.07 330.174 177.794 330.469 177.595C330.764 177.39 331.107 177.287 331.499 177.287C331.858 177.287 332.153 177.358 332.384 177.499C332.615 177.634 332.789 177.842 332.904 178.124C333.02 178.4 333.078 178.75 333.078 179.174V181.648C333.078 181.802 333.033 181.924 332.943 182.014C332.859 182.097 332.741 182.139 332.587 182.139C332.433 182.139 332.314 182.097 332.23 182.014C332.147 181.924 332.105 181.802 332.105 181.648V179.222C332.105 178.824 332.035 178.532 331.893 178.346C331.759 178.16 331.534 178.067 331.22 178.067C330.867 178.067 330.587 178.189 330.382 178.433C330.177 178.676 330.074 179.013 330.074 179.443V181.648C330.074 181.802 330.032 181.924 329.949 182.014C329.866 182.097 329.747 182.139 329.593 182.139C329.439 182.139 329.317 182.097 329.227 182.014C329.144 181.924 329.102 181.802 329.102 181.648V179.222C329.102 178.824 329.034 178.532 328.9 178.346C328.765 178.16 328.54 178.067 328.226 178.067C327.873 178.067 327.594 178.189 327.388 178.433C327.189 178.676 327.09 179.013 327.09 179.443V181.648C327.09 181.975 326.926 182.139 326.599 182.139ZM340.123 182.158C339.436 182.158 338.849 182.017 338.361 181.734C337.874 181.452 337.498 181.051 337.235 180.531C336.978 180.005 336.85 179.386 336.85 178.673C336.85 178.141 336.924 177.662 337.071 177.239C337.219 176.809 337.431 176.443 337.707 176.141C337.989 175.833 338.332 175.599 338.737 175.439C339.147 175.278 339.609 175.198 340.123 175.198C340.502 175.198 340.864 175.249 341.211 175.352C341.564 175.455 341.868 175.602 342.125 175.795C342.234 175.866 342.305 175.952 342.337 176.055C342.375 176.151 342.382 176.244 342.356 176.334C342.337 176.424 342.295 176.501 342.231 176.565C342.167 176.623 342.083 176.655 341.981 176.661C341.884 176.668 341.779 176.632 341.663 176.555C341.451 176.395 341.217 176.276 340.96 176.199C340.704 176.122 340.434 176.084 340.152 176.084C339.664 176.084 339.253 176.186 338.92 176.392C338.586 176.591 338.332 176.883 338.159 177.268C337.986 177.653 337.899 178.121 337.899 178.673C337.899 179.225 337.986 179.697 338.159 180.088C338.332 180.473 338.586 180.769 338.92 180.974C339.253 181.173 339.664 181.272 340.152 181.272C340.434 181.272 340.704 181.234 340.96 181.157C341.223 181.073 341.471 180.951 341.702 180.791C341.817 180.72 341.92 180.688 342.01 180.695C342.106 180.701 342.186 180.733 342.25 180.791C342.314 180.849 342.356 180.923 342.375 181.012C342.401 181.096 342.398 181.186 342.366 181.282C342.34 181.372 342.279 181.449 342.183 181.513C341.92 181.725 341.609 181.885 341.249 181.994C340.89 182.103 340.514 182.158 340.123 182.158ZM345.183 182.158C344.708 182.158 344.297 182.058 343.951 181.86C343.61 181.661 343.344 181.378 343.152 181.012C342.959 180.647 342.863 180.217 342.863 179.722C342.863 179.344 342.917 179.007 343.026 178.712C343.136 178.416 343.29 178.163 343.488 177.951C343.694 177.733 343.938 177.569 344.22 177.46C344.509 177.345 344.83 177.287 345.183 177.287C345.651 177.287 346.056 177.386 346.396 177.585C346.742 177.784 347.012 178.067 347.204 178.433C347.397 178.792 347.493 179.222 347.493 179.722C347.493 180.095 347.438 180.432 347.329 180.733C347.22 181.035 347.063 181.292 346.858 181.503C346.659 181.715 346.415 181.879 346.126 181.994C345.844 182.103 345.529 182.158 345.183 182.158ZM345.183 181.407C345.446 181.407 345.677 181.343 345.876 181.215C346.075 181.086 346.229 180.897 346.338 180.647C346.453 180.396 346.511 180.088 346.511 179.722C346.511 179.171 346.389 178.753 346.145 178.471C345.901 178.189 345.581 178.047 345.183 178.047C344.913 178.047 344.679 178.112 344.48 178.24C344.281 178.362 344.124 178.548 344.008 178.798C343.899 179.049 343.845 179.357 343.845 179.722C343.845 180.268 343.967 180.685 344.21 180.974C344.454 181.263 344.778 181.407 345.183 181.407ZM350.096 182.158C349.596 182.158 349.217 182.014 348.96 181.725C348.71 181.43 348.585 181.006 348.585 180.454V175.708C348.585 175.548 348.627 175.426 348.71 175.342C348.794 175.259 348.912 175.217 349.066 175.217C349.22 175.217 349.339 175.259 349.422 175.342C349.512 175.426 349.557 175.548 349.557 175.708V180.396C349.557 180.717 349.621 180.958 349.75 181.118C349.885 181.272 350.077 181.349 350.327 181.349C350.385 181.349 350.436 181.349 350.481 181.349C350.526 181.343 350.571 181.336 350.616 181.33C350.693 181.324 350.748 181.346 350.78 181.397C350.812 181.442 350.828 181.539 350.828 181.686C350.828 181.821 350.799 181.927 350.741 182.004C350.684 182.074 350.59 182.119 350.462 182.139C350.404 182.145 350.343 182.148 350.279 182.148C350.215 182.155 350.154 182.158 350.096 182.158ZM353.521 182.158C353.046 182.158 352.636 182.058 352.289 181.86C351.949 181.661 351.683 181.378 351.49 181.012C351.297 180.647 351.201 180.217 351.201 179.722C351.201 179.344 351.256 179.007 351.365 178.712C351.474 178.416 351.628 178.163 351.827 177.951C352.032 177.733 352.276 177.569 352.559 177.46C352.847 177.345 353.168 177.287 353.521 177.287C353.99 177.287 354.394 177.386 354.734 177.585C355.081 177.784 355.35 178.067 355.543 178.433C355.735 178.792 355.831 179.222 355.831 179.722C355.831 180.095 355.777 180.432 355.668 180.733C355.559 181.035 355.402 181.292 355.196 181.503C354.997 181.715 354.753 181.879 354.465 181.994C354.182 182.103 353.868 182.158 353.521 182.158ZM353.521 181.407C353.784 181.407 354.015 181.343 354.214 181.215C354.413 181.086 354.567 180.897 354.676 180.647C354.792 180.396 354.85 180.088 354.85 179.722C354.85 179.171 354.728 178.753 354.484 178.471C354.24 178.189 353.919 178.047 353.521 178.047C353.252 178.047 353.017 178.112 352.818 178.24C352.62 178.362 352.462 178.548 352.347 178.798C352.238 179.049 352.183 179.357 352.183 179.722C352.183 180.268 352.305 180.685 352.549 180.974C352.793 181.263 353.117 181.407 353.521 181.407ZM358.598 182.158C358.22 182.158 357.902 182.087 357.645 181.946C357.395 181.805 357.206 181.596 357.077 181.32C356.955 181.038 356.895 180.685 356.895 180.262V177.797C356.895 177.63 356.936 177.508 357.02 177.431C357.103 177.348 357.222 177.306 357.376 177.306C357.53 177.306 357.649 177.348 357.732 177.431C357.822 177.508 357.867 177.63 357.867 177.797V180.271C357.867 180.65 357.944 180.929 358.098 181.109C358.252 181.288 358.496 181.378 358.829 181.378C359.195 181.378 359.49 181.256 359.715 181.012C359.946 180.762 360.062 180.435 360.062 180.031V177.797C360.062 177.63 360.103 177.508 360.187 177.431C360.27 177.348 360.392 177.306 360.553 177.306C360.707 177.306 360.825 177.348 360.909 177.431C360.992 177.508 361.034 177.63 361.034 177.797V181.648C361.034 181.975 360.877 182.139 360.562 182.139C360.415 182.139 360.299 182.097 360.216 182.014C360.132 181.924 360.09 181.802 360.09 181.648V180.829L360.216 181.041C360.087 181.401 359.882 181.677 359.6 181.869C359.317 182.062 358.983 182.158 358.598 182.158ZM362.895 182.139C362.735 182.139 362.613 182.097 362.529 182.014C362.446 181.924 362.404 181.802 362.404 181.648V177.797C362.404 177.637 362.446 177.515 362.529 177.431C362.613 177.348 362.728 177.306 362.876 177.306C363.03 177.306 363.145 177.348 363.222 177.431C363.306 177.515 363.347 177.637 363.347 177.797V178.5H363.251C363.354 178.115 363.543 177.823 363.819 177.624C364.095 177.425 364.448 177.309 364.878 177.277C364.994 177.271 365.083 177.3 365.148 177.364C365.218 177.428 365.257 177.528 365.263 177.662C365.276 177.797 365.247 177.906 365.176 177.99C365.106 178.067 364.997 178.112 364.849 178.124L364.666 178.144C364.249 178.182 363.931 178.314 363.713 178.538C363.495 178.763 363.386 179.071 363.386 179.463V181.648C363.386 181.802 363.344 181.924 363.261 182.014C363.184 182.097 363.062 182.139 362.895 182.139Z" fill="#8D139B"/>
<path d="M424.686 271.5H262.831C254.314 271.5 247.41 278.404 247.41 286.92V291.864C247.41 300.381 254.314 307.285 262.831 307.285H405.221C415.971 307.285 424.686 298.57 424.686 287.82V271.5Z" fill="#E7E7E7" stroke="#E7E7E7" stroke-width="1.51678"/>
<path d="M418.231 275.286H268.822C261.326 275.286 255.249 281.363 255.249 288.859C255.249 296.355 261.326 302.432 268.822 302.432H398.29C409.303 302.432 418.231 293.504 418.231 282.49V275.286Z" fill="#DBDBDB" stroke="#E7E7E7" stroke-width="0.564869"/>
<path d="M424.686 367.762H262.831C254.315 367.762 247.411 374.666 247.411 383.183V388.127C247.411 396.644 254.315 403.548 262.831 403.548H405.221C415.971 403.548 424.686 394.833 424.686 384.082V367.762Z" fill="#E7E7E7" stroke="#E7E7E7" stroke-width="1.51678"/>
<path d="M418.231 371.55H268.822C261.326 371.55 255.249 377.627 255.249 385.123C255.249 392.619 261.326 398.695 268.822 398.695H398.29C409.303 398.695 418.231 389.767 418.231 378.754V371.55Z" fill="#DBDBDB" stroke="#E7E7E7" stroke-width="0.564869"/>
<path d="M424.686 464.027H262.831C254.315 464.027 247.411 470.931 247.411 479.448V484.392C247.411 492.908 254.315 499.812 262.831 499.812H405.221C415.971 499.812 424.686 491.097 424.686 480.347V464.027Z" fill="#E7E7E7" stroke="#E7E7E7" stroke-width="1.51678"/>
<path d="M418.231 467.815H268.822C261.326 467.815 255.249 473.891 255.249 481.387C255.249 488.883 261.326 494.96 268.822 494.96H398.29C409.303 494.96 418.231 486.032 418.231 475.019V467.815Z" fill="#DBDBDB" stroke="#E7E7E7" stroke-width="0.564869"/>
<path d="M80.4762 222.165H242.331C250.848 222.165 257.752 229.069 257.752 237.585V242.529C257.752 251.046 250.848 257.95 242.331 257.95H99.9415C89.1911 257.95 80.4762 249.235 80.4762 238.485V222.165Z" fill="#E7E7E7" stroke="#E7E7E7" stroke-width="1.51678"/>
<path d="M86.9314 225.952H236.341C243.837 225.952 249.913 232.029 249.913 239.525C249.913 247.021 243.837 253.098 236.341 253.098H106.873C95.8594 253.098 86.9314 244.17 86.9314 233.156V225.952Z" fill="#DBDBDB" stroke="#E7E7E7" stroke-width="0.564869"/>
<path d="M80.4762 318.427H242.331C250.848 318.427 257.752 325.331 257.752 333.848V338.792C257.752 347.309 250.848 354.213 242.331 354.213H99.9415C89.1911 354.213 80.4762 345.498 80.4762 334.747V318.427Z" fill="#E7E7E7" stroke="#E7E7E7" stroke-width="1.51678"/>
<path d="M86.9314 322.215H236.341C243.837 322.215 249.913 328.292 249.913 335.788C249.913 343.284 243.837 349.36 236.341 349.36H106.873C95.8594 349.36 86.9314 340.432 86.9314 329.419V322.215Z" fill="#DBDBDB" stroke="#E7E7E7" stroke-width="0.564869"/>
<path d="M80.4762 414.692H242.331C250.848 414.692 257.752 421.596 257.752 430.113V435.057C257.752 443.573 250.848 450.477 242.331 450.477H99.9415C89.1911 450.477 80.4762 441.762 80.4762 431.012V414.692Z" fill="#E7E7E7" stroke="#E7E7E7" stroke-width="1.51678"/>
<path d="M86.9314 418.48H236.341C243.837 418.48 249.913 424.556 249.913 432.052C249.913 439.548 243.837 445.625 236.341 445.625H106.873C95.8594 445.625 86.9314 436.697 86.9314 425.684V418.48Z" fill="#DBDBDB" stroke="#E7E7E7" stroke-width="0.564869"/>
<defs>
<filter id="filter0_d_4954_358" x="120.038" y="107.381" width="353.535" height="47.626" filterUnits="userSpaceOnUse" color-interpolation-filters="sRGB">
<feFlood flood-opacity="0" result="BackgroundImageFix"/>
<feColorMatrix in="SourceAlpha" type="matrix" values="0 0 0 0 0 0 0 0 0 0 0 0 0 0 0 0 0 0 127 0" result="hardAlpha"/>
<feOffset dx="2.74768" dy="2.74768"/>
<feGaussianBlur stdDeviation="1.83179"/>
<feComposite in2="hardAlpha" operator="out"/>
<feColorMatrix type="matrix" values="0 0 0 0 0.279167 0 0 0 0 0.271024 0 0 0 0 0.271024 0 0 0 0.25 0"/>
<feBlend mode="normal" in2="BackgroundImageFix" result="effect1_dropShadow_4954_358"/>
<feBlend mode="normal" in="SourceGraphic" in2="effect1_dropShadow_4954_358" result="shape"/>
</filter>
<linearGradient id="paint0_linear_4954_358" x1="503.656" y1="128.447" x2="95.4572" y2="51.0658" gradientUnits="userSpaceOnUse">
<stop stop-color="#887EE1"/>
<stop offset="1" stop-color="#CD8BE6"/>
</linearGradient>
<linearGradient id="paint1_linear_4954_358" x1="130.879" y1="121.779" x2="149.96" y2="146.821" gradientUnits="userSpaceOnUse">
<stop stop-color="#4DC3FF"/>
<stop offset="0.249" stop-color="#8733FF"/>
<stop offset="0.5786" stop-color="#FF31FA"/>
<stop offset="0.7404" stop-color="#FF793E"/>
<stop offset="1" stop-color="#FFDE3E"/>
</linearGradient>
<linearGradient id="paint2_linear_4954_358" x1="144.168" y1="133.981" x2="137.831" y2="134.091" gradientUnits="userSpaceOnUse">
<stop stop-color="#1A175E"/>
<stop offset="0.1251" stop-color="#22196A" stop-opacity="0.8749"/>
<stop offset="0.349" stop-color="#371E88" stop-opacity="0.651"/>
<stop offset="0.6458" stop-color="#5927BB" stop-opacity="0.3542"/>
<stop offset="1" stop-color="#8733FF" stop-opacity="0"/>
</linearGradient>
<linearGradient id="paint3_linear_4954_358" x1="135.024" y1="118.621" x2="154.105" y2="143.662" gradientUnits="userSpaceOnUse">
<stop stop-color="#4DC3FF"/>
<stop offset="0.249" stop-color="#8733FF"/>
<stop offset="0.5786" stop-color="#FF31FA"/>
<stop offset="0.7404" stop-color="#FF793E"/>
<stop offset="1" stop-color="#FFDE3E"/>
</linearGradient>
<linearGradient id="paint4_linear_4954_358" x1="144.578" y1="127.853" x2="147.579" y2="131.701" gradientUnits="userSpaceOnUse">
<stop stop-color="#1A175E"/>
<stop offset="0.1251" stop-color="#22196A" stop-opacity="0.8749"/>
<stop offset="0.349" stop-color="#371E88" stop-opacity="0.651"/>
<stop offset="0.6458" stop-color="#5927BB" stop-opacity="0.3542"/>
<stop offset="1" stop-color="#8733FF" stop-opacity="0"/>
</linearGradient>
<linearGradient id="paint5_linear_4954_358" x1="138.012" y1="116.347" x2="157.093" y2="141.388" gradientUnits="userSpaceOnUse">
<stop stop-color="#4DC3FF"/>
<stop offset="0.249" stop-color="#8733FF"/>
<stop offset="0.5786" stop-color="#FF31FA"/>
<stop offset="0.7404" stop-color="#FF793E"/>
<stop offset="1" stop-color="#FFDE3E"/>
</linearGradient>
<linearGradient id="paint6_linear_4954_358" x1="138.119" y1="121.903" x2="144.861" y2="122.013" gradientUnits="userSpaceOnUse">
<stop stop-color="#1A175E"/>
<stop offset="0.1251" stop-color="#22196A" stop-opacity="0.8749"/>
<stop offset="0.349" stop-color="#371E88" stop-opacity="0.651"/>
<stop offset="0.6458" stop-color="#5927BB" stop-opacity="0.3542"/>
<stop offset="1" stop-color="#8733FF" stop-opacity="0"/>
</linearGradient>
<linearGradient id="paint7_linear_4954_358" x1="134.066" y1="119.353" x2="153.147" y2="144.394" gradientUnits="userSpaceOnUse">
<stop stop-color="#4DC3FF"/>
<stop offset="0.249" stop-color="#8733FF"/>
<stop offset="0.5786" stop-color="#FF31FA"/>
<stop offset="0.7404" stop-color="#FF793E"/>
<stop offset="1" stop-color="#FFDE3E"/>
</linearGradient>
<linearGradient id="paint8_linear_4954_358" x1="138.373" y1="127.446" x2="134.151" y2="123.744" gradientUnits="userSpaceOnUse">
<stop stop-color="#1A175E"/>
<stop offset="0.1251" stop-color="#22196A" stop-opacity="0.8749"/>
<stop offset="0.349" stop-color="#371E88" stop-opacity="0.651"/>
<stop offset="0.6458" stop-color="#5927BB" stop-opacity="0.3542"/>
<stop offset="1" stop-color="#8733FF" stop-opacity="0"/>
</linearGradient>
<linearGradient id="paint9_linear_4954_358" x1="131.379" y1="121.4" x2="150.46" y2="146.441" gradientUnits="userSpaceOnUse">
<stop stop-color="#4DC3FF"/>
<stop offset="0.249" stop-color="#8733FF"/>
<stop offset="0.5786" stop-color="#FF31FA"/>
<stop offset="0.7404" stop-color="#FF793E"/>
<stop offset="1" stop-color="#FFDE3E"/>
</linearGradient>
<radialGradient id="paint10_radial_4954_358" cx="0" cy="0" r="1" gradientUnits="userSpaceOnUse" gradientTransform="translate(186.082 84.9719) rotate(89.8281) scale(31.1459 95.3311)">
<stop stop-color="white"/>
<stop offset="1" stop-color="#844BB4"/>
</radialGradient>
<radialGradient id="paint11_radial_4954_358" cx="0" cy="0" r="1" gradientUnits="userSpaceOnUse" gradientTransform="translate(164.429 171.231) rotate(89.8496) scale(31.1458 83.4148)">
<stop stop-color="white"/>
<stop offset="1" stop-color="#844BB4"/>
</radialGradient>
<radialGradient id="paint12_radial_4954_358" cx="0" cy="0" r="1" gradientUnits="userSpaceOnUse" gradientTransform="translate(332.538 178.72) rotate(89.8388) scale(30.9016 88.7109)">
<stop stop-color="white"/>
<stop offset="1" stop-color="#844BB4"/>
</radialGradient>
</defs>
</svg>
