<svg width="568" height="555" viewBox="0 0 568 555" fill="none" xmlns="http://www.w3.org/2000/svg">
<path d="M172.684 87.8291H159.481C158.885 87.8291 158.402 88.3118 158.402 88.9073C158.402 89.5027 158.885 89.9855 159.481 89.9855H172.684C173.279 89.9855 173.762 89.5027 173.762 88.9073C173.762 88.3118 173.279 87.8291 172.684 87.8291Z" fill="black"/>
<path d="M172.684 91.1602H159.481C158.885 91.1602 158.402 91.6429 158.402 92.2383C158.402 92.8338 158.885 93.3165 159.481 93.3165H172.684C173.279 93.3165 173.762 92.8338 173.762 92.2383C173.762 91.6429 173.279 91.1602 172.684 91.1602Z" fill="black"/>
<g filter="url(#filter0_d_4954_359)">
<circle cx="37.7622" cy="150.631" r="30.7622" fill="#FFFEFE" fill-opacity="0.09" shape-rendering="crispEdges"/>
<circle cx="37.7622" cy="150.631" r="30.2959" stroke="#EEEEEE" stroke-width="0.9325" shape-rendering="crispEdges"/>
</g>
<path d="M47.4291 153.522C47.8986 152.57 48.1465 151.524 48.1465 150.448C48.1465 146.612 45.0264 143.492 41.1907 143.492C38.9048 143.492 36.7714 144.625 35.4791 146.484C35.3956 146.481 35.3131 146.473 35.2292 146.473C31.4214 146.473 28.1646 148.963 27.1252 152.527C26.8385 152.475 26.5379 152.435 26.286 152.435C23.2722 152.435 20.8208 154.887 20.8208 157.901C20.8208 160.914 23.2722 163.366 26.286 163.366H44.1723C47.1856 163.366 49.6375 160.914 49.6375 157.901C49.6375 156.108 48.7661 154.519 47.4291 153.522ZM41.1907 145.48C43.9303 145.48 46.1591 147.708 46.1591 150.448C46.1591 151.217 45.9803 151.963 45.6444 152.642C45.1749 152.511 44.6825 152.435 44.1723 152.435C43.9199 152.435 43.6198 152.475 43.3326 152.527C42.5337 149.789 40.4241 147.69 37.763 146.862C38.6762 145.991 39.8975 145.48 41.1907 145.48ZM44.1723 161.378H26.286C24.3687 161.378 22.8082 159.818 22.8082 157.901C22.8082 155.983 24.3687 154.423 26.286 154.423C26.4237 154.423 26.6453 154.456 26.8788 154.503V155.416C26.8788 155.965 27.3239 156.41 27.8725 156.41C28.421 156.41 28.8661 155.965 28.8661 155.416V153.817C29.3992 150.71 32.0638 148.461 35.2292 148.461C38.395 148.461 41.0601 150.711 41.5922 153.82V155.416C41.5922 155.965 42.0374 156.41 42.5859 156.41C43.1344 156.41 43.5796 155.965 43.5796 155.416V154.504C43.8136 154.457 44.0361 154.423 44.1723 154.423C46.0896 154.423 47.6502 155.983 47.6502 157.901C47.6502 159.818 46.0896 161.378 44.1723 161.378Z" fill="black"/>
<path d="M41.1905 141.504C41.739 141.504 42.1841 141.059 42.1841 140.51V138.523C42.1841 137.974 41.739 137.529 41.1905 137.529C40.6414 137.529 40.1968 137.974 40.1968 138.523V140.51C40.1968 141.059 40.6414 141.504 41.1905 141.504Z" fill="black"/>
<path d="M53.1139 149.453H51.1265C50.5775 149.453 50.1328 149.898 50.1328 150.447C50.1328 150.995 50.5775 151.44 51.1265 151.44H53.1139C53.6624 151.44 54.1075 150.995 54.1075 150.447C54.1075 149.898 53.6624 149.453 53.1139 149.453Z" fill="black"/>
<path d="M48.2172 144.413C48.4716 144.413 48.7255 144.316 48.9197 144.122L50.3248 142.717C50.7128 142.329 50.7128 141.7 50.3248 141.312C49.9368 140.923 49.3078 140.923 48.9197 141.312L47.5147 142.717C47.1266 143.105 47.1266 143.734 47.5147 144.122C47.7084 144.316 47.9628 144.413 48.2172 144.413Z" fill="black"/>
<path d="M33.4622 144.122C33.6565 144.316 33.9103 144.413 34.1647 144.413C34.4191 144.413 34.673 144.316 34.8673 144.122C35.2553 143.734 35.2553 143.105 34.8673 142.717L33.4622 141.312C33.0742 140.923 32.4452 140.923 32.0571 141.312C31.6691 141.7 31.6691 142.329 32.0571 142.717L33.4622 144.122Z" fill="black"/>
<g filter="url(#filter1_d_4954_359)">
<circle cx="184.415" cy="330.301" r="30.7622" fill="#FFFEFE" fill-opacity="0.09" shape-rendering="crispEdges"/>
<circle cx="184.415" cy="330.301" r="30.2959" stroke="#EEEEEE" stroke-width="0.9325" shape-rendering="crispEdges"/>
</g>
<path d="M174.001 318.543V341.77H186.67V318.543H174.001ZM172.945 316.432H187.725C188.005 316.432 188.274 316.543 188.472 316.741C188.67 316.939 188.781 317.207 188.781 317.487V342.825C188.781 343.105 188.67 343.374 188.472 343.572C188.274 343.77 188.005 343.881 187.725 343.881H172.945C172.665 343.881 172.396 343.77 172.198 343.572C172 343.374 171.889 343.105 171.889 342.825V317.487C171.889 317.207 172 316.939 172.198 316.741C172.396 316.543 172.665 316.432 172.945 316.432Z" fill="black"/>
<path d="M176.112 322.766H184.558V324.877H176.112V322.766ZM176.112 329.1H184.558V331.212H176.112V329.1ZM176.112 335.435H184.558V337.546H176.112V335.435ZM188.781 331.212H193.004V333.323H188.781V331.212ZM188.781 335.435H193.004V337.546H188.781V335.435ZM169.778 341.769H199.339V343.881H169.778V341.769Z" fill="black"/>
<path d="M188.781 326.988V341.769H195.116V326.988H188.781ZM187.726 324.877H196.172C196.452 324.877 196.72 324.988 196.918 325.186C197.116 325.384 197.227 325.653 197.227 325.933V342.825C197.227 343.105 197.116 343.373 196.918 343.571C196.72 343.769 196.452 343.88 196.172 343.88H187.726C187.446 343.88 187.177 343.769 186.979 343.571C186.781 343.373 186.67 343.105 186.67 342.825V325.933C186.67 325.653 186.781 325.384 186.979 325.186C187.177 324.988 187.446 324.877 187.726 324.877Z" fill="black"/>
<g filter="url(#filter2_d_4954_359)">
<circle cx="161.381" cy="89.2055" r="30.7622" fill="#FFFEFE" fill-opacity="0.09" shape-rendering="crispEdges"/>
<circle cx="161.381" cy="89.2055" r="30.2959" stroke="#EEEEEE" stroke-width="0.9325" shape-rendering="crispEdges"/>
</g>
<path d="M175.159 83.4147H168.723V80.7044C168.723 79.0145 167.348 77.6396 165.658 77.6396H147.505C145.815 77.6396 144.439 79.0145 144.439 80.7044V88.8914C144.439 90.4678 145.636 91.7698 147.169 91.9378L146.236 95.0222C145.949 95.9713 146.985 96.7581 147.82 96.2607L153.94 92.6147V94.6672C153.94 96.3571 155.315 97.7319 157.005 97.7319H167.618L174.843 102.036C175.683 102.537 176.713 101.744 176.427 100.798L175.495 97.7136C177.027 97.5457 178.224 96.2435 178.224 94.6672V86.4794C178.224 84.7895 176.849 83.4147 175.159 83.4147ZM153.94 86.4794V90.1046L149.105 92.985L149.648 91.1902C149.857 90.4986 149.339 89.7997 148.616 89.7997H147.505C147.004 89.7997 146.596 89.3922 146.596 88.8915V80.7044C146.596 80.2035 147.004 79.7961 147.505 79.7961H165.658C166.159 79.7961 166.567 80.2036 166.567 80.7044V83.4147H157.005C155.315 83.4147 153.94 84.7895 153.94 86.4794ZM176.067 94.6672H176.067C176.067 95.1681 175.66 95.5755 175.159 95.5755H174.048C173.326 95.5755 172.807 96.2738 173.016 96.9656L173.559 98.7608L168.467 95.7274C168.3 95.6279 168.11 95.5754 167.915 95.5754H157.005C156.504 95.5754 156.096 95.168 156.096 94.6671C156.096 93.8243 156.096 87.2484 156.096 86.4794C156.096 85.9785 156.504 85.5711 157.005 85.5711C157.776 85.5711 174.368 85.5711 175.159 85.5711C175.66 85.5711 176.067 85.9786 176.067 86.4794V94.6672Z" fill="black"/>
<g filter="url(#filter3_d_4954_359)">
<circle cx="502.293" cy="306.499" r="30.7622" fill="#FFFEFE" fill-opacity="0.09" shape-rendering="crispEdges"/>
<circle cx="502.293" cy="306.499" r="30.2959" stroke="#EEEEEE" stroke-width="0.9325" shape-rendering="crispEdges"/>
</g>
<path d="M516.499 296.629H509.377V295.354C509.377 293.852 508.154 292.629 506.651 292.629H497.836C496.333 292.629 495.111 293.852 495.111 295.354V296.629H487.989C486.535 296.629 485.352 297.812 485.352 299.266V317.812C485.352 319.266 486.535 320.449 487.989 320.449H516.498C517.953 320.449 519.136 319.266 519.136 317.812V299.266C519.136 297.812 517.953 296.629 516.499 296.629ZM497.414 295.354C497.414 295.122 497.603 294.932 497.836 294.932H506.651C506.884 294.932 507.074 295.122 507.074 295.354V296.629H497.414V295.354ZM487.989 298.932H516.499C516.683 298.932 516.833 299.082 516.833 299.266V305.309C513.264 306.633 507.881 307.414 502.234 307.414C496.599 307.414 491.224 306.635 487.655 305.316V299.266C487.655 299.082 487.805 298.932 487.989 298.932ZM516.499 318.146H487.989C487.805 318.146 487.655 317.997 487.655 317.812V307.756C490.921 308.833 495.216 309.507 499.896 309.676C499.896 309.689 499.894 309.702 499.894 309.715V310.223C499.894 311.175 500.669 311.95 501.621 311.95H502.867C503.819 311.95 504.594 311.175 504.594 310.223V309.715C504.594 309.702 504.592 309.689 504.592 309.675C509.275 309.505 513.569 308.829 516.833 307.75V317.812C516.833 317.997 516.683 318.146 516.499 318.146Z" fill="black"/>
<g filter="url(#filter4_d_4954_359)">
<circle cx="516.762" cy="503.762" r="30.7622" fill="#FFFEFE" fill-opacity="0.09" shape-rendering="crispEdges"/>
<circle cx="516.762" cy="503.762" r="30.2959" stroke="#EEEEEE" stroke-width="0.9325" shape-rendering="crispEdges"/>
</g>
<path d="M517.557 505.892C512.9 505.892 509.111 509.681 509.111 514.338V517.505C509.111 518.088 509.584 518.561 510.167 518.561H524.948C525.53 518.561 526.003 518.088 526.003 517.505V514.338C526.003 509.681 522.214 505.892 517.557 505.892ZM523.892 516.449H521.78V515.393C521.78 514.811 521.307 514.338 520.725 514.338C520.142 514.338 519.669 514.811 519.669 515.393V516.449H515.446V515.393C515.446 514.811 514.973 514.338 514.39 514.338C513.807 514.338 513.334 514.811 513.334 515.393V516.449H511.223V514.338C511.223 510.844 514.064 508.003 517.557 508.003C521.051 508.003 523.892 510.844 523.892 514.338V516.449Z" fill="black"/>
<path d="M523.892 498.501C523.309 498.501 522.836 498.974 522.836 499.557C522.836 500.14 523.309 500.612 523.892 500.612C527.385 500.612 530.226 503.454 530.226 506.947V509.058H528.115V508.003C528.115 507.42 527.642 506.947 527.059 506.947C526.476 506.947 526.003 507.42 526.003 508.003V510.114C526.003 510.697 526.476 511.17 527.059 511.17H531.282C531.865 511.17 532.338 510.697 532.338 510.114V506.947C532.338 502.29 528.549 498.501 523.892 498.501Z" fill="black"/>
<path d="M503.056 511.669H507.279C507.862 511.669 508.335 511.196 508.335 510.613V508.502C508.335 507.919 507.862 507.446 507.279 507.446C506.696 507.446 506.223 507.919 506.223 508.502V509.558H504.112V507.446C504.112 503.953 506.953 501.112 510.446 501.112C511.029 501.112 511.502 500.639 511.502 500.056C511.502 499.473 511.029 499 510.446 499C505.789 499 502 502.789 502 507.446V510.613C502 511.196 502.473 511.669 503.056 511.669Z" fill="black"/>
<path d="M513.334 499.703V501.523C513.334 503.349 514.821 504.836 516.647 504.836H518.468C520.294 504.836 521.78 503.349 521.78 501.523V499.703C521.78 497.876 520.294 496.39 518.468 496.39H516.647C514.821 496.39 513.334 497.876 513.334 499.703ZM515.446 499.703C515.446 499.041 515.985 498.501 516.647 498.501H518.468C519.129 498.501 519.669 499.041 519.669 499.703V501.523C519.669 502.185 519.129 502.724 518.468 502.724H516.647C515.985 502.724 515.446 502.185 515.446 501.523V499.703Z" fill="black"/>
<path d="M522.982 497.446H524.802C526.628 497.446 528.115 495.96 528.115 494.133V492.313C528.115 490.486 526.628 489 524.802 489H522.982C521.155 489 519.669 490.486 519.669 492.313V494.133C519.669 495.96 521.155 497.446 522.982 497.446ZM521.78 492.313C521.78 491.651 522.32 491.112 522.982 491.112H524.802C525.464 491.112 526.003 491.651 526.003 492.313V494.133C526.003 494.795 525.464 495.335 524.802 495.335H522.982C522.32 495.335 521.78 494.795 521.78 494.133V492.313Z" fill="black"/>
<path d="M510.313 497.446H512.133C513.96 497.446 515.446 495.96 515.446 494.133V492.313C515.446 490.486 513.96 489 512.133 489H510.313C508.486 489 507 490.486 507 492.313V494.133C507 495.96 508.486 497.446 510.313 497.446ZM509.112 492.313C509.112 491.651 509.651 491.112 510.313 491.112H512.133C512.795 491.112 513.335 491.651 513.335 492.313V494.133C513.335 494.795 512.795 495.335 512.133 495.335H510.313C509.651 495.335 509.112 494.795 509.112 494.133V492.313Z" fill="black"/>
<path d="M219.686 316.432L263.452 304.147" stroke="url(#paint0_linear_4954_359)" stroke-opacity="0.08" stroke-width="15" stroke-linecap="round"/>
<path d="M138.041 266.396H109.888" stroke="#1C274C" stroke-width="2.75" stroke-linecap="round"/>
<path d="M279.576 75.3359L314.157 218.911" stroke="url(#paint1_linear_4954_359)" stroke-opacity="0.08" stroke-width="15" stroke-linecap="round"/>
<path d="M363.268 149.047L356.372 214.312" stroke="url(#paint2_linear_4954_359)" stroke-opacity="0.08" stroke-width="15" stroke-linecap="round"/>
<path d="M437.747 202.026L400.124 241.185" stroke="url(#paint3_linear_4954_359)" stroke-opacity="0.08" stroke-width="15" stroke-linecap="round"/>
<path d="M463.853 304.146L417.016 296.468" stroke="url(#paint4_linear_4954_359)" stroke-opacity="0.08" stroke-width="15" stroke-linecap="round"/>
<path d="M182.831 119.869L292.629 230.435" stroke="url(#paint5_linear_4954_359)" stroke-opacity="0.08" stroke-width="15" stroke-linecap="round"/>
<path d="M71.4971 166.706L279.576 243.488" stroke="url(#paint6_linear_4954_359)" stroke-opacity="0.08" stroke-width="15" stroke-linecap="round"/>
<path d="M161.332 257.309L264.987 272.665" stroke="url(#paint7_linear_4954_359)" stroke-opacity="0.08" stroke-width="15" stroke-linecap="round"/>
<path d="M397.82 345.608L494 473" stroke="url(#paint8_linear_4954_359)" stroke-opacity="0.08" stroke-width="15" stroke-linecap="round"/>
<path d="M327 425L333.323 370.179" stroke="url(#paint9_linear_4954_359)" stroke-opacity="0.08" stroke-width="15" stroke-linecap="round"/>
<path d="M182.063 464.62L284.183 346.376" stroke="url(#paint10_linear_4954_359)" stroke-opacity="0.08" stroke-width="15" stroke-linecap="round"/>
<path d="M269.606 28.7547V27.347C269.606 25.0147 271.497 23.124 273.829 23.124C276.162 23.124 278.052 25.0147 278.052 27.347V28.7547" stroke="black" stroke-width="3.5" stroke-linecap="round"/>
<path d="M262.204 49.2428C263.893 51.2776 267.036 51.2776 273.322 51.2776H274.337C280.623 51.2776 283.766 51.2776 285.454 49.2428M262.204 49.2428C260.516 47.2082 261.095 44.119 262.253 37.9409C263.077 33.5473 263.489 31.3505 265.053 30.0527M285.454 49.2428C287.143 47.2082 286.564 44.119 285.405 37.9409C284.582 33.5473 284.17 31.3505 282.606 30.0527M282.606 30.0527C281.042 28.7549 278.807 28.7549 274.337 28.7549H273.322C268.852 28.7549 266.617 28.7549 265.053 30.0527" stroke="black" stroke-width="3.5"/>
<path d="M278.052 35.793L279.46 44.239" stroke="black" stroke-width="3.5" stroke-linecap="round"/>
<path d="M269.606 35.793L268.199 44.239" stroke="black" stroke-width="3.5" stroke-linecap="round"/>
<g filter="url(#filter5_d_4954_359)">
<circle cx="273.483" cy="37.7622" r="30.7622" fill="#FFFEFE" fill-opacity="0.09" shape-rendering="crispEdges"/>
<circle cx="273.483" cy="37.7622" r="30.2959" stroke="#EEEEEE" stroke-width="0.9325" shape-rendering="crispEdges"/>
</g>
<g filter="url(#filter6_d_4954_359)">
<circle cx="370.228" cy="109.937" r="30.7622" fill="#FFFEFE" fill-opacity="0.09" shape-rendering="crispEdges"/>
<circle cx="370.228" cy="109.937" r="30.2959" stroke="#EEEEEE" stroke-width="0.9325" shape-rendering="crispEdges"/>
</g>
<path d="M381.504 118.333H377.281C375.17 118.333 373.692 115.799 372.214 112.632C371.58 114.11 370.947 115.799 370.102 117.488C371.791 120.444 373.903 122.556 377.281 122.556H381.504V126.779L387.839 120.444L381.504 114.11V118.333Z" fill="#444444"/>
<path d="M365.456 106.932C366.09 105.454 366.723 103.764 367.568 102.286C365.879 99.3303 363.556 97.2188 360.389 97.2188H354.054V101.442H360.389C362.5 101.442 363.978 103.976 365.456 106.932Z" fill="#444444"/>
<path d="M387.838 99.3306L381.504 92.9961V97.2191H377.281C371.58 97.2191 369.046 103.554 366.723 109.255C365.034 113.689 363.134 118.334 360.389 118.334H354.054V122.557H360.389C365.879 122.557 368.412 116.645 370.735 110.733C372.635 106.087 374.536 101.442 377.281 101.442H381.504V105.665L387.838 99.3306Z" fill="#444444"/>
<g filter="url(#filter7_d_4954_359)">
<circle cx="463.134" cy="171.363" r="30.7622" fill="#FFFEFE" fill-opacity="0.09" shape-rendering="crispEdges"/>
<circle cx="463.134" cy="171.363" r="30.2959" stroke="#EEEEEE" stroke-width="0.9325" shape-rendering="crispEdges"/>
</g>
<path d="M474.995 173.88C476.144 173.665 476.887 172.73 476.887 171.613V168.836C476.887 168.741 476.891 168.615 476.842 168.615H476.87L476.883 168.595C476.883 168.595 476.89 168.586 476.89 168.586L474.632 165.129C474.26 164.572 473.48 164.089 472.811 164.089H467.631V163.177H469.803C470.568 163.177 471.043 162.659 471.043 161.893V158.191C471.043 157.425 470.568 156.725 469.803 156.725H457.307C456.541 156.725 455.842 157.425 455.842 158.191V161.893C455.842 162.659 456.541 163.177 457.307 163.177H459.288V164.089H454.298C453.63 164.089 452.845 164.568 452.474 165.124L450.212 168.547C450.212 168.547 450.212 168.575 450.212 168.575L450.211 168.597L450.16 168.601C450.111 168.601 450.032 168.741 450.032 168.836V171.613C450.032 172.73 450.944 173.665 451.856 173.88V184.571C451.856 184.909 452.077 185.134 452.235 185.404H450.471V186.35H476.414V185.404H474.875C475.033 185.134 474.995 184.909 474.995 184.571V173.88ZM474.083 183.58H461.585V177.629C461.585 176.863 461.081 176.148 460.315 176.148H456.613C455.847 176.148 455.099 176.863 455.099 177.629V183.58H452.768V173.88C453.511 173.765 453.893 173.441 454.227 172.995C454.65 173.559 455.357 173.927 456.114 173.927C456.871 173.927 457.561 173.559 457.983 172.995C458.406 173.559 459.086 173.927 459.843 173.927C460.601 173.927 461.277 173.559 461.699 172.995C462.121 173.559 462.795 173.927 463.552 173.927C464.31 173.927 464.982 173.559 465.405 172.995C465.827 173.559 466.499 173.927 467.257 173.927C468.014 173.927 468.686 173.559 469.108 172.995C469.531 173.559 470.202 173.927 470.96 173.927C471.717 173.927 472.33 173.559 472.753 172.995C473.087 173.441 473.61 173.765 474.083 173.88V183.58ZM460.673 178.04H456.011V177.629C456.011 177.374 456.357 177.06 456.613 177.06H460.315C460.57 177.06 460.672 177.374 460.672 177.629V178.04H460.673ZM454.66 169.19H457.396V171.613C457.396 172.378 456.793 173.001 456.028 173.001C455.262 173.001 454.66 172.378 454.66 171.613V169.19ZM458.308 169.19H461.112V171.613C461.112 172.378 460.475 173.001 459.71 173.001C458.944 173.001 458.308 172.378 458.308 171.613V169.19ZM462.024 169.19H464.861V171.613C464.861 172.378 464.208 173.001 463.443 173.001C462.677 173.001 462.024 172.378 462.024 171.613V169.19ZM465.773 169.19H468.543V171.613C468.543 172.378 467.924 173.001 467.158 173.001C466.393 173.001 465.773 172.378 465.773 171.613V169.19ZM469.455 169.19H472.259V171.613C472.259 172.378 471.623 173.001 470.857 173.001C470.092 173.001 469.455 172.378 469.455 171.613V169.19ZM475.975 171.613C475.975 172.378 475.339 173.001 474.573 173.001C473.807 173.001 473.171 172.378 473.171 171.613V169.19H475.975V171.613ZM470.131 161.802C470.131 162.057 469.924 162.265 469.668 162.265H457.217C456.961 162.265 456.754 162.057 456.754 161.802V158.1C456.754 157.844 456.961 157.637 457.217 157.637H469.668C469.924 157.637 470.131 157.844 470.131 158.1V161.802H470.131ZM453.244 165.6C453.441 165.305 453.944 165.035 454.298 165.035H463.409V164.089H460.2V163.177H466.685V165.035H472.811C473.166 165.035 473.668 165.305 473.865 165.6L475.649 168.277H451.461L453.244 165.6ZM450.944 171.613V169.19H453.748V171.613C453.748 172.378 453.111 173.001 452.346 173.001C451.58 173.001 450.944 172.378 450.944 171.613ZM453.836 185.404C453.325 185.404 452.91 185.134 452.91 184.492H455.099V185.404H453.836ZM456.011 185.404V178.952H460.673V185.404H456.011ZM461.585 185.404V184.492H474.199C474.199 185.134 473.784 185.404 473.274 185.404H461.585Z" fill="#262626"/>
<path d="M472.497 181.496C472.497 181.751 472.289 181.959 472.034 181.959H463.704C463.448 181.959 463.241 181.751 463.241 181.496V176.611C463.241 176.356 463.448 176.148 463.704 176.148H472.034C472.289 176.148 472.497 176.356 472.497 176.611V181.496H472.497Z" fill="#262626"/>
<path d="M459.051 181.249H459.963V183.073H459.051V181.249ZM459.76 158.549H467.158V159.461H459.76V158.549ZM461.348 160.373H465.503V161.353H461.348V160.373Z" fill="#262626"/>
<g filter="url(#filter8_d_4954_359)">
<circle cx="326.762" cy="462.762" r="30.7622" fill="#FFFEFE" fill-opacity="0.09" shape-rendering="crispEdges"/>
<circle cx="326.762" cy="462.762" r="30.2959" stroke="#EEEEEE" stroke-width="0.9325" shape-rendering="crispEdges"/>
</g>
<path d="M338.057 478.295L332.313 478.797C331.468 478.871 330.638 478.487 330.149 477.794L326.673 472.885C326.428 472.539 326.28 472.134 326.243 471.712C326.205 471.289 326.281 470.865 326.461 470.481L329.014 465.049C329.193 464.67 329.468 464.344 329.812 464.104C330.156 463.864 330.557 463.718 330.974 463.681L336.637 463.185C337.464 463.113 338.285 463.484 338.778 464.154L342.33 468.992C342.846 469.697 342.94 470.624 342.572 471.418L340.025 476.914C339.847 477.297 339.572 477.625 339.227 477.868C338.882 478.11 338.479 478.257 338.059 478.295L338.057 478.295ZM335.336 472.111L333.467 476.291L337.846 475.908L339.81 471.67L335.336 472.111ZM330.587 467.334L328.628 471.502L331.299 475.272L333.153 471.124L330.586 467.332L330.587 467.334ZM332.544 465.95L335.099 469.727L339.57 469.286L336.844 465.572L332.544 465.948L332.544 465.95ZM323.206 471.196L317.462 471.699C316.617 471.773 315.788 471.389 315.298 470.696L311.825 465.791C311.324 465.085 311.245 464.16 311.616 463.378L314.202 457.939C314.566 457.176 315.314 456.655 316.158 456.581L321.802 456.088C322.632 456.015 323.454 456.388 323.946 457.06L327.48 461.898C327.994 462.601 328.085 463.529 327.719 464.318L325.172 469.816C324.995 470.198 324.719 470.527 324.374 470.77C324.029 471.012 323.626 471.159 323.206 471.196ZM320.485 465.013L318.616 469.193L322.996 468.81L324.958 464.574L320.483 465.015L320.485 465.013ZM313.778 464.407L316.447 468.176L318.309 464.009L315.759 460.242L313.778 464.407ZM317.711 458.851L320.266 462.627L324.723 462.187L322.009 458.472L317.711 458.849L317.711 458.851ZM336.613 461.586L330.869 462.088C330.024 462.162 329.195 461.778 328.705 461.087L325.23 456.179C324.985 455.833 324.836 455.428 324.799 455.006C324.762 454.584 324.837 454.16 325.017 453.776L327.57 448.344C327.75 447.965 328.025 447.639 328.369 447.399C328.713 447.159 329.113 447.013 329.531 446.976L335.194 446.48C336.023 446.408 336.841 446.779 337.335 447.45L340.886 452.287C341.403 452.992 341.496 453.922 341.129 454.713L338.581 460.209C338.404 460.592 338.129 460.921 337.784 461.163C337.438 461.405 337.036 461.553 336.616 461.59L336.613 461.586ZM333.872 455.404L332.003 459.584L336.403 459.199L338.365 454.961L333.87 455.405L333.872 455.404ZM329.134 450.644L327.185 454.793L329.844 458.549L331.689 454.419L329.134 450.644ZM331.08 449.243L333.635 453.02L338.126 452.577L335.4 448.863L331.08 449.241L331.08 449.243Z" fill="black"/>
<g filter="url(#filter9_d_4954_359)">
<circle cx="154.471" cy="491.543" r="30.7622" fill="#FFFEFE" fill-opacity="0.09" shape-rendering="crispEdges"/>
<circle cx="154.471" cy="491.543" r="30.2959" stroke="#EEEEEE" stroke-width="0.9325" shape-rendering="crispEdges"/>
</g>
<path d="M140.812 502.008C141.019 502.286 141.336 502.431 141.657 502.431C141.877 502.431 142.1 502.362 142.29 502.219L145.899 499.512C146.459 500.009 147.186 500.319 147.991 500.319C149.737 500.319 151.158 498.898 151.158 497.152C151.158 496.639 151.024 496.161 150.806 495.733C151.601 495.971 152.424 496.092 153.247 496.092C155.078 496.092 156.905 495.496 158.422 494.317L159.967 495.862C159.602 496.227 159.554 496.802 159.854 497.221L163.587 502.447C163.621 502.495 163.659 502.539 163.699 502.58C164.298 503.178 165.093 503.508 165.94 503.508C166.786 503.508 167.581 503.178 168.179 502.58C168.776 501.983 169.106 501.187 169.106 500.341C169.106 499.494 168.775 498.698 168.178 498.101C168.137 498.061 168.092 498.023 168.046 497.99L162.82 494.257C162.4 493.957 161.823 494.006 161.459 494.369L159.914 492.824C160.848 491.626 161.434 490.213 161.621 488.706H162.966C163.403 489.931 164.564 490.817 165.939 490.817C167.685 490.817 169.106 489.396 169.106 487.65C169.106 485.904 167.685 484.483 165.939 484.483C164.564 484.483 163.403 485.369 162.966 486.594H161.621C161.39 484.739 160.563 483.022 159.22 481.679C155.927 478.386 150.569 478.386 147.276 481.679C143.983 484.972 143.983 490.329 147.276 493.622C147.415 493.762 147.562 493.885 147.708 494.013C146.096 494.16 144.824 495.503 144.824 497.152C144.824 497.32 144.848 497.481 144.873 497.643L141.023 500.53C140.556 500.881 140.462 501.542 140.812 502.008ZM166.735 499.649C166.902 499.841 166.994 500.084 166.994 500.341C166.994 500.623 166.885 500.888 166.685 501.088C166.305 501.47 165.648 501.49 165.246 501.137L162.092 496.722L162.321 496.494L166.735 499.649ZM157.727 492.13C156.013 493.844 153.561 494.34 151.39 493.675L152.977 491.56C153.388 491.756 153.842 491.874 154.326 491.874C156.073 491.874 157.494 490.453 157.494 488.707H159.489C159.273 489.997 158.67 491.187 157.727 492.13ZM153.27 488.706C153.27 488.123 153.744 487.65 154.325 487.65C154.907 487.65 155.381 488.123 155.381 488.706C155.381 489.289 154.907 489.761 154.325 489.761C153.744 489.761 153.27 489.289 153.27 488.706ZM165.939 486.594C166.52 486.594 166.994 487.067 166.994 487.65C166.994 488.233 166.52 488.706 165.939 488.706C165.357 488.706 164.883 488.233 164.883 487.65C164.883 487.067 165.357 486.594 165.939 486.594ZM148.768 483.171C150.003 481.936 151.625 481.32 153.247 481.32C154.87 481.32 156.492 481.937 157.727 483.171C158.671 484.114 159.274 485.304 159.489 486.594H156.669C156.089 485.951 155.258 485.538 154.325 485.538C152.579 485.538 151.158 486.96 151.158 488.706C151.158 489.201 151.282 489.663 151.485 490.08C151.448 490.117 151.402 490.14 151.369 490.184L149.476 492.708C149.233 492.528 148.988 492.35 148.768 492.13C146.298 489.66 146.298 485.642 148.768 483.171ZM147.991 496.096C148.573 496.096 149.047 496.569 149.047 497.152C149.047 497.735 148.573 498.207 147.991 498.207C147.409 498.207 146.935 497.735 146.935 497.152C146.935 496.569 147.409 496.096 147.991 496.096Z" fill="black"/>
<g filter="url(#filter10_d_4954_359)">
<circle cx="123.758" cy="252.751" r="30.7622" fill="#FFFEFE" fill-opacity="0.09" shape-rendering="crispEdges"/>
<circle cx="123.758" cy="252.751" r="30.2959" stroke="#EEEEEE" stroke-width="0.9325" shape-rendering="crispEdges"/>
</g>
<path d="M109.888 250.91L121.326 241.759C122.869 240.526 125.06 240.526 126.602 241.759L138.041 250.91" stroke="#1C274C" stroke-width="2.75" stroke-linecap="round"/>
<path d="M128.891 243.169V240.353C128.891 239.965 129.206 239.649 129.595 239.649H133.114C133.503 239.649 133.818 239.965 133.818 240.353V247.392" stroke="black" stroke-width="2.75" stroke-linecap="round"/>
<path d="M112.704 266.395V248.799" stroke="#1C274C" stroke-width="2.75" stroke-linecap="round"/>
<path d="M135.226 266.395V248.799" stroke="#1C274C" stroke-width="2.75" stroke-linecap="round"/>
<path d="M128.188 266.394V259.356C128.188 257.365 128.188 256.37 127.57 255.751C126.951 255.133 125.956 255.133 123.965 255.133C121.974 255.133 120.979 255.133 120.361 255.751C119.742 256.37 119.742 257.365 119.742 259.356V266.394" stroke="black" stroke-width="2.75"/>
<path d="M126.781 248.799C126.781 250.354 125.521 251.614 123.966 251.614C122.411 251.614 121.15 250.354 121.15 248.799C121.15 247.244 122.411 245.983 123.966 245.983C125.521 245.983 126.781 247.244 126.781 248.799Z" stroke="black" stroke-width="2.75"/>
<circle cx="336.5" cy="284.5" r="90.5" fill="#E9E2FE" fill-opacity="0.8"/>
<circle cx="337" cy="284" r="108" fill="#E9E2FE" fill-opacity="0.3"/>
<circle cx="337" cy="284" r="124" fill="#E9E2FE" fill-opacity="0.2"/>
<g filter="url(#filter11_d_4954_359)">
<circle cx="336.5" cy="284.5" r="65.5" fill="#F1EFF7"/>
<circle cx="336.5" cy="284.5" r="65.0338" stroke="#EEEEEE" stroke-width="0.9325"/>
</g>
<path d="M319.886 313.883C312.565 313.883 306.615 307.967 306.615 300.7H300C300 311.591 308.922 320.454 319.886 320.454H351.512V313.883H319.886Z" fill="url(#paint11_linear_4954_359)"/>
<path d="M362.066 318.302L361.331 310.988C359.059 312.801 356.181 313.882 353.05 313.882H318.776V320.453H353.039C356.287 320.453 359.353 319.675 362.066 318.302Z" fill="url(#paint12_linear_4954_359)"/>
<path d="M353.043 320.455C342.079 320.455 333.157 311.592 333.157 300.701H339.772C339.772 307.973 345.728 313.884 353.049 313.884C360.37 313.884 366.319 307.968 366.319 300.701C366.319 293.429 360.364 287.512 353.049 287.512V280.941C364.012 280.941 372.934 289.804 372.934 300.695C372.928 311.592 364.007 320.455 353.043 320.455Z" fill="url(#paint13_linear_4954_359)"/>
<path d="M372.929 300.701C372.929 305.834 370.946 310.516 367.704 314.036L363.096 309.283C365.108 306.974 366.315 303.975 366.315 300.701C366.315 293.434 360.359 287.512 353.038 287.512V280.941C364.008 280.941 372.929 289.804 372.929 300.701Z" fill="url(#paint14_linear_4954_359)"/>
<path d="M353.052 287.513C342.088 287.513 333.166 278.651 333.166 267.76H339.781C339.781 275.032 345.737 280.942 353.058 280.942C360.379 280.942 366.328 275.026 366.328 267.76C366.328 260.487 360.373 254.577 353.058 254.577H318.795V248.006H353.058C364.021 248.006 372.943 256.868 372.943 267.76C372.943 278.651 364.016 287.513 353.052 287.513Z" fill="url(#paint15_linear_4954_359)"/>
<path d="M362.066 250.151L361.331 257.465C359.059 255.652 356.181 254.571 353.05 254.571H318.776V248H353.039C356.287 248 359.353 248.778 362.066 250.151Z" fill="url(#paint16_linear_4954_359)"/>
<path d="M319.886 287.513C308.922 287.513 300 278.651 300 267.76C300 256.868 308.922 248.006 319.886 248.006C330.849 248.006 339.771 256.868 339.771 267.76H333.156C333.156 260.487 327.201 254.577 319.886 254.577C312.57 254.577 306.615 260.493 306.615 267.76C306.615 275.032 312.57 280.942 319.886 280.942V287.513Z" fill="url(#paint17_linear_4954_359)"/>
<path d="M319.886 280.94V287.511C308.922 287.511 300 278.649 300 267.758C300 262.619 301.983 257.93 305.238 254.411L310.24 258.72C307.992 261.081 306.615 264.268 306.615 267.758C306.609 275.03 312.565 280.94 319.886 280.94Z" fill="url(#paint18_linear_4954_359)"/>
<path d="M319.886 287.512C327.206 287.512 333.156 293.429 333.156 300.701H339.771C339.771 289.81 330.849 280.947 319.886 280.947C308.922 280.947 300 289.81 300 300.701H306.615C306.609 293.429 312.565 287.512 319.886 287.512Z" fill="url(#paint19_linear_4954_359)"/>
<defs>
<filter id="filter0_d_4954_359" x="0.433642" y="113.303" width="87.7898" height="87.7898" filterUnits="userSpaceOnUse" color-interpolation-filters="sRGB">
<feFlood flood-opacity="0" result="BackgroundImageFix"/>
<feColorMatrix in="SourceAlpha" type="matrix" values="0 0 0 0 0 0 0 0 0 0 0 0 0 0 0 0 0 0 127 0" result="hardAlpha"/>
<feOffset dx="6.56636" dy="6.56636"/>
<feGaussianBlur stdDeviation="6.56636"/>
<feComposite in2="hardAlpha" operator="out"/>
<feColorMatrix type="matrix" values="0 0 0 0 0 0 0 0 0 0 0 0 0 0 0 0 0 0 0.25 0"/>
<feBlend mode="normal" in2="BackgroundImageFix" result="effect1_dropShadow_4954_359"/>
<feBlend mode="normal" in="SourceGraphic" in2="effect1_dropShadow_4954_359" result="shape"/>
</filter>
<filter id="filter1_d_4954_359" x="147.087" y="292.973" width="87.7898" height="87.7898" filterUnits="userSpaceOnUse" color-interpolation-filters="sRGB">
<feFlood flood-opacity="0" result="BackgroundImageFix"/>
<feColorMatrix in="SourceAlpha" type="matrix" values="0 0 0 0 0 0 0 0 0 0 0 0 0 0 0 0 0 0 127 0" result="hardAlpha"/>
<feOffset dx="6.56636" dy="6.56636"/>
<feGaussianBlur stdDeviation="6.56636"/>
<feComposite in2="hardAlpha" operator="out"/>
<feColorMatrix type="matrix" values="0 0 0 0 0 0 0 0 0 0 0 0 0 0 0 0 0 0 0.25 0"/>
<feBlend mode="normal" in2="BackgroundImageFix" result="effect1_dropShadow_4954_359"/>
<feBlend mode="normal" in="SourceGraphic" in2="effect1_dropShadow_4954_359" result="shape"/>
</filter>
<filter id="filter2_d_4954_359" x="124.053" y="51.877" width="87.7898" height="87.7898" filterUnits="userSpaceOnUse" color-interpolation-filters="sRGB">
<feFlood flood-opacity="0" result="BackgroundImageFix"/>
<feColorMatrix in="SourceAlpha" type="matrix" values="0 0 0 0 0 0 0 0 0 0 0 0 0 0 0 0 0 0 127 0" result="hardAlpha"/>
<feOffset dx="6.56636" dy="6.56636"/>
<feGaussianBlur stdDeviation="6.56636"/>
<feComposite in2="hardAlpha" operator="out"/>
<feColorMatrix type="matrix" values="0 0 0 0 0 0 0 0 0 0 0 0 0 0 0 0 0 0 0.25 0"/>
<feBlend mode="normal" in2="BackgroundImageFix" result="effect1_dropShadow_4954_359"/>
<feBlend mode="normal" in="SourceGraphic" in2="effect1_dropShadow_4954_359" result="shape"/>
</filter>
<filter id="filter3_d_4954_359" x="464.964" y="269.17" width="87.7898" height="87.7898" filterUnits="userSpaceOnUse" color-interpolation-filters="sRGB">
<feFlood flood-opacity="0" result="BackgroundImageFix"/>
<feColorMatrix in="SourceAlpha" type="matrix" values="0 0 0 0 0 0 0 0 0 0 0 0 0 0 0 0 0 0 127 0" result="hardAlpha"/>
<feOffset dx="6.56636" dy="6.56636"/>
<feGaussianBlur stdDeviation="6.56636"/>
<feComposite in2="hardAlpha" operator="out"/>
<feColorMatrix type="matrix" values="0 0 0 0 0 0 0 0 0 0 0 0 0 0 0 0 0 0 0.25 0"/>
<feBlend mode="normal" in2="BackgroundImageFix" result="effect1_dropShadow_4954_359"/>
<feBlend mode="normal" in="SourceGraphic" in2="effect1_dropShadow_4954_359" result="shape"/>
</filter>
<filter id="filter4_d_4954_359" x="479.434" y="466.434" width="87.7898" height="87.7898" filterUnits="userSpaceOnUse" color-interpolation-filters="sRGB">
<feFlood flood-opacity="0" result="BackgroundImageFix"/>
<feColorMatrix in="SourceAlpha" type="matrix" values="0 0 0 0 0 0 0 0 0 0 0 0 0 0 0 0 0 0 127 0" result="hardAlpha"/>
<feOffset dx="6.56636" dy="6.56636"/>
<feGaussianBlur stdDeviation="6.56636"/>
<feComposite in2="hardAlpha" operator="out"/>
<feColorMatrix type="matrix" values="0 0 0 0 0 0 0 0 0 0 0 0 0 0 0 0 0 0 0.25 0"/>
<feBlend mode="normal" in2="BackgroundImageFix" result="effect1_dropShadow_4954_359"/>
<feBlend mode="normal" in="SourceGraphic" in2="effect1_dropShadow_4954_359" result="shape"/>
</filter>
<filter id="filter5_d_4954_359" x="236.154" y="0.433642" width="87.7898" height="87.7898" filterUnits="userSpaceOnUse" color-interpolation-filters="sRGB">
<feFlood flood-opacity="0" result="BackgroundImageFix"/>
<feColorMatrix in="SourceAlpha" type="matrix" values="0 0 0 0 0 0 0 0 0 0 0 0 0 0 0 0 0 0 127 0" result="hardAlpha"/>
<feOffset dx="6.56636" dy="6.56636"/>
<feGaussianBlur stdDeviation="6.56636"/>
<feComposite in2="hardAlpha" operator="out"/>
<feColorMatrix type="matrix" values="0 0 0 0 0 0 0 0 0 0 0 0 0 0 0 0 0 0 0.25 0"/>
<feBlend mode="normal" in2="BackgroundImageFix" result="effect1_dropShadow_4954_359"/>
<feBlend mode="normal" in="SourceGraphic" in2="effect1_dropShadow_4954_359" result="shape"/>
</filter>
<filter id="filter6_d_4954_359" x="332.899" y="72.6084" width="87.7898" height="87.7898" filterUnits="userSpaceOnUse" color-interpolation-filters="sRGB">
<feFlood flood-opacity="0" result="BackgroundImageFix"/>
<feColorMatrix in="SourceAlpha" type="matrix" values="0 0 0 0 0 0 0 0 0 0 0 0 0 0 0 0 0 0 127 0" result="hardAlpha"/>
<feOffset dx="6.56636" dy="6.56636"/>
<feGaussianBlur stdDeviation="6.56636"/>
<feComposite in2="hardAlpha" operator="out"/>
<feColorMatrix type="matrix" values="0 0 0 0 0 0 0 0 0 0 0 0 0 0 0 0 0 0 0.25 0"/>
<feBlend mode="normal" in2="BackgroundImageFix" result="effect1_dropShadow_4954_359"/>
<feBlend mode="normal" in="SourceGraphic" in2="effect1_dropShadow_4954_359" result="shape"/>
</filter>
<filter id="filter7_d_4954_359" x="425.806" y="134.034" width="87.7898" height="87.7898" filterUnits="userSpaceOnUse" color-interpolation-filters="sRGB">
<feFlood flood-opacity="0" result="BackgroundImageFix"/>
<feColorMatrix in="SourceAlpha" type="matrix" values="0 0 0 0 0 0 0 0 0 0 0 0 0 0 0 0 0 0 127 0" result="hardAlpha"/>
<feOffset dx="6.56636" dy="6.56636"/>
<feGaussianBlur stdDeviation="6.56636"/>
<feComposite in2="hardAlpha" operator="out"/>
<feColorMatrix type="matrix" values="0 0 0 0 0 0 0 0 0 0 0 0 0 0 0 0 0 0 0.25 0"/>
<feBlend mode="normal" in2="BackgroundImageFix" result="effect1_dropShadow_4954_359"/>
<feBlend mode="normal" in="SourceGraphic" in2="effect1_dropShadow_4954_359" result="shape"/>
</filter>
<filter id="filter8_d_4954_359" x="289.434" y="425.434" width="87.7898" height="87.7898" filterUnits="userSpaceOnUse" color-interpolation-filters="sRGB">
<feFlood flood-opacity="0" result="BackgroundImageFix"/>
<feColorMatrix in="SourceAlpha" type="matrix" values="0 0 0 0 0 0 0 0 0 0 0 0 0 0 0 0 0 0 127 0" result="hardAlpha"/>
<feOffset dx="6.56636" dy="6.56636"/>
<feGaussianBlur stdDeviation="6.56636"/>
<feComposite in2="hardAlpha" operator="out"/>
<feColorMatrix type="matrix" values="0 0 0 0 0 0 0 0 0 0 0 0 0 0 0 0 0 0 0.25 0"/>
<feBlend mode="normal" in2="BackgroundImageFix" result="effect1_dropShadow_4954_359"/>
<feBlend mode="normal" in="SourceGraphic" in2="effect1_dropShadow_4954_359" result="shape"/>
</filter>
<filter id="filter9_d_4954_359" x="117.142" y="454.215" width="87.7898" height="87.7898" filterUnits="userSpaceOnUse" color-interpolation-filters="sRGB">
<feFlood flood-opacity="0" result="BackgroundImageFix"/>
<feColorMatrix in="SourceAlpha" type="matrix" values="0 0 0 0 0 0 0 0 0 0 0 0 0 0 0 0 0 0 127 0" result="hardAlpha"/>
<feOffset dx="6.56636" dy="6.56636"/>
<feGaussianBlur stdDeviation="6.56636"/>
<feComposite in2="hardAlpha" operator="out"/>
<feColorMatrix type="matrix" values="0 0 0 0 0 0 0 0 0 0 0 0 0 0 0 0 0 0 0.25 0"/>
<feBlend mode="normal" in2="BackgroundImageFix" result="effect1_dropShadow_4954_359"/>
<feBlend mode="normal" in="SourceGraphic" in2="effect1_dropShadow_4954_359" result="shape"/>
</filter>
<filter id="filter10_d_4954_359" x="86.4292" y="215.423" width="87.7898" height="87.7898" filterUnits="userSpaceOnUse" color-interpolation-filters="sRGB">
<feFlood flood-opacity="0" result="BackgroundImageFix"/>
<feColorMatrix in="SourceAlpha" type="matrix" values="0 0 0 0 0 0 0 0 0 0 0 0 0 0 0 0 0 0 127 0" result="hardAlpha"/>
<feOffset dx="6.56636" dy="6.56636"/>
<feGaussianBlur stdDeviation="6.56636"/>
<feComposite in2="hardAlpha" operator="out"/>
<feColorMatrix type="matrix" values="0 0 0 0 0 0 0 0 0 0 0 0 0 0 0 0 0 0 0.25 0"/>
<feBlend mode="normal" in2="BackgroundImageFix" result="effect1_dropShadow_4954_359"/>
<feBlend mode="normal" in="SourceGraphic" in2="effect1_dropShadow_4954_359" result="shape"/>
</filter>
<filter id="filter11_d_4954_359" x="264.434" y="212.434" width="157.265" height="157.265" filterUnits="userSpaceOnUse" color-interpolation-filters="sRGB">
<feFlood flood-opacity="0" result="BackgroundImageFix"/>
<feColorMatrix in="SourceAlpha" type="matrix" values="0 0 0 0 0 0 0 0 0 0 0 0 0 0 0 0 0 0 127 0" result="hardAlpha"/>
<feOffset dx="6.56636" dy="6.56636"/>
<feGaussianBlur stdDeviation="6.56636"/>
<feComposite in2="hardAlpha" operator="out"/>
<feColorMatrix type="matrix" values="0 0 0 0 0.2625 0 0 0 0 0.2625 0 0 0 0 0.2625 0 0 0 0.25 0"/>
<feBlend mode="normal" in2="BackgroundImageFix" result="effect1_dropShadow_4954_359"/>
<feBlend mode="normal" in="SourceGraphic" in2="effect1_dropShadow_4954_359" result="shape"/>
</filter>
<linearGradient id="paint0_linear_4954_359" x1="211.76" y1="318.232" x2="270.375" y2="301.78" gradientUnits="userSpaceOnUse">
<stop stop-color="#8E3EAB"/>
<stop offset="1" stop-color="#7066C7"/>
</linearGradient>
<linearGradient id="paint1_linear_4954_359" x1="273.798" y1="49.6019" x2="320.102" y2="241.892" gradientUnits="userSpaceOnUse">
<stop stop-color="#8E3EAB"/>
<stop offset="1" stop-color="#7066C7"/>
</linearGradient>
<linearGradient id="paint2_linear_4954_359" x1="364.906" y1="137.435" x2="355.668" y2="224.844" gradientUnits="userSpaceOnUse">
<stop stop-color="#8E3EAB"/>
<stop offset="1" stop-color="#7066C7"/>
</linearGradient>
<linearGradient id="paint3_linear_4954_359" x1="444.759" y1="195.317" x2="394.371" y2="247.761" gradientUnits="userSpaceOnUse">
<stop stop-color="#8E3EAB"/>
<stop offset="1" stop-color="#7066C7"/>
</linearGradient>
<linearGradient id="paint4_linear_4954_359" x1="472.15" y1="305.921" x2="409.422" y2="295.636" gradientUnits="userSpaceOnUse">
<stop stop-color="#8E3EAB"/>
<stop offset="1" stop-color="#7066C7"/>
</linearGradient>
<linearGradient id="paint5_linear_4954_359" x1="163.513" y1="99.8375" x2="310.557" y2="247.924" gradientUnits="userSpaceOnUse">
<stop stop-color="#8E3EAB"/>
<stop offset="1" stop-color="#7066C7"/>
</linearGradient>
<linearGradient id="paint6_linear_4954_359" x1="34.4814" y1="152.612" x2="313.151" y2="255.465" gradientUnits="userSpaceOnUse">
<stop stop-color="#8E3EAB"/>
<stop offset="1" stop-color="#7066C7"/>
</linearGradient>
<linearGradient id="paint7_linear_4954_359" x1="142.881" y1="254.162" x2="281.705" y2="274.734" gradientUnits="userSpaceOnUse">
<stop stop-color="#8E3EAB"/>
<stop offset="1" stop-color="#7066C7"/>
</linearGradient>
<linearGradient id="paint8_linear_4954_359" x1="380.971" y1="322.614" x2="509.775" y2="493.234" gradientUnits="userSpaceOnUse">
<stop stop-color="#8E3EAB"/>
<stop offset="1" stop-color="#7066C7"/>
</linearGradient>
<linearGradient id="paint9_linear_4954_359" x1="325.465" y1="434.743" x2="333.935" y2="361.321" gradientUnits="userSpaceOnUse">
<stop stop-color="#8E3EAB"/>
<stop offset="1" stop-color="#7066C7"/>
</linearGradient>
<linearGradient id="paint10_linear_4954_359" x1="163.518" y1="485.468" x2="300.294" y2="327.112" gradientUnits="userSpaceOnUse">
<stop stop-color="#8E3EAB"/>
<stop offset="1" stop-color="#7066C7"/>
</linearGradient>
<linearGradient id="paint11_linear_4954_359" x1="280.693" y1="251.477" x2="380.97" y2="384.808" gradientUnits="userSpaceOnUse">
<stop stop-color="#4DC3FF"/>
<stop offset="0.249" stop-color="#8733FF"/>
<stop offset="0.5786" stop-color="#FF31FA"/>
<stop offset="0.7404" stop-color="#FF793E"/>
<stop offset="1" stop-color="#FFDE3E"/>
</linearGradient>
<linearGradient id="paint12_linear_4954_359" x1="351.699" y1="315.815" x2="317.837" y2="316.41" gradientUnits="userSpaceOnUse">
<stop stop-color="#1A175E"/>
<stop offset="0.1251" stop-color="#22196A" stop-opacity="0.8749"/>
<stop offset="0.349" stop-color="#371E88" stop-opacity="0.651"/>
<stop offset="0.6458" stop-color="#5927BB" stop-opacity="0.3542"/>
<stop offset="1" stop-color="#8733FF" stop-opacity="0"/>
</linearGradient>
<linearGradient id="paint13_linear_4954_359" x1="302.833" y1="234.823" x2="403.109" y2="368.154" gradientUnits="userSpaceOnUse">
<stop stop-color="#4DC3FF"/>
<stop offset="0.249" stop-color="#8733FF"/>
<stop offset="0.5786" stop-color="#FF31FA"/>
<stop offset="0.7404" stop-color="#FF793E"/>
<stop offset="1" stop-color="#FFDE3E"/>
</linearGradient>
<linearGradient id="paint14_linear_4954_359" x1="353.889" y1="283.507" x2="369.663" y2="304.003" gradientUnits="userSpaceOnUse">
<stop stop-color="#1A175E"/>
<stop offset="0.1251" stop-color="#22196A" stop-opacity="0.8749"/>
<stop offset="0.349" stop-color="#371E88" stop-opacity="0.651"/>
<stop offset="0.6458" stop-color="#5927BB" stop-opacity="0.3542"/>
<stop offset="1" stop-color="#8733FF" stop-opacity="0"/>
</linearGradient>
<linearGradient id="paint15_linear_4954_359" x1="318.8" y1="222.822" x2="419.076" y2="356.153" gradientUnits="userSpaceOnUse">
<stop stop-color="#4DC3FF"/>
<stop offset="0.249" stop-color="#8733FF"/>
<stop offset="0.5786" stop-color="#FF31FA"/>
<stop offset="0.7404" stop-color="#FF793E"/>
<stop offset="1" stop-color="#FFDE3E"/>
</linearGradient>
<linearGradient id="paint16_linear_4954_359" x1="319.372" y1="252.117" x2="355.399" y2="252.712" gradientUnits="userSpaceOnUse">
<stop stop-color="#1A175E"/>
<stop offset="0.1251" stop-color="#22196A" stop-opacity="0.8749"/>
<stop offset="0.349" stop-color="#371E88" stop-opacity="0.651"/>
<stop offset="0.6458" stop-color="#5927BB" stop-opacity="0.3542"/>
<stop offset="1" stop-color="#8733FF" stop-opacity="0"/>
</linearGradient>
<linearGradient id="paint17_linear_4954_359" x1="297.718" y1="238.675" x2="397.994" y2="372.005" gradientUnits="userSpaceOnUse">
<stop stop-color="#4DC3FF"/>
<stop offset="0.249" stop-color="#8733FF"/>
<stop offset="0.5786" stop-color="#FF31FA"/>
<stop offset="0.7404" stop-color="#FF793E"/>
<stop offset="1" stop-color="#FFDE3E"/>
</linearGradient>
<linearGradient id="paint18_linear_4954_359" x1="320.735" y1="281.379" x2="298.429" y2="261.566" gradientUnits="userSpaceOnUse">
<stop stop-color="#1A175E"/>
<stop offset="0.1251" stop-color="#22196A" stop-opacity="0.8749"/>
<stop offset="0.349" stop-color="#371E88" stop-opacity="0.651"/>
<stop offset="0.6458" stop-color="#5927BB" stop-opacity="0.3542"/>
<stop offset="1" stop-color="#8733FF" stop-opacity="0"/>
</linearGradient>
<linearGradient id="paint19_linear_4954_359" x1="283.364" y1="249.469" x2="383.64" y2="382.8" gradientUnits="userSpaceOnUse">
<stop stop-color="#4DC3FF"/>
<stop offset="0.249" stop-color="#8733FF"/>
<stop offset="0.5786" stop-color="#FF31FA"/>
<stop offset="0.7404" stop-color="#FF793E"/>
<stop offset="1" stop-color="#FFDE3E"/>
</linearGradient>
</defs>
</svg>
