<svg width="128" height="137" viewBox="0 0 128 137" fill="none" xmlns="http://www.w3.org/2000/svg">
<path d="M127.438 66.4814C127.438 58.2367 125.753 50.079 122.488 42.5087L95.2694 54.2503C96.9356 58.1127 97.7951 62.2749 97.7951 66.4814H127.438Z" fill="#F68D2B"/>
<path d="M122.516 42.5742C116.999 29.7452 107.216 19.2186 94.8251 12.779L81.1557 39.0819C87.4779 42.3675 92.4693 47.7382 95.2838 54.2837L122.516 42.5742Z" fill="#F68D2B"/>
<path d="M66.9165 5.95996C76.6301 5.95996 86.2011 8.29806 94.8207 12.7767L81.1535 39.0807C76.7557 36.7957 71.8725 35.6028 66.9165 35.6028V5.95996Z" fill="#F4A79D"/>
<path d="M66.9165 5.95996C53.0386 5.95996 39.5823 10.7294 28.8022 19.4692C18.0221 28.209 10.573 40.3881 7.70321 53.966L36.7053 60.0959C38.1695 53.1684 41.9701 46.9544 47.4702 42.4953C52.9703 38.0362 59.8358 35.6028 66.9165 35.6028V5.95996Z" fill="#F4A79D"/>
<path d="M127.438 66.4814C127.438 79.1399 123.469 91.4799 116.089 101.765C108.709 112.05 98.2902 119.761 86.2983 123.815L76.8053 95.7337C82.9236 93.6654 88.2395 89.7307 92.0047 84.4833C95.77 79.2359 97.7951 72.9399 97.7951 66.4814H127.438Z" fill="#344BFD"/>
<path d="M86.3314 123.804C76.634 127.089 66.262 127.859 56.1858 126.044C46.1095 124.229 36.6585 119.887 28.7172 113.425L47.4268 90.4322C51.4786 93.7293 56.3006 95.9446 61.4416 96.8708C66.5825 97.797 71.8745 97.4038 76.8221 95.728L86.3314 123.804Z" fill="#49A677"/>
<path d="M28.7483 113.45C20.1008 106.423 13.5611 97.1443 9.85008 86.6376C6.13904 76.1309 5.40067 64.8036 7.71634 53.904L36.712 60.0643C35.5305 65.6254 35.9072 71.4047 37.8006 76.7653C39.6941 82.1259 43.0306 86.8598 47.4427 90.4451L28.7483 113.45Z" fill="#FA898B"/>
<g filter="url(#filter0_d_4970_599)">
<circle cx="112.867" cy="29.2458" r="11.1735" fill="#ECEAF8"/>
</g>
<path d="M105.481 31.2783V30.4922L107.318 28.7914C107.474 28.6402 107.605 28.5042 107.711 28.3832C107.818 28.2623 107.9 28.1438 107.955 28.0279C108.011 27.9104 108.038 27.7835 108.038 27.6475C108.038 27.4963 108.004 27.3661 107.935 27.2569C107.866 27.146 107.772 27.0612 107.653 27.0024C107.533 26.942 107.398 26.9117 107.247 26.9117C107.089 26.9117 106.951 26.9436 106.834 27.0075C106.716 27.0713 106.626 27.1628 106.562 27.2821C106.498 27.4014 106.466 27.5433 106.466 27.7079H105.43C105.43 27.3703 105.507 27.0772 105.66 26.8286C105.813 26.58 106.027 26.3876 106.302 26.2516C106.578 26.1155 106.895 26.0475 107.255 26.0475C107.624 26.0475 107.946 26.113 108.22 26.244C108.495 26.3733 108.709 26.5531 108.862 26.7832C109.015 27.0133 109.091 27.2771 109.091 27.5744C109.091 27.7692 109.053 27.9616 108.976 28.1514C108.9 28.3412 108.765 28.552 108.57 28.7838C108.375 29.014 108.1 29.2903 107.746 29.6128L106.993 30.3511V30.3864H109.159V31.2783H105.481ZM111.973 31.3917C111.54 31.39 111.167 31.2834 110.855 31.0717C110.544 30.8601 110.304 30.5535 110.136 30.152C109.97 29.7506 109.888 29.2676 109.89 28.7032C109.89 28.1405 109.973 27.6609 110.139 27.2645C110.307 26.868 110.546 26.5665 110.857 26.3599C111.17 26.1516 111.542 26.0475 111.973 26.0475C112.405 26.0475 112.776 26.1516 113.087 26.3599C113.399 26.5682 113.64 26.8706 113.808 27.267C113.976 27.6617 114.059 28.1405 114.057 28.7032C114.057 29.2693 113.973 29.7531 113.805 30.1545C113.639 30.556 113.4 30.8626 113.09 31.0742C112.779 31.2859 112.407 31.3917 111.973 31.3917ZM111.973 30.4871C112.269 30.4871 112.505 30.3385 112.681 30.0412C112.858 29.7438 112.945 29.2979 112.943 28.7032C112.943 28.3118 112.903 27.9859 112.822 27.7256C112.744 27.4652 112.631 27.2695 112.485 27.1385C112.34 27.0075 112.17 26.942 111.973 26.942C111.679 26.942 111.444 27.0889 111.268 27.3829C111.091 27.6769 111.002 28.117 111.001 28.7032C111.001 29.0996 111.04 29.4306 111.119 29.696C111.2 29.9597 111.313 30.1579 111.459 30.2906C111.605 30.4216 111.777 30.4871 111.973 30.4871ZM117.66 30.3108V30.0386C117.66 29.832 117.703 29.6422 117.791 29.4692C117.88 29.2945 118.008 29.1551 118.176 29.0509C118.346 28.9451 118.552 28.8922 118.796 28.8922C119.043 28.8922 119.25 28.9443 119.418 29.0484C119.588 29.1526 119.716 29.292 119.801 29.4667C119.889 29.6397 119.932 29.8303 119.932 30.0386V30.3108C119.932 30.5174 119.889 30.708 119.801 30.8827C119.714 31.0557 119.585 31.1943 119.416 31.2985C119.246 31.4043 119.04 31.4572 118.796 31.4572C118.549 31.4572 118.342 31.4043 118.174 31.2985C118.006 31.1943 117.878 31.0557 117.791 30.8827C117.703 30.708 117.66 30.5174 117.66 30.3108ZM118.393 30.0386V30.3108C118.393 30.43 118.421 30.5426 118.479 30.6484C118.537 30.7542 118.643 30.8071 118.796 30.8071C118.949 30.8071 119.053 30.7551 119.108 30.6509C119.166 30.5468 119.194 30.4334 119.194 30.3108V30.0386C119.194 29.916 119.167 29.8018 119.113 29.696C119.06 29.5901 118.954 29.5372 118.796 29.5372C118.645 29.5372 118.54 29.5901 118.481 29.696C118.422 29.8018 118.393 29.916 118.393 30.0386ZM115.011 27.3577V27.0856C115.011 26.8773 115.056 26.6866 115.145 26.5136C115.234 26.3389 115.363 26.1995 115.53 26.0953C115.7 25.9912 115.905 25.9391 116.145 25.9391C116.394 25.9391 116.602 25.9912 116.77 26.0953C116.938 26.1995 117.066 26.3389 117.153 26.5136C117.241 26.6866 117.284 26.8773 117.284 27.0856V27.3577C117.284 27.566 117.24 27.7567 117.151 27.9297C117.063 28.1027 116.935 28.2413 116.765 28.3454C116.597 28.4479 116.391 28.4991 116.145 28.4991C115.9 28.4991 115.693 28.447 115.523 28.3429C115.355 28.2371 115.227 28.0985 115.14 27.9271C115.054 27.7541 115.011 27.5643 115.011 27.3577ZM115.75 27.0856V27.3577C115.75 27.4803 115.778 27.5937 115.835 27.6979C115.894 27.802 115.997 27.8541 116.145 27.8541C116.3 27.8541 116.405 27.802 116.46 27.6979C116.517 27.5937 116.546 27.4803 116.546 27.3577V27.0856C116.546 26.963 116.519 26.8487 116.465 26.7429C116.412 26.6371 116.305 26.5842 116.145 26.5842C115.996 26.5842 115.892 26.6379 115.835 26.7454C115.778 26.8529 115.75 26.9663 115.75 27.0856ZM115.344 31.2783L118.892 26.118H119.552L116.004 31.2783H115.344Z" fill="black"/>
<g filter="url(#filter1_d_4970_599)">
<circle cx="38.8923" cy="13.1071" r="11.1735" fill="#ECEAF8"/>
</g>
<path d="M33.0586 15.9202C32.6823 15.9202 32.3472 15.8555 32.0532 15.7261C31.7609 15.5951 31.53 15.4154 31.3603 15.1869C31.1923 14.9568 31.1058 14.6914 31.1008 14.3907H32.1994C32.2061 14.5167 32.2472 14.6276 32.3228 14.7233C32.4001 14.8174 32.5026 14.8905 32.6302 14.9425C32.7579 14.9946 32.9015 15.0206 33.0611 15.0206C33.2274 15.0206 33.3744 14.9912 33.502 14.9324C33.6297 14.8737 33.7296 14.7922 33.8019 14.688C33.8741 14.5839 33.9102 14.4638 33.9102 14.3277C33.9102 14.19 33.8716 14.0682 33.7943 13.9624C33.7187 13.8549 33.6095 13.7709 33.4668 13.7104C33.3257 13.6499 33.1577 13.6197 32.9628 13.6197H32.4816V12.8184H32.9628C33.1274 12.8184 33.2727 12.7899 33.3987 12.7328C33.5264 12.6757 33.6255 12.5967 33.6961 12.4959C33.7666 12.3935 33.8019 12.2742 33.8019 12.1381C33.8019 12.0088 33.7708 11.8954 33.7086 11.798C33.6482 11.6989 33.5625 11.6216 33.4516 11.5662C33.3425 11.5107 33.2148 11.483 33.0687 11.483C32.9208 11.483 32.7856 11.5099 32.663 11.5636C32.5404 11.6157 32.4421 11.6905 32.3682 11.7879C32.2943 11.8853 32.2548 11.9995 32.2498 12.1306H31.2041C31.2091 11.8332 31.294 11.5712 31.4586 11.3444C31.6232 11.1177 31.8449 10.9404 32.1238 10.8128C32.4043 10.6834 32.7209 10.6188 33.0737 10.6188C33.4298 10.6188 33.7414 10.6834 34.0085 10.8128C34.2756 10.9421 34.483 11.1168 34.6309 11.3369C34.7804 11.5552 34.8543 11.8005 34.8526 12.0726C34.8543 12.3615 34.7644 12.6026 34.583 12.7958C34.4032 12.9889 34.1689 13.1116 33.88 13.1636V13.2039C34.2596 13.2527 34.5485 13.3845 34.7468 13.5995C34.9467 13.8129 35.0458 14.08 35.0441 14.4008C35.0458 14.6948 34.9609 14.956 34.7896 15.1844C34.6199 15.4129 34.3856 15.5926 34.0866 15.7236C33.7876 15.8546 33.4449 15.9202 33.0586 15.9202ZM37.8516 15.963C37.4182 15.9613 37.0453 15.8546 36.7329 15.643C36.4221 15.4313 36.1828 15.1248 36.0148 14.7233C35.8485 14.3218 35.7662 13.8389 35.7679 13.2745C35.7679 12.7118 35.851 12.2322 36.0173 11.8358C36.1853 11.4393 36.4247 11.1378 36.7354 10.9312C37.0479 10.7229 37.4199 10.6188 37.8516 10.6188C38.2833 10.6188 38.6546 10.7229 38.9653 10.9312C39.2778 11.1395 39.518 11.4419 39.686 11.8383C39.8539 12.233 39.9371 12.7118 39.9354 13.2745C39.9354 13.8406 39.8514 14.3244 39.6834 14.7258C39.5171 15.1273 39.2786 15.4339 38.9678 15.6455C38.6571 15.8572 38.285 15.963 37.8516 15.963ZM37.8516 15.0584C38.1473 15.0584 38.3833 14.9098 38.5597 14.6124C38.736 14.3151 38.8234 13.8691 38.8217 13.2745C38.8217 12.8831 38.7814 12.5572 38.7008 12.2969C38.6218 12.0365 38.5093 11.8408 38.3631 11.7098C38.2187 11.5788 38.0482 11.5132 37.8516 11.5132C37.5577 11.5132 37.3225 11.6602 37.1461 11.9542C36.9697 12.2482 36.8807 12.6883 36.879 13.2745C36.879 13.6709 36.9185 14.0018 36.9975 14.2673C37.0781 14.531 37.1915 14.7292 37.3376 14.8619C37.4838 14.9929 37.6551 15.0584 37.8516 15.0584ZM43.5379 14.8821V14.6099C43.5379 14.4033 43.5816 14.2135 43.6689 14.0405C43.758 13.8658 43.8865 13.7264 44.0544 13.6222C44.2241 13.5164 44.4307 13.4635 44.6743 13.4635C44.9212 13.4635 45.1287 13.5155 45.2966 13.6197C45.4663 13.7238 45.594 13.8633 45.6796 14.038C45.767 14.211 45.8107 14.4016 45.8107 14.6099V14.8821C45.8107 15.0887 45.767 15.2793 45.6796 15.454C45.5923 15.627 45.4638 15.7656 45.2941 15.8698C45.1245 15.9756 44.9179 16.0285 44.6743 16.0285C44.4274 16.0285 44.2199 15.9756 44.0519 15.8698C43.8839 15.7656 43.7563 15.627 43.6689 15.454C43.5816 15.2793 43.5379 15.0887 43.5379 14.8821ZM44.2711 14.6099V14.8821C44.2711 15.0013 44.2997 15.1139 44.3568 15.2197C44.4156 15.3255 44.5214 15.3784 44.6743 15.3784C44.8271 15.3784 44.9313 15.3264 44.9867 15.2222C45.0438 15.1181 45.0724 15.0047 45.0724 14.8821V14.6099C45.0724 14.4873 45.0455 14.3731 44.9918 14.2673C44.938 14.1614 44.8322 14.1085 44.6743 14.1085C44.5231 14.1085 44.4181 14.1614 44.3593 14.2673C44.3005 14.3731 44.2711 14.4873 44.2711 14.6099ZM40.8897 11.929V11.6569C40.8897 11.4486 40.9342 11.2579 41.0233 11.0849C41.1123 10.9102 41.2408 10.7708 41.4088 10.6666C41.5784 10.5625 41.7834 10.5104 42.0236 10.5104C42.2722 10.5104 42.4805 10.5625 42.6485 10.6666C42.8164 10.7708 42.9441 10.9102 43.0315 11.0849C43.1188 11.2579 43.1625 11.4486 43.1625 11.6569V11.929C43.1625 12.1373 43.118 12.3279 43.0289 12.501C42.9416 12.674 42.8131 12.8126 42.6434 12.9167C42.4754 13.0192 42.2688 13.0704 42.0236 13.0704C41.7783 13.0704 41.5709 13.0183 41.4012 12.9142C41.2332 12.8084 41.1056 12.6698 41.0182 12.4984C40.9326 12.3254 40.8897 12.1356 40.8897 11.929ZM41.628 11.6569V11.929C41.628 12.0516 41.6566 12.165 41.7137 12.2691C41.7725 12.3733 41.8758 12.4254 42.0236 12.4254C42.1781 12.4254 42.2831 12.3733 42.3385 12.2691C42.3957 12.165 42.4242 12.0516 42.4242 11.929V11.6569C42.4242 11.5342 42.3973 11.42 42.3436 11.3142C42.2898 11.2084 42.1832 11.1555 42.0236 11.1555C41.8741 11.1555 41.7708 11.2092 41.7137 11.3167C41.6566 11.4242 41.628 11.5376 41.628 11.6569ZM41.2223 15.8496L44.77 10.6893H45.4302L41.8825 15.8496H41.2223Z" fill="black"/>
<g filter="url(#filter2_d_4970_599)">
<circle cx="13.2805" cy="87.4001" r="11.1735" fill="#ECEAF8"/>
</g>
<path d="M8.13791 84.2723V89.4326H7.04689V85.3079H7.01665L5.83492 86.0487V85.0811L7.1124 84.2723H8.13791ZM11.2491 89.5032C10.893 89.5032 10.5755 89.4377 10.2966 89.3066C10.0195 89.1756 9.79943 88.995 9.63649 88.7649C9.47355 88.5348 9.38872 88.271 9.382 87.9737H10.4403C10.452 88.1736 10.536 88.3357 10.6922 88.46C10.8485 88.5843 11.0341 88.6465 11.2491 88.6465C11.4204 88.6465 11.5716 88.6087 11.7026 88.5331C11.8353 88.4558 11.9386 88.3492 12.0125 88.2131C12.0881 88.0754 12.1259 87.9175 12.1259 87.7394C12.1259 87.558 12.0873 87.3984 12.01 87.2607C11.9344 87.1229 11.8294 87.0154 11.6951 86.9381C11.5607 86.8609 11.407 86.8214 11.234 86.8197C11.0828 86.8197 10.9358 86.8508 10.793 86.9129C10.6519 86.9751 10.5419 87.0599 10.4629 87.1674L9.49286 86.9936L9.73727 84.2723H12.8919V85.1643H10.6368L10.5033 86.4569H10.5335C10.6242 86.3292 10.7611 86.2234 10.9442 86.1394C11.1273 86.0554 11.3322 86.0134 11.559 86.0134C11.8698 86.0134 12.1469 86.0865 12.3905 86.2326C12.6341 86.3788 12.8264 86.5795 12.9675 86.8348C13.1086 87.0885 13.1783 87.3808 13.1766 87.7117C13.1783 88.0594 13.0977 88.3685 12.9347 88.6389C12.7735 88.9077 12.5476 89.1193 12.257 89.2739C11.968 89.4267 11.6321 89.5032 11.2491 89.5032ZM16.7621 88.4651V88.1929C16.7621 87.9863 16.8058 87.7965 16.8932 87.6235C16.9822 87.4488 17.1107 87.3094 17.2787 87.2052C17.4483 87.0994 17.6549 87.0465 17.8985 87.0465C18.1454 87.0465 18.3529 87.0986 18.5209 87.2027C18.6905 87.3068 18.8182 87.4463 18.9039 87.621C18.9912 87.794 19.0349 87.9846 19.0349 88.1929V88.4651C19.0349 88.6717 18.9912 88.8623 18.9039 89.037C18.8165 89.21 18.688 89.3486 18.5183 89.4528C18.3487 89.5586 18.1421 89.6115 17.8985 89.6115C17.6516 89.6115 17.4441 89.5586 17.2761 89.4528C17.1082 89.3486 16.9805 89.21 16.8932 89.037C16.8058 88.8623 16.7621 88.6717 16.7621 88.4651ZM17.4954 88.1929V88.4651C17.4954 88.5843 17.5239 88.6969 17.581 88.8027C17.6398 88.9085 17.7456 88.9614 17.8985 88.9614C18.0514 88.9614 18.1555 88.9094 18.2109 88.8052C18.2681 88.7011 18.2966 88.5877 18.2966 88.4651V88.1929C18.2966 88.0703 18.2697 87.9561 18.216 87.8503C18.1622 87.7444 18.0564 87.6915 17.8985 87.6915C17.7473 87.6915 17.6423 87.7444 17.5835 87.8503C17.5248 87.9561 17.4954 88.0703 17.4954 88.1929ZM14.114 85.512V85.2399C14.114 85.0316 14.1585 84.8409 14.2475 84.6679C14.3365 84.4932 14.465 84.3538 14.633 84.2496C14.8027 84.1455 15.0076 84.0934 15.2478 84.0934C15.4964 84.0934 15.7047 84.1455 15.8727 84.2496C16.0407 84.3538 16.1683 84.4932 16.2557 84.6679C16.343 84.8409 16.3867 85.0316 16.3867 85.2399V85.512C16.3867 85.7203 16.3422 85.9109 16.2532 86.084C16.1658 86.257 16.0373 86.3956 15.8676 86.4997C15.6997 86.6022 15.4931 86.6534 15.2478 86.6534C15.0026 86.6534 14.7951 86.6013 14.6254 86.4972C14.4575 86.3914 14.3298 86.2528 14.2425 86.0814C14.1568 85.9084 14.114 85.7186 14.114 85.512ZM14.8522 85.2399V85.512C14.8522 85.6346 14.8808 85.748 14.9379 85.8522C14.9967 85.9563 15.1 86.0084 15.2478 86.0084C15.4023 86.0084 15.5073 85.9563 15.5628 85.8522C15.6199 85.748 15.6484 85.6346 15.6484 85.512V85.2399C15.6484 85.1173 15.6216 85.003 15.5678 84.8972C15.5141 84.7914 15.4074 84.7385 15.2478 84.7385C15.0983 84.7385 14.995 84.7922 14.9379 84.8997C14.8808 85.0072 14.8522 85.1206 14.8522 85.2399ZM14.4465 89.4326L17.9943 84.2723H18.6544L15.1067 89.4326H14.4465Z" fill="black"/>
<g filter="url(#filter3_d_4970_599)">
<circle cx="55.7429" cy="124.048" r="11.1735" fill="#ECEAF8"/>
</g>
<path d="M50.6008 120.92V126.08H49.5098V121.955H49.4795L48.2978 122.696V121.729L49.5753 120.92H50.6008ZM53.712 126.151C53.3559 126.151 53.0384 126.085 52.7595 125.954C52.4824 125.823 52.2623 125.642 52.0994 125.412C51.9364 125.182 51.8516 124.919 51.8449 124.621H52.9032C52.9149 124.821 52.9989 124.983 53.1551 125.107C53.3113 125.232 53.497 125.294 53.712 125.294C53.8833 125.294 54.0345 125.256 54.1655 125.181C54.2982 125.103 54.4015 124.997 54.4754 124.861C54.551 124.723 54.5888 124.565 54.5888 124.387C54.5888 124.205 54.5502 124.046 54.4729 123.908C54.3973 123.77 54.2923 123.663 54.158 123.586C54.0236 123.508 53.8699 123.469 53.6969 123.467C53.5457 123.467 53.3987 123.498 53.2559 123.56C53.1148 123.623 53.0048 123.707 52.9258 123.815L51.9558 123.641L52.2002 120.92H55.3548V121.812H53.0997L52.9661 123.104H52.9964C53.0871 122.977 53.224 122.871 53.4071 122.787C53.5902 122.703 53.7951 122.661 54.0219 122.661C54.3327 122.661 54.6098 122.734 54.8534 122.88C55.097 123.026 55.2893 123.227 55.4304 123.482C55.5715 123.736 55.6412 124.028 55.6395 124.359C55.6412 124.707 55.5606 125.016 55.3976 125.286C55.2364 125.555 55.0104 125.767 54.7198 125.921C54.4309 126.074 54.095 126.151 53.712 126.151ZM59.225 125.113V124.84C59.225 124.634 59.2687 124.444 59.356 124.271C59.4451 124.096 59.5736 123.957 59.7416 123.853C59.9112 123.747 60.1178 123.694 60.3614 123.694C60.6083 123.694 60.8158 123.746 60.9838 123.85C61.1534 123.954 61.2811 124.094 61.3667 124.268C61.4541 124.441 61.4978 124.632 61.4978 124.84V125.113C61.4978 125.319 61.4541 125.51 61.3667 125.684C61.2794 125.858 61.1509 125.996 60.9812 126.1C60.8116 126.206 60.605 126.259 60.3614 126.259C60.1145 126.259 59.907 126.206 59.739 126.1C59.5711 125.996 59.4434 125.858 59.356 125.684C59.2687 125.51 59.225 125.319 59.225 125.113ZM59.9582 124.84V125.113C59.9582 125.232 59.9868 125.344 60.0439 125.45C60.1027 125.556 60.2085 125.609 60.3614 125.609C60.5143 125.609 60.6184 125.557 60.6738 125.453C60.731 125.349 60.7595 125.235 60.7595 125.113V124.84C60.7595 124.718 60.7326 124.604 60.6789 124.498C60.6251 124.392 60.5193 124.339 60.3614 124.339C60.2102 124.339 60.1052 124.392 60.0464 124.498C59.9876 124.604 59.9582 124.718 59.9582 124.84ZM56.5768 122.159V121.887C56.5768 121.679 56.6214 121.488 56.7104 121.315C56.7994 121.141 56.9279 121.001 57.0959 120.897C57.2656 120.793 57.4705 120.741 57.7107 120.741C57.9593 120.741 58.1676 120.793 58.3356 120.897C58.5036 121.001 58.6312 121.141 58.7186 121.315C58.8059 121.488 58.8496 121.679 58.8496 121.887V122.159C58.8496 122.368 58.8051 122.558 58.716 122.731C58.6287 122.904 58.5002 123.043 58.3305 123.147C58.1626 123.25 57.9559 123.301 57.7107 123.301C57.4654 123.301 57.258 123.249 57.0883 123.145C56.9204 123.039 56.7927 122.9 56.7053 122.729C56.6197 122.556 56.5768 122.366 56.5768 122.159ZM57.3151 121.887V122.159C57.3151 122.282 57.3437 122.395 57.4008 122.5C57.4596 122.604 57.5629 122.656 57.7107 122.656C57.8652 122.656 57.9702 122.604 58.0257 122.5C58.0828 122.395 58.1113 122.282 58.1113 122.159V121.887C58.1113 121.765 58.0844 121.65 58.0307 121.545C57.9769 121.439 57.8703 121.386 57.7107 121.386C57.5612 121.386 57.4579 121.44 57.4008 121.547C57.3437 121.655 57.3151 121.768 57.3151 121.887ZM56.9094 126.08L60.4571 120.92H61.1173L57.5696 126.08H56.9094Z" fill="black"/>
<g filter="url(#filter4_d_4970_599)">
<circle cx="112.867" cy="100.703" r="11.1735" fill="#ECEAF8"/>
</g>
<path d="M105.481 102.735V101.949L107.318 100.248C107.474 100.097 107.605 99.9612 107.711 99.8402C107.818 99.7193 107.9 99.6009 107.955 99.485C108.011 99.3674 108.038 99.2406 108.038 99.1045C108.038 98.9533 108.004 98.8231 107.935 98.7139C107.866 98.6031 107.772 98.5183 107.653 98.4595C107.533 98.399 107.398 98.3688 107.247 98.3688C107.089 98.3688 106.951 98.4007 106.834 98.4645C106.716 98.5283 106.626 98.6199 106.562 98.7391C106.498 98.8584 106.466 99.0003 106.466 99.165H105.43C105.43 98.8273 105.507 98.5342 105.66 98.2856C105.813 98.037 106.027 97.8447 106.302 97.7086C106.578 97.5725 106.895 97.5045 107.255 97.5045C107.624 97.5045 107.946 97.57 108.22 97.701C108.495 97.8304 108.709 98.0101 108.862 98.2402C109.015 98.4704 109.091 98.7341 109.091 99.0314C109.091 99.2263 109.053 99.4186 108.976 99.6084C108.9 99.7982 108.765 100.009 108.57 100.241C108.375 100.471 108.1 100.747 107.746 101.07L106.993 101.808V101.843H109.159V102.735H105.481ZM111.973 102.849C111.54 102.847 111.167 102.74 110.855 102.529C110.544 102.317 110.304 102.011 110.136 101.609C109.97 101.208 109.888 100.725 109.89 100.16C109.89 99.5975 109.973 99.1179 110.139 98.7215C110.307 98.3251 110.546 98.0236 110.857 97.8169C111.17 97.6086 111.542 97.5045 111.973 97.5045C112.405 97.5045 112.776 97.6086 113.087 97.8169C113.399 98.0252 113.64 98.3276 113.808 98.724C113.976 99.1188 114.059 99.5975 114.057 100.16C114.057 100.726 113.973 101.21 113.805 101.612C113.639 102.013 113.4 102.32 113.09 102.531C112.779 102.743 112.407 102.849 111.973 102.849ZM111.973 101.944C112.269 101.944 112.505 101.796 112.681 101.498C112.858 101.201 112.945 100.755 112.943 100.16C112.943 99.7689 112.903 99.443 112.822 99.1826C112.744 98.9222 112.631 98.7265 112.485 98.5955C112.34 98.4645 112.17 98.399 111.973 98.399C111.679 98.399 111.444 98.546 111.268 98.8399C111.091 99.1339 111.002 99.574 111.001 100.16C111.001 100.557 111.04 100.888 111.119 101.153C111.2 101.417 111.313 101.615 111.459 101.748C111.605 101.879 111.777 101.944 111.973 101.944ZM117.66 101.768V101.496C117.66 101.289 117.703 101.099 117.791 100.926C117.88 100.752 118.008 100.612 118.176 100.508C118.346 100.402 118.552 100.349 118.796 100.349C119.043 100.349 119.25 100.401 119.418 100.505C119.588 100.61 119.716 100.749 119.801 100.924C119.889 101.097 119.932 101.287 119.932 101.496V101.768C119.932 101.974 119.889 102.165 119.801 102.34C119.714 102.513 119.585 102.651 119.416 102.756C119.246 102.861 119.04 102.914 118.796 102.914C118.549 102.914 118.342 102.861 118.174 102.756C118.006 102.651 117.878 102.513 117.791 102.34C117.703 102.165 117.66 101.974 117.66 101.768ZM118.393 101.496V101.768C118.393 101.887 118.421 102 118.479 102.105C118.537 102.211 118.643 102.264 118.796 102.264C118.949 102.264 119.053 102.212 119.108 102.108C119.166 102.004 119.194 101.89 119.194 101.768V101.496C119.194 101.373 119.167 101.259 119.113 101.153C119.06 101.047 118.954 100.994 118.796 100.994C118.645 100.994 118.54 101.047 118.481 101.153C118.422 101.259 118.393 101.373 118.393 101.496ZM115.011 98.8147V98.5426C115.011 98.3343 115.056 98.1437 115.145 97.9706C115.234 97.7959 115.363 97.6565 115.53 97.5524C115.7 97.4482 115.905 97.3962 116.145 97.3962C116.394 97.3962 116.602 97.4482 116.77 97.5524C116.938 97.6565 117.066 97.7959 117.153 97.9706C117.241 98.1437 117.284 98.3343 117.284 98.5426V98.8147C117.284 99.023 117.24 99.2137 117.151 99.3867C117.063 99.5597 116.935 99.6983 116.765 99.8024C116.597 99.9049 116.391 99.9561 116.145 99.9561C115.9 99.9561 115.693 99.9041 115.523 99.7999C115.355 99.6941 115.227 99.5555 115.14 99.3842C115.054 99.2112 115.011 99.0213 115.011 98.8147ZM115.75 98.5426V98.8147C115.75 98.9374 115.778 99.0507 115.835 99.1549C115.894 99.259 115.997 99.3111 116.145 99.3111C116.3 99.3111 116.405 99.259 116.46 99.1549C116.517 99.0507 116.546 98.9374 116.546 98.8147V98.5426C116.546 98.42 116.519 98.3058 116.465 98.1999C116.412 98.0941 116.305 98.0412 116.145 98.0412C115.996 98.0412 115.892 98.0949 115.835 98.2025C115.778 98.31 115.75 98.4233 115.75 98.5426ZM115.344 102.735L118.892 97.5751H119.552L116.004 102.735H115.344Z" fill="black"/>
<defs>
<filter id="filter0_d_4970_599" x="100.275" y="16.6532" width="25.1853" height="25.1848" filterUnits="userSpaceOnUse" color-interpolation-filters="sRGB">
<feFlood flood-opacity="0" result="BackgroundImageFix"/>
<feColorMatrix in="SourceAlpha" type="matrix" values="0 0 0 0 0 0 0 0 0 0 0 0 0 0 0 0 0 0 127 0" result="hardAlpha"/>
<feOffset/>
<feGaussianBlur stdDeviation="0.709541"/>
<feComposite in2="hardAlpha" operator="out"/>
<feColorMatrix type="matrix" values="0 0 0 0 0 0 0 0 0 0 0 0 0 0 0 0 0 0 0.25 0"/>
<feBlend mode="normal" in2="BackgroundImageFix" result="effect1_dropShadow_4970_599"/>
<feBlend mode="normal" in="SourceGraphic" in2="effect1_dropShadow_4970_599" result="shape"/>
</filter>
<filter id="filter1_d_4970_599" x="26.2997" y="0.514512" width="25.1853" height="25.1848" filterUnits="userSpaceOnUse" color-interpolation-filters="sRGB">
<feFlood flood-opacity="0" result="BackgroundImageFix"/>
<feColorMatrix in="SourceAlpha" type="matrix" values="0 0 0 0 0 0 0 0 0 0 0 0 0 0 0 0 0 0 127 0" result="hardAlpha"/>
<feOffset/>
<feGaussianBlur stdDeviation="0.709541"/>
<feComposite in2="hardAlpha" operator="out"/>
<feColorMatrix type="matrix" values="0 0 0 0 0 0 0 0 0 0 0 0 0 0 0 0 0 0 0.25 0"/>
<feBlend mode="normal" in2="BackgroundImageFix" result="effect1_dropShadow_4970_599"/>
<feBlend mode="normal" in="SourceGraphic" in2="effect1_dropShadow_4970_599" result="shape"/>
</filter>
<filter id="filter2_d_4970_599" x="0.687852" y="74.8075" width="25.1853" height="25.1848" filterUnits="userSpaceOnUse" color-interpolation-filters="sRGB">
<feFlood flood-opacity="0" result="BackgroundImageFix"/>
<feColorMatrix in="SourceAlpha" type="matrix" values="0 0 0 0 0 0 0 0 0 0 0 0 0 0 0 0 0 0 127 0" result="hardAlpha"/>
<feOffset/>
<feGaussianBlur stdDeviation="0.709541"/>
<feComposite in2="hardAlpha" operator="out"/>
<feColorMatrix type="matrix" values="0 0 0 0 0 0 0 0 0 0 0 0 0 0 0 0 0 0 0.25 0"/>
<feBlend mode="normal" in2="BackgroundImageFix" result="effect1_dropShadow_4970_599"/>
<feBlend mode="normal" in="SourceGraphic" in2="effect1_dropShadow_4970_599" result="shape"/>
</filter>
<filter id="filter3_d_4970_599" x="43.1503" y="111.455" width="25.1853" height="25.1848" filterUnits="userSpaceOnUse" color-interpolation-filters="sRGB">
<feFlood flood-opacity="0" result="BackgroundImageFix"/>
<feColorMatrix in="SourceAlpha" type="matrix" values="0 0 0 0 0 0 0 0 0 0 0 0 0 0 0 0 0 0 127 0" result="hardAlpha"/>
<feOffset/>
<feGaussianBlur stdDeviation="0.709541"/>
<feComposite in2="hardAlpha" operator="out"/>
<feColorMatrix type="matrix" values="0 0 0 0 0 0 0 0 0 0 0 0 0 0 0 0 0 0 0.25 0"/>
<feBlend mode="normal" in2="BackgroundImageFix" result="effect1_dropShadow_4970_599"/>
<feBlend mode="normal" in="SourceGraphic" in2="effect1_dropShadow_4970_599" result="shape"/>
</filter>
<filter id="filter4_d_4970_599" x="100.275" y="88.1102" width="25.1853" height="25.1848" filterUnits="userSpaceOnUse" color-interpolation-filters="sRGB">
<feFlood flood-opacity="0" result="BackgroundImageFix"/>
<feColorMatrix in="SourceAlpha" type="matrix" values="0 0 0 0 0 0 0 0 0 0 0 0 0 0 0 0 0 0 127 0" result="hardAlpha"/>
<feOffset/>
<feGaussianBlur stdDeviation="0.709541"/>
<feComposite in2="hardAlpha" operator="out"/>
<feColorMatrix type="matrix" values="0 0 0 0 0 0 0 0 0 0 0 0 0 0 0 0 0 0 0.25 0"/>
<feBlend mode="normal" in2="BackgroundImageFix" result="effect1_dropShadow_4970_599"/>
<feBlend mode="normal" in="SourceGraphic" in2="effect1_dropShadow_4970_599" result="shape"/>
</filter>
</defs>
</svg>
