<svg width="238" height="291" viewBox="0 0 238 291" fill="none" xmlns="http://www.w3.org/2000/svg">
<g filter="url(#filter0_d_4970_565)">
<rect x="4" y="3.66699" width="230" height="283.333" rx="8.33333" fill="#FBFBFB"/>
<path d="M25.6245 66.5654V72.626H24.3432V67.7816H24.3077L22.9198 68.6517V67.5153L24.4201 66.5654H25.6245ZM29.4413 72.7591C28.9323 72.7572 28.4943 72.6319 28.1274 72.3833C27.7624 72.1347 27.4812 71.7747 27.284 71.3032C27.0886 70.8317 26.992 70.2645 26.9939 69.6016C26.9939 68.9407 27.0916 68.3774 27.2869 67.9118C27.4842 67.4462 27.7653 67.0921 28.1303 66.8495C28.4973 66.6048 28.9342 66.4825 29.4413 66.4825C29.9483 66.4825 30.3843 66.6048 30.7493 66.8495C31.1162 67.0941 31.3983 67.4492 31.5956 67.9148C31.7929 68.3784 31.8906 68.9407 31.8886 69.6016C31.8886 70.2664 31.79 70.8346 31.5927 71.3061C31.3974 71.7776 31.1172 72.1377 30.7522 72.3863C30.3873 72.6349 29.9503 72.7591 29.4413 72.7591ZM29.4413 71.6968C29.7885 71.6968 30.0657 71.5222 30.2728 71.173C30.48 70.8238 30.5826 70.3 30.5806 69.6016C30.5806 69.1419 30.5332 68.7592 30.4386 68.4534C30.3458 68.1476 30.2136 67.9178 30.042 67.7639C29.8723 67.61 29.6721 67.5331 29.4413 67.5331C29.096 67.5331 28.8198 67.7057 28.6127 68.0509C28.4055 68.3962 28.301 68.9131 28.299 69.6016C28.299 70.0672 28.3454 70.4558 28.4381 70.7675C28.5328 71.0773 28.6659 71.3101 28.8376 71.4659C29.0092 71.6198 29.2104 71.6968 29.4413 71.6968Z" fill="#2E2E30"/>
<path d="M19.1644 51.4609H20.7447L22.4137 55.5328H22.4848L24.1538 51.4609H25.734V57.5215H24.4912V53.5768H24.4408L22.8724 57.4919H22.0261L20.4577 53.562H20.4073V57.5215H19.1644V51.4609ZM28.8198 57.6103C28.3602 57.6103 27.9626 57.5126 27.6272 57.3173C27.2938 57.12 27.0364 56.8458 26.8549 56.4946C26.6734 56.1415 26.5826 55.7321 26.5826 55.2665C26.5826 54.797 26.6734 54.3866 26.8549 54.0355C27.0364 53.6823 27.2938 53.4081 27.6272 53.2128C27.9626 53.0155 28.3602 52.9168 28.8198 52.9168C29.2795 52.9168 29.6761 53.0155 30.0095 53.2128C30.3449 53.4081 30.6033 53.6823 30.7848 54.0355C30.9663 54.3866 31.0571 54.797 31.0571 55.2665C31.0571 55.7321 30.9663 56.1415 30.7848 56.4946C30.6033 56.8458 30.3449 57.12 30.0095 57.3173C29.6761 57.5126 29.2795 57.6103 28.8198 57.6103ZM28.8258 56.6337C29.0349 56.6337 29.2095 56.5745 29.3495 56.4561C29.4896 56.3358 29.5952 56.1721 29.6662 55.9649C29.7392 55.7578 29.7757 55.522 29.7757 55.2576C29.7757 54.9933 29.7392 54.7575 29.6662 54.5504C29.5952 54.3432 29.4896 54.1795 29.3495 54.0591C29.2095 53.9388 29.0349 53.8786 28.8258 53.8786C28.6147 53.8786 28.4371 53.9388 28.2931 54.0591C28.151 54.1795 28.0435 54.3432 27.9705 54.5504C27.8995 54.7575 27.864 54.9933 27.864 55.2576C27.864 55.522 27.8995 55.7578 27.9705 55.9649C28.0435 56.1721 28.151 56.3358 28.2931 56.4561C28.4371 56.5745 28.6147 56.6337 28.8258 56.6337ZM33.1374 54.8936V57.5215H31.8768V52.976H33.0782V53.778H33.1315C33.2321 53.5136 33.4008 53.3045 33.6375 53.1506C33.8743 52.9948 34.1613 52.9168 34.4987 52.9168C34.8144 52.9168 35.0896 52.9859 35.3243 53.124C35.5591 53.2621 35.7416 53.4594 35.8718 53.7158C36.002 53.9703 36.0671 54.2742 36.0671 54.6273V57.5215H34.8065V54.8522C34.8084 54.574 34.7374 54.357 34.5934 54.2012C34.4494 54.0433 34.2511 53.9644 33.9986 53.9644C33.8289 53.9644 33.679 54.0009 33.5488 54.0739C33.4205 54.1469 33.3199 54.2535 33.2469 54.3935C33.1759 54.5316 33.1394 54.6983 33.1374 54.8936Z" fill="#939393"/>
<path d="M17.8092 251.703V250.435H23.7822V251.703H21.5557V257.708H20.0358V251.703H17.8092ZM26.411 257.815C25.8593 257.815 25.3823 257.697 24.9798 257.463C24.5798 257.226 24.2708 256.897 24.053 256.476C23.8352 256.052 23.7263 255.561 23.7263 255.002C23.7263 254.439 23.8352 253.946 24.053 253.525C24.2708 253.101 24.5798 252.772 24.9798 252.538C25.3823 252.301 25.8593 252.182 26.411 252.182C26.9626 252.182 27.4384 252.301 27.8385 252.538C28.241 252.772 28.5511 253.101 28.7689 253.525C28.9867 253.946 29.0956 254.439 29.0956 255.002C29.0956 255.561 28.9867 256.052 28.7689 256.476C28.5511 256.897 28.241 257.226 27.8385 257.463C27.4384 257.697 26.9626 257.815 26.411 257.815ZM26.4181 256.643C26.669 256.643 26.8785 256.572 27.0466 256.43C27.2147 256.285 27.3414 256.089 27.4266 255.84C27.5142 255.592 27.558 255.309 27.558 254.991C27.558 254.674 27.5142 254.391 27.4266 254.143C27.3414 253.894 27.2147 253.698 27.0466 253.553C26.8785 253.409 26.669 253.337 26.4181 253.337C26.1647 253.337 25.9517 253.409 25.7789 253.553C25.6084 253.698 25.4794 253.894 25.3918 254.143C25.3066 254.391 25.2639 254.674 25.2639 254.991C25.2639 255.309 25.3066 255.592 25.3918 255.84C25.4794 256.089 25.6084 256.285 25.7789 256.43C25.9517 256.572 26.1647 256.643 26.4181 256.643ZM32.0892 257.797C31.6749 257.797 31.2997 257.69 30.9635 257.477C30.6297 257.262 30.3646 256.946 30.1681 256.529C29.9739 256.11 29.8769 255.596 29.8769 254.988C29.8769 254.363 29.9775 253.843 30.1787 253.429C30.3799 253.012 30.6475 252.701 30.9813 252.495C31.3174 252.287 31.6856 252.182 32.0857 252.182C32.3911 252.182 32.6456 252.235 32.8492 252.339C33.0551 252.44 33.2209 252.568 33.3463 252.722C33.4742 252.874 33.5712 253.023 33.6375 253.17H33.6837V250.435H35.1929V257.708H33.7014V256.834H33.6375C33.5665 256.986 33.4659 257.136 33.3357 257.285C33.2078 257.432 33.0409 257.554 32.835 257.651C32.6314 257.748 32.3828 257.797 32.0892 257.797ZM32.5686 256.593C32.8125 256.593 33.0184 256.527 33.1865 256.394C33.357 256.259 33.4872 256.071 33.5771 255.829C33.6695 255.588 33.7156 255.305 33.7156 254.981C33.7156 254.656 33.6707 254.375 33.5807 254.136C33.4907 253.896 33.3605 253.712 33.1901 253.582C33.0196 253.451 32.8125 253.386 32.5686 253.386C32.32 253.386 32.1105 253.454 31.9401 253.589C31.7696 253.724 31.6406 253.911 31.553 254.15C31.4654 254.389 31.4216 254.666 31.4216 254.981C31.4216 255.298 31.4654 255.579 31.553 255.822C31.643 256.064 31.772 256.253 31.9401 256.391C32.1105 256.525 32.32 256.593 32.5686 256.593ZM37.9921 257.811C37.6441 257.811 37.334 257.751 37.0617 257.63C36.7894 257.507 36.574 257.326 36.4154 257.087C36.2591 256.845 36.181 256.544 36.181 256.185C36.181 255.882 36.2367 255.627 36.3479 255.421C36.4592 255.215 36.6107 255.049 36.8025 254.924C36.9942 254.798 37.212 254.704 37.4559 254.64C37.7021 254.576 37.9601 254.531 38.23 254.505C38.5473 254.472 38.8029 254.441 38.9971 254.413C39.1912 254.382 39.3321 254.337 39.4197 254.278C39.5073 254.218 39.551 254.131 39.551 254.015V253.994C39.551 253.769 39.48 253.595 39.338 253.472C39.1983 253.348 38.9994 253.287 38.7414 253.287C38.4691 253.287 38.2525 253.347 38.0915 253.468C37.9305 253.586 37.824 253.735 37.7719 253.915L36.3728 253.802C36.4438 253.47 36.5835 253.184 36.7918 252.942C37.0001 252.699 37.2689 252.512 37.5979 252.381C37.9294 252.249 38.3129 252.182 38.7485 252.182C39.0515 252.182 39.3415 252.218 39.6185 252.289C39.8979 252.36 40.1453 252.47 40.3607 252.619C40.5785 252.768 40.7501 252.96 40.8756 253.195C41.0011 253.427 41.0638 253.705 41.0638 254.029V257.708H39.6292V256.952H39.5866C39.499 257.122 39.3818 257.272 39.235 257.403C39.0882 257.53 38.9118 257.631 38.7059 257.704C38.4999 257.775 38.262 257.811 37.9921 257.811ZM38.4253 256.767C38.6479 256.767 38.8444 256.723 39.0148 256.636C39.1853 256.546 39.319 256.425 39.4161 256.273C39.5132 256.122 39.5617 255.95 39.5617 255.758V255.18C39.5144 255.21 39.4492 255.239 39.3664 255.265C39.2859 255.289 39.1948 255.311 39.093 255.332C38.9912 255.351 38.8894 255.369 38.7876 255.386C38.6858 255.4 38.5934 255.413 38.5106 255.425C38.333 255.451 38.1779 255.492 38.0454 255.549C37.9128 255.606 37.8098 255.683 37.7364 255.78C37.663 255.874 37.6263 255.993 37.6263 256.135C37.6263 256.341 37.7009 256.498 37.8501 256.607C38.0016 256.714 38.1933 256.767 38.4253 256.767ZM42.9761 259.753C42.7844 259.753 42.6044 259.738 42.4363 259.707C42.2706 259.679 42.1333 259.642 42.0244 259.597L42.3653 258.468C42.5429 258.522 42.7027 258.552 42.8447 258.557C42.9891 258.561 43.1134 258.528 43.2176 258.457C43.3241 258.386 43.4105 258.266 43.4768 258.095L43.5656 257.864L41.6089 252.253H43.1998L44.3291 256.259H44.3859L45.5258 252.253H47.1274L45.0074 258.297C44.9056 258.591 44.7671 258.847 44.5919 259.065C44.4191 259.285 44.2001 259.454 43.9349 259.572C43.6698 259.693 43.3502 259.753 42.9761 259.753Z" fill="#2E2E30"/>
<path d="M188.82 258.617V249.526H189.402V258.617H188.82ZM190.365 252.527C190.336 252.24 190.214 252.018 189.999 251.859C189.783 251.701 189.491 251.621 189.122 251.621C188.871 251.621 188.659 251.657 188.486 251.728C188.313 251.797 188.181 251.892 188.088 252.016C187.998 252.139 187.953 252.278 187.953 252.435C187.949 252.565 187.976 252.678 188.035 252.775C188.097 252.873 188.181 252.957 188.287 253.028C188.394 253.096 188.517 253.157 188.656 253.209C188.796 253.258 188.945 253.301 189.104 253.337L189.757 253.493C190.075 253.564 190.366 253.659 190.631 253.777C190.896 253.895 191.126 254.041 191.32 254.214C191.514 254.387 191.664 254.59 191.771 254.824C191.88 255.059 191.935 255.328 191.938 255.631C191.935 256.076 191.822 256.462 191.597 256.788C191.374 257.113 191.052 257.365 190.631 257.545C190.212 257.722 189.706 257.811 189.115 257.811C188.527 257.811 188.016 257.721 187.58 257.541C187.147 257.361 186.809 257.095 186.565 256.742C186.323 256.387 186.197 255.948 186.185 255.425H187.673C187.689 255.668 187.759 255.872 187.882 256.035C188.008 256.196 188.175 256.318 188.383 256.401C188.594 256.482 188.832 256.522 189.097 256.522C189.357 256.522 189.583 256.484 189.775 256.408C189.969 256.333 190.119 256.227 190.226 256.092C190.333 255.957 190.386 255.802 190.386 255.627C190.386 255.464 190.337 255.326 190.24 255.215C190.146 255.104 190.006 255.009 189.821 254.931C189.639 254.853 189.415 254.782 189.15 254.718L188.358 254.519C187.745 254.37 187.261 254.137 186.906 253.82C186.551 253.502 186.374 253.075 186.377 252.538C186.374 252.097 186.491 251.713 186.728 251.383C186.967 251.054 187.295 250.797 187.712 250.613C188.128 250.428 188.602 250.336 189.132 250.336C189.672 250.336 190.143 250.428 190.546 250.613C190.95 250.797 191.265 251.054 191.49 251.383C191.715 251.713 191.831 252.094 191.838 252.527H190.365ZM192.819 256.43V255.219L195.855 250.435H196.9V252.111H196.282L194.368 255.141V255.197H198.682V256.43H192.819ZM196.31 257.708V256.06L196.338 255.524V250.435H197.78V257.708H196.31ZM202.363 257.807C201.861 257.807 201.414 257.715 201.021 257.53C200.63 257.346 200.32 257.091 200.09 256.767C199.861 256.443 199.741 256.071 199.732 255.652H201.223C201.24 255.934 201.358 256.162 201.578 256.337C201.798 256.512 202.06 256.6 202.363 256.6C202.604 256.6 202.817 256.547 203.002 256.44C203.189 256.331 203.335 256.181 203.439 255.989C203.545 255.795 203.599 255.573 203.599 255.322C203.599 255.066 203.544 254.841 203.435 254.647C203.329 254.453 203.181 254.301 202.991 254.192C202.802 254.083 202.585 254.028 202.342 254.025C202.129 254.025 201.921 254.069 201.72 254.157C201.521 254.244 201.366 254.364 201.255 254.516L199.888 254.271L200.232 250.435H204.678V251.692H201.5L201.312 253.514H201.354C201.482 253.334 201.675 253.185 201.933 253.067C202.191 252.948 202.48 252.889 202.8 252.889C203.238 252.889 203.628 252.992 203.972 253.198C204.315 253.404 204.586 253.687 204.785 254.047C204.984 254.404 205.082 254.816 205.08 255.283C205.082 255.773 204.968 256.208 204.739 256.589C204.511 256.968 204.193 257.266 203.783 257.484C203.376 257.7 202.903 257.807 202.363 257.807ZM206.816 257.8C206.582 257.8 206.38 257.717 206.212 257.552C206.047 257.384 205.964 257.182 205.964 256.948C205.964 256.716 206.047 256.517 206.212 256.351C206.38 256.186 206.582 256.103 206.816 256.103C207.043 256.103 207.242 256.186 207.413 256.351C207.583 256.517 207.668 256.716 207.668 256.948C207.668 257.104 207.628 257.248 207.548 257.378C207.469 257.506 207.366 257.609 207.239 257.687C207.111 257.762 206.97 257.8 206.816 257.8ZM211.455 257.868C210.844 257.865 210.318 257.715 209.878 257.417C209.44 257.119 209.103 256.686 208.866 256.121C208.632 255.555 208.516 254.874 208.518 254.079C208.518 253.286 208.635 252.61 208.869 252.051C209.106 251.492 209.444 251.067 209.882 250.776C210.322 250.483 210.846 250.336 211.455 250.336C212.063 250.336 212.586 250.483 213.024 250.776C213.465 251.07 213.803 251.496 214.04 252.055C214.277 252.611 214.394 253.286 214.392 254.079C214.392 254.877 214.273 255.558 214.036 256.124C213.802 256.69 213.466 257.122 213.028 257.42C212.59 257.719 212.066 257.868 211.455 257.868ZM211.455 256.593C211.871 256.593 212.204 256.383 212.453 255.964C212.701 255.545 212.824 254.917 212.822 254.079C212.822 253.527 212.765 253.068 212.651 252.701C212.54 252.334 212.382 252.058 212.176 251.873C211.972 251.689 211.732 251.597 211.455 251.597C211.04 251.597 210.709 251.804 210.46 252.218C210.212 252.632 210.086 253.253 210.084 254.079C210.084 254.637 210.14 255.104 210.251 255.478C210.365 255.85 210.524 256.129 210.73 256.316C210.936 256.501 211.178 256.593 211.455 256.593ZM218.339 257.868C217.729 257.865 217.203 257.715 216.763 257.417C216.325 257.119 215.987 256.686 215.751 256.121C215.516 255.555 215.4 254.874 215.403 254.079C215.403 253.286 215.52 252.61 215.754 252.051C215.991 251.492 216.328 251.067 216.766 250.776C217.207 250.483 217.731 250.336 218.339 250.336C218.948 250.336 219.471 250.483 219.909 250.776C220.349 251.07 220.688 251.496 220.925 252.055C221.161 252.611 221.279 253.286 221.276 254.079C221.276 254.877 221.158 255.558 220.921 256.124C220.687 256.69 220.351 257.122 219.913 257.42C219.475 257.719 218.95 257.868 218.339 257.868ZM218.339 256.593C218.756 256.593 219.089 256.383 219.337 255.964C219.586 255.545 219.709 254.917 219.707 254.079C219.707 253.527 219.65 253.068 219.536 252.701C219.425 252.334 219.266 252.058 219.06 251.873C218.857 251.689 218.616 251.597 218.339 251.597C217.925 251.597 217.594 251.804 217.345 252.218C217.097 252.632 216.971 253.253 216.969 254.079C216.969 254.637 217.024 255.104 217.136 255.478C217.249 255.85 217.409 256.129 217.615 256.316C217.821 256.501 218.062 256.593 218.339 256.593Z" fill="#2E2E30"/>
<mask id="path-6-outside-1_4970_565" maskUnits="userSpaceOnUse" x="17.1206" y="209.959" width="205" height="30" fill="black">
<rect fill="white" x="17.1206" y="209.959" width="205" height="30"/>
<path d="M17.1206 209.959H222.121V239.126H17.1206V209.959Z"/>
</mask>
<path d="M222.121 238.292H17.1206V239.959H222.121V238.292Z" fill="#B1B1B1" mask="url(#path-6-outside-1_4970_565)"/>
<path d="M17.3362 228.542V221.269H20.2481C20.7832 221.269 21.2294 221.349 21.5869 221.507C21.9444 221.666 22.2131 221.886 22.393 222.168C22.5729 222.447 22.6629 222.769 22.6629 223.134C22.6629 223.418 22.6061 223.667 22.4925 223.883C22.3788 224.096 22.2226 224.271 22.0237 224.408C21.8272 224.543 21.6023 224.639 21.349 224.696V224.767C21.626 224.779 21.8852 224.857 22.1267 225.002C22.3705 225.146 22.5682 225.348 22.7197 225.609C22.8712 225.867 22.947 226.175 22.947 226.532C22.947 226.918 22.8511 227.262 22.6594 227.565C22.47 227.866 22.1894 228.104 21.8177 228.279C21.4461 228.454 20.988 228.542 20.4434 228.542H17.3362ZM18.8738 227.285H20.1274C20.5559 227.285 20.8684 227.203 21.0649 227.04C21.2614 226.874 21.3596 226.654 21.3596 226.379C21.3596 226.178 21.3111 226.001 21.214 225.847C21.117 225.693 20.9785 225.572 20.7986 225.484C20.621 225.397 20.4091 225.353 20.1629 225.353H18.8738V227.285ZM18.8738 224.313H20.0138C20.2245 224.313 20.4115 224.276 20.5748 224.203C20.7406 224.127 20.8708 224.02 20.9655 223.883C21.0625 223.746 21.1111 223.581 21.1111 223.389C21.1111 223.127 21.0175 222.915 20.8305 222.754C20.6459 222.593 20.3831 222.512 20.0422 222.512H18.8738V224.313ZM26.4049 228.649C25.8438 228.649 25.3609 228.535 24.9561 228.308C24.5536 228.078 24.2435 227.754 24.0257 227.335C23.8079 226.913 23.699 226.415 23.699 225.84C23.699 225.278 23.8079 224.786 24.0257 224.362C24.2435 223.939 24.55 223.608 24.9454 223.372C25.3431 223.135 25.8095 223.016 26.3445 223.016C26.7044 223.016 27.0394 223.074 27.3495 223.19C27.662 223.304 27.9343 223.476 28.1663 223.705C28.4007 223.935 28.5829 224.224 28.7132 224.572C28.8434 224.917 28.9085 225.322 28.9085 225.786V226.202H24.3026V225.264H27.4845C27.4845 225.046 27.4371 224.854 27.3424 224.685C27.2477 224.517 27.1163 224.386 26.9482 224.291C26.7825 224.194 26.5896 224.146 26.3694 224.146C26.1398 224.146 25.9362 224.199 25.7586 224.305C25.5834 224.41 25.4461 224.551 25.3467 224.728C25.2472 224.903 25.1963 225.099 25.194 225.314V226.205C25.194 226.475 25.2437 226.708 25.3431 226.905C25.4449 227.101 25.5882 227.253 25.7728 227.359C25.9575 227.466 26.1765 227.519 26.4298 227.519C26.5979 227.519 26.7517 227.496 26.8914 227.448C27.0311 227.401 27.1507 227.33 27.2501 227.235C27.3495 227.14 27.4253 227.024 27.4774 226.887L28.8765 226.979C28.8055 227.316 28.6599 227.609 28.4397 227.86C28.2219 228.109 27.9402 228.303 27.5945 228.443C27.2513 228.58 26.8547 228.649 26.4049 228.649ZM34.434 224.643L33.0491 224.728C33.0254 224.61 32.9745 224.503 32.8964 224.408C32.8183 224.311 32.7153 224.234 32.5874 224.178C32.462 224.118 32.3116 224.089 32.1365 224.089C31.9021 224.089 31.7044 224.139 31.5434 224.238C31.3824 224.335 31.3019 224.465 31.3019 224.629C31.3019 224.759 31.354 224.869 31.4582 224.959C31.5624 225.049 31.7411 225.121 31.9944 225.176L32.9816 225.374C33.5119 225.483 33.9073 225.658 34.1677 225.9C34.4281 226.141 34.5583 226.459 34.5583 226.852C34.5583 227.209 34.453 227.523 34.2423 227.793C34.0339 228.063 33.7475 228.273 33.3829 228.425C33.0207 228.574 32.6028 228.649 32.1294 228.649C31.4073 228.649 30.832 228.498 30.4035 228.198C29.9774 227.895 29.7276 227.483 29.6542 226.962L31.1421 226.884C31.1871 227.104 31.296 227.272 31.4688 227.388C31.6417 227.502 31.863 227.558 32.1329 227.558C32.3981 227.558 32.6111 227.507 32.7721 227.406C32.9355 227.301 33.0183 227.168 33.0207 227.004C33.0183 226.867 32.9603 226.755 32.8467 226.667C32.733 226.577 32.5579 226.508 32.3211 226.461L31.3765 226.273C30.8438 226.166 30.4473 225.982 30.1869 225.719C29.9288 225.456 29.7998 225.121 29.7998 224.714C29.7998 224.363 29.8945 224.062 30.0839 223.808C30.2757 223.555 30.5444 223.36 30.89 223.222C31.238 223.085 31.6452 223.016 32.1116 223.016C32.8005 223.016 33.3427 223.162 33.738 223.453C34.1357 223.744 34.3677 224.141 34.434 224.643ZM38.4122 223.087V224.224H35.1274V223.087H38.4122ZM35.8731 221.781H37.3859V226.866C37.3859 227.006 37.4072 227.114 37.4498 227.193C37.4925 227.268 37.5516 227.322 37.6274 227.352C37.7055 227.383 37.7955 227.399 37.8973 227.399C37.9683 227.399 38.0393 227.393 38.1104 227.381C38.1814 227.367 38.2358 227.356 38.2737 227.349L38.5116 228.475C38.4359 228.498 38.3293 228.525 38.192 228.556C38.0547 228.589 37.8878 228.609 37.6913 228.617C37.3267 228.631 37.0071 228.582 36.7325 228.471C36.4603 228.36 36.2484 228.187 36.0969 227.953C35.9453 227.718 35.8708 227.422 35.8731 227.065V221.781Z" fill="#2E2E30"/>
<path d="M188.57 229.451V220.36H189.152V229.451H188.57ZM190.115 223.361C190.086 223.074 189.964 222.852 189.749 222.693C189.533 222.535 189.241 222.455 188.872 222.455C188.621 222.455 188.409 222.491 188.236 222.562C188.063 222.631 187.931 222.726 187.838 222.85C187.748 222.973 187.703 223.112 187.703 223.269C187.699 223.399 187.726 223.512 187.785 223.609C187.847 223.707 187.931 223.791 188.037 223.862C188.144 223.93 188.267 223.991 188.406 224.043C188.546 224.092 188.695 224.135 188.854 224.171L189.507 224.327C189.825 224.398 190.116 224.493 190.381 224.611C190.646 224.729 190.876 224.875 191.07 225.048C191.264 225.22 191.414 225.424 191.521 225.658C191.63 225.893 191.685 226.162 191.688 226.465C191.685 226.91 191.572 227.296 191.347 227.622C191.124 227.947 190.802 228.199 190.381 228.379C189.962 228.556 189.456 228.645 188.865 228.645C188.277 228.645 187.766 228.555 187.33 228.375C186.897 228.195 186.559 227.929 186.315 227.576C186.073 227.221 185.947 226.782 185.935 226.259H187.423C187.439 226.502 187.509 226.706 187.632 226.869C187.758 227.03 187.925 227.152 188.133 227.235C188.344 227.316 188.582 227.356 188.847 227.356C189.107 227.356 189.333 227.318 189.525 227.242C189.719 227.167 189.869 227.061 189.976 226.926C190.083 226.791 190.136 226.636 190.136 226.461C190.136 226.298 190.087 226.16 189.99 226.049C189.896 225.938 189.756 225.843 189.571 225.765C189.389 225.687 189.165 225.616 188.9 225.552L188.108 225.353C187.495 225.204 187.011 224.971 186.656 224.653C186.301 224.336 186.124 223.909 186.127 223.372C186.124 222.931 186.241 222.546 186.478 222.217C186.717 221.888 187.045 221.631 187.462 221.447C187.878 221.262 188.352 221.17 188.882 221.17C189.422 221.17 189.893 221.262 190.296 221.447C190.7 221.631 191.015 221.888 191.24 222.217C191.465 222.546 191.581 222.928 191.588 223.361H190.115ZM195.311 221.17C195.685 221.17 196.045 221.233 196.39 221.358C196.738 221.484 197.048 221.684 197.321 221.958C197.595 222.233 197.812 222.597 197.971 223.052C198.132 223.504 198.213 224.059 198.216 224.717C198.216 225.335 198.146 225.887 198.006 226.372C197.869 226.855 197.671 227.266 197.413 227.604C197.155 227.943 196.844 228.201 196.479 228.379C196.114 228.554 195.707 228.641 195.257 228.641C194.772 228.641 194.344 228.548 193.972 228.361C193.6 228.171 193.301 227.915 193.074 227.59C192.849 227.264 192.712 226.897 192.665 226.489H194.181C194.241 226.755 194.365 226.961 194.554 227.107C194.744 227.252 194.978 227.324 195.257 227.324C195.731 227.324 196.091 227.118 196.337 226.706C196.583 226.292 196.708 225.725 196.71 225.005H196.66C196.551 225.218 196.404 225.402 196.22 225.555C196.035 225.707 195.823 225.824 195.584 225.907C195.347 225.99 195.095 226.031 194.828 226.031C194.399 226.031 194.017 225.931 193.681 225.729C193.345 225.528 193.079 225.251 192.885 224.899C192.691 224.546 192.594 224.143 192.594 223.691C192.592 223.203 192.704 222.769 192.931 222.388C193.159 222.007 193.476 221.708 193.883 221.493C194.293 221.275 194.769 221.167 195.311 221.17ZM195.321 222.377C195.082 222.377 194.869 222.434 194.682 222.548C194.498 222.661 194.351 222.814 194.242 223.006C194.135 223.198 194.083 223.412 194.086 223.649C194.086 223.888 194.138 224.103 194.242 224.295C194.348 224.484 194.493 224.636 194.675 224.749C194.86 224.861 195.07 224.916 195.307 224.916C195.485 224.916 195.649 224.883 195.801 224.817C195.952 224.751 196.084 224.659 196.195 224.543C196.309 224.425 196.397 224.289 196.461 224.135C196.525 223.981 196.557 223.818 196.557 223.645C196.555 223.415 196.5 223.205 196.394 223.013C196.287 222.821 196.141 222.667 195.953 222.551C195.766 222.435 195.556 222.377 195.321 222.377ZM202.132 228.702C201.522 228.699 200.996 228.549 200.556 228.251C200.118 227.953 199.78 227.52 199.544 226.955C199.309 226.389 199.193 225.708 199.196 224.913C199.196 224.12 199.313 223.444 199.547 222.885C199.784 222.326 200.121 221.901 200.559 221.61C201 221.317 201.524 221.17 202.132 221.17C202.741 221.17 203.264 221.317 203.702 221.61C204.142 221.904 204.481 222.33 204.718 222.889C204.954 223.445 205.072 224.12 205.069 224.913C205.069 225.711 204.951 226.392 204.714 226.958C204.48 227.524 204.144 227.956 203.706 228.254C203.268 228.553 202.743 228.702 202.132 228.702ZM202.132 227.427C202.549 227.427 202.882 227.217 203.13 226.798C203.379 226.379 203.502 225.751 203.5 224.913C203.5 224.361 203.443 223.902 203.329 223.535C203.218 223.168 203.059 222.892 202.853 222.707C202.65 222.523 202.409 222.43 202.132 222.43C201.718 222.43 201.387 222.638 201.138 223.052C200.89 223.466 200.764 224.086 200.762 224.913C200.762 225.471 200.817 225.938 200.929 226.312C201.042 226.684 201.202 226.963 201.408 227.15C201.614 227.335 201.855 227.427 202.132 227.427ZM206.771 228.634C206.537 228.634 206.336 228.551 206.167 228.386C206.002 228.218 205.919 228.016 205.919 227.782C205.919 227.55 206.002 227.351 206.167 227.185C206.336 227.02 206.537 226.937 206.771 226.937C206.998 226.937 207.197 227.02 207.368 227.185C207.538 227.351 207.623 227.55 207.623 227.782C207.623 227.938 207.583 228.082 207.503 228.212C207.425 228.34 207.322 228.443 207.194 228.521C207.066 228.596 206.925 228.634 206.771 228.634ZM211.41 228.702C210.799 228.699 210.273 228.549 209.833 228.251C209.395 227.953 209.058 227.52 208.821 226.955C208.587 226.389 208.471 225.708 208.473 224.913C208.473 224.12 208.59 223.444 208.825 222.885C209.061 222.326 209.399 221.901 209.837 221.61C210.277 221.317 210.801 221.17 211.41 221.17C212.018 221.17 212.541 221.317 212.979 221.61C213.42 221.904 213.758 222.33 213.995 222.889C214.232 223.445 214.349 224.12 214.347 224.913C214.347 225.711 214.228 226.392 213.991 226.958C213.757 227.524 213.421 227.956 212.983 228.254C212.545 228.553 212.021 228.702 211.41 228.702ZM211.41 227.427C211.826 227.427 212.159 227.217 212.408 226.798C212.656 226.379 212.779 225.751 212.777 224.913C212.777 224.361 212.72 223.902 212.607 223.535C212.495 223.168 212.337 222.892 212.131 222.707C211.927 222.523 211.687 222.43 211.41 222.43C210.996 222.43 210.664 222.638 210.415 223.052C210.167 223.466 210.041 224.086 210.039 224.913C210.039 225.471 210.095 225.938 210.206 226.312C210.32 226.684 210.479 226.963 210.685 227.15C210.891 227.335 211.133 227.427 211.41 227.427ZM218.295 228.702C217.684 228.699 217.158 228.549 216.718 228.251C216.28 227.953 215.943 227.52 215.706 226.955C215.471 226.389 215.355 225.708 215.358 224.913C215.358 224.12 215.475 223.444 215.709 222.885C215.946 222.326 216.283 221.901 216.721 221.61C217.162 221.317 217.686 221.17 218.295 221.17C218.903 221.17 219.426 221.317 219.864 221.61C220.305 221.904 220.643 222.33 220.88 222.889C221.117 223.445 221.234 224.12 221.231 224.913C221.231 225.711 221.113 226.392 220.876 226.958C220.642 227.524 220.306 227.956 219.868 228.254C219.43 228.553 218.905 228.702 218.295 228.702ZM218.295 227.427C218.711 227.427 219.044 227.217 219.292 226.798C219.541 226.379 219.664 225.751 219.662 224.913C219.662 224.361 219.605 223.902 219.491 223.535C219.38 223.168 219.221 222.892 219.015 222.707C218.812 222.523 218.572 222.43 218.295 222.43C217.88 222.43 217.549 222.638 217.3 223.052C217.052 223.466 216.926 224.086 216.924 224.913C216.924 225.471 216.979 225.938 217.091 226.312C217.204 226.684 217.364 226.963 217.57 227.15C217.776 227.335 218.018 227.427 218.295 227.427Z" fill="#2E2E30"/>
<path d="M61.9742 66.5654V72.626H60.6928V67.7816H60.6573L59.2694 68.6517V67.5153L60.7697 66.5654H61.9742ZM66.0513 66.5654V72.626H64.7699V67.7816H64.7344L63.3465 68.6517V67.5153L64.8469 66.5654H66.0513Z" fill="#2E2E30"/>
<path d="M57.2666 52.5173V51.4609H62.2441V52.5173H60.3887V57.5215H59.1221V52.5173H57.2666ZM65.3366 55.5861V52.976H66.5972V57.5215H65.3869V56.6958H65.3395C65.237 56.9622 65.0663 57.1762 64.8276 57.338C64.5908 57.4998 64.3018 57.5807 63.9605 57.5807C63.6567 57.5807 63.3894 57.5116 63.1586 57.3735C62.9277 57.2354 62.7472 57.0391 62.617 56.7846C62.4888 56.5301 62.4237 56.2253 62.4217 55.8702V52.976H63.6824V55.6453C63.6843 55.9136 63.7563 56.1257 63.8984 56.2815C64.0404 56.4374 64.2308 56.5153 64.4695 56.5153C64.6214 56.5153 64.7635 56.4808 64.8957 56.4118C65.0278 56.3407 65.1344 56.2362 65.2153 56.0981C65.2981 55.96 65.3386 55.7893 65.3366 55.5861ZM69.6771 57.6103C69.2095 57.6103 68.8071 57.5156 68.4697 57.3262C68.1343 57.1348 67.8759 56.8645 67.6944 56.5153C67.5129 56.1642 67.4221 55.7489 67.4221 55.2695C67.4221 54.8019 67.5129 54.3916 67.6944 54.0384C67.8759 53.6853 68.1314 53.4101 68.4608 53.2128C68.7923 53.0155 69.1809 52.9168 69.6268 52.9168C69.9267 52.9168 70.2058 52.9652 70.4643 53.0618C70.7247 53.1565 70.9516 53.2996 71.1449 53.4909C71.3402 53.6823 71.4921 53.923 71.6006 54.213C71.7092 54.501 71.7634 54.8384 71.7634 55.2251V55.5713H67.9252V54.7901H70.5767C70.5767 54.6086 70.5373 54.4478 70.4584 54.3077C70.3794 54.1676 70.27 54.0581 70.1299 53.9792C69.9918 53.8983 69.831 53.8579 69.6475 53.8579C69.4562 53.8579 69.2865 53.9023 69.1385 53.9911C68.9925 54.0779 68.8781 54.1953 68.7952 54.3432C68.7124 54.4892 68.67 54.652 68.668 54.8315V55.5743C68.668 55.7992 68.7094 55.9935 68.7923 56.1573C68.8771 56.321 68.9965 56.4473 69.1504 56.536C69.3042 56.6248 69.4867 56.6692 69.6978 56.6692C69.8379 56.6692 69.9661 56.6495 70.0825 56.61C70.1989 56.5706 70.2986 56.5114 70.3814 56.4325C70.4643 56.3536 70.5274 56.2569 70.5708 56.1425L71.7368 56.2194C71.6776 56.4995 71.5563 56.7442 71.3728 56.9533C71.1913 57.1605 70.9565 57.3222 70.6685 57.4386C70.3824 57.5531 70.052 57.6103 69.6771 57.6103Z" fill="#939393"/>
<path d="M96.6573 66.5654V72.626H95.3759V67.7816H95.3404L93.9525 68.6517V67.5153L95.4528 66.5654H96.6573ZM98.0977 72.626V71.7027L100.255 69.7052C100.438 69.5276 100.592 69.3678 100.717 69.2258C100.843 69.0837 100.939 68.9446 101.004 68.8085C101.069 68.6704 101.101 68.5215 101.101 68.3617C101.101 68.1841 101.061 68.0312 100.98 67.903C100.899 67.7728 100.789 67.6731 100.649 67.6041C100.509 67.5331 100.35 67.4975 100.172 67.4975C99.9867 67.4975 99.8249 67.535 99.6868 67.61C99.5487 67.685 99.4422 67.7925 99.3672 67.9326C99.2922 68.0726 99.2548 68.2393 99.2548 68.4327H98.0385C98.0385 68.0361 98.1283 67.6919 98.3078 67.3999C98.4873 67.1079 98.7389 66.882 99.0624 66.7222C99.386 66.5624 99.7588 66.4825 100.181 66.4825C100.615 66.4825 100.993 66.5595 101.314 66.7133C101.638 66.8652 101.89 67.0763 102.069 67.3466C102.249 67.6169 102.338 67.9266 102.338 68.2758C102.338 68.5047 102.293 68.7306 102.202 68.9535C102.113 69.1764 101.955 69.424 101.726 69.6963C101.497 69.9666 101.174 70.2911 100.758 70.6699L99.8733 71.537V71.5784H102.418V72.626H98.0977Z" fill="#2E2E30"/>
<path d="M94.6952 57.5215L92.961 51.4609H94.3608L95.364 55.6719H95.4143L96.5211 51.4609H97.7196L98.8234 55.6808H98.8766L99.8798 51.4609H101.28L99.5454 57.5215H98.2966L97.1425 53.559H97.0952L95.944 57.5215H94.6952ZM103.525 57.6103C103.057 57.6103 102.655 57.5156 102.318 57.3262C101.982 57.1348 101.724 56.8645 101.542 56.5153C101.361 56.1642 101.27 55.7489 101.27 55.2695C101.27 54.8019 101.361 54.3916 101.542 54.0384C101.724 53.6853 101.979 53.4101 102.309 53.2128C102.64 53.0155 103.029 52.9168 103.475 52.9168C103.774 52.9168 104.054 52.9652 104.312 53.0618C104.573 53.1565 104.799 53.2996 104.993 53.4909C105.188 53.6823 105.34 53.923 105.448 54.213C105.557 54.501 105.611 54.8384 105.611 55.2251V55.5713H101.773V54.7901H104.425C104.425 54.6086 104.385 54.4478 104.306 54.3077C104.227 54.1676 104.118 54.0581 103.978 53.9792C103.84 53.8983 103.679 53.8579 103.495 53.8579C103.304 53.8579 103.134 53.9023 102.986 53.9911C102.84 54.0779 102.726 54.1953 102.643 54.3432C102.56 54.4892 102.518 54.652 102.516 54.8315V55.5743C102.516 55.7992 102.557 55.9935 102.64 56.1573C102.725 56.321 102.844 56.4473 102.998 56.536C103.152 56.6248 103.335 56.6692 103.546 56.6692C103.686 56.6692 103.814 56.6495 103.93 56.61C104.047 56.5706 104.146 56.5114 104.229 56.4325C104.312 56.3536 104.375 56.2569 104.419 56.1425L105.585 56.2194C105.525 56.4995 105.404 56.7442 105.221 56.9533C105.039 57.1605 104.804 57.3222 104.516 57.4386C104.23 57.5531 103.9 57.6103 103.525 57.6103ZM108.109 57.5955C107.764 57.5955 107.451 57.5067 107.171 57.3291C106.893 57.1496 106.672 56.8862 106.508 56.539C106.346 56.1898 106.265 55.7617 106.265 55.2547C106.265 54.7338 106.349 54.3008 106.517 53.9556C106.684 53.6083 106.907 53.3489 107.186 53.1773C107.466 53.0036 107.772 52.9168 108.106 52.9168C108.36 52.9168 108.572 52.9602 108.742 53.0471C108.914 53.1319 109.052 53.2384 109.156 53.3667C109.263 53.4929 109.344 53.6172 109.399 53.7395H109.438V51.4609H110.695V57.5215H109.452V56.7935H109.399C109.34 56.9198 109.256 57.045 109.148 57.1693C109.041 57.2916 108.902 57.3932 108.73 57.4741C108.561 57.555 108.353 57.5955 108.109 57.5955ZM108.508 56.5923C108.712 56.5923 108.883 56.537 109.023 56.4266C109.165 56.3141 109.274 56.1573 109.349 55.956C109.426 55.7548 109.464 55.519 109.464 55.2488C109.464 54.9785 109.427 54.7437 109.352 54.5444C109.277 54.3452 109.168 54.1913 109.026 54.0828C108.884 53.9743 108.712 53.92 108.508 53.92C108.301 53.92 108.127 53.9763 107.985 54.0887C107.843 54.2012 107.735 54.357 107.662 54.5563C107.589 54.7555 107.553 54.9864 107.553 55.2488C107.553 55.5131 107.589 55.7469 107.662 55.9501C107.737 56.1513 107.844 56.3092 107.985 56.4236C108.127 56.536 108.301 56.5923 108.508 56.5923Z" fill="#939393"/>
<path d="M133.007 66.5654V72.626H131.725V67.7816H131.69L130.302 68.6517V67.5153L131.802 66.5654H133.007ZM136.687 72.7088C136.246 72.7088 135.852 72.6329 135.507 72.481C135.163 72.3271 134.892 72.116 134.693 71.8477C134.496 71.5774 134.394 71.2657 134.388 70.9126H135.678C135.686 71.0605 135.735 71.1907 135.823 71.3032C135.914 71.4137 136.034 71.4995 136.184 71.5606C136.334 71.6218 136.503 71.6524 136.69 71.6524C136.886 71.6524 137.058 71.6178 137.208 71.5488C137.358 71.4797 137.476 71.3841 137.56 71.2617C137.645 71.1394 137.688 70.9984 137.688 70.8386C137.688 70.6768 137.642 70.5338 137.552 70.4095C137.463 70.2832 137.335 70.1846 137.167 70.1135C137.001 70.0425 136.804 70.007 136.575 70.007H136.01V69.066H136.575C136.768 69.066 136.939 69.0324 137.087 68.9653C137.237 68.8983 137.353 68.8055 137.436 68.6872C137.519 68.5668 137.56 68.4268 137.56 68.267C137.56 68.115 137.524 67.9819 137.451 67.8675C137.38 67.7511 137.279 67.6603 137.149 67.5952C137.021 67.5301 136.871 67.4975 136.699 67.4975C136.526 67.4975 136.367 67.5291 136.223 67.5922C136.079 67.6534 135.963 67.7412 135.877 67.8556C135.79 67.97 135.743 68.1042 135.738 68.2581H134.509C134.515 67.9089 134.615 67.6011 134.808 67.3348C135.002 67.0684 135.262 66.8603 135.59 66.7104C135.919 66.5585 136.291 66.4825 136.705 66.4825C137.123 66.4825 137.489 66.5585 137.803 66.7104C138.117 66.8623 138.36 67.0675 138.534 67.3259C138.71 67.5824 138.796 67.8704 138.794 68.19C138.796 68.5293 138.691 68.8125 138.478 69.0393C138.267 69.2662 137.992 69.4102 137.652 69.4714V69.5187C138.098 69.5759 138.437 69.7308 138.67 69.9833C138.905 70.2339 139.021 70.5476 139.019 70.9244C139.021 71.2696 138.922 71.5764 138.72 71.8447C138.521 72.113 138.246 72.3241 137.895 72.478C137.544 72.6319 137.141 72.7088 136.687 72.7088Z" fill="#2E2E30"/>
<path d="M132.267 52.5173V51.4609H137.244V52.5173H135.389V57.5215H134.122V52.5173H132.267ZM139.301 54.8936V57.5215H138.04V51.4609H139.265V53.778H139.319C139.421 53.5097 139.587 53.2996 139.816 53.1477C140.045 52.9938 140.332 52.9168 140.677 52.9168C140.993 52.9168 141.268 52.9859 141.503 53.124C141.739 53.2601 141.923 53.4564 142.053 53.7129C142.185 53.9674 142.25 54.2722 142.248 54.6273V57.5215H140.988V54.8522C140.99 54.5721 140.919 54.3541 140.775 54.1982C140.633 54.0424 140.433 53.9644 140.177 53.9644C140.005 53.9644 139.853 54.0009 139.721 54.0739C139.591 54.1469 139.488 54.2535 139.413 54.3935C139.34 54.5316 139.303 54.6983 139.301 54.8936ZM146.155 55.5861V52.976H147.416V57.5215H146.206V56.6958H146.158C146.056 56.9622 145.885 57.1762 145.646 57.338C145.41 57.4998 145.121 57.5807 144.779 57.5807C144.475 57.5807 144.208 57.5116 143.977 57.3735C143.746 57.2354 143.566 57.0391 143.436 56.7846C143.307 56.5301 143.242 56.2253 143.24 55.8702V52.976H144.501V55.6453C144.503 55.9136 144.575 56.1257 144.717 56.2815C144.859 56.4374 145.049 56.5153 145.288 56.5153C145.44 56.5153 145.582 56.4808 145.714 56.4118C145.847 56.3407 145.953 56.2362 146.034 56.0981C146.117 55.96 146.157 55.7893 146.155 55.5861Z" fill="#939393"/>
<path d="M169.357 66.5654V72.626H168.076V67.7816H168.04L166.652 68.6517V67.5153L168.153 66.5654H169.357ZM170.706 71.5606V70.5515L173.236 66.5654H174.106V67.9622H173.591L171.996 70.4864V70.5338H175.591V71.5606H170.706ZM173.615 72.626V71.2529L173.638 70.806V66.5654H174.84V72.626H173.615Z" fill="#2E2E30"/>
<path d="M169.164 57.5215V51.4609H173.177V52.5173H170.446V53.9615H172.911V55.0179H170.446V57.5215H169.164ZM173.942 57.5215V52.976H175.164V53.7691H175.212C175.295 53.487 175.434 53.2739 175.629 53.1299C175.824 52.9839 176.049 52.9109 176.304 52.9109C176.367 52.9109 176.435 52.9149 176.508 52.9228C176.581 52.9307 176.645 52.9415 176.7 52.9553V54.0739C176.641 54.0562 176.559 54.0404 176.455 54.0266C176.35 54.0128 176.254 54.0059 176.168 54.0059C175.982 54.0059 175.816 54.0463 175.67 54.1272C175.526 54.2061 175.412 54.3166 175.327 54.4586C175.244 54.6007 175.203 54.7644 175.203 54.9499V57.5215H173.942ZM177.352 57.5215V52.976H178.613V57.5215H177.352ZM177.985 52.3901C177.798 52.3901 177.637 52.3279 177.503 52.2037C177.371 52.0774 177.305 51.9265 177.305 51.7509C177.305 51.5773 177.371 51.4283 177.503 51.304C177.637 51.1778 177.798 51.1146 177.985 51.1146C178.173 51.1146 178.333 51.1778 178.465 51.304C178.599 51.4283 178.666 51.5773 178.666 51.7509C178.666 51.9265 178.599 52.0774 178.465 52.2037C178.333 52.3279 178.173 52.3901 177.985 52.3901Z" fill="#939393"/>
<path d="M205.707 66.5654V72.626H204.425V67.7816H204.39L203.002 68.6517V67.5153L204.502 66.5654H205.707ZM209.361 72.7088C208.942 72.7088 208.569 72.6319 208.242 72.478C207.916 72.3241 207.658 72.112 207.467 71.8418C207.275 71.5715 207.176 71.2617 207.168 70.9126H208.411C208.424 71.1473 208.523 71.3377 208.707 71.4837C208.89 71.6297 209.108 71.7027 209.361 71.7027C209.562 71.7027 209.739 71.6583 209.893 71.5695C210.049 71.4788 210.17 71.3535 210.257 71.1937C210.346 71.0319 210.39 70.8465 210.39 70.6373C210.39 70.4243 210.345 70.2369 210.254 70.0751C210.165 69.9133 210.042 69.787 209.884 69.6963C209.727 69.6055 209.546 69.5592 209.343 69.5572C209.165 69.5572 208.993 69.5937 208.825 69.6667C208.659 69.7397 208.53 69.8393 208.437 69.9656L207.298 69.7614L207.585 66.5654H211.29V67.613H208.641L208.485 69.1311H208.52C208.627 68.9811 208.787 68.8568 209.002 68.7582C209.218 68.6596 209.458 68.6102 209.725 68.6102C210.09 68.6102 210.415 68.6961 210.701 68.8677C210.987 69.0393 211.213 69.2751 211.379 69.575C211.544 69.8729 211.626 70.2161 211.624 70.6048C211.626 71.0132 211.532 71.3762 211.34 71.6938C211.151 72.0095 210.886 72.258 210.544 72.4395C210.205 72.6191 209.81 72.7088 209.361 72.7088Z" fill="#2E2E30"/>
<path d="M203.285 53.2039C203.262 52.9652 203.16 52.7797 202.98 52.6475C202.801 52.5154 202.557 52.4493 202.249 52.4493C202.04 52.4493 201.864 52.4789 201.72 52.5381C201.576 52.5953 201.465 52.6752 201.388 52.7778C201.313 52.8803 201.276 52.9967 201.276 53.127C201.272 53.2355 201.295 53.3302 201.344 53.411C201.395 53.4919 201.465 53.562 201.554 53.6212C201.643 53.6784 201.745 53.7287 201.862 53.7721C201.978 53.8135 202.102 53.849 202.235 53.8786L202.779 54.0088C203.044 54.068 203.286 54.1469 203.507 54.2456C203.728 54.3442 203.919 54.4655 204.081 54.6096C204.243 54.7536 204.368 54.9232 204.457 55.1185C204.548 55.3139 204.594 55.5378 204.596 55.7903C204.594 56.1612 204.5 56.4828 204.312 56.755C204.127 57.0253 203.858 57.2354 203.507 57.3854C203.158 57.5333 202.737 57.6073 202.244 57.6073C201.754 57.6073 201.328 57.5323 200.965 57.3824C200.604 57.2325 200.322 57.0105 200.119 56.7166C199.918 56.4206 199.812 56.0547 199.802 55.6187H201.042C201.056 55.8219 201.114 55.9915 201.217 56.1277C201.321 56.2618 201.46 56.3634 201.634 56.4325C201.81 56.4995 202.008 56.5331 202.229 56.5331C202.446 56.5331 202.634 56.5015 202.794 56.4384C202.956 56.3753 203.081 56.2875 203.17 56.175C203.259 56.0626 203.303 55.9333 203.303 55.7873C203.303 55.6512 203.263 55.5368 203.182 55.4441C203.103 55.3513 202.986 55.2724 202.832 55.2073C202.681 55.1422 202.494 55.083 202.273 55.0298L201.613 54.8641C201.102 54.7398 200.699 54.5454 200.403 54.2811C200.107 54.0167 199.96 53.6606 199.962 53.2128C199.96 52.8458 200.058 52.5252 200.255 52.251C200.454 51.9768 200.727 51.7627 201.075 51.6088C201.422 51.455 201.816 51.378 202.258 51.378C202.708 51.378 203.101 51.455 203.436 51.6088C203.773 51.7627 204.036 51.9768 204.223 52.251C204.411 52.5252 204.507 52.8429 204.513 53.2039H203.285ZM206.731 57.6073C206.441 57.6073 206.182 57.557 205.955 57.4564C205.728 57.3538 205.549 57.2029 205.417 57.0036C205.286 56.8024 205.221 56.5518 205.221 56.252C205.221 55.9994 205.268 55.7873 205.36 55.6157C205.453 55.4441 205.579 55.306 205.739 55.2014C205.899 55.0968 206.081 55.0179 206.284 54.9647C206.489 54.9114 206.704 54.8739 206.929 54.8522C207.193 54.8246 207.406 54.7989 207.568 54.7753C207.73 54.7496 207.847 54.7121 207.92 54.6628C207.993 54.6135 208.03 54.5405 208.03 54.4438V54.4261C208.03 54.2387 207.97 54.0937 207.852 53.9911C207.736 53.8885 207.57 53.8372 207.355 53.8372C207.128 53.8372 206.948 53.8875 206.813 53.9881C206.679 54.0867 206.59 54.211 206.547 54.361L205.381 54.2663C205.44 53.9901 205.557 53.7514 205.73 53.5501C205.904 53.3469 206.128 53.1911 206.402 53.0826C206.678 52.9721 206.998 52.9168 207.361 52.9168C207.613 52.9168 207.855 52.9464 208.086 53.0056C208.319 53.0648 208.525 53.1565 208.704 53.2808C208.886 53.4051 209.029 53.5649 209.133 53.7602C209.238 53.9536 209.29 54.1854 209.29 54.4557V57.5215H208.095V56.8912H208.059C207.986 57.0332 207.889 57.1585 207.766 57.267C207.644 57.3735 207.497 57.4574 207.325 57.5185C207.154 57.5777 206.955 57.6073 206.731 57.6073ZM207.092 56.7373C207.277 56.7373 207.441 56.7008 207.583 56.6278C207.725 56.5528 207.836 56.4522 207.917 56.3259C207.998 56.1997 208.039 56.0566 208.039 55.8968V55.4145C207.999 55.4401 207.945 55.4638 207.876 55.4855C207.809 55.5052 207.733 55.524 207.648 55.5417C207.563 55.5575 207.478 55.5723 207.393 55.5861C207.309 55.598 207.232 55.6088 207.163 55.6187C207.015 55.6404 206.885 55.6749 206.775 55.7222C206.664 55.7696 206.579 55.8337 206.517 55.9146C206.456 55.9935 206.426 56.0922 206.426 56.2105C206.426 56.3822 206.488 56.5134 206.612 56.6041C206.738 56.6929 206.898 56.7373 207.092 56.7373ZM212.686 52.976V53.923H209.949V52.976H212.686ZM210.57 51.887H211.831V56.1247C211.831 56.2411 211.849 56.3319 211.884 56.397C211.92 56.4601 211.969 56.5045 212.032 56.5301C212.097 56.5558 212.172 56.5686 212.257 56.5686C212.316 56.5686 212.375 56.5637 212.435 56.5538C212.494 56.542 212.539 56.5331 212.571 56.5272L212.769 57.4653C212.706 57.485 212.617 57.5077 212.503 57.5333C212.388 57.5609 212.249 57.5777 212.085 57.5836C211.782 57.5955 211.515 57.555 211.286 57.4623C211.059 57.3696 210.883 57.2256 210.757 57.0302C210.63 56.8349 210.568 56.5883 210.57 56.2904V51.887Z" fill="#939393"/>
<line opacity="0.5" x1="26.9123" y1="209.959" x2="26.9123" y2="91.262" stroke="#B1B1B1" stroke-width="0.416667"/>
<line opacity="0.5" x1="134.671" y1="209.959" x2="134.671" y2="91.262" stroke="#B1B1B1" stroke-width="0.416667"/>
<line opacity="0.5" x1="63.6994" y1="209.959" x2="63.6994" y2="91.262" stroke="#B1B1B1" stroke-width="0.416667"/>
<line x1="171.458" y1="209.959" x2="171.458" y2="91.262" stroke="#001DFF" stroke-width="0.416667"/>
<line opacity="0.5" x1="100.486" y1="209.959" x2="100.486" y2="91.262" stroke="#B1B1B1" stroke-width="0.416667"/>
<line opacity="0.5" x1="208.245" y1="209.959" x2="208.245" y2="91.262" stroke="#B1B1B1" stroke-width="0.416667"/>
<path d="M75.8988 29.6019C75.8988 30.395 75.7485 31.0697 75.4478 31.6261C75.1495 32.1824 74.7424 32.6074 74.2263 32.9009C73.7125 33.1921 73.1349 33.3377 72.4933 33.3377C71.847 33.3377 71.267 33.1909 70.7532 32.8974C70.2395 32.6038 69.8335 32.1789 69.5352 31.6225C69.2369 31.0662 69.0878 30.3926 69.0878 29.6019C69.0878 28.8088 69.2369 28.1341 69.5352 27.5778C69.8335 27.0214 70.2395 26.5977 70.7532 26.3065C71.267 26.0129 71.847 25.8661 72.4933 25.8661C73.1349 25.8661 73.7125 26.0129 74.2263 26.3065C74.7424 26.5977 75.1495 27.0214 75.4478 27.5778C75.7485 28.1341 75.8988 28.8088 75.8988 29.6019ZM74.3399 29.6019C74.3399 29.0882 74.2629 28.6549 74.1091 28.3022C73.9575 27.9495 73.7433 27.6819 73.4663 27.4996C73.1893 27.3174 72.865 27.2262 72.4933 27.2262C72.1216 27.2262 71.7973 27.3174 71.5203 27.4996C71.2433 27.6819 71.0279 27.9495 70.874 28.3022C70.7225 28.6549 70.6467 29.0882 70.6467 29.6019C70.6467 30.1156 70.7225 30.5489 70.874 30.9016C71.0279 31.2544 71.2433 31.5219 71.5203 31.7042C71.7973 31.8865 72.1216 31.9776 72.4933 31.9776C72.865 31.9776 73.1893 31.8865 73.4663 31.7042C73.7433 31.5219 73.9575 31.2544 74.1091 30.9016C74.2629 30.5489 74.3399 30.1156 74.3399 29.6019ZM82.0947 27.7837L80.1877 33.2383H78.4832L76.5762 27.7837H78.1742L79.307 31.6864H79.3639L80.4931 27.7837H82.0947ZM85.1788 33.3448C84.6178 33.3448 84.1348 33.2312 83.73 33.0039C83.3275 32.7743 83.0174 32.4499 82.7996 32.0309C82.5818 31.6095 82.4729 31.1112 82.4729 30.5359C82.4729 29.9748 82.5818 29.4824 82.7996 29.0586C83.0174 28.6348 83.324 28.3046 83.7193 28.0678C84.1171 27.8311 84.5834 27.7127 85.1185 27.7127C85.4783 27.7127 85.8133 27.7707 86.1234 27.8867C86.4359 28.0004 86.7082 28.172 86.9402 28.4016C87.1746 28.6313 87.3569 28.9201 87.4871 29.2681C87.6173 29.6138 87.6824 30.0186 87.6824 30.4826V30.8981H83.0766V29.9606H86.2584C86.2584 29.7428 86.211 29.5498 86.1163 29.3817C86.0216 29.2137 85.8903 29.0823 85.7222 28.9876C85.5564 28.8905 85.3635 28.842 85.1433 28.842C84.9137 28.842 84.7101 28.8952 84.5325 29.0018C84.3573 29.1059 84.22 29.2468 84.1206 29.4244C84.0212 29.5996 83.9703 29.7949 83.9679 30.0103V30.9016C83.9679 31.1715 84.0176 31.4047 84.1171 31.6012C84.2189 31.7977 84.3621 31.9492 84.5467 32.0558C84.7314 32.1623 84.9504 32.2156 85.2037 32.2156C85.3718 32.2156 85.5257 32.1919 85.6653 32.1445C85.805 32.0972 85.9246 32.0262 86.024 31.9315C86.1234 31.8368 86.1992 31.7208 86.2513 31.5835L87.6504 31.6758C87.5794 32.012 87.4338 32.3055 87.2136 32.5565C86.9958 32.805 86.7141 32.9992 86.3685 33.1388C86.0252 33.2762 85.6287 33.3448 85.1788 33.3448ZM88.6696 33.2383V27.7837H90.1362V28.7354H90.193C90.2925 28.3969 90.4594 28.1412 90.6938 27.9684C90.9281 27.7932 91.198 27.7056 91.5034 27.7056C91.5792 27.7056 91.6609 27.7103 91.7484 27.7198C91.836 27.7293 91.913 27.7423 91.9793 27.7589V29.1012C91.9082 29.0799 91.81 29.061 91.6845 29.0444C91.5591 29.0278 91.4442 29.0195 91.3401 29.0195C91.1175 29.0195 90.9187 29.0681 90.7435 29.1651C90.5707 29.2598 90.4333 29.3924 90.3315 29.5629C90.2321 29.7333 90.1824 29.9298 90.1824 30.1523V33.2383H88.6696ZM94.1606 33.3413C93.8125 33.3413 93.5024 33.2809 93.2302 33.1602C92.9579 33.0371 92.7425 32.8559 92.5839 32.6168C92.4276 32.3754 92.3495 32.0747 92.3495 31.7148C92.3495 31.4118 92.4051 31.1573 92.5164 30.9513C92.6276 30.7454 92.7792 30.5797 92.9709 30.4542C93.1627 30.3287 93.3805 30.234 93.6243 30.1701C93.8705 30.1062 94.1286 30.0612 94.3985 30.0352C94.7157 30.002 94.9714 29.9712 95.1655 29.9428C95.3597 29.9121 95.5005 29.8671 95.5881 29.8079C95.6757 29.7487 95.7195 29.6611 95.7195 29.5451V29.5238C95.7195 29.2989 95.6485 29.1249 95.5064 29.0018C95.3668 28.8787 95.1679 28.8171 94.9098 28.8171C94.6376 28.8171 94.421 28.8775 94.26 28.9982C94.099 29.1166 93.9925 29.2657 93.9404 29.4457L92.5412 29.332C92.6123 29.0006 92.7519 28.7141 92.9603 28.4727C93.1686 28.2288 93.4373 28.0418 93.7664 27.9116C94.0978 27.779 94.4813 27.7127 94.9169 27.7127C95.22 27.7127 95.51 27.7482 95.787 27.8192C96.0663 27.8903 96.3137 28.0004 96.5292 28.1495C96.747 28.2987 96.9186 28.4904 97.0441 28.7248C97.1696 28.9568 97.2323 29.235 97.2323 29.5593V33.2383H95.7976V32.4819H95.755C95.6674 32.6523 95.5502 32.8027 95.4035 32.9329C95.2567 33.0607 95.0803 33.1613 94.8743 33.2347C94.6684 33.3058 94.4304 33.3413 94.1606 33.3413ZM94.5938 32.2972C94.8163 32.2972 95.0128 32.2534 95.1833 32.1658C95.3537 32.0759 95.4875 31.9551 95.5846 31.8036C95.6816 31.6521 95.7302 31.4805 95.7302 31.2887V30.7099C95.6828 30.7406 95.6177 30.7691 95.5348 30.7951C95.4544 30.8188 95.3632 30.8413 95.2614 30.8626C95.1596 30.8815 95.0578 30.8993 94.956 30.9158C94.8542 30.93 94.7619 30.9431 94.679 30.9549C94.5015 30.9809 94.3464 31.0224 94.2138 31.0792C94.0812 31.136 93.9783 31.2129 93.9049 31.31C93.8315 31.4047 93.7948 31.5231 93.7948 31.6651C93.7948 31.8711 93.8694 32.0285 94.0185 32.1374C94.17 32.244 94.3618 32.2972 94.5938 32.2972ZM99.9187 25.9656V33.2383H98.4059V25.9656H99.9187ZM102.643 25.9656V33.2383H101.131V25.9656H102.643ZM106.198 33.2383V25.9656H109.067C109.619 25.9656 110.089 26.0709 110.477 26.2816C110.865 26.4899 111.161 26.7799 111.365 27.1516C111.571 27.521 111.674 27.9471 111.674 28.43C111.674 28.913 111.57 29.3391 111.361 29.7085C111.153 30.0778 110.851 30.3654 110.456 30.5714C110.063 30.7773 109.587 30.8803 109.028 30.8803H107.199V29.6481H108.78C109.076 29.6481 109.319 29.5972 109.511 29.4954C109.705 29.3912 109.85 29.248 109.944 29.0657C110.042 28.881 110.09 28.6692 110.09 28.43C110.09 28.1886 110.042 27.9779 109.944 27.7979C109.85 27.6156 109.705 27.4748 109.511 27.3754C109.317 27.2736 109.071 27.2227 108.773 27.2227H107.736V33.2383H106.198ZM115.042 33.3448C114.481 33.3448 113.998 33.2312 113.593 33.0039C113.191 32.7743 112.881 32.4499 112.663 32.0309C112.445 31.6095 112.336 31.1112 112.336 30.5359C112.336 29.9748 112.445 29.4824 112.663 29.0586C112.881 28.6348 113.187 28.3046 113.583 28.0678C113.98 27.8311 114.447 27.7127 114.982 27.7127C115.342 27.7127 115.677 27.7707 115.987 27.8867C116.299 28.0004 116.571 28.172 116.803 28.4016C117.038 28.6313 117.22 28.9201 117.35 29.2681C117.481 29.6138 117.546 30.0186 117.546 30.4826V30.8981H112.94V29.9606H116.122C116.122 29.7428 116.074 29.5498 115.98 29.3817C115.885 29.2137 115.754 29.0823 115.585 28.9876C115.42 28.8905 115.227 28.842 115.007 28.842C114.777 28.842 114.573 28.8952 114.396 29.0018C114.221 29.1059 114.083 29.2468 113.984 29.4244C113.884 29.5996 113.834 29.7949 113.831 30.0103V30.9016C113.831 31.1715 113.881 31.4047 113.98 31.6012C114.082 31.7977 114.225 31.9492 114.41 32.0558C114.595 32.1623 114.814 32.2156 115.067 32.2156C115.235 32.2156 115.389 32.1919 115.529 32.1445C115.668 32.0972 115.788 32.0262 115.887 31.9315C115.987 31.8368 116.062 31.7208 116.115 31.5835L117.514 31.6758C117.443 32.012 117.297 32.3055 117.077 32.5565C116.859 32.805 116.577 32.9992 116.232 33.1388C115.888 33.2762 115.492 33.3448 115.042 33.3448ZM118.533 33.2383V27.7837H120V28.7354H120.056C120.156 28.3969 120.323 28.1412 120.557 27.9684C120.791 27.7932 121.061 27.7056 121.367 27.7056C121.442 27.7056 121.524 27.7103 121.612 27.7198C121.699 27.7293 121.776 27.7423 121.843 27.7589V29.1012C121.772 29.0799 121.673 29.061 121.548 29.0444C121.422 29.0278 121.308 29.0195 121.203 29.0195C120.981 29.0195 120.782 29.0681 120.607 29.1651C120.434 29.2598 120.297 29.3924 120.195 29.5629C120.095 29.7333 120.046 29.9298 120.046 30.1523V33.2383H118.533ZM125.831 27.7837V28.9201H122.465V27.7837H125.831ZM123.235 33.2383V27.3896C123.235 26.9942 123.312 26.6663 123.466 26.4059C123.623 26.1455 123.836 25.9502 124.106 25.82C124.375 25.6897 124.682 25.6246 125.025 25.6246C125.257 25.6246 125.469 25.6424 125.661 25.6779C125.855 25.7134 125.999 25.7454 126.094 25.7738L125.824 26.9102C125.765 26.8912 125.692 26.8735 125.604 26.8569C125.519 26.8403 125.431 26.832 125.341 26.832C125.119 26.832 124.964 26.8841 124.876 26.9883C124.789 27.0901 124.745 27.2333 124.745 27.418V33.2383H123.235ZM129.025 33.3448C128.473 33.3448 127.996 33.2276 127.594 32.9933C127.194 32.7565 126.885 32.4274 126.667 32.006C126.449 31.5823 126.34 31.091 126.34 30.5323C126.34 29.9689 126.449 29.4764 126.667 29.055C126.885 28.6313 127.194 28.3022 127.594 28.0678C127.996 27.8311 128.473 27.7127 129.025 27.7127C129.576 27.7127 130.052 27.8311 130.452 28.0678C130.855 28.3022 131.165 28.6313 131.383 29.055C131.6 29.4764 131.709 29.9689 131.709 30.5323C131.709 31.091 131.6 31.5823 131.383 32.006C131.165 32.4274 130.855 32.7565 130.452 32.9933C130.052 33.2276 129.576 33.3448 129.025 33.3448ZM129.032 32.1729C129.283 32.1729 129.492 32.1019 129.66 31.9599C129.828 31.8155 129.955 31.619 130.04 31.3704C130.128 31.1218 130.172 30.8389 130.172 30.5217C130.172 30.2044 130.128 29.9215 130.04 29.6729C129.955 29.4244 129.828 29.2279 129.66 29.0835C129.492 28.939 129.283 28.8668 129.032 28.8668C128.779 28.8668 128.565 28.939 128.393 29.0835C128.222 29.2279 128.093 29.4244 128.006 29.6729C127.92 29.9215 127.878 30.2044 127.878 30.5217C127.878 30.8389 127.92 31.1218 128.006 31.3704C128.093 31.619 128.222 31.8155 128.393 31.9599C128.565 32.1019 128.779 32.1729 129.032 32.1729ZM132.693 33.2383V27.7837H134.16V28.7354H134.216C134.316 28.3969 134.483 28.1412 134.717 27.9684C134.952 27.7932 135.221 27.7056 135.527 27.7056C135.603 27.7056 135.684 27.7103 135.772 27.7198C135.859 27.7293 135.936 27.7423 136.003 27.7589V29.1012C135.932 29.0799 135.833 29.061 135.708 29.0444C135.582 29.0278 135.468 29.0195 135.364 29.0195C135.141 29.0195 134.942 29.0681 134.767 29.1651C134.594 29.2598 134.457 29.3924 134.355 29.5629C134.256 29.7333 134.206 29.9298 134.206 30.1523V33.2383H132.693ZM136.785 33.2383V27.7837H138.227V28.7461H138.291C138.404 28.4265 138.594 28.1744 138.859 27.9897C139.124 27.805 139.441 27.7127 139.81 27.7127C140.184 27.7127 140.503 27.8062 140.766 27.9933C141.028 28.1779 141.204 28.4289 141.291 28.7461H141.348C141.459 28.4336 141.661 28.1838 141.952 27.9968C142.245 27.8074 142.592 27.7127 142.992 27.7127C143.501 27.7127 143.914 27.8749 144.232 28.1992C144.551 28.5212 144.711 28.9781 144.711 29.57V33.2383H143.202V29.8683C143.202 29.5652 143.121 29.3379 142.96 29.1864C142.799 29.0349 142.598 28.9592 142.357 28.9592C142.082 28.9592 141.868 29.0468 141.714 29.2219C141.56 29.3948 141.483 29.6232 141.483 29.9073V33.2383H140.016V29.8363C140.016 29.5688 139.939 29.3557 139.786 29.1971C139.634 29.0385 139.434 28.9592 139.185 28.9592C139.017 28.9592 138.866 29.0018 138.731 29.087C138.598 29.1699 138.493 29.2871 138.415 29.4386C138.337 29.5877 138.298 29.7629 138.298 29.9641V33.2383H136.785ZM147.461 33.3413C147.113 33.3413 146.803 33.2809 146.531 33.1602C146.259 33.0371 146.043 32.8559 145.885 32.6168C145.728 32.3754 145.65 32.0747 145.65 31.7148C145.65 31.4118 145.706 31.1573 145.817 30.9513C145.928 30.7454 146.08 30.5797 146.272 30.4542C146.463 30.3287 146.681 30.234 146.925 30.1701C147.171 30.1062 147.429 30.0612 147.699 30.0352C148.016 30.002 148.272 29.9712 148.466 29.9428C148.66 29.9121 148.801 29.8671 148.889 29.8079C148.976 29.7487 149.02 29.6611 149.02 29.5451V29.5238C149.02 29.2989 148.949 29.1249 148.807 29.0018C148.668 28.8787 148.469 28.8171 148.211 28.8171C147.938 28.8171 147.722 28.8775 147.561 28.9982C147.4 29.1166 147.293 29.2657 147.241 29.4457L145.842 29.332C145.913 29.0006 146.053 28.7141 146.261 28.4727C146.469 28.2288 146.738 28.0418 147.067 27.9116C147.399 27.779 147.782 27.7127 148.218 27.7127C148.521 27.7127 148.811 27.7482 149.088 27.8192C149.367 27.8903 149.615 28.0004 149.83 28.1495C150.048 28.2987 150.219 28.4904 150.345 28.7248C150.47 28.9568 150.533 29.235 150.533 29.5593V33.2383H149.098V32.4819H149.056C148.968 32.6523 148.851 32.8027 148.704 32.9329C148.557 33.0607 148.381 33.1613 148.175 33.2347C147.969 33.3058 147.731 33.3413 147.461 33.3413ZM147.895 32.2972C148.117 32.2972 148.314 32.2534 148.484 32.1658C148.655 32.0759 148.788 31.9551 148.885 31.8036C148.982 31.6521 149.031 31.4805 149.031 31.2887V30.7099C148.984 30.7406 148.918 30.7691 148.836 30.7951C148.755 30.8188 148.664 30.8413 148.562 30.8626C148.46 30.8815 148.359 30.8993 148.257 30.9158C148.155 30.93 148.063 30.9431 147.98 30.9549C147.802 30.9809 147.647 31.0224 147.515 31.0792C147.382 31.136 147.279 31.2129 147.206 31.31C147.132 31.4047 147.096 31.5231 147.096 31.6651C147.096 31.8711 147.17 32.0285 147.319 32.1374C147.471 32.244 147.663 32.2972 147.895 32.2972ZM153.22 30.0849V33.2383H151.707V27.7837H153.148V28.7461H153.212C153.333 28.4289 153.536 28.1779 153.82 27.9933C154.104 27.8062 154.448 27.7127 154.853 27.7127C155.232 27.7127 155.562 27.7956 155.844 27.9613C156.126 28.127 156.345 28.3638 156.501 28.6715C156.657 28.9769 156.735 29.3415 156.735 29.7653V33.2383H155.222V30.0352C155.225 29.7013 155.139 29.4409 154.967 29.2539C154.794 29.0645 154.556 28.9698 154.253 28.9698C154.049 28.9698 153.869 29.0136 153.713 29.1012C153.559 29.1888 153.438 29.3166 153.351 29.4847C153.266 29.6504 153.222 29.8505 153.22 30.0849ZM160.392 33.3448C159.833 33.3448 159.353 33.2264 158.95 32.9897C158.55 32.7506 158.242 32.4192 158.027 31.9954C157.814 31.5716 157.707 31.0839 157.707 30.5323C157.707 29.9736 157.815 29.4835 158.03 29.0621C158.248 28.6384 158.557 28.3081 158.957 28.0714C159.357 27.8323 159.833 27.7127 160.385 27.7127C160.861 27.7127 161.277 27.7991 161.635 27.9719C161.992 28.1448 162.275 28.3874 162.484 28.6999C162.692 29.0124 162.807 29.3794 162.828 29.8008H161.4C161.36 29.5285 161.254 29.3095 161.081 29.1438C160.91 28.9757 160.687 28.8917 160.41 28.8917C160.175 28.8917 159.971 28.9556 159.795 29.0835C159.622 29.2089 159.488 29.3924 159.39 29.6339C159.293 29.8754 159.245 30.1677 159.245 30.511C159.245 30.859 159.292 31.1549 159.387 31.3988C159.484 31.6426 159.62 31.8285 159.795 31.9563C159.971 32.0842 160.175 32.1481 160.41 32.1481C160.582 32.1481 160.738 32.1126 160.875 32.0415C161.015 31.9705 161.129 31.8675 161.219 31.7326C161.312 31.5953 161.372 31.4308 161.4 31.239H162.828C162.804 31.6557 162.691 32.0226 162.487 32.3398C162.286 32.6547 162.008 32.9009 161.653 33.0785C161.297 33.256 160.877 33.3448 160.392 33.3448ZM166.282 33.3448C165.721 33.3448 165.238 33.2312 164.833 33.0039C164.431 32.7743 164.121 32.4499 163.903 32.0309C163.685 31.6095 163.576 31.1112 163.576 30.5359C163.576 29.9748 163.685 29.4824 163.903 29.0586C164.121 28.6348 164.427 28.3046 164.823 28.0678C165.221 27.8311 165.687 27.7127 166.222 27.7127C166.582 27.7127 166.917 27.7707 167.227 27.8867C167.539 28.0004 167.812 28.172 168.044 28.4016C168.278 28.6313 168.46 28.9201 168.591 29.2681C168.721 29.6138 168.786 30.0186 168.786 30.4826V30.8981H164.18V29.9606H167.362C167.362 29.7428 167.315 29.5498 167.22 29.3817C167.125 29.2137 166.994 29.0823 166.826 28.9876C166.66 28.8905 166.467 28.842 166.247 28.842C166.017 28.842 165.814 28.8952 165.636 29.0018C165.461 29.1059 165.324 29.2468 165.224 29.4244C165.125 29.5996 165.074 29.7949 165.071 30.0103V30.9016C165.071 31.1715 165.121 31.4047 165.221 31.6012C165.322 31.7977 165.466 31.9492 165.65 32.0558C165.835 32.1623 166.054 32.2156 166.307 32.2156C166.475 32.2156 166.629 32.1919 166.769 32.1445C166.909 32.0972 167.028 32.0262 167.128 31.9315C167.227 31.8368 167.303 31.7208 167.355 31.5835L168.754 31.6758C168.683 32.012 168.537 32.3055 168.317 32.5565C168.099 32.805 167.818 32.9992 167.472 33.1388C167.129 33.2762 166.732 33.3448 166.282 33.3448Z" fill="#2E2E30"/>
<path d="M17.7505 109.909V208.695H194.416V128.66C190.583 122.409 181.977 109.086 178.213 105.796C173.509 101.684 171.941 112.288 164.101 128.66C157.829 141.757 150.686 134.117 147.898 128.66L134.308 118.922C131.521 124.106 125.109 132.154 121.764 122.873C118.419 113.592 110.265 110.363 106.606 109.909C102.14 113.807 91.7112 123.014 85.7272 128.66C78.2471 135.716 75.8478 127.954 69.3557 118.922C62.8636 109.889 55.8069 120.756 51.4317 122.873C47.0566 124.99 42.6815 114.688 41.6935 112.288C40.7056 109.889 34.9191 112.994 31.9553 112.288C29.5843 111.724 28.7126 104.56 25.3874 104.93L17.7505 109.909Z" fill="url(#paint0_linear_4970_565)"/>
<path d="M17.7505 109.909L25.3874 104.93C28.7126 104.56 29.5843 111.724 31.9553 112.288C34.9191 112.994 40.7056 109.889 41.6935 112.288C42.6815 114.688 47.0566 124.99 51.4317 122.873C55.8069 120.756 62.8636 109.889 69.3557 118.922C75.8478 127.954 78.2471 135.716 85.7272 128.66C91.7112 123.014 102.14 113.807 106.606 109.909C110.265 110.363 118.419 113.592 121.764 122.873C125.109 132.154 131.521 124.106 134.308 118.922L147.898 128.66C150.686 134.117 157.829 141.757 164.101 128.66C171.941 112.288 173.509 101.684 178.213 105.796C181.977 109.086 190.583 122.409 194.416 128.66" stroke="#001DFF" stroke-width="0.833333"/>
<circle cx="171.829" cy="75.9845" r="1.36832" fill="#344BFD"/>
<g filter="url(#filter1_d_4970_565)">
<rect x="113.167" y="86.5996" width="108.137" height="15.3619" rx="4.16667" fill="white"/>
</g>
<path d="M120.287 95.3809V94.3718L122.817 90.3857H123.687V91.7825H123.172L121.577 94.3067V94.3541H125.173V95.3809H120.287ZM123.196 96.4463V95.0732L123.22 94.6263V90.3857H124.421V96.4463H123.196ZM128.24 96.5291C127.822 96.5291 127.449 96.4522 127.122 96.2983C126.796 96.1444 126.538 95.9324 126.346 95.6621C126.155 95.3918 126.055 95.0821 126.047 94.7329H127.29C127.304 94.9676 127.403 95.158 127.586 95.304C127.77 95.45 127.988 95.523 128.24 95.523C128.441 95.523 128.619 95.4786 128.773 95.3898C128.929 95.2991 129.05 95.1738 129.137 95.014C129.226 94.8522 129.27 94.6668 129.27 94.4577C129.27 94.2446 129.225 94.0572 129.134 93.8954C129.045 93.7336 128.922 93.6074 128.764 93.5166C128.606 93.4259 128.426 93.3795 128.223 93.3775C128.045 93.3775 127.872 93.414 127.705 93.487C127.539 93.56 127.41 93.6596 127.317 93.7859L126.178 93.5817L126.465 90.3857H130.17V91.4333H127.521L127.364 92.9514H127.4C127.506 92.8014 127.667 92.6772 127.882 92.5785C128.097 92.4799 128.338 92.4305 128.604 92.4305C128.969 92.4305 129.295 92.5164 129.581 92.688C129.867 92.8596 130.093 93.0954 130.258 93.3953C130.424 93.6932 130.506 94.0364 130.504 94.4251C130.506 94.8335 130.411 95.1965 130.22 95.5141C130.031 95.8298 129.765 96.0784 129.424 96.2599C129.085 96.4394 128.69 96.5291 128.24 96.5291ZM133.774 96.5795C133.265 96.5775 132.827 96.4522 132.46 96.2036C132.095 95.955 131.814 95.595 131.617 95.1235C131.421 94.652 131.325 94.0848 131.327 93.4219C131.327 92.761 131.424 92.1977 131.62 91.7322C131.817 91.2666 132.098 90.9124 132.463 90.6698C132.83 90.4251 133.267 90.3028 133.774 90.3028C134.281 90.3028 134.717 90.4251 135.082 90.6698C135.449 90.9144 135.731 91.2695 135.928 91.7351C136.126 92.1987 136.223 92.761 136.221 93.4219C136.221 94.0868 136.123 94.6549 135.926 95.1265C135.73 95.598 135.45 95.958 135.085 96.2066C134.72 96.4552 134.283 96.5795 133.774 96.5795ZM133.774 95.5171C134.121 95.5171 134.399 95.3425 134.606 94.9933C134.813 94.6441 134.915 94.1203 134.913 93.4219C134.913 92.9622 134.866 92.5795 134.771 92.2737C134.679 91.9679 134.546 91.7381 134.375 91.5842C134.205 91.4303 134.005 91.3534 133.774 91.3534C133.429 91.3534 133.153 91.526 132.946 91.8712C132.738 92.2165 132.634 92.7334 132.632 93.4219C132.632 93.8875 132.678 94.2762 132.771 94.5879C132.866 94.8976 132.999 95.1304 133.17 95.2863C133.342 95.4401 133.543 95.5171 133.774 95.5171ZM139.511 96.5795C139.002 96.5775 138.564 96.4522 138.198 96.2036C137.833 95.955 137.551 95.595 137.354 95.1235C137.159 94.652 137.062 94.0848 137.064 93.4219C137.064 92.761 137.162 92.1977 137.357 91.7322C137.554 91.2666 137.835 90.9124 138.2 90.6698C138.567 90.4251 139.004 90.3028 139.511 90.3028C140.018 90.3028 140.454 90.4251 140.819 90.6698C141.186 90.9144 141.468 91.2695 141.666 91.7351C141.863 92.1987 141.961 92.761 141.959 93.4219C141.959 94.0868 141.86 94.6549 141.663 95.1265C141.468 95.598 141.187 95.958 140.822 96.2066C140.457 96.4552 140.02 96.5795 139.511 96.5795ZM139.511 95.5171C139.859 95.5171 140.136 95.3425 140.343 94.9933C140.55 94.6441 140.653 94.1203 140.651 93.4219C140.651 92.9622 140.603 92.5795 140.509 92.2737C140.416 91.9679 140.284 91.7381 140.112 91.5842C139.942 91.4303 139.742 91.3534 139.511 91.3534C139.166 91.3534 138.89 91.526 138.683 91.8712C138.476 92.2165 138.371 92.7334 138.369 93.4219C138.369 93.8875 138.416 94.2762 138.508 94.5879C138.603 94.8976 138.736 95.1304 138.908 95.2863C139.079 95.4401 139.281 95.5171 139.511 95.5171ZM143.621 95.742C143.426 95.742 143.258 95.6729 143.118 95.5348C142.98 95.3967 142.911 95.229 142.911 95.0318C142.911 94.8384 142.98 94.6727 143.118 94.5346C143.258 94.3965 143.426 94.3274 143.621 94.3274C143.811 94.3274 143.976 94.3965 144.118 94.5346C144.26 94.6727 144.331 94.8384 144.331 95.0318C144.331 95.162 144.298 95.2813 144.231 95.3898C144.166 95.4964 144.08 95.5822 143.973 95.6473C143.867 95.7104 143.749 95.742 143.621 95.742ZM143.621 92.7679C143.426 92.7679 143.258 92.6989 143.118 92.5608C142.98 92.4227 142.911 92.255 142.911 92.0577C142.911 91.8643 142.98 91.6996 143.118 91.5635C143.258 91.4254 143.426 91.3563 143.621 91.3563C143.811 91.3563 143.976 91.4254 144.118 91.5635C144.26 91.6996 144.331 91.8643 144.331 92.0577C144.331 92.1899 144.298 92.3102 144.231 92.4187C144.166 92.5252 144.08 92.6101 143.973 92.6732C143.867 92.7363 143.749 92.7679 143.621 92.7679Z" fill="#344BFD"/>
<path d="M147.319 96.4463V90.3857H148.6V95.3898H151.198V96.4463H147.319ZM154.077 96.5351C153.617 96.5351 153.22 96.4374 152.884 96.2421C152.551 96.0448 152.294 95.7706 152.112 95.4194C151.931 95.0663 151.84 94.6569 151.84 94.1913C151.84 93.7218 151.931 93.3114 152.112 92.9603C152.294 92.6071 152.551 92.3329 152.884 92.1376C153.22 91.9403 153.617 91.8416 154.077 91.8416C154.537 91.8416 154.933 91.9403 155.267 92.1376C155.602 92.3329 155.86 92.6071 156.042 92.9603C156.223 93.3114 156.314 93.7218 156.314 94.1913C156.314 94.6569 156.223 95.0663 156.042 95.4194C155.86 95.7706 155.602 96.0448 155.267 96.2421C154.933 96.4374 154.537 96.5351 154.077 96.5351ZM154.083 95.5585C154.292 95.5585 154.467 95.4993 154.607 95.3809C154.747 95.2606 154.852 95.0969 154.923 94.8897C154.996 94.6826 155.033 94.4468 155.033 94.1824C155.033 93.9181 154.996 93.6823 154.923 93.4752C154.852 93.268 154.747 93.1043 154.607 92.9839C154.467 92.8636 154.292 92.8034 154.083 92.8034C153.872 92.8034 153.694 92.8636 153.55 92.9839C153.408 93.1043 153.301 93.268 153.228 93.4752C153.157 93.6823 153.121 93.9181 153.121 94.1824C153.121 94.4468 153.157 94.6826 153.228 94.8897C153.301 95.0969 153.408 95.2606 153.55 95.3809C153.694 95.4993 153.872 95.5585 154.083 95.5585ZM157.917 96.4463L156.68 91.9008H157.955L158.659 94.9548H158.701L159.435 91.9008H160.687L161.432 94.9371H161.471L162.163 91.9008H163.436L162.202 96.4463H160.867L160.086 93.5876H160.03L159.248 96.4463H157.917ZM169.819 93.197L168.665 93.268C168.645 93.1694 168.603 93.0806 168.538 93.0017C168.472 92.9208 168.387 92.8567 168.28 92.8093C168.176 92.76 168.05 92.7354 167.904 92.7354C167.709 92.7354 167.544 92.7768 167.41 92.8596C167.276 92.9405 167.209 93.049 167.209 93.1852C167.209 93.2937 167.252 93.3854 167.339 93.4604C167.426 93.5353 167.575 93.5955 167.786 93.6409L168.609 93.8066C169.05 93.8974 169.38 94.0434 169.597 94.2446C169.814 94.4458 169.922 94.7102 169.922 95.0377C169.922 95.3356 169.835 95.597 169.659 95.8219C169.485 96.0468 169.247 96.2224 168.943 96.3486C168.641 96.4729 168.293 96.5351 167.898 96.5351C167.297 96.5351 166.817 96.4098 166.46 96.1592C166.105 95.9067 165.897 95.5634 165.836 95.1294L167.076 95.0643C167.113 95.2478 167.204 95.3879 167.348 95.4845C167.492 95.5792 167.676 95.6266 167.901 95.6266C168.122 95.6266 168.3 95.5842 168.434 95.4993C168.57 95.4125 168.639 95.301 168.641 95.1649C168.639 95.0505 168.591 94.9568 168.496 94.8838C168.401 94.8088 168.255 94.7516 168.058 94.7122L167.271 94.5553C166.827 94.4665 166.497 94.3126 166.28 94.0937C166.065 93.8747 165.957 93.5955 165.957 93.2562C165.957 92.9642 166.036 92.7127 166.194 92.5016C166.354 92.2905 166.577 92.1277 166.866 92.0133C167.156 91.8989 167.495 91.8416 167.884 91.8416C168.458 91.8416 168.909 91.963 169.239 92.2056C169.57 92.4483 169.764 92.7788 169.819 93.197ZM172.012 96.5321C171.722 96.5321 171.464 96.4818 171.237 96.3812C171.01 96.2786 170.831 96.1277 170.699 95.9284C170.568 95.7272 170.503 95.4766 170.503 95.1768C170.503 94.9242 170.55 94.7122 170.642 94.5405C170.735 94.3689 170.861 94.2308 171.021 94.1262C171.181 94.0217 171.362 93.9427 171.566 93.8895C171.771 93.8362 171.986 93.7987 172.211 93.777C172.475 93.7494 172.688 93.7238 172.85 93.7001C173.012 93.6744 173.129 93.6369 173.202 93.5876C173.275 93.5383 173.312 93.4653 173.312 93.3686V93.3509C173.312 93.1635 173.252 93.0185 173.134 92.9159C173.018 92.8133 172.852 92.762 172.637 92.762C172.41 92.762 172.229 92.8123 172.095 92.9129C171.961 93.0116 171.872 93.1358 171.829 93.2858L170.663 93.1911C170.722 92.9149 170.839 92.6762 171.012 92.4749C171.186 92.2717 171.41 92.1159 171.684 92.0074C171.96 91.8969 172.28 91.8416 172.643 91.8416C172.895 91.8416 173.137 91.8712 173.368 91.9304C173.601 91.9896 173.807 92.0814 173.986 92.2056C174.168 92.3299 174.311 92.4897 174.415 92.685C174.52 92.8784 174.572 93.1102 174.572 93.3805V96.4463H173.377V95.816H173.341C173.268 95.958 173.171 96.0833 173.048 96.1918C172.926 96.2983 172.779 96.3822 172.607 96.4433C172.436 96.5025 172.237 96.5321 172.012 96.5321ZM172.373 95.6621C172.559 95.6621 172.723 95.6256 172.865 95.5526C173.007 95.4776 173.118 95.377 173.199 95.2507C173.28 95.1245 173.32 94.9814 173.32 94.8216V94.3393C173.281 94.3649 173.227 94.3886 173.158 94.4103C173.091 94.43 173.015 94.4488 172.93 94.4665C172.845 94.4823 172.76 94.4971 172.675 94.5109C172.591 94.5228 172.514 94.5336 172.445 94.5435C172.297 94.5652 172.167 94.5997 172.057 94.647C171.946 94.6944 171.861 94.7585 171.799 94.8394C171.738 94.9183 171.708 95.017 171.708 95.1353C171.708 95.307 171.77 95.4382 171.894 95.5289C172.02 95.6177 172.18 95.6621 172.373 95.6621ZM176.811 90.3857V96.4463H175.55V90.3857H176.811ZM179.892 96.5351C179.425 96.5351 179.022 96.4404 178.685 96.251C178.35 96.0596 178.091 95.7893 177.91 95.4401C177.728 95.089 177.637 94.6737 177.637 94.1943C177.637 93.7267 177.728 93.3164 177.91 92.9632C178.091 92.6101 178.347 92.3349 178.676 92.1376C179.007 91.9403 179.396 91.8416 179.842 91.8416C180.142 91.8416 180.421 91.89 180.679 91.9867C180.94 92.0814 181.167 92.2244 181.36 92.4157C181.555 92.6071 181.707 92.8478 181.816 93.1378C181.924 93.4259 181.979 93.7632 181.979 94.1499V94.4961H178.14V93.7149H180.792C180.792 93.5334 180.752 93.3726 180.674 93.2325C180.595 93.0924 180.485 92.9829 180.345 92.904C180.207 92.8231 180.046 92.7827 179.863 92.7827C179.671 92.7827 179.502 92.8271 179.354 92.9159C179.208 93.0027 179.093 93.1201 179.01 93.268C178.928 93.414 178.885 93.5768 178.883 93.7563V94.4991C178.883 94.724 178.925 94.9183 179.007 95.0821C179.092 95.2458 179.212 95.3721 179.366 95.4608C179.519 95.5496 179.702 95.594 179.913 95.594C180.053 95.594 180.181 95.5743 180.298 95.5348C180.414 95.4954 180.514 95.4362 180.597 95.3573C180.679 95.2784 180.743 95.1817 180.786 95.0673L181.952 95.1442C181.893 95.4244 181.771 95.669 181.588 95.8781C181.406 96.0853 181.172 96.247 180.884 96.3634C180.598 96.4779 180.267 96.5351 179.892 96.5351ZM186.583 93.197L185.429 93.268C185.409 93.1694 185.367 93.0806 185.302 93.0017C185.237 92.9208 185.151 92.8567 185.044 92.8093C184.94 92.76 184.815 92.7354 184.669 92.7354C184.473 92.7354 184.309 92.7768 184.174 92.8596C184.04 92.9405 183.973 93.049 183.973 93.1852C183.973 93.2937 184.017 93.3854 184.103 93.4604C184.19 93.5353 184.339 93.5955 184.55 93.6409L185.373 93.8066C185.815 93.8974 186.144 94.0434 186.361 94.2446C186.578 94.4458 186.687 94.7102 186.687 95.0377C186.687 95.3356 186.599 95.597 186.423 95.8219C186.25 96.0468 186.011 96.2224 185.707 96.3486C185.405 96.4729 185.057 96.5351 184.663 96.5351C184.061 96.5351 183.582 96.4098 183.224 96.1592C182.869 95.9067 182.661 95.5634 182.6 95.1294L183.84 95.0643C183.877 95.2478 183.968 95.3879 184.112 95.4845C184.256 95.5792 184.441 95.6266 184.666 95.6266C184.887 95.6266 185.064 95.5842 185.198 95.4993C185.334 95.4125 185.403 95.301 185.405 95.1649C185.403 95.0505 185.355 94.9568 185.26 94.8838C185.166 94.8088 185.02 94.7516 184.822 94.7122L184.035 94.5553C183.591 94.4665 183.261 94.3126 183.044 94.0937C182.829 93.8747 182.721 93.5955 182.721 93.2562C182.721 92.9642 182.8 92.7127 182.958 92.5016C183.118 92.2905 183.342 92.1277 183.63 92.0133C183.92 91.8989 184.259 91.8416 184.648 91.8416C185.222 91.8416 185.674 91.963 186.003 92.2056C186.335 92.4483 186.528 92.7788 186.583 93.197ZM189.409 96.4463V91.9008H190.67V96.4463H189.409ZM190.043 91.3149C189.855 91.3149 189.694 91.2528 189.56 91.1285C189.428 91.0022 189.362 90.8513 189.362 90.6757C189.362 90.5021 189.428 90.3531 189.56 90.2288C189.694 90.1026 189.855 90.0394 190.043 90.0394C190.23 90.0394 190.39 90.1026 190.522 90.2288C190.656 90.3531 190.723 90.5021 190.723 90.6757C190.723 90.8513 190.656 91.0022 190.522 91.1285C190.39 91.2528 190.23 91.3149 190.043 91.3149ZM192.94 93.8184V96.4463H191.68V91.9008H192.881V92.7028H192.935C193.035 92.4384 193.204 92.2293 193.441 92.0754C193.677 91.9196 193.964 91.8416 194.302 91.8416C194.617 91.8416 194.893 91.9107 195.127 92.0488C195.362 92.1869 195.545 92.3842 195.675 92.6407C195.805 92.8952 195.87 93.199 195.87 93.5521V96.4463H194.61V93.777C194.611 93.4988 194.54 93.2818 194.396 93.126C194.252 92.9681 194.054 92.8892 193.802 92.8892C193.632 92.8892 193.482 92.9257 193.352 92.9987C193.224 93.0717 193.123 93.1783 193.05 93.3183C192.979 93.4564 192.942 93.6231 192.94 93.8184ZM198.816 90.3857H200.396L202.065 94.4577H202.136L203.805 90.3857H205.386V96.4463H204.143V92.5016H204.093L202.524 96.4167H201.678L200.109 92.4868H200.059V96.4463H198.816V90.3857ZM207.714 96.5321C207.424 96.5321 207.166 96.4818 206.939 96.3812C206.712 96.2786 206.532 96.1277 206.4 95.9284C206.27 95.7272 206.205 95.4766 206.205 95.1768C206.205 94.9242 206.251 94.7122 206.344 94.5405C206.437 94.3689 206.563 94.2308 206.723 94.1262C206.882 94.0217 207.064 93.9427 207.267 93.8895C207.472 93.8362 207.687 93.7987 207.912 93.777C208.177 93.7494 208.39 93.7238 208.551 93.7001C208.713 93.6744 208.831 93.6369 208.904 93.5876C208.977 93.5383 209.013 93.4653 209.013 93.3686V93.3509C209.013 93.1635 208.954 93.0185 208.836 92.9159C208.719 92.8133 208.553 92.762 208.338 92.762C208.111 92.762 207.931 92.8123 207.797 92.9129C207.663 93.0116 207.574 93.1358 207.53 93.2858L206.365 93.1911C206.424 92.9149 206.54 92.6762 206.714 92.4749C206.887 92.2717 207.111 92.1159 207.385 92.0074C207.662 91.8969 207.981 91.8416 208.344 91.8416C208.597 91.8416 208.838 91.8712 209.069 91.9304C209.302 91.9896 209.508 92.0814 209.688 92.2056C209.869 92.3299 210.012 92.4897 210.117 92.685C210.221 92.8784 210.274 93.1102 210.274 93.3805V96.4463H209.078V95.816H209.043C208.97 95.958 208.872 96.0833 208.75 96.1918C208.627 96.2983 208.48 96.3822 208.309 96.4433C208.137 96.5025 207.939 96.5321 207.714 96.5321ZM208.075 95.6621C208.26 95.6621 208.424 95.6256 208.566 95.5526C208.708 95.4776 208.82 95.377 208.901 95.2507C208.982 95.1245 209.022 94.9814 209.022 94.8216V94.3393C208.982 94.3649 208.928 94.3886 208.859 94.4103C208.792 94.43 208.716 94.4488 208.631 94.4665C208.546 94.4823 208.462 94.4971 208.377 94.5109C208.292 94.5228 208.215 94.5336 208.146 94.5435C207.998 94.5652 207.869 94.5997 207.758 94.647C207.648 94.6944 207.562 94.7585 207.501 94.8394C207.44 94.9183 207.409 95.017 207.409 95.1353C207.409 95.307 207.471 95.4382 207.596 95.5289C207.722 95.6177 207.882 95.6621 208.075 95.6621ZM211.867 98.1508C211.708 98.1508 211.558 98.138 211.417 98.1124C211.279 98.0887 211.165 98.0581 211.074 98.0206L211.358 97.0796C211.506 97.125 211.639 97.1496 211.758 97.1536C211.878 97.1575 211.982 97.1299 212.069 97.0707C212.157 97.0115 212.229 96.9109 212.285 96.7689L212.359 96.5765L210.728 91.9008H212.054L212.995 95.2389H213.042L213.992 91.9008H215.327L213.56 96.9375C213.475 97.1822 213.36 97.3952 213.214 97.5767C213.07 97.7602 212.887 97.9013 212.666 97.9999C212.445 98.1005 212.179 98.1508 211.867 98.1508Z" fill="#848484"/>
</g>
<defs>
<filter id="filter0_d_4970_565" x="0.666667" y="0.333659" width="236.667" height="290" filterUnits="userSpaceOnUse" color-interpolation-filters="sRGB">
<feFlood flood-opacity="0" result="BackgroundImageFix"/>
<feColorMatrix in="SourceAlpha" type="matrix" values="0 0 0 0 0 0 0 0 0 0 0 0 0 0 0 0 0 0 127 0" result="hardAlpha"/>
<feOffset/>
<feGaussianBlur stdDeviation="1.66667"/>
<feComposite in2="hardAlpha" operator="out"/>
<feColorMatrix type="matrix" values="0 0 0 0 0 0 0 0 0 0 0 0 0 0 0 0 0 0 0.25 0"/>
<feBlend mode="normal" in2="BackgroundImageFix" result="effect1_dropShadow_4970_565"/>
<feBlend mode="normal" in="SourceGraphic" in2="effect1_dropShadow_4970_565" result="shape"/>
</filter>
<filter id="filter1_d_4970_565" x="111.5" y="84.9329" width="111.471" height="18.6956" filterUnits="userSpaceOnUse" color-interpolation-filters="sRGB">
<feFlood flood-opacity="0" result="BackgroundImageFix"/>
<feColorMatrix in="SourceAlpha" type="matrix" values="0 0 0 0 0 0 0 0 0 0 0 0 0 0 0 0 0 0 127 0" result="hardAlpha"/>
<feOffset/>
<feGaussianBlur stdDeviation="0.833333"/>
<feComposite in2="hardAlpha" operator="out"/>
<feColorMatrix type="matrix" values="0 0 0 0 0 0 0 0 0 0 0 0 0 0 0 0 0 0 0.25 0"/>
<feBlend mode="normal" in2="BackgroundImageFix" result="effect1_dropShadow_4970_565"/>
<feBlend mode="normal" in="SourceGraphic" in2="effect1_dropShadow_4970_565" result="shape"/>
</filter>
<linearGradient id="paint0_linear_4970_565" x1="106.083" y1="104.908" x2="106.083" y2="208.695" gradientUnits="userSpaceOnUse">
<stop stop-color="#ADB7F9"/>
<stop offset="1" stop-color="#B1B9F8" stop-opacity="0"/>
</linearGradient>
</defs>
</svg>
